M48
; DRILL file {KiCad 9.0.4-9.0.4-0~ubuntu24.04.1} date 2025-09-23T22:40:13-0300
; FORMAT={-:-/ absolute / metric / decimal}
; #@! TF.CreationDate,2025-09-23T22:40:13-03:00
; #@! TF.GenerationSoftware,Kicad,Pcbnew,9.0.4-9.0.4-0~ubuntu24.04.1
; #@! TF.FileFunction,Plated,1,2,PTH
FMAT,2
METRIC
; #@! TA.AperFunction,Plated,PTH,ViaDrill
T1C0.300
; #@! TA.AperFunction,Plated,PTH,ComponentDrill
T2C0.600
; #@! TA.AperFunction,Plated,PTH,ComponentDrill
T3C0.750
; #@! TA.AperFunction,Plated,PTH,ComponentDrill
T4C0.800
; #@! TA.AperFunction,Plated,PTH,ComponentDrill
T5C0.900
; #@! TA.AperFunction,Plated,PTH,ComponentDrill
T6C1.000
; #@! TA.AperFunction,Plated,PTH,ComponentDrill
T7C1.100
; #@! TA.AperFunction,Plated,PTH,ComponentDrill
T8C1.190
; #@! TA.AperFunction,Plated,PTH,ComponentDrill
T9C1.200
%
G90
G05
T1
X19.645Y-71.25
X33.967Y-80.95
X35.999Y-106.604
X36.507Y-139.116
X36.55Y-84.75
X37.703Y-147.756
X37.967Y-79.576
X38.585Y-79.068
X39.301Y-76.632
X39.301Y-79.426
X39.901Y-92.126
X40.063Y-117.78
X40.095Y-75.377
X40.317Y-86.03
X40.557Y-127.686
X40.683Y-159.728
X40.7Y-137.084
X40.806Y-99.461
X42.095Y-115.24
X43.0Y-42.6
X43.261Y-142.2
X44.289Y-146.482
X44.963Y-77.415
X45.0Y-73.584
X45.235Y-144.594
X45.359Y-78.111
X45.661Y-139.878
X45.743Y-145.212
X45.905Y-141.656
X46.159Y-78.111
X46.215Y-140.478
X46.938Y-140.986
X47.683Y-177.546
X47.703Y-152.328
X48.4Y-83.7
X48.445Y-139.116
X49.3Y-72.06
X49.876Y-82.7
X49.984Y-83.744
X50.223Y-136.576
X50.223Y-147.752
X50.477Y-80.188
X51.239Y-80.442
X51.262Y-178.296
X52.1Y-153.928
X52.255Y-80.026
X52.7Y-79.311
X53.017Y-77.902
X53.393Y-170.511
X53.628Y-78.711
X53.761Y-77.5
X53.794Y-167.971
X54.033Y-76.3
X54.195Y-165.431
X54.561Y-162.891
X56.271Y-126.521
X56.372Y-74.762
X56.989Y-77.11
X56.989Y-119.358
X57.589Y-75.962
X57.751Y-121.844
X58.513Y-124.384
X58.859Y-75.27
X59.113Y-99.238
X59.113Y-174.168
X59.875Y-155.828
X59.95Y-43.7
X60.637Y-98.222
X60.95Y-166.6
X61.2Y-148.55
X61.976Y-162.35
X62.261Y-93.228
X62.261Y-99.728
X62.577Y-146.99
X62.577Y-164.8
X62.861Y-85.8
X63.685Y-143.942
X63.939Y-144.704
X64.361Y-107.728
X64.459Y-123.334
X65.209Y-139.116
X66.261Y-100.428
X67.5Y-45.75
X67.749Y-139.878
X68.349Y-140.952
X68.676Y-172.924
X69.55Y-68.1
X69.65Y-72.7
X70.797Y-177.546
X72.45Y-63.05
X73.2Y-68.4
X73.2Y-121.4
X73.337Y-147.752
X75.25Y-74.55
X75.623Y-81.712
X75.623Y-141.552
X75.725Y-68.075
X76.385Y-90.856
X76.385Y-142.164
X76.385Y-164.008
X76.893Y-167.31
X76.985Y-142.73
X77.461Y-108.839
X77.47Y-111.379
X77.655Y-169.596
X77.752Y-143.33
X78.65Y-68.3
X78.671Y-135.56
X79.179Y-177.546
X79.687Y-139.116
X81.0Y-67.85
X81.3Y-80.627
X82.227Y-123.622
X82.735Y-156.388
X83.336Y-172.45
X84.259Y-177.546
X85.6Y-85.8
X85.8Y-65.26
X85.95Y-73.584
X86.799Y-147.752
X87.65Y-113.3
X88.36Y-66.35
X88.45Y-49.5
X88.504Y-170.358
X88.63Y-134.751
X89.254Y-161.9
X89.608Y-155.728
X89.939Y-93.528
X90.009Y-149.53
X90.355Y-134.29
X91.15Y-48.986
X91.8Y-66.35
X92.387Y-146.482
X92.4Y-177.546
X92.895Y-139.116
X93.35Y-50.25
X93.4Y-72.75
X93.403Y-94.158
X93.95Y-66.01
X94.165Y-172.898
X94.765Y-165.728
X95.161Y-155.028
X95.161Y-159.928
X95.435Y-91.11
X95.5Y-63.65
X96.161Y-168.628
X97.467Y-80.3
X97.721Y-136.068
X97.721Y-177.546
X98.321Y-118.999
X98.561Y-178.296
X100.261Y-147.752
X101.785Y-163.246
X101.785Y-173.406
X102.151Y-158.396
X102.151Y-161.198
X103.761Y-166.428
X103.9Y-77.098
X104.248Y-134.722
X105.849Y-177.546
X106.45Y-77.362
X106.564Y-140.236
X106.788Y-120.714
X107.211Y-140.707
X107.749Y-122.86
X108.13Y-140.636
X108.389Y-141.402
X108.5Y-126.696
X108.99Y-77.61
X109.146Y-141.661
X109.313Y-129.264
X109.7Y-50.2
X109.734Y-143.002
X109.854Y-142.033
X109.913Y-133.02
X110.421Y-128.135
X110.9Y-79.55
X110.929Y-177.546
X111.691Y-83.951
X111.691Y-97.65
X112.037Y-139.156
X112.05Y-125.595
X112.13Y-75.27
X112.45Y-78.711
X112.73Y-75.87
X113.469Y-147.752
X113.874Y-77.476
X114.55Y-134.036
X114.55Y-100.85
X114.739Y-159.436
X114.8Y-49.5
X115.155Y-135.814
X115.755Y-132.004
X115.85Y-65.211
X116.861Y-158.828
X116.9Y-48.9
X117.025Y-134.798
X117.161Y-162.528
X118.6Y-78.711
X119.237Y-81.647
X119.311Y-177.546
X119.565Y-91.11
X119.85Y-50.25
X120.961Y-145.228
X121.15Y-76.498
X121.435Y-164.77
X121.597Y-146.228
X121.851Y-146.99
X122.105Y-103.556
X122.361Y-165.304
X122.461Y-154.728
X122.65Y-48.9
X124.391Y-177.546
X125.915Y-134.798
X126.931Y-147.752
X128.963Y-150.292
X129.471Y-113.271
X129.524Y-120.066
X131.45Y-32.1
X133.69Y-121.793
X135.961Y-119.253
X137.959Y-55.209
X138.059Y-67.291
X138.239Y-70.011
X138.25Y-63.5
X138.4Y-73.0
X138.615Y-134.798
X138.755Y-76.076
X140.901Y-147.752
X141.155Y-91.11
X141.526Y-75.451
X141.6Y-68.55
X141.699Y-72.951
X141.8Y-54.616
X141.95Y-57.1
X141.95Y-62.203
X142.348Y-63.403
X142.35Y-66.65
X143.15Y-64.45
X144.25Y-61.55
X144.352Y-27.202
X144.85Y-59.5
X146.0Y-56.45
X146.3Y-69.7
X146.3Y-82.45
X150.553Y-120.194
X150.553Y-133.782
X153.4Y-26.2
X153.855Y-151.054
X154.3Y-81.35
X154.55Y-29.0
X155.2Y-63.55
X156.15Y-86.4
X156.348Y-39.5
X156.749Y-62.203
X156.8Y-83.7
X157.55Y-62.803
X157.95Y-54.2
X158.2Y-55.216
X158.65Y-57.756
X158.75Y-51.9
X159.3Y-54.6
X159.45Y-67.916
X159.9Y-57.084
X160.025Y-60.175
X160.1Y-78.7
X161.05Y-87.6
T2
X79.328Y-40.276
X79.328Y-42.276
X151.315Y-173.19
X151.315Y-174.69
X152.602Y-141.433
X152.602Y-143.433
T3
X74.274Y-46.901
X75.544Y-46.901
X76.814Y-46.901
T4
X19.65Y-160.41
X19.65Y-162.95
X19.7Y-168.75
X19.7Y-171.29
X23.1Y-160.5
X23.1Y-163.0
X24.6Y-170.65
X24.6Y-175.55
X26.6Y-163.01
X26.6Y-165.55
X27.265Y-80.366
X27.265Y-85.446
X27.265Y-93.777
X27.265Y-98.857
X27.265Y-103.937
X27.265Y-109.017
X27.265Y-114.097
X27.265Y-119.177
X27.265Y-124.257
X27.265Y-129.337
X29.805Y-80.366
X29.805Y-85.446
X29.805Y-93.777
X29.805Y-98.857
X29.805Y-103.937
X29.805Y-109.017
X29.805Y-114.097
X29.805Y-119.177
X29.805Y-124.257
X29.805Y-129.337
X30.027Y-155.376
X30.083Y-160.384
X30.083Y-162.924
X30.083Y-165.464
X30.083Y-168.004
X30.083Y-170.544
X30.083Y-173.084
X30.083Y-175.624
X32.527Y-155.376
X33.868Y-69.244
X33.868Y-71.784
X35.107Y-155.401
X35.973Y-87.249
X35.973Y-89.789
X35.973Y-92.329
X35.973Y-94.869
X35.973Y-97.409
X35.973Y-99.949
X35.973Y-102.489
X36.075Y-110.211
X36.075Y-112.751
X36.075Y-115.291
X36.075Y-117.831
X36.075Y-120.371
X36.075Y-122.911
X36.075Y-125.451
X36.075Y-127.991
X36.075Y-130.531
X36.075Y-133.071
X37.551Y-69.219
X37.551Y-71.759
X37.607Y-155.401
X37.703Y-160.384
X37.703Y-162.924
X37.703Y-165.464
X37.703Y-168.004
X37.703Y-170.544
X37.703Y-173.084
X37.703Y-175.624
X37.855Y-145.4
X40.395Y-145.4
X41.307Y-106.934
X41.556Y-83.363
X42.603Y-152.731
X42.603Y-155.271
X42.603Y-157.811
X42.603Y-160.351
X42.603Y-162.891
X42.603Y-165.431
X42.603Y-167.971
X42.603Y-170.511
X42.603Y-173.051
X42.603Y-175.591
X43.593Y-87.249
X43.593Y-89.789
X43.593Y-92.329
X43.593Y-94.869
X43.593Y-97.409
X43.593Y-99.949
X43.593Y-102.489
X43.695Y-110.211
X43.695Y-112.751
X43.695Y-115.291
X43.695Y-117.831
X43.695Y-120.371
X43.695Y-122.911
X43.695Y-125.451
X43.695Y-127.991
X43.695Y-130.531
X43.695Y-133.071
X43.807Y-106.934
X44.056Y-83.363
X46.755Y-125.7
X46.755Y-129.2
X47.8Y-149.5
X48.445Y-114.224
X48.445Y-116.724
X49.295Y-125.7
X49.295Y-129.2
X50.223Y-152.731
X50.223Y-155.271
X50.223Y-157.811
X50.223Y-160.351
X50.223Y-162.891
X50.223Y-165.431
X50.223Y-167.971
X50.223Y-170.511
X50.223Y-173.051
X50.223Y-175.591
X50.3Y-149.5
X52.28Y-88.875
X52.28Y-91.415
X52.28Y-93.955
X52.28Y-96.495
X52.28Y-99.035
X52.28Y-101.575
X52.28Y-104.115
X52.28Y-106.655
X52.28Y-109.195
X52.28Y-111.735
X52.28Y-114.275
X52.28Y-116.815
X52.28Y-119.355
X52.28Y-121.895
X52.28Y-124.435
X52.28Y-126.975
X52.28Y-129.515
X52.28Y-132.055
X52.28Y-134.595
X52.28Y-137.135
X56.928Y-155.144
X56.928Y-157.684
X56.928Y-160.224
X56.928Y-162.764
X56.928Y-165.304
X56.928Y-167.844
X56.928Y-170.384
X56.928Y-172.924
X56.928Y-175.464
X65.767Y-152.604
X65.767Y-155.144
X65.767Y-157.684
X65.767Y-160.224
X65.767Y-162.764
X65.767Y-165.304
X65.767Y-167.844
X65.767Y-170.384
X65.767Y-172.924
X65.767Y-175.464
X67.52Y-88.875
X67.52Y-91.415
X67.52Y-93.955
X67.52Y-96.495
X67.52Y-99.035
X67.52Y-101.575
X67.52Y-104.115
X67.52Y-106.655
X67.52Y-109.195
X67.52Y-111.735
X67.52Y-114.275
X67.52Y-116.815
X67.52Y-119.355
X67.52Y-121.895
X67.52Y-124.435
X67.52Y-126.975
X67.52Y-129.515
X67.52Y-132.055
X67.52Y-134.595
X67.52Y-137.135
X70.8Y-125.0
X70.805Y-129.2
X70.817Y-149.4
X73.317Y-149.4
X73.34Y-125.0
X73.345Y-129.2
X73.387Y-152.604
X73.387Y-155.144
X73.387Y-157.684
X73.387Y-160.224
X73.387Y-162.764
X73.387Y-165.304
X73.387Y-167.844
X73.387Y-170.384
X73.387Y-172.924
X73.387Y-175.464
X74.195Y-39.647
X74.195Y-42.187
X74.274Y-32.021
X74.274Y-34.561
X79.179Y-157.658
X79.179Y-160.198
X79.179Y-162.738
X79.179Y-165.278
X79.179Y-167.818
X79.179Y-170.358
X79.179Y-172.898
X79.179Y-175.438
X83.25Y-46.295
X83.25Y-53.915
X84.279Y-153.594
X84.834Y-32.065
X84.834Y-34.605
X84.891Y-38.092
X84.891Y-40.632
X85.79Y-46.295
X85.79Y-53.915
X86.779Y-153.594
X86.799Y-157.658
X86.799Y-160.198
X86.799Y-162.738
X86.799Y-165.278
X86.799Y-167.818
X86.799Y-170.358
X86.799Y-172.898
X86.799Y-175.438
X88.33Y-46.295
X88.33Y-53.915
X90.405Y-39.42
X90.405Y-41.96
X90.456Y-33.006
X90.456Y-35.546
X90.87Y-46.295
X90.87Y-53.915
X92.387Y-157.557
X92.387Y-160.097
X92.387Y-162.637
X92.387Y-165.177
X92.387Y-167.717
X92.387Y-170.257
X92.387Y-172.797
X92.387Y-175.337
X93.41Y-46.295
X93.41Y-53.915
X94.113Y-39.42
X94.113Y-41.96
X94.164Y-33.006
X94.164Y-35.546
X95.95Y-46.295
X95.95Y-53.915
X97.741Y-153.594
X97.822Y-39.426
X97.822Y-41.966
X97.872Y-33.012
X97.872Y-35.552
X98.49Y-46.295
X98.49Y-53.915
X100.007Y-157.557
X100.007Y-160.097
X100.007Y-162.637
X100.007Y-165.177
X100.007Y-167.717
X100.007Y-170.257
X100.007Y-172.797
X100.007Y-175.337
X100.241Y-153.594
X100.7Y-181.6
X101.03Y-46.295
X101.03Y-53.915
X101.53Y-39.426
X101.53Y-41.966
X101.581Y-33.012
X101.581Y-35.552
X101.734Y-91.13
X101.734Y-93.63
X103.24Y-181.6
X104.248Y-98.756
X104.248Y-101.296
X104.248Y-103.836
X104.248Y-106.376
X104.248Y-108.916
X104.248Y-111.456
X104.248Y-113.996
X104.248Y-116.536
X104.248Y-119.076
X104.248Y-121.616
X104.248Y-124.156
X104.248Y-126.696
X104.248Y-129.236
X104.248Y-131.776
X105.196Y-51.136
X105.196Y-53.636
X105.238Y-39.426
X105.238Y-41.966
X105.289Y-33.012
X105.289Y-35.552
X105.798Y-160.295
X105.798Y-162.835
X105.798Y-165.375
X105.798Y-167.915
X105.798Y-170.455
X105.798Y-172.995
X105.798Y-175.535
X106.25Y-181.6
X108.75Y-181.6
X108.947Y-39.426
X108.947Y-41.966
X108.998Y-33.012
X108.998Y-35.552
X109.717Y-46.371
X109.717Y-53.991
X110.949Y-156.896
X112.257Y-46.371
X112.257Y-53.991
X112.655Y-39.42
X112.655Y-41.96
X112.706Y-33.006
X112.706Y-35.546
X113.418Y-160.295
X113.418Y-162.835
X113.418Y-165.375
X113.418Y-167.915
X113.418Y-170.455
X113.418Y-172.995
X113.418Y-175.535
X113.449Y-156.896
X114.797Y-46.371
X114.797Y-53.991
X116.364Y-39.42
X116.364Y-41.96
X116.414Y-33.006
X116.414Y-35.546
X117.095Y-94.412
X117.337Y-46.371
X117.337Y-53.991
X119.234Y-160.224
X119.234Y-162.764
X119.234Y-165.304
X119.234Y-167.844
X119.234Y-170.384
X119.234Y-172.924
X119.234Y-175.464
X119.488Y-98.756
X119.488Y-101.296
X119.488Y-103.836
X119.488Y-106.376
X119.488Y-108.916
X119.488Y-111.456
X119.488Y-113.996
X119.488Y-116.536
X119.488Y-119.076
X119.488Y-121.616
X119.488Y-124.156
X119.488Y-126.696
X119.488Y-129.236
X119.488Y-131.776
X119.595Y-94.412
X119.877Y-46.371
X119.877Y-53.991
X120.072Y-39.42
X120.072Y-41.96
X120.123Y-33.006
X120.123Y-35.546
X122.417Y-46.371
X122.417Y-53.991
X123.78Y-39.42
X123.78Y-41.96
X123.831Y-33.006
X123.831Y-35.546
X124.411Y-156.896
X124.45Y-78.03
X124.45Y-80.57
X124.45Y-85.03
X124.45Y-87.57
X124.957Y-46.371
X124.957Y-53.991
X126.016Y-98.933
X126.016Y-101.473
X126.016Y-104.013
X126.016Y-106.553
X126.016Y-109.093
X126.016Y-111.633
X126.016Y-114.173
X126.016Y-116.713
X126.016Y-119.253
X126.016Y-121.793
X126.016Y-124.333
X126.016Y-126.873
X126.016Y-129.413
X126.016Y-131.953
X126.854Y-160.224
X126.854Y-162.764
X126.854Y-165.304
X126.854Y-167.844
X126.854Y-170.384
X126.854Y-172.924
X126.854Y-175.464
X126.911Y-156.896
X127.489Y-39.42
X127.489Y-41.96
X127.497Y-46.371
X127.497Y-53.991
X127.54Y-33.006
X127.54Y-35.546
X127.854Y-78.055
X127.854Y-80.595
X127.854Y-85.055
X127.854Y-87.595
X131.283Y-78.055
X131.283Y-80.595
X131.283Y-85.055
X131.283Y-87.595
X131.39Y-51.45
X131.39Y-53.95
X133.966Y-160.097
X133.966Y-162.637
X133.966Y-165.177
X133.966Y-167.717
X133.966Y-170.257
X133.966Y-172.797
X133.966Y-175.337
X134.686Y-78.055
X134.686Y-80.595
X134.712Y-85.066
X134.712Y-87.606
X138.635Y-94.412
X138.889Y-156.642
X139.554Y-144.958
X141.135Y-94.412
X141.256Y-98.933
X141.256Y-101.473
X141.256Y-104.013
X141.256Y-106.553
X141.256Y-109.093
X141.256Y-111.633
X141.256Y-114.173
X141.256Y-116.713
X141.256Y-119.253
X141.256Y-121.793
X141.256Y-124.333
X141.256Y-126.873
X141.256Y-129.413
X141.256Y-131.953
X141.389Y-156.642
X141.586Y-160.097
X141.586Y-162.637
X141.586Y-165.177
X141.586Y-167.717
X141.586Y-170.257
X141.586Y-172.797
X141.586Y-175.337
X144.634Y-142.418
X144.634Y-147.498
X147.403Y-162.662
X147.403Y-170.282
X148.749Y-99.035
X148.749Y-101.575
X148.749Y-104.115
X148.749Y-106.655
X148.749Y-109.195
X148.749Y-111.735
X148.749Y-114.275
X148.749Y-116.815
X148.749Y-119.355
X148.749Y-121.895
X148.749Y-124.435
X148.749Y-126.975
X148.749Y-129.515
X148.749Y-132.055
X151.67Y-158.242
X151.823Y-162.967
X151.823Y-165.507
X154.21Y-158.242
X157.202Y-141.433
X157.202Y-143.933
X157.665Y-160.381
X157.665Y-162.921
X157.665Y-165.461
X157.665Y-168.001
X157.665Y-170.541
X157.665Y-173.081
X157.665Y-175.621
X160.302Y-148.033
X161.495Y-94.412
X162.815Y-155.753
X162.842Y-148.033
X163.989Y-99.035
X163.989Y-101.575
X163.989Y-104.115
X163.989Y-106.655
X163.989Y-109.195
X163.989Y-111.735
X163.989Y-114.275
X163.989Y-116.815
X163.989Y-119.355
X163.989Y-121.895
X163.989Y-124.435
X163.989Y-126.975
X163.989Y-129.515
X163.989Y-132.055
X163.995Y-94.412
X165.285Y-160.381
X165.285Y-162.921
X165.285Y-165.461
X165.285Y-168.001
X165.285Y-170.541
X165.285Y-173.081
X165.285Y-175.621
X165.315Y-155.753
T5
X19.645Y-80.366
X19.645Y-85.446
X19.645Y-93.777
X19.645Y-98.857
X19.645Y-103.937
X19.645Y-109.017
X19.645Y-114.097
X19.645Y-119.177
X19.645Y-124.257
X19.645Y-129.337
X22.185Y-80.366
X22.185Y-85.446
X22.185Y-93.777
X22.185Y-98.857
X22.185Y-103.937
X22.185Y-109.017
X22.185Y-114.097
X22.185Y-119.177
X22.185Y-124.257
X22.185Y-129.337
X155.302Y-148.133
X157.842Y-148.133
T6
X20.279Y-143.971
X20.279Y-146.511
X20.279Y-149.051
X25.731Y-68.311
X25.741Y-63.411
X25.741Y-65.431
X25.741Y-70.311
X28.041Y-63.411
X28.041Y-70.311
X28.788Y-143.971
X28.788Y-146.511
X28.788Y-149.051
X29.47Y-39.585
X29.47Y-54.825
X32.01Y-39.585
X32.01Y-54.825
X34.55Y-39.585
X34.55Y-54.825
X37.09Y-39.585
X37.09Y-54.825
X39.63Y-39.585
X39.63Y-54.825
X42.17Y-39.585
X42.17Y-54.825
X42.88Y-65.26
X42.88Y-67.8
X44.71Y-39.585
X44.71Y-54.825
X47.25Y-39.585
X47.25Y-54.825
X49.79Y-39.585
X49.79Y-54.825
X65.74Y-65.26
X65.74Y-67.8
X73.12Y-59.0
X73.12Y-70.557
X75.66Y-59.0
X75.66Y-70.557
X78.2Y-59.0
X78.2Y-70.557
X79.45Y-32.15
X79.45Y-34.69
X80.068Y-98.679
X80.068Y-101.219
X80.068Y-103.759
X80.068Y-106.299
X80.068Y-108.839
X80.068Y-111.379
X80.068Y-113.919
X80.068Y-116.459
X80.068Y-118.999
X80.068Y-121.539
X80.068Y-124.079
X80.068Y-126.619
X80.068Y-129.159
X80.068Y-131.699
X80.74Y-59.0
X80.74Y-70.557
X83.28Y-59.0
X83.28Y-70.557
X85.82Y-59.0
X85.82Y-70.557
X88.36Y-59.0
X88.36Y-70.557
X90.9Y-59.0
X90.9Y-70.557
X93.44Y-59.0
X93.44Y-70.557
X95.308Y-98.679
X95.308Y-101.219
X95.308Y-103.759
X95.308Y-106.299
X95.308Y-108.839
X95.308Y-111.379
X95.308Y-113.919
X95.308Y-116.459
X95.308Y-118.999
X95.308Y-121.539
X95.308Y-124.079
X95.308Y-126.619
X95.308Y-129.159
X95.308Y-131.699
X95.98Y-59.0
X95.98Y-70.557
X103.91Y-59.035
X103.91Y-70.592
X106.45Y-59.035
X106.45Y-70.592
X108.99Y-59.035
X108.99Y-70.592
X111.53Y-59.035
X111.53Y-70.592
X114.07Y-59.035
X114.07Y-70.592
X116.61Y-59.035
X116.61Y-70.592
X119.15Y-59.035
X119.15Y-70.592
X120.46Y-26.8
X121.69Y-59.035
X121.69Y-70.592
X123.0Y-26.8
X124.23Y-59.035
X124.23Y-70.592
X125.54Y-26.8
X126.77Y-59.035
X126.77Y-70.592
X128.08Y-26.8
X130.62Y-26.8
X133.16Y-26.8
X140.02Y-31.07
X140.02Y-33.61
X140.02Y-36.15
X140.02Y-38.69
X140.02Y-41.23
X140.02Y-43.77
X140.02Y-46.31
X140.02Y-48.85
X140.02Y-51.39
X140.02Y-53.93
X140.02Y-56.47
X140.02Y-59.01
X140.02Y-61.55
X140.02Y-64.09
X140.02Y-66.63
X140.02Y-69.17
X140.02Y-71.71
X140.02Y-74.25
X140.02Y-76.79
X140.02Y-79.33
X140.02Y-81.87
X140.02Y-84.41
X140.02Y-86.95
X140.02Y-89.49
X162.88Y-31.07
X162.88Y-33.61
X162.88Y-36.15
X162.88Y-38.69
X162.88Y-41.23
X162.88Y-43.77
X162.88Y-46.31
X162.88Y-48.85
X162.88Y-51.39
X162.88Y-53.93
X162.88Y-56.47
X162.88Y-59.01
X162.88Y-61.55
X162.88Y-64.09
X162.88Y-66.63
X162.88Y-69.17
X162.88Y-71.71
X162.88Y-74.25
X162.88Y-76.79
X162.88Y-79.33
X162.88Y-81.87
X162.88Y-84.41
X162.88Y-86.95
X162.88Y-89.49
T7
X44.25Y-187.25
X44.25Y-191.75
X50.75Y-187.25
X50.75Y-191.75
X56.95Y-187.25
X56.95Y-191.75
X63.45Y-187.25
X63.45Y-191.75
X69.65Y-187.25
X69.65Y-191.75
X76.15Y-187.25
X76.15Y-191.75
X82.35Y-187.25
X82.35Y-191.75
X88.85Y-187.25
X88.85Y-191.75
X95.05Y-187.25
X95.05Y-191.75
X101.55Y-187.25
X101.55Y-191.75
X107.75Y-187.25
X107.75Y-191.75
X114.25Y-187.25
X114.25Y-191.75
X120.45Y-187.25
X120.45Y-191.75
X126.95Y-187.25
X126.95Y-191.75
X133.15Y-187.25
X133.15Y-191.75
X139.65Y-187.25
X139.65Y-191.75
X150.65Y-187.25
X150.65Y-191.75
X157.15Y-187.25
X157.15Y-191.75
T8
X162.902Y-141.493
X162.902Y-144.033
T9
X57.5Y-48.6
X60.2Y-181.5
X62.5Y-48.6
X62.735Y-181.497
X65.28Y-181.5
X67.5Y-48.6
X67.82Y-181.5
X70.36Y-181.5
X72.9Y-181.5
X75.44Y-181.5
X77.98Y-181.5
X80.52Y-181.5
X83.06Y-181.5
X85.6Y-181.5
X88.14Y-181.5
X90.68Y-181.5
X93.22Y-181.5
X95.755Y-181.497
X98.3Y-181.5
T4
G00X21.041Y-65.981
M15
G01X21.041Y-67.681
M16
G05
G00X23.111Y-73.831
M15
G01X21.411Y-73.831
M16
G05
G00X23.161Y-59.991
M15
G01X21.461Y-59.991
M16
G05
M30
