%TF.GenerationSoftware,KiCad,Pcbnew,9.0.5-9.0.5~ubuntu24.04.1*%
%TF.CreationDate,2025-10-10T17:05:08-03:00*%
%TF.ProjectId,Kraft80V2,4b726166-7438-4305-9632-2e6b69636164,rev?*%
%TF.SameCoordinates,Original*%
%TF.FileFunction,Copper,L2,Bot*%
%TF.FilePolarity,Positive*%
%FSLAX46Y46*%
G04 Gerber Fmt 4.6, Leading zero omitted, Abs format (unit mm)*
G04 Created by KiCad (PCBNEW 9.0.5-9.0.5~ubuntu24.04.1) date 2025-10-10 17:05:08*
%MOMM*%
%LPD*%
G01*
G04 APERTURE LIST*
G04 Aperture macros list*
%AMRoundRect*
0 Rectangle with rounded corners*
0 $1 Rounding radius*
0 $2 $3 $4 $5 $6 $7 $8 $9 X,Y pos of 4 corners*
0 Add a 4 corners polygon primitive as box body*
4,1,4,$2,$3,$4,$5,$6,$7,$8,$9,$2,$3,0*
0 Add four circle primitives for the rounded corners*
1,1,$1+$1,$2,$3*
1,1,$1+$1,$4,$5*
1,1,$1+$1,$6,$7*
1,1,$1+$1,$8,$9*
0 Add four rect primitives between the rounded corners*
20,1,$1+$1,$2,$3,$4,$5,0*
20,1,$1+$1,$4,$5,$6,$7,0*
20,1,$1+$1,$6,$7,$8,$9,0*
20,1,$1+$1,$8,$9,$2,$3,0*%
G04 Aperture macros list end*
%TA.AperFunction,ComponentPad*%
%ADD10RoundRect,0.250000X-0.702500X0.702500X-0.702500X-0.702500X0.702500X-0.702500X0.702500X0.702500X0*%
%TD*%
%TA.AperFunction,ComponentPad*%
%ADD11C,1.905000*%
%TD*%
%TA.AperFunction,ComponentPad*%
%ADD12RoundRect,0.875000X0.875000X0.875000X-0.875000X0.875000X-0.875000X-0.875000X0.875000X-0.875000X0*%
%TD*%
%TA.AperFunction,ComponentPad*%
%ADD13RoundRect,0.750000X0.750000X1.000000X-0.750000X1.000000X-0.750000X-1.000000X0.750000X-1.000000X0*%
%TD*%
%TA.AperFunction,ComponentPad*%
%ADD14R,3.500000X3.500000*%
%TD*%
%TA.AperFunction,ComponentPad*%
%ADD15C,2.000000*%
%TD*%
%TA.AperFunction,ComponentPad*%
%ADD16C,1.200000*%
%TD*%
%TA.AperFunction,ComponentPad*%
%ADD17C,1.600000*%
%TD*%
%TA.AperFunction,ComponentPad*%
%ADD18R,1.800000X1.800000*%
%TD*%
%TA.AperFunction,ComponentPad*%
%ADD19C,1.800000*%
%TD*%
%TA.AperFunction,ComponentPad*%
%ADD20RoundRect,0.250000X-0.550000X-0.550000X0.550000X-0.550000X0.550000X0.550000X-0.550000X0.550000X0*%
%TD*%
%TA.AperFunction,ComponentPad*%
%ADD21R,1.700000X1.700000*%
%TD*%
%TA.AperFunction,ComponentPad*%
%ADD22C,1.700000*%
%TD*%
%TA.AperFunction,ComponentPad*%
%ADD23R,3.000000X3.000000*%
%TD*%
%TA.AperFunction,ComponentPad*%
%ADD24C,3.000000*%
%TD*%
%TA.AperFunction,WasherPad*%
%ADD25C,5.600000*%
%TD*%
%TA.AperFunction,ComponentPad*%
%ADD26R,1.600000X1.600000*%
%TD*%
%TA.AperFunction,ComponentPad*%
%ADD27C,1.440000*%
%TD*%
%TA.AperFunction,ComponentPad*%
%ADD28C,1.500000*%
%TD*%
%TA.AperFunction,ComponentPad*%
%ADD29RoundRect,0.285750X0.666750X-0.666750X0.666750X0.666750X-0.666750X0.666750X-0.666750X-0.666750X0*%
%TD*%
%TA.AperFunction,ComponentPad*%
%ADD30RoundRect,0.250000X-0.550000X0.550000X-0.550000X-0.550000X0.550000X-0.550000X0.550000X0.550000X0*%
%TD*%
%TA.AperFunction,ComponentPad*%
%ADD31O,1.800000X3.600000*%
%TD*%
%TA.AperFunction,ComponentPad*%
%ADD32O,3.600000X1.800000*%
%TD*%
%TA.AperFunction,ComponentPad*%
%ADD33RoundRect,0.375000X0.577500X0.577500X-0.577500X0.577500X-0.577500X-0.577500X0.577500X-0.577500X0*%
%TD*%
%TA.AperFunction,ComponentPad*%
%ADD34R,1.050000X1.500000*%
%TD*%
%TA.AperFunction,ComponentPad*%
%ADD35O,1.050000X1.500000*%
%TD*%
%TA.AperFunction,ComponentPad*%
%ADD36R,2.000000X1.440000*%
%TD*%
%TA.AperFunction,ComponentPad*%
%ADD37O,2.000000X1.440000*%
%TD*%
%TA.AperFunction,ComponentPad*%
%ADD38R,1.800000X2.600000*%
%TD*%
%TA.AperFunction,ComponentPad*%
%ADD39O,1.800000X2.600000*%
%TD*%
%TA.AperFunction,ViaPad*%
%ADD40C,0.600000*%
%TD*%
%TA.AperFunction,ViaPad*%
%ADD41C,0.500000*%
%TD*%
%TA.AperFunction,Conductor*%
%ADD42C,0.200000*%
%TD*%
%TA.AperFunction,Conductor*%
%ADD43C,0.500000*%
%TD*%
G04 APERTURE END LIST*
D10*
%TO.P,U8,1,LV1*%
%TO.N,Net-(U19-IOB8A)*%
X95960000Y-58973000D03*
D11*
%TO.P,U8,2,LV2*%
%TO.N,Net-(U19-IOB11B)*%
X93420000Y-58973000D03*
%TO.P,U8,3,LV3*%
%TO.N,Net-(U19-IOB13A)*%
X90880000Y-58973000D03*
%TO.P,U8,4,LV4*%
%TO.N,Net-(U19-IOB13B)*%
X88340000Y-58973000D03*
%TO.P,U8,5,LV*%
%TO.N,+3V3*%
X85800000Y-58973000D03*
%TO.P,U8,6,GND*%
%TO.N,GNDREF*%
X83260000Y-58973000D03*
%TO.P,U8,7,LV5*%
%TO.N,Net-(U19-IOB23A)*%
X80720000Y-58973000D03*
%TO.P,U8,8,LV6*%
%TO.N,Net-(U19-IOB23B)*%
X78180000Y-58973000D03*
%TO.P,U8,9,LV7*%
%TO.N,Net-(U19-IOB33B)*%
X75640000Y-58973000D03*
%TO.P,U8,10,LV8*%
%TO.N,Net-(U19-IOB29A)*%
X73100000Y-58973000D03*
%TO.P,U8,11,HV8*%
%TO.N,/kraft80V2-fpga/DAT_KBD*%
X73100000Y-70530000D03*
%TO.P,U8,12,HV7*%
%TO.N,~{INT}*%
X75640000Y-70530000D03*
%TO.P,U8,13,HV6*%
%TO.N,~{FPGA_CS}*%
X78180000Y-70530000D03*
%TO.P,U8,14,HV5*%
%TO.N,CLOCK*%
X80720000Y-70530000D03*
%TO.P,U8,15,GND*%
%TO.N,GNDREF*%
X83260000Y-70530000D03*
%TO.P,U8,16,HV*%
%TO.N,+5V*%
X85800000Y-70530000D03*
%TO.P,U8,17,HV4*%
%TO.N,~{RESET}*%
X88340000Y-70530000D03*
%TO.P,U8,18,HV3*%
%TO.N,~{READ}*%
X90880000Y-70530000D03*
%TO.P,U8,19,HV2*%
%TO.N,~{WRITE}*%
X93420000Y-70530000D03*
%TO.P,U8,20,HV1*%
%TO.N,/kraft80V2-fpga/CK_KBD*%
X95960000Y-70530000D03*
%TD*%
%TO.P,U12,20,HV1*%
%TO.N,D0*%
X126770000Y-70550000D03*
%TO.P,U12,19,HV2*%
%TO.N,D1*%
X124230000Y-70550000D03*
%TO.P,U12,18,HV3*%
%TO.N,D2*%
X121690000Y-70550000D03*
%TO.P,U12,17,HV4*%
%TO.N,D3*%
X119150000Y-70550000D03*
%TO.P,U12,16,HV*%
%TO.N,+5V*%
X116610000Y-70550000D03*
%TO.P,U12,15,GND*%
%TO.N,GNDREF*%
X114070000Y-70550000D03*
%TO.P,U12,14,HV5*%
%TO.N,D4*%
X111530000Y-70550000D03*
%TO.P,U12,13,HV6*%
%TO.N,D5*%
X108990000Y-70550000D03*
%TO.P,U12,12,HV7*%
%TO.N,D6*%
X106450000Y-70550000D03*
%TO.P,U12,11,HV8*%
%TO.N,D7*%
X103910000Y-70550000D03*
%TO.P,U12,10,LV8*%
%TO.N,Net-(U12-LV8)*%
X103910000Y-58993000D03*
%TO.P,U12,9,LV7*%
%TO.N,Net-(U12-LV7)*%
X106450000Y-58993000D03*
%TO.P,U12,8,LV6*%
%TO.N,Net-(U12-LV6)*%
X108990000Y-58993000D03*
%TO.P,U12,7,LV5*%
%TO.N,Net-(U12-LV5)*%
X111530000Y-58993000D03*
%TO.P,U12,6,GND*%
%TO.N,GNDREF*%
X114070000Y-58993000D03*
%TO.P,U12,5,LV*%
%TO.N,+3V3*%
X116610000Y-58993000D03*
%TO.P,U12,4,LV4*%
%TO.N,Net-(U12-LV4)*%
X119150000Y-58993000D03*
%TO.P,U12,3,LV3*%
%TO.N,Net-(U12-LV3)*%
X121690000Y-58993000D03*
%TO.P,U12,2,LV2*%
%TO.N,Net-(U12-LV2)*%
X124230000Y-58993000D03*
D10*
%TO.P,U12,1,LV1*%
%TO.N,Net-(U12-LV1)*%
X126770000Y-58993000D03*
%TD*%
D12*
%TO.P,CN1,3*%
%TO.N,N/C*%
X156180000Y-136260000D03*
D13*
%TO.P,CN1,2*%
%TO.N,GNDREF*%
X159180000Y-140960000D03*
D14*
%TO.P,CN1,1*%
%TO.N,+5V*%
X153180000Y-140960000D03*
%TD*%
D15*
%TO.P,SW5,1,1*%
%TO.N,GNDREF*%
X101550000Y-191750000D03*
X95050000Y-191750000D03*
%TO.P,SW5,2,2*%
%TO.N,PX4*%
X101550000Y-187250000D03*
X95050000Y-187250000D03*
%TD*%
D16*
%TO.P,C23,1*%
%TO.N,+5V*%
X69730000Y-29650000D03*
%TO.P,C23,2*%
%TO.N,GNDREF*%
X69730000Y-28150000D03*
%TD*%
D17*
%TO.P,R37,1*%
%TO.N,Net-(R25-Pad2)*%
X108997600Y-33012400D03*
%TO.P,R37,2*%
%TO.N,Net-(R24-Pad2)*%
X108997600Y-35552400D03*
%TD*%
%TO.P,R20,1*%
%TO.N,Net-(J3-Pin_2)*%
X74195000Y-39647200D03*
%TO.P,R20,2*%
%TO.N,Net-(Q1-B)*%
X74195000Y-42187200D03*
%TD*%
D18*
%TO.P,D2,1,K*%
%TO.N,GNDREF*%
X154410000Y-152140000D03*
D19*
%TO.P,D2,2,A*%
%TO.N,Net-(D2-A)*%
X151870000Y-152140000D03*
%TD*%
D17*
%TO.P,C12,1*%
%TO.N,+5V*%
X141160000Y-95730000D03*
%TO.P,C12,2*%
%TO.N,GNDREF*%
X138660000Y-95730000D03*
%TD*%
D20*
%TO.P,U5,1,~{Mr}*%
%TO.N,~{RESET}*%
X39670000Y-116880000D03*
D17*
%TO.P,U5,2,Q0*%
%TO.N,PA0*%
X39670000Y-119420000D03*
%TO.P,U5,3,D0*%
%TO.N,D0*%
X39670000Y-121960000D03*
%TO.P,U5,4,D1*%
%TO.N,D1*%
X39670000Y-124500000D03*
%TO.P,U5,5,Q1*%
%TO.N,PA1*%
X39670000Y-127040000D03*
%TO.P,U5,6,Q2*%
%TO.N,PA2*%
X39670000Y-129580000D03*
%TO.P,U5,7,D2*%
%TO.N,D2*%
X39670000Y-132120000D03*
%TO.P,U5,8,D3*%
%TO.N,D3*%
X39670000Y-134660000D03*
%TO.P,U5,9,Q3*%
%TO.N,PA3*%
X39670000Y-137200000D03*
%TO.P,U5,10,GND*%
%TO.N,GNDREF*%
X39670000Y-139740000D03*
%TO.P,U5,11,Cp*%
%TO.N,/kraft80V2-ios/CKLED*%
X47290000Y-139740000D03*
%TO.P,U5,12,Q4*%
%TO.N,PA4*%
X47290000Y-137200000D03*
%TO.P,U5,13,D4*%
%TO.N,D4*%
X47290000Y-134660000D03*
%TO.P,U5,14,D5*%
%TO.N,D5*%
X47290000Y-132120000D03*
%TO.P,U5,15,Q5*%
%TO.N,PA5*%
X47290000Y-129580000D03*
%TO.P,U5,16,Q6*%
%TO.N,PA6*%
X47290000Y-127040000D03*
%TO.P,U5,17,D6*%
%TO.N,D6*%
X47290000Y-124500000D03*
%TO.P,U5,18,D7*%
%TO.N,D7*%
X47290000Y-121960000D03*
%TO.P,U5,19,Q7*%
%TO.N,PA7*%
X47290000Y-119420000D03*
%TO.P,U5,20,VCC*%
%TO.N,+5V*%
X47290000Y-116880000D03*
%TD*%
D15*
%TO.P,SW7,1,1*%
%TO.N,GNDREF*%
X126950000Y-191750000D03*
X120450000Y-191750000D03*
%TO.P,SW7,2,2*%
%TO.N,PX6*%
X126950000Y-187250000D03*
X120450000Y-187250000D03*
%TD*%
D17*
%TO.P,R21,1*%
%TO.N,CPM*%
X35260000Y-93340000D03*
%TO.P,R21,2*%
%TO.N,Net-(D11-A)*%
X32720000Y-93340000D03*
%TD*%
D18*
%TO.P,D10,1,K*%
%TO.N,Net-(D10-K)*%
X25250000Y-120790000D03*
D19*
%TO.P,D10,2,A*%
%TO.N,Net-(D10-A)*%
X27790000Y-120790000D03*
%TD*%
D17*
%TO.P,R19,1*%
%TO.N,+5V*%
X37625000Y-148770000D03*
%TO.P,R19,2*%
%TO.N,CLOCK*%
X40165000Y-148770000D03*
%TD*%
D15*
%TO.P,SW2,1,1*%
%TO.N,GNDREF*%
X63450000Y-191750000D03*
X56950000Y-191750000D03*
%TO.P,SW2,2,2*%
%TO.N,PX1*%
X63450000Y-187250000D03*
X56950000Y-187250000D03*
%TD*%
D17*
%TO.P,R10,1*%
%TO.N,PA6*%
X35410000Y-136030000D03*
%TO.P,R10,2*%
%TO.N,Net-(D5-A)*%
X32870000Y-136030000D03*
%TD*%
D16*
%TO.P,C6,1*%
%TO.N,+5V*%
X148140000Y-139900000D03*
%TO.P,C6,2*%
%TO.N,GNDREF*%
X148140000Y-141900000D03*
%TD*%
D17*
%TO.P,C13,1*%
%TO.N,Net-(C13-Pad1)*%
X23100000Y-160500000D03*
%TO.P,C13,2*%
%TO.N,Net-(C13-Pad2)*%
X23100000Y-163000000D03*
%TD*%
D21*
%TO.P,J7,1,Pin_1*%
%TO.N,+5V*%
X18780000Y-62350000D03*
D22*
%TO.P,J7,2,Pin_2*%
X18780000Y-64890000D03*
%TO.P,J7,3,Pin_3*%
X18780000Y-67430000D03*
%TD*%
D17*
%TO.P,R15,1*%
%TO.N,PA3*%
X35410000Y-120790000D03*
%TO.P,R15,2*%
%TO.N,Net-(D10-A)*%
X32870000Y-120790000D03*
%TD*%
%TO.P,R17,1*%
%TO.N,Net-(R17-Pad1)*%
X26570000Y-163040000D03*
%TO.P,R17,2*%
%TO.N,Net-(C13-Pad2)*%
X26570000Y-160500000D03*
%TD*%
%TO.P,C11,1*%
%TO.N,+3V3*%
X104200000Y-53920000D03*
%TO.P,C11,2*%
%TO.N,GNDREF*%
X104200000Y-51420000D03*
%TD*%
D21*
%TO.P,J5,1,Pin_1*%
%TO.N,~{HALT}*%
X28010000Y-62340000D03*
D22*
%TO.P,J5,2,Pin_2*%
%TO.N,~{M1}*%
X28010000Y-64880000D03*
%TO.P,J5,3,Pin_3*%
%TO.N,~{MREQ}*%
X28010000Y-67420000D03*
%TO.P,J5,4,Pin_4*%
%TO.N,~{IORQ}*%
X28010000Y-69960000D03*
%TO.P,J5,5,Pin_5*%
%TO.N,~{READ}*%
X28010000Y-72500000D03*
%TO.P,J5,6,Pin_6*%
%TO.N,~{WRITE}*%
X28010000Y-75040000D03*
%TO.P,J5,7,Pin_7*%
%TO.N,~{RESET}*%
X28010000Y-77580000D03*
%TO.P,J5,8,Pin_8*%
%TO.N,CLOCK*%
X28010000Y-80120000D03*
%TD*%
D17*
%TO.P,R44,1*%
%TO.N,+5V*%
X108900000Y-181860000D03*
%TO.P,R44,2*%
%TO.N,Net-(LCD1-A{slash}VEE)*%
X106360000Y-181860000D03*
%TD*%
D18*
%TO.P,D12,1,K*%
%TO.N,GNDREF*%
X25100000Y-98420000D03*
D19*
%TO.P,D12,2,A*%
%TO.N,Net-(D12-A)*%
X27640000Y-98420000D03*
%TD*%
D20*
%TO.P,U93,1*%
%TO.N,Net-(JP3-C)*%
X133966400Y-160096600D03*
D17*
%TO.P,U93,2*%
%TO.N,Net-(U3-O2)*%
X133966400Y-162636600D03*
%TO.P,U93,3*%
%TO.N,Net-(U93-Pad3)*%
X133966400Y-165176600D03*
%TO.P,U93,4*%
X133966400Y-167716600D03*
%TO.P,U93,5*%
%TO.N,Net-(U3-O3)*%
X133966400Y-170256600D03*
%TO.P,U93,6*%
%TO.N,/~{SEL_RAM}*%
X133966400Y-172796600D03*
%TO.P,U93,7,GND*%
%TO.N,GNDREF*%
X133966400Y-175336600D03*
%TO.P,U93,8*%
%TO.N,unconnected-(U93-Pad8)*%
X141586400Y-175336600D03*
%TO.P,U93,9*%
%TO.N,+5V*%
X141586400Y-172796600D03*
%TO.P,U93,10*%
X141586400Y-170256600D03*
%TO.P,U93,11*%
%TO.N,Net-(R42-Pad1)*%
X141586400Y-167716600D03*
%TO.P,U93,12*%
%TO.N,~{INT2}*%
X141586400Y-165176600D03*
%TO.P,U93,13*%
X141586400Y-162636600D03*
%TO.P,U93,14,VCC*%
%TO.N,+5V*%
X141586400Y-160096600D03*
%TD*%
%TO.P,R11,1*%
%TO.N,PA7*%
X35410000Y-141110000D03*
%TO.P,R11,2*%
%TO.N,Net-(D6-A)*%
X32870000Y-141110000D03*
%TD*%
D23*
%TO.P,RV1,1,1*%
%TO.N,GNDREF*%
X64210000Y-42270000D03*
D24*
%TO.P,RV1,2,2*%
%TO.N,Net-(Q1-B)*%
X64210000Y-47270000D03*
%TO.P,RV1,3,3*%
%TO.N,Net-(C21-Pad2)*%
X64210000Y-52270000D03*
%TD*%
D17*
%TO.P,C2,1*%
%TO.N,+5V*%
X95600000Y-85840000D03*
%TO.P,C2,2*%
%TO.N,GNDREF*%
X93100000Y-85840000D03*
%TD*%
%TO.P,R56,1*%
%TO.N,Net-(R41-Pad2)*%
X120122800Y-33006000D03*
%TO.P,R56,2*%
%TO.N,Net-(R47-Pad2)*%
X120122800Y-35546000D03*
%TD*%
D18*
%TO.P,D6,1,K*%
%TO.N,Net-(D3-K)*%
X25250000Y-141110000D03*
D19*
%TO.P,D6,2,A*%
%TO.N,Net-(D6-A)*%
X27790000Y-141110000D03*
%TD*%
D21*
%TO.P,JP1,1,A*%
%TO.N,Net-(D10-K)*%
X26610000Y-150730000D03*
D22*
%TO.P,JP1,2,C*%
%TO.N,GNDREF*%
X29150000Y-150730000D03*
%TO.P,JP1,3,B*%
X31690000Y-150730000D03*
%TD*%
D17*
%TO.P,R47,1*%
%TO.N,Net-(U16-QC)*%
X120072000Y-41959600D03*
%TO.P,R47,2*%
%TO.N,Net-(R47-Pad2)*%
X120072000Y-39419600D03*
%TD*%
%TO.P,R61,1*%
%TO.N,+5V*%
X53285000Y-67850000D03*
%TO.P,R61,2*%
%TO.N,~{INT2}*%
X50745000Y-67850000D03*
%TD*%
D20*
%TO.P,U4,1*%
%TO.N,Net-(D1-A)*%
X157664600Y-160381000D03*
D17*
%TO.P,U4,2*%
X157664600Y-162921000D03*
%TO.P,U4,3*%
%TO.N,Net-(U4-Pad3)*%
X157664600Y-165461000D03*
%TO.P,U4,4*%
%TO.N,~{RESET}*%
X157664600Y-168001000D03*
%TO.P,U4,5*%
%TO.N,+5V*%
X157664600Y-170541000D03*
%TO.P,U4,6*%
%TO.N,Net-(U4-Pad3)*%
X157664600Y-173081000D03*
%TO.P,U4,7,GND*%
%TO.N,GNDREF*%
X157664600Y-175621000D03*
%TO.P,U4,8*%
%TO.N,+5V*%
X165284600Y-175621000D03*
%TO.P,U4,9*%
X165284600Y-173081000D03*
%TO.P,U4,10*%
%TO.N,unconnected-(U4-Pad10)*%
X165284600Y-170541000D03*
%TO.P,U4,11*%
%TO.N,unconnected-(U4-Pad11)*%
X165284600Y-168001000D03*
%TO.P,U4,12*%
%TO.N,+5V*%
X165284600Y-165461000D03*
%TO.P,U4,13*%
X165284600Y-162921000D03*
%TO.P,U4,14,VCC*%
X165284600Y-160381000D03*
%TD*%
%TO.P,R18,1*%
%TO.N,Net-(C14-Pad1)*%
X19680000Y-168390000D03*
%TO.P,R18,2*%
%TO.N,Net-(R17-Pad1)*%
X19680000Y-170930000D03*
%TD*%
D20*
%TO.P,U11,1,~{Mr}*%
%TO.N,~{RESET}*%
X65767400Y-152603600D03*
D17*
%TO.P,U11,2,Q0*%
%TO.N,Net-(LCD1-RS)*%
X65767400Y-155143600D03*
%TO.P,U11,3,D0*%
%TO.N,D0*%
X65767400Y-157683600D03*
%TO.P,U11,4,D1*%
%TO.N,D1*%
X65767400Y-160223600D03*
%TO.P,U11,5,Q1*%
%TO.N,Net-(LCD1-E)*%
X65767400Y-162763600D03*
%TO.P,U11,6,Q2*%
%TO.N,PB2*%
X65767400Y-165303600D03*
%TO.P,U11,7,D2*%
%TO.N,D2*%
X65767400Y-167843600D03*
%TO.P,U11,8,D3*%
%TO.N,D3*%
X65767400Y-170383600D03*
%TO.P,U11,9,Q3*%
%TO.N,PB3*%
X65767400Y-172923600D03*
%TO.P,U11,10,GND*%
%TO.N,GNDREF*%
X65767400Y-175463600D03*
%TO.P,U11,11,Cp*%
%TO.N,/kraft80V2-ios/CKDIS*%
X73387400Y-175463600D03*
%TO.P,U11,12,Q4*%
%TO.N,Net-(LCD1-DB4)*%
X73387400Y-172923600D03*
%TO.P,U11,13,D4*%
%TO.N,D4*%
X73387400Y-170383600D03*
%TO.P,U11,14,D5*%
%TO.N,D5*%
X73387400Y-167843600D03*
%TO.P,U11,15,Q5*%
%TO.N,Net-(LCD1-DB5)*%
X73387400Y-165303600D03*
%TO.P,U11,16,Q6*%
%TO.N,Net-(LCD1-DB6)*%
X73387400Y-162763600D03*
%TO.P,U11,17,D6*%
%TO.N,D6*%
X73387400Y-160223600D03*
%TO.P,U11,18,D7*%
%TO.N,D7*%
X73387400Y-157683600D03*
%TO.P,U11,19,Q7*%
%TO.N,Net-(LCD1-DB7)*%
X73387400Y-155143600D03*
%TO.P,U11,20,VCC*%
%TO.N,+5V*%
X73387400Y-152603600D03*
%TD*%
D15*
%TO.P,SW1,1,1*%
%TO.N,GNDREF*%
X50750000Y-191750000D03*
X44250000Y-191750000D03*
%TO.P,SW1,2,2*%
%TO.N,PX0*%
X50750000Y-187250000D03*
X44250000Y-187250000D03*
%TD*%
D20*
%TO.P,U91,1,A0*%
%TO.N,Net-(JP11-C)*%
X79178600Y-157658200D03*
D17*
%TO.P,U91,2,A1*%
%TO.N,Net-(JP12-C)*%
X79178600Y-160198200D03*
%TO.P,U91,3,A2*%
%TO.N,Net-(JP13-C)*%
X79178600Y-162738200D03*
%TO.P,U91,4,E1*%
%TO.N,~{IORQ}*%
X79178600Y-165278200D03*
%TO.P,U91,5,E2*%
%TO.N,A7*%
X79178600Y-167818200D03*
%TO.P,U91,6,E3*%
%TO.N,~{M1}*%
X79178600Y-170358200D03*
%TO.P,U91,7,O7*%
%TO.N,unconnected-(U91-O7-Pad7)*%
X79178600Y-172898200D03*
%TO.P,U91,8,GND*%
%TO.N,GNDREF*%
X79178600Y-175438200D03*
%TO.P,U91,9,O6*%
%TO.N,unconnected-(U91-O6-Pad9)*%
X86798600Y-175438200D03*
%TO.P,U91,10,O5*%
%TO.N,~{FPGA_CS}*%
X86798600Y-172898200D03*
%TO.P,U91,11,O4*%
%TO.N,/kraft80V2-ios/~{CS4}*%
X86798600Y-170358200D03*
%TO.P,U91,12,O3*%
%TO.N,unconnected-(U91-O3-Pad12)*%
X86798600Y-167818200D03*
%TO.P,U91,13,O2*%
%TO.N,/kraft80V2-ios/~{CS2}*%
X86798600Y-165278200D03*
%TO.P,U91,14,O1*%
%TO.N,/kraft80V2-ios/~{CS1}*%
X86798600Y-162738200D03*
%TO.P,U91,15,O0*%
%TO.N,/kraft80V2-ios/~{CS0}*%
X86798600Y-160198200D03*
%TO.P,U91,16,VCC*%
%TO.N,+5V*%
X86798600Y-157658200D03*
%TD*%
D21*
%TO.P,J11,1,Pin_1*%
%TO.N,PA0*%
X19380000Y-123760000D03*
D22*
%TO.P,J11,2,Pin_2*%
%TO.N,PA1*%
X19380000Y-126300000D03*
%TO.P,J11,3,Pin_3*%
%TO.N,PA2*%
X19380000Y-128840000D03*
%TO.P,J11,4,Pin_4*%
%TO.N,PA3*%
X19380000Y-131380000D03*
%TO.P,J11,5,Pin_5*%
%TO.N,PA4*%
X19380000Y-133920000D03*
%TO.P,J11,6,Pin_6*%
%TO.N,PA5*%
X19380000Y-136460000D03*
%TO.P,J11,7,Pin_7*%
%TO.N,PA6*%
X19380000Y-139000000D03*
%TO.P,J11,8,Pin_8*%
%TO.N,PA7*%
X19380000Y-141540000D03*
%TD*%
D17*
%TO.P,C8,1*%
%TO.N,+5V*%
X47320000Y-113630000D03*
%TO.P,C8,2*%
%TO.N,GNDREF*%
X44820000Y-113630000D03*
%TD*%
D21*
%TO.P,J6,1,Pin_1*%
%TO.N,~{NMI}*%
X23400000Y-62330000D03*
D22*
%TO.P,J6,2,Pin_2*%
%TO.N,~{INT2}*%
X23400000Y-64870000D03*
%TO.P,J6,3,Pin_3*%
%TO.N,~{WAIT}*%
X23400000Y-67410000D03*
%TO.P,J6,4,Pin_4*%
%TO.N,~{RFSH}*%
X23400000Y-69950000D03*
%TO.P,J6,5,Pin_5*%
%TO.N,~{BUSAK}*%
X23400000Y-72490000D03*
%TO.P,J6,6,Pin_6*%
%TO.N,~{BUSRQ}*%
X23400000Y-75030000D03*
%TO.P,J6,7,Pin_7*%
%TO.N,+5V*%
X23400000Y-77570000D03*
%TO.P,J6,8,Pin_8*%
%TO.N,GNDREF*%
X23400000Y-80110000D03*
%TD*%
D17*
%TO.P,R34,1*%
%TO.N,Net-(R28-Pad2)*%
X97872400Y-33012400D03*
%TO.P,R34,2*%
%TO.N,Net-(R27-Pad2)*%
X97872400Y-35552400D03*
%TD*%
%TO.P,R57,1*%
%TO.N,A1*%
X127709000Y-87740000D03*
%TO.P,R57,2*%
%TO.N,Net-(U19-IOT11B)*%
X127709000Y-85200000D03*
%TD*%
%TO.P,R60,1*%
%TO.N,Net-(U19-IOT8A)*%
X117420000Y-79130000D03*
%TO.P,R60,2*%
%TO.N,GNDREF*%
X114880000Y-79130000D03*
%TD*%
%TO.P,C17,1*%
%TO.N,+5V*%
X73390000Y-149260000D03*
%TO.P,C17,2*%
%TO.N,GNDREF*%
X70890000Y-149260000D03*
%TD*%
%TO.P,R45,1*%
%TO.N,Net-(U16-QA)*%
X127488800Y-41959600D03*
%TO.P,R45,2*%
%TO.N,Net-(C21-Pad1)*%
X127488800Y-39419600D03*
%TD*%
%TO.P,C99,1*%
%TO.N,+5V*%
X47170000Y-89890000D03*
%TO.P,C99,2*%
%TO.N,GNDREF*%
X44670000Y-89890000D03*
%TD*%
%TO.P,R52,1*%
%TO.N,Net-(U19-IOT12B)*%
X120900000Y-76760000D03*
%TO.P,R52,2*%
%TO.N,GNDREF*%
X120900000Y-74220000D03*
%TD*%
%TO.P,R7,1*%
%TO.N,+5V*%
X154305000Y-147960000D03*
%TO.P,R7,2*%
%TO.N,Net-(D2-A)*%
X151765000Y-147960000D03*
%TD*%
D25*
%TO.P,REF\u002A\u002A,*%
%TO.N,*%
X19743200Y-191410600D03*
%TD*%
D26*
%TO.P,RN1,1,common*%
%TO.N,+5V*%
X56928200Y-155143600D03*
D17*
%TO.P,RN1,2,R1*%
%TO.N,PX0*%
X56928200Y-157683600D03*
%TO.P,RN1,3,R2*%
%TO.N,PX1*%
X56928200Y-160223600D03*
%TO.P,RN1,4,R3*%
%TO.N,PX2*%
X56928200Y-162763600D03*
%TO.P,RN1,5,R4*%
%TO.N,PX3*%
X56928200Y-165303600D03*
%TO.P,RN1,6,R5*%
%TO.N,PX4*%
X56928200Y-167843600D03*
%TO.P,RN1,7,R6*%
%TO.N,PX5*%
X56928200Y-170383600D03*
%TO.P,RN1,8,R7*%
%TO.N,PX6*%
X56928200Y-172923600D03*
%TO.P,RN1,9,R8*%
%TO.N,PX7*%
X56928200Y-175463600D03*
%TD*%
D16*
%TO.P,C3,1*%
%TO.N,Net-(D1-A)*%
X150800000Y-173890000D03*
%TO.P,C3,2*%
%TO.N,GNDREF*%
X152300000Y-173890000D03*
%TD*%
D27*
%TO.P,P1,1,1*%
%TO.N,+5V*%
X144765000Y-147170000D03*
%TO.P,P1,2,2*%
%TO.N,Net-(LCD1-VO)*%
X139685000Y-149710000D03*
%TO.P,P1,3,3*%
%TO.N,GNDREF*%
X144765000Y-152250000D03*
%TD*%
D17*
%TO.P,R12,1*%
%TO.N,PA0*%
X35410000Y-105550000D03*
%TO.P,R12,2*%
%TO.N,Net-(D7-A)*%
X32870000Y-105550000D03*
%TD*%
%TO.P,R42,1*%
%TO.N,Net-(R42-Pad1)*%
X117430000Y-75910000D03*
%TO.P,R42,2*%
%TO.N,Net-(U19-IOT8A)*%
X114890000Y-75910000D03*
%TD*%
%TO.P,R14,1*%
%TO.N,PA2*%
X35410000Y-115710000D03*
%TO.P,R14,2*%
%TO.N,Net-(D9-A)*%
X32870000Y-115710000D03*
%TD*%
D21*
%TO.P,JP2,1,A*%
%TO.N,Net-(D3-K)*%
X26650000Y-146800000D03*
D22*
%TO.P,JP2,2,C*%
%TO.N,GNDREF*%
X29190000Y-146800000D03*
%TO.P,JP2,3,B*%
X31730000Y-146800000D03*
%TD*%
D18*
%TO.P,D11,1,K*%
%TO.N,GNDREF*%
X25100000Y-93340000D03*
D19*
%TO.P,D11,2,A*%
%TO.N,Net-(D11-A)*%
X27640000Y-93340000D03*
%TD*%
D17*
%TO.P,R38,1*%
%TO.N,Net-(R24-Pad2)*%
X112706000Y-33006000D03*
%TO.P,R38,2*%
%TO.N,Net-(R23-Pad2)*%
X112706000Y-35546000D03*
%TD*%
D28*
%TO.P,X1,1,1*%
%TO.N,Net-(C14-Pad1)*%
X25410000Y-168360000D03*
%TO.P,X1,2,2*%
%TO.N,Net-(R17-Pad1)*%
X25410000Y-173260000D03*
%TD*%
D17*
%TO.P,R30,1*%
%TO.N,Net-(U15-QD)*%
X84830000Y-41970000D03*
%TO.P,R30,2*%
%TO.N,Net-(R30-Pad2)*%
X84830000Y-39430000D03*
%TD*%
D29*
%TO.P,U13,1,Vin*%
%TO.N,+5V*%
X60190000Y-82330000D03*
D11*
%TO.P,U13,2,GND*%
%TO.N,GNDREF*%
X62730000Y-82330000D03*
%TO.P,U13,3,GND*%
X62730000Y-59470000D03*
%TO.P,U13,4,Vout*%
%TO.N,+3V3*%
X60190000Y-59470000D03*
%TD*%
D17*
%TO.P,R51,1*%
%TO.N,Net-(U19-IOT12A)*%
X124303600Y-76785400D03*
%TO.P,R51,2*%
%TO.N,GNDREF*%
X124303600Y-74245400D03*
%TD*%
D25*
%TO.P,REF\u002A\u002A,*%
%TO.N,*%
X19750000Y-26000000D03*
%TD*%
D15*
%TO.P,SW6,1,1*%
%TO.N,GNDREF*%
X114250000Y-191750000D03*
X107750000Y-191750000D03*
%TO.P,SW6,2,2*%
%TO.N,PX5*%
X114250000Y-187250000D03*
X107750000Y-187250000D03*
%TD*%
D30*
%TO.P,D1,1,K*%
%TO.N,+5V*%
X147840000Y-157910000D03*
D17*
%TO.P,D1,2,A*%
%TO.N,Net-(D1-A)*%
X147840000Y-165530000D03*
%TD*%
D25*
%TO.P,REF\u002A\u002A,*%
%TO.N,*%
X163750000Y-26250000D03*
%TD*%
D17*
%TO.P,R46,1*%
%TO.N,Net-(U16-QB)*%
X123780400Y-41959600D03*
%TO.P,R46,2*%
%TO.N,Net-(R46-Pad2)*%
X123780400Y-39419600D03*
%TD*%
%TO.P,R31,1*%
%TO.N,GNDREF*%
X84860000Y-32920000D03*
%TO.P,R31,2*%
%TO.N,Net-(R30-Pad2)*%
X84860000Y-35460000D03*
%TD*%
%TO.P,R13,1*%
%TO.N,PA1*%
X35410000Y-110630000D03*
%TO.P,R13,2*%
%TO.N,Net-(D8-A)*%
X32870000Y-110630000D03*
%TD*%
%TO.P,R25,1*%
%TO.N,Net-(U16-QG)*%
X105238400Y-41966000D03*
%TO.P,R25,2*%
%TO.N,Net-(R25-Pad2)*%
X105238400Y-39426000D03*
%TD*%
D21*
%TO.P,J9,1,Pin_1*%
%TO.N,/kraft80V2-fpga/~{DISK_CS}*%
X129470000Y-26390000D03*
D22*
%TO.P,J9,2,Pin_2*%
%TO.N,/kraft80V2-fpga/DISK_SCK*%
X126930000Y-26390000D03*
%TO.P,J9,3,Pin_3*%
%TO.N,/kraft80V2-fpga/DISK_MOSI*%
X124390000Y-26390000D03*
%TO.P,J9,4,Pin_4*%
%TO.N,/kraft80V2-fpga/DISK_MISO*%
X121850000Y-26390000D03*
%TO.P,J9,5,Pin_5*%
%TO.N,+3V3*%
X119310000Y-26390000D03*
%TO.P,J9,6,Pin_6*%
%TO.N,GNDREF*%
X116770000Y-26390000D03*
%TD*%
D15*
%TO.P,RST1,1,1*%
%TO.N,GNDREF*%
X157150000Y-191750000D03*
X150650000Y-191750000D03*
%TO.P,RST1,2,2*%
%TO.N,Net-(D1-A)*%
X157150000Y-187250000D03*
X150650000Y-187250000D03*
%TD*%
D17*
%TO.P,R3,1*%
%TO.N,+5V*%
X73355000Y-126400000D03*
%TO.P,R3,2*%
%TO.N,~{BUSRQ}*%
X70815000Y-126400000D03*
%TD*%
%TO.P,C97,1*%
%TO.N,+5V*%
X126990000Y-156940000D03*
%TO.P,C97,2*%
%TO.N,GNDREF*%
X124490000Y-156940000D03*
%TD*%
D21*
%TO.P,J3,1,Pin_1*%
%TO.N,Net-(J3-Pin_1)*%
X79450000Y-32150000D03*
D22*
%TO.P,J3,2,Pin_2*%
%TO.N,Net-(J3-Pin_2)*%
X79450000Y-34690000D03*
%TD*%
D17*
%TO.P,C9,1*%
%TO.N,+5V*%
X50270000Y-149330000D03*
%TO.P,C9,2*%
%TO.N,GNDREF*%
X47770000Y-149330000D03*
%TD*%
D30*
%TO.P,U15,1,QB*%
%TO.N,Net-(U15-QB)*%
X101030000Y-46295000D03*
D17*
%TO.P,U15,2,QC*%
%TO.N,Net-(U15-QC)*%
X98490000Y-46295000D03*
%TO.P,U15,3,QD*%
%TO.N,Net-(U15-QD)*%
X95950000Y-46295000D03*
%TO.P,U15,4,QE*%
%TO.N,unconnected-(U15-QE-Pad4)*%
X93410000Y-46295000D03*
%TO.P,U15,5,QF*%
%TO.N,unconnected-(U15-QF-Pad5)*%
X90870000Y-46295000D03*
%TO.P,U15,6,QG*%
%TO.N,unconnected-(U15-QG-Pad6)*%
X88330000Y-46295000D03*
%TO.P,U15,7,QH*%
%TO.N,unconnected-(U15-QH-Pad7)*%
X85790000Y-46295000D03*
%TO.P,U15,8,GND*%
%TO.N,GNDREF*%
X83250000Y-46295000D03*
%TO.P,U15,9,QH'*%
%TO.N,unconnected-(U15-QH'-Pad9)*%
X83250000Y-53915000D03*
%TO.P,U15,10,~{SRCLR}*%
%TO.N,+3V3*%
X85790000Y-53915000D03*
%TO.P,U15,11,SRCLK*%
%TO.N,Net-(U15-SRCLK)*%
X88330000Y-53915000D03*
%TO.P,U15,12,RCLK*%
%TO.N,Net-(U15-RCLK)*%
X90870000Y-53915000D03*
%TO.P,U15,13,~{OE}*%
%TO.N,GNDREF*%
X93410000Y-53915000D03*
%TO.P,U15,14,SER*%
%TO.N,Net-(U15-SER)*%
X95950000Y-53915000D03*
%TO.P,U15,15,QA*%
%TO.N,Net-(U15-QA)*%
X98490000Y-53915000D03*
%TO.P,U15,16,VCC*%
%TO.N,+3V3*%
X101030000Y-53915000D03*
%TD*%
D21*
%TO.P,J13,1,Pin_1*%
%TO.N,PX0*%
X30500000Y-191610000D03*
D22*
%TO.P,J13,2,Pin_2*%
%TO.N,PX1*%
X30500000Y-189070000D03*
%TO.P,J13,3,Pin_3*%
%TO.N,PX2*%
X33040000Y-191610000D03*
%TO.P,J13,4,Pin_4*%
%TO.N,PX3*%
X33040000Y-189070000D03*
%TO.P,J13,5,Pin_5*%
%TO.N,PX4*%
X35580000Y-191610000D03*
%TO.P,J13,6,Pin_6*%
%TO.N,PX5*%
X35580000Y-189070000D03*
%TO.P,J13,7,Pin_7*%
%TO.N,PX6*%
X38120000Y-191610000D03*
%TO.P,J13,8,Pin_8*%
%TO.N,PX7*%
X38120000Y-189070000D03*
%TD*%
D17*
%TO.P,R55,1*%
%TO.N,Net-(R47-Pad2)*%
X123831200Y-33006000D03*
%TO.P,R55,2*%
%TO.N,Net-(R46-Pad2)*%
X123831200Y-35546000D03*
%TD*%
%TO.P,R2,1*%
%TO.N,+5V*%
X151670200Y-158242400D03*
%TO.P,R2,2*%
%TO.N,~{RESET}*%
X154210200Y-158242400D03*
%TD*%
%TO.P,C90,1*%
%TO.N,+5V*%
X162560000Y-95680000D03*
%TO.P,C90,2*%
%TO.N,GNDREF*%
X160060000Y-95680000D03*
%TD*%
%TO.P,R4,1*%
%TO.N,+5V*%
X73365000Y-129580000D03*
%TO.P,R4,2*%
%TO.N,~{WAIT}*%
X70825000Y-129580000D03*
%TD*%
D21*
%TO.P,J1,1,Pin_1*%
%TO.N,A15*%
X36880000Y-62340000D03*
D22*
%TO.P,J1,2,Pin_2*%
%TO.N,A14*%
X39420000Y-62340000D03*
%TO.P,J1,3,Pin_3*%
%TO.N,A13*%
X36880000Y-64880000D03*
%TO.P,J1,4,Pin_4*%
%TO.N,A12*%
X39420000Y-64880000D03*
%TO.P,J1,5,Pin_5*%
%TO.N,A11*%
X36880000Y-67420000D03*
%TO.P,J1,6,Pin_6*%
%TO.N,A10*%
X39420000Y-67420000D03*
%TO.P,J1,7,Pin_7*%
%TO.N,A9*%
X36880000Y-69960000D03*
%TO.P,J1,8,Pin_8*%
%TO.N,A8*%
X39420000Y-69960000D03*
%TO.P,J1,9,Pin_9*%
%TO.N,A7*%
X36880000Y-72500000D03*
%TO.P,J1,10,Pin_10*%
%TO.N,A6*%
X39420000Y-72500000D03*
%TO.P,J1,11,Pin_11*%
%TO.N,A5*%
X36880000Y-75040000D03*
%TO.P,J1,12,Pin_12*%
%TO.N,A4*%
X39420000Y-75040000D03*
%TO.P,J1,13,Pin_13*%
%TO.N,A3*%
X36880000Y-77580000D03*
%TO.P,J1,14,Pin_14*%
%TO.N,A2*%
X39420000Y-77580000D03*
%TO.P,J1,15,Pin_15*%
%TO.N,A1*%
X36880000Y-80120000D03*
%TO.P,J1,16,Pin_16*%
%TO.N,A0*%
X39420000Y-80120000D03*
%TD*%
D20*
%TO.P,U97,1*%
%TO.N,~{WRITE}*%
X119234400Y-160223600D03*
D17*
%TO.P,U97,2*%
%TO.N,/kraft80V2-ios/~{CS4}*%
X119234400Y-162763600D03*
%TO.P,U97,3*%
%TO.N,/kraft80V2-ios/CKFF*%
X119234400Y-165303600D03*
%TO.P,U97,4*%
%TO.N,/kraft80V2-ios/~{LEDS_CS}*%
X119234400Y-167843600D03*
%TO.P,U97,5*%
%TO.N,~{WRITE}*%
X119234400Y-170383600D03*
%TO.P,U97,6*%
%TO.N,/kraft80V2-ios/CKLED*%
X119234400Y-172923600D03*
%TO.P,U97,7,GND*%
%TO.N,GNDREF*%
X119234400Y-175463600D03*
%TO.P,U97,8*%
%TO.N,/kraft80V2-ios/CKDIS*%
X126854400Y-175463600D03*
%TO.P,U97,9*%
%TO.N,/kraft80V2-ios/~{DISP_CS}*%
X126854400Y-172923600D03*
%TO.P,U97,10*%
%TO.N,~{WRITE}*%
X126854400Y-170383600D03*
%TO.P,U97,11*%
%TO.N,/kraft80V2-ios/CKPSHB*%
X126854400Y-167843600D03*
%TO.P,U97,12*%
%TO.N,/kraft80V2-ios/~{PSHB_CS}*%
X126854400Y-165303600D03*
%TO.P,U97,13*%
%TO.N,~{READ}*%
X126854400Y-162763600D03*
%TO.P,U97,14,VCC*%
%TO.N,+5V*%
X126854400Y-160223600D03*
%TD*%
D21*
%TO.P,J12,1,Pin_1*%
%TO.N,PB2*%
X18890000Y-86660000D03*
D22*
%TO.P,J12,2,Pin_2*%
%TO.N,PB3*%
X18890000Y-89200000D03*
%TO.P,J12,3,Pin_3*%
%TO.N,PC1*%
X18890000Y-91740000D03*
%TD*%
D17*
%TO.P,C19,1*%
%TO.N,+5V*%
X141710000Y-156810000D03*
%TO.P,C19,2*%
%TO.N,GNDREF*%
X139210000Y-156810000D03*
%TD*%
%TO.P,R9,1*%
%TO.N,PA5*%
X35410000Y-130950000D03*
%TO.P,R9,2*%
%TO.N,Net-(D4-A)*%
X32870000Y-130950000D03*
%TD*%
D18*
%TO.P,D7,1,K*%
%TO.N,Net-(D10-K)*%
X25250000Y-105550000D03*
D19*
%TO.P,D7,2,A*%
%TO.N,Net-(D7-A)*%
X27790000Y-105550000D03*
%TD*%
D17*
%TO.P,R50,1*%
%TO.N,Net-(U19-IOT11B)*%
X127732600Y-76785400D03*
%TO.P,R50,2*%
%TO.N,GNDREF*%
X127732600Y-74245400D03*
%TD*%
D16*
%TO.P,C21,1*%
%TO.N,Net-(C21-Pad1)*%
X79328400Y-40276200D03*
%TO.P,C21,2*%
%TO.N,Net-(C21-Pad2)*%
X79328400Y-42276200D03*
%TD*%
D17*
%TO.P,C22,1*%
%TO.N,+5V*%
X69800000Y-33970000D03*
%TO.P,C22,2*%
%TO.N,GNDREF*%
X69800000Y-36470000D03*
%TD*%
%TO.P,R43,1*%
%TO.N,+5V*%
X74273800Y-34561200D03*
%TO.P,R43,2*%
%TO.N,Net-(J3-Pin_1)*%
X74273800Y-32021200D03*
%TD*%
D21*
%TO.P,JP3,1,A*%
%TO.N,Net-(JP14-A)*%
X120870000Y-136930000D03*
D22*
%TO.P,JP3,2,C*%
%TO.N,Net-(JP3-C)*%
X123410000Y-136930000D03*
%TO.P,JP3,3,B*%
%TO.N,+5V*%
X125950000Y-136930000D03*
%TD*%
D17*
%TO.P,R39,1*%
%TO.N,+5V*%
X64300000Y-30330000D03*
%TO.P,R39,2*%
%TO.N,/kraft80V2-fpga/DAT_KBD*%
X61760000Y-30330000D03*
%TD*%
%TO.P,C18,1*%
%TO.N,+5V*%
X119460000Y-95560000D03*
%TO.P,C18,2*%
%TO.N,GNDREF*%
X116960000Y-95560000D03*
%TD*%
D21*
%TO.P,J10,1,Pin_1*%
%TO.N,GNDREF*%
X19760000Y-179020000D03*
D22*
%TO.P,J10,2,Pin_2*%
X19760000Y-181560000D03*
%TO.P,J10,3,Pin_3*%
X19760000Y-184100000D03*
%TD*%
D20*
%TO.P,U6,1,A->B*%
%TO.N,GNDREF*%
X42602600Y-152730600D03*
D17*
%TO.P,U6,2,A0*%
%TO.N,D0*%
X42602600Y-155270600D03*
%TO.P,U6,3,A1*%
%TO.N,D1*%
X42602600Y-157810600D03*
%TO.P,U6,4,A2*%
%TO.N,D2*%
X42602600Y-160350600D03*
%TO.P,U6,5,A3*%
%TO.N,D3*%
X42602600Y-162890600D03*
%TO.P,U6,6,A4*%
%TO.N,D4*%
X42602600Y-165430600D03*
%TO.P,U6,7,A5*%
%TO.N,D5*%
X42602600Y-167970600D03*
%TO.P,U6,8,A6*%
%TO.N,D6*%
X42602600Y-170510600D03*
%TO.P,U6,9,A7*%
%TO.N,D7*%
X42602600Y-173050600D03*
%TO.P,U6,10,GND*%
%TO.N,GNDREF*%
X42602600Y-175590600D03*
%TO.P,U6,11,B7*%
%TO.N,PX7*%
X50222600Y-175590600D03*
%TO.P,U6,12,B6*%
%TO.N,PX6*%
X50222600Y-173050600D03*
%TO.P,U6,13,B5*%
%TO.N,PX5*%
X50222600Y-170510600D03*
%TO.P,U6,14,B4*%
%TO.N,PX4*%
X50222600Y-167970600D03*
%TO.P,U6,15,B3*%
%TO.N,PX3*%
X50222600Y-165430600D03*
%TO.P,U6,16,B2*%
%TO.N,PX2*%
X50222600Y-162890600D03*
%TO.P,U6,17,B1*%
%TO.N,PX1*%
X50222600Y-160350600D03*
%TO.P,U6,18,B0*%
%TO.N,PX0*%
X50222600Y-157810600D03*
%TO.P,U6,19,CE*%
%TO.N,/kraft80V2-ios/CKPSHB*%
X50222600Y-155270600D03*
%TO.P,U6,20,VCC*%
%TO.N,+5V*%
X50222600Y-152730600D03*
%TD*%
%TO.P,R23,1*%
%TO.N,Net-(U16-QE)*%
X112655200Y-41959600D03*
%TO.P,R23,2*%
%TO.N,Net-(R23-Pad2)*%
X112655200Y-39419600D03*
%TD*%
D21*
%TO.P,J8,1,Pin_1*%
%TO.N,GNDREF*%
X18810000Y-75060000D03*
D22*
%TO.P,J8,2,Pin_2*%
X18810000Y-77600000D03*
%TO.P,J8,3,Pin_3*%
X18810000Y-80140000D03*
%TD*%
D15*
%TO.P,SW8,1,1*%
%TO.N,GNDREF*%
X139650000Y-191750000D03*
X133150000Y-191750000D03*
%TO.P,SW8,2,2*%
%TO.N,PX7*%
X139650000Y-187250000D03*
X133150000Y-187250000D03*
%TD*%
D17*
%TO.P,C10,1*%
%TO.N,+5V*%
X113570000Y-156960000D03*
%TO.P,C10,2*%
%TO.N,GNDREF*%
X111070000Y-156960000D03*
%TD*%
%TO.P,R59,1*%
%TO.N,A3*%
X120876400Y-87714600D03*
%TO.P,R59,2*%
%TO.N,Net-(U19-IOT12B)*%
X120876400Y-85174600D03*
%TD*%
D20*
%TO.P,U7,1*%
%TO.N,+5V*%
X105797800Y-160294800D03*
D17*
%TO.P,U7,2*%
X105797800Y-162834800D03*
%TO.P,U7,3*%
%TO.N,unconnected-(U7-Pad3)*%
X105797800Y-165374800D03*
%TO.P,U7,4*%
%TO.N,A14*%
X105797800Y-167914800D03*
%TO.P,U7,5*%
%TO.N,CPM*%
X105797800Y-170454800D03*
%TO.P,U7,6*%
%TO.N,Net-(JP16-A)*%
X105797800Y-172994800D03*
%TO.P,U7,7,GND*%
%TO.N,GNDREF*%
X105797800Y-175534800D03*
%TO.P,U7,8*%
%TO.N,/~{SEL_RAM2}*%
X113417800Y-175534800D03*
%TO.P,U7,9*%
%TO.N,Net-(U10-Pad8)*%
X113417800Y-172994800D03*
%TO.P,U7,10*%
%TO.N,~{MREQ}*%
X113417800Y-170454800D03*
%TO.P,U7,11*%
%TO.N,unconnected-(U7-Pad11)*%
X113417800Y-167914800D03*
%TO.P,U7,12*%
%TO.N,+5V*%
X113417800Y-165374800D03*
%TO.P,U7,13*%
X113417800Y-162834800D03*
%TO.P,U7,14,VCC*%
X113417800Y-160294800D03*
%TD*%
%TO.P,R16,1*%
%TO.N,Net-(C14-Pad1)*%
X19650000Y-162950000D03*
%TO.P,R16,2*%
%TO.N,Net-(C13-Pad1)*%
X19650000Y-160410000D03*
%TD*%
%TO.P,R58,1*%
%TO.N,A2*%
X124280000Y-87740000D03*
%TO.P,R58,2*%
%TO.N,Net-(U19-IOT12A)*%
X124280000Y-85200000D03*
%TD*%
%TO.P,R32,1*%
%TO.N,Net-(R30-Pad2)*%
X90455600Y-33006000D03*
%TO.P,R32,2*%
%TO.N,Net-(R29-Pad2)*%
X90455600Y-35546000D03*
%TD*%
D25*
%TO.P,REF\u002A\u002A,*%
%TO.N,*%
X164043200Y-191410600D03*
%TD*%
D17*
%TO.P,R6,1*%
%TO.N,+5V*%
X73350000Y-132740000D03*
%TO.P,R6,2*%
%TO.N,~{NMI}*%
X70810000Y-132740000D03*
%TD*%
%TO.P,C7,1*%
%TO.N,+5V*%
X142500000Y-139830000D03*
%TO.P,C7,2*%
%TO.N,GNDREF*%
X142500000Y-142330000D03*
%TD*%
D20*
%TO.P,U10,1*%
%TO.N,Net-(C14-Pad1)*%
X30083400Y-160384400D03*
D17*
%TO.P,U10,2*%
%TO.N,Net-(C13-Pad1)*%
X30083400Y-162924400D03*
%TO.P,U10,3*%
%TO.N,Net-(C13-Pad2)*%
X30083400Y-165464400D03*
%TO.P,U10,4*%
%TO.N,Net-(R17-Pad1)*%
X30083400Y-168004400D03*
%TO.P,U10,5*%
X30083400Y-170544400D03*
%TO.P,U10,6*%
%TO.N,Net-(U10-Pad13)*%
X30083400Y-173084400D03*
%TO.P,U10,7,GND*%
%TO.N,GNDREF*%
X30083400Y-175624400D03*
%TO.P,U10,8*%
%TO.N,Net-(U10-Pad8)*%
X37703400Y-175624400D03*
%TO.P,U10,9*%
%TO.N,A15*%
X37703400Y-173084400D03*
%TO.P,U10,10*%
%TO.N,unconnected-(U10-Pad10)*%
X37703400Y-170544400D03*
%TO.P,U10,11*%
%TO.N,+5V*%
X37703400Y-168004400D03*
%TO.P,U10,12*%
%TO.N,CLOCK*%
X37703400Y-165464400D03*
%TO.P,U10,13*%
%TO.N,Net-(U10-Pad13)*%
X37703400Y-162924400D03*
%TO.P,U10,14,VCC*%
%TO.N,+5V*%
X37703400Y-160384400D03*
%TD*%
D18*
%TO.P,D3,1,K*%
%TO.N,Net-(D3-K)*%
X25250000Y-125870000D03*
D19*
%TO.P,D3,2,A*%
%TO.N,Net-(D3-A)*%
X27790000Y-125870000D03*
%TD*%
D17*
%TO.P,R41,1*%
%TO.N,Net-(R23-Pad2)*%
X116414400Y-33006000D03*
%TO.P,R41,2*%
%TO.N,Net-(R41-Pad2)*%
X116414400Y-35546000D03*
%TD*%
%TO.P,R36,1*%
%TO.N,Net-(R26-Pad2)*%
X105289200Y-33012400D03*
%TO.P,R36,2*%
%TO.N,Net-(R25-Pad2)*%
X105289200Y-35552400D03*
%TD*%
%TO.P,R49,1*%
%TO.N,Net-(U19-IOT11A)*%
X131136200Y-76785400D03*
%TO.P,R49,2*%
%TO.N,GNDREF*%
X131136200Y-74245400D03*
%TD*%
%TO.P,R28,1*%
%TO.N,Net-(U15-QB)*%
X94113200Y-41959600D03*
%TO.P,R28,2*%
%TO.N,Net-(R28-Pad2)*%
X94113200Y-39419600D03*
%TD*%
%TO.P,C1,1*%
%TO.N,+5V*%
X72830000Y-87420000D03*
%TO.P,C1,2*%
%TO.N,GNDREF*%
X72830000Y-84920000D03*
%TD*%
%TO.P,R22,1*%
%TO.N,PC1*%
X35260000Y-98420000D03*
%TO.P,R22,2*%
%TO.N,Net-(D12-A)*%
X32720000Y-98420000D03*
%TD*%
%TO.P,R5,1*%
%TO.N,+5V*%
X73370000Y-123180000D03*
%TO.P,R5,2*%
%TO.N,~{INT}*%
X70830000Y-123180000D03*
%TD*%
D22*
%TO.P,J4,1*%
%TO.N,/kraft80V2-fpga/DAT_KBD*%
X49380000Y-31790000D03*
%TO.P,J4,2*%
%TO.N,unconnected-(J4-Pad2)*%
X52260000Y-31800000D03*
%TO.P,J4,3*%
%TO.N,GNDREF*%
X47380000Y-31800000D03*
%TO.P,J4,4*%
%TO.N,+5V*%
X54280000Y-31800000D03*
%TO.P,J4,5*%
%TO.N,/kraft80V2-fpga/CK_KBD*%
X47380000Y-34100000D03*
%TO.P,J4,6*%
%TO.N,unconnected-(J4-Pad6)*%
X54280000Y-34100000D03*
D31*
%TO.P,J4,7*%
%TO.N,GNDREF*%
X57700000Y-28370000D03*
X43860000Y-28320000D03*
D32*
X50860000Y-27100000D03*
%TD*%
D17*
%TO.P,R53,1*%
%TO.N,A0*%
X131138000Y-87750400D03*
%TO.P,R53,2*%
%TO.N,Net-(U19-IOT11A)*%
X131138000Y-85210400D03*
%TD*%
D18*
%TO.P,D5,1,K*%
%TO.N,Net-(D3-K)*%
X25250000Y-136030000D03*
D19*
%TO.P,D5,2,A*%
%TO.N,Net-(D5-A)*%
X27790000Y-136030000D03*
%TD*%
D33*
%TO.P,U19,1,IOB31B*%
%TO.N,unconnected-(U19-IOB31B-Pad1)*%
X158310000Y-89660000D03*
D11*
%TO.P,U19,2,IOB31A*%
%TO.N,/kraft80V2-fpga/DISK_MOSI*%
X158310000Y-87120000D03*
%TO.P,U19,3,IOB29B*%
%TO.N,/kraft80V2-fpga/DISK_SCK*%
X158310000Y-84580000D03*
%TO.P,U19,4,IOB33A*%
%TO.N,/kraft80V2-fpga/DISK_MISO*%
X158310000Y-82040000D03*
%TO.P,U19,5,IOB8A*%
%TO.N,Net-(U19-IOB8A)*%
X158310000Y-79500000D03*
%TO.P,U19,6,IOB8B*%
%TO.N,Net-(U17-RXD)*%
X158310000Y-76960000D03*
%TO.P,U19,7,IOB11A*%
%TO.N,Net-(U17-TXD)*%
X158310000Y-74420000D03*
%TO.P,U19,8,IOB11B*%
%TO.N,Net-(U19-IOB11B)*%
X158310000Y-71880000D03*
%TO.P,U19,9,IOB13A*%
%TO.N,Net-(U19-IOB13A)*%
X158310000Y-69340000D03*
%TO.P,U19,10,IOB13B*%
%TO.N,Net-(U19-IOB13B)*%
X158310000Y-66800000D03*
%TO.P,U19,11,IOB23A*%
%TO.N,Net-(U19-IOB23A)*%
X158310000Y-64260000D03*
%TO.P,U19,12,IOB23B*%
%TO.N,Net-(U19-IOB23B)*%
X158310000Y-61720000D03*
%TO.P,U19,13,IOB33B*%
%TO.N,Net-(U19-IOB33B)*%
X158310000Y-59180000D03*
%TO.P,U19,14,IOB29A*%
%TO.N,Net-(U19-IOB29A)*%
X158310000Y-56640000D03*
%TO.P,U19,15,IOB41A*%
%TO.N,Net-(U12-LV1)*%
X158310000Y-54100000D03*
%TO.P,U19,16,IOB41B*%
%TO.N,Net-(U12-LV2)*%
X158310000Y-51560000D03*
%TO.P,U19,17,IOB17B*%
%TO.N,Net-(U12-LV3)*%
X158310000Y-49020000D03*
%TO.P,U19,18,IOR15B*%
%TO.N,Net-(U12-LV4)*%
X158310000Y-46480000D03*
%TO.P,U19,19,IOR15A*%
%TO.N,Net-(U12-LV5)*%
X158310000Y-43940000D03*
%TO.P,U19,20,IOR14B*%
%TO.N,Net-(U12-LV6)*%
X158310000Y-41400000D03*
%TO.P,U19,21,IOR14A*%
%TO.N,Net-(U12-LV7)*%
X158310000Y-38860000D03*
%TO.P,U19,22,IOR13A*%
%TO.N,Net-(U12-LV8)*%
X158310000Y-36320000D03*
%TO.P,U19,23,IOT42B*%
%TO.N,unconnected-(U19-IOT42B-Pad23)*%
X158310000Y-33780000D03*
%TO.P,U19,24,IOT42A*%
%TO.N,unconnected-(U19-IOT42A-Pad24)*%
X158310000Y-31240000D03*
%TO.P,U19,25,+3V3*%
%TO.N,+3V3*%
X135450000Y-31240000D03*
%TO.P,U19,26,GND*%
%TO.N,GNDREF*%
X135450000Y-33780000D03*
%TO.P,U19,27,IOR15B*%
%TO.N,Net-(U15-RCLK)*%
X135450000Y-36320000D03*
%TO.P,U19,28,IOR15A*%
%TO.N,Net-(U15-SRCLK)*%
X135450000Y-38860000D03*
%TO.P,U19,29,IOR24A*%
%TO.N,Net-(U16-SER)*%
X135450000Y-41400000D03*
%TO.P,U19,30,IOR24B*%
%TO.N,unconnected-(U19-IOR24B-Pad30)*%
X135450000Y-43940000D03*
%TO.P,U19,31,+5V*%
%TO.N,unconnected-(U19-+5V-Pad31)*%
X135450000Y-46480000D03*
%TO.P,U19,32,IOT41B*%
%TO.N,unconnected-(U19-IOT41B-Pad32)*%
X135450000Y-49020000D03*
%TO.P,U19,33,IOT41A*%
%TO.N,unconnected-(U19-IOT41A-Pad33)*%
X135450000Y-51560000D03*
%TO.P,U19,34,IOT39B*%
%TO.N,unconnected-(U19-IOT39B-Pad34)*%
X135450000Y-54100000D03*
%TO.P,U19,35,IOT39A*%
%TO.N,unconnected-(U19-IOT39A-Pad35)*%
X135450000Y-56640000D03*
%TO.P,U19,36,IOT38B*%
%TO.N,unconnected-(U19-IOT38B-Pad36)*%
X135450000Y-59180000D03*
%TO.P,U19,37,IOT38A*%
%TO.N,unconnected-(U19-IOT38A-Pad37)*%
X135450000Y-61720000D03*
%TO.P,U19,38,IOT37B*%
%TO.N,/kraft80V2-fpga/~{DISK_CS}*%
X135450000Y-64260000D03*
%TO.P,U19,39,IOT37A*%
%TO.N,unconnected-(U19-IOT37A-Pad39)*%
X135450000Y-66800000D03*
%TO.P,U19,40,IOT12B*%
%TO.N,Net-(U19-IOT12B)*%
X135450000Y-69340000D03*
%TO.P,U19,41,IOT12A*%
%TO.N,Net-(U19-IOT12A)*%
X135450000Y-71880000D03*
%TO.P,U19,42,IOT11B*%
%TO.N,Net-(U19-IOT11B)*%
X135450000Y-74420000D03*
%TO.P,U19,43,IOT11A*%
%TO.N,Net-(U19-IOT11A)*%
X135450000Y-76960000D03*
%TO.P,U19,44,IOT10B*%
%TO.N,unconnected-(U19-IOT10B-Pad44)*%
X135450000Y-79500000D03*
%TO.P,U19,45,IOT10A*%
%TO.N,unconnected-(U19-IOT10A-Pad45)*%
X135450000Y-82040000D03*
%TO.P,U19,46,IOT8B*%
%TO.N,unconnected-(U19-IOT8B-Pad46)*%
X135450000Y-84580000D03*
%TO.P,U19,47,IOT8A*%
%TO.N,Net-(U19-IOT8A)*%
X135450000Y-87120000D03*
%TO.P,U19,48,IOR5A*%
%TO.N,Net-(U17-~{CTS})*%
X135450000Y-89660000D03*
%TD*%
D17*
%TO.P,R1,1*%
%TO.N,+5V*%
X151822600Y-162966800D03*
%TO.P,R1,2*%
%TO.N,Net-(D1-A)*%
X151822600Y-165506800D03*
%TD*%
%TO.P,R24,1*%
%TO.N,Net-(U16-QF)*%
X108946800Y-41966000D03*
%TO.P,R24,2*%
%TO.N,Net-(R24-Pad2)*%
X108946800Y-39426000D03*
%TD*%
%TO.P,C4,1*%
%TO.N,+3V3*%
X130730000Y-53990000D03*
%TO.P,C4,2*%
%TO.N,GNDREF*%
X130730000Y-51490000D03*
%TD*%
%TO.P,C20,1*%
%TO.N,+5V*%
X101580000Y-181900000D03*
%TO.P,C20,2*%
%TO.N,GNDREF*%
X104080000Y-181900000D03*
%TD*%
%TO.P,R40,1*%
%TO.N,+5V*%
X64330000Y-34090000D03*
%TO.P,R40,2*%
%TO.N,/kraft80V2-fpga/CK_KBD*%
X61790000Y-34090000D03*
%TD*%
%TO.P,R33,1*%
%TO.N,Net-(R29-Pad2)*%
X94164000Y-33006000D03*
%TO.P,R33,2*%
%TO.N,Net-(R28-Pad2)*%
X94164000Y-35546000D03*
%TD*%
D21*
%TO.P,J2,1,Pin_1*%
%TO.N,D7*%
X32600000Y-62400000D03*
D22*
%TO.P,J2,2,Pin_2*%
%TO.N,D6*%
X32600000Y-64940000D03*
%TO.P,J2,3,Pin_3*%
%TO.N,D5*%
X32600000Y-67480000D03*
%TO.P,J2,4,Pin_4*%
%TO.N,D4*%
X32600000Y-70020000D03*
%TO.P,J2,5,Pin_5*%
%TO.N,D3*%
X32600000Y-72560000D03*
%TO.P,J2,6,Pin_6*%
%TO.N,D2*%
X32600000Y-75100000D03*
%TO.P,J2,7,Pin_7*%
%TO.N,D1*%
X32600000Y-77640000D03*
%TO.P,J2,8,Pin_8*%
%TO.N,D0*%
X32600000Y-80180000D03*
%TD*%
D18*
%TO.P,D4,1,K*%
%TO.N,Net-(D3-K)*%
X25250000Y-130950000D03*
D19*
%TO.P,D4,2,A*%
%TO.N,Net-(D4-A)*%
X27790000Y-130950000D03*
%TD*%
D18*
%TO.P,D8,1,K*%
%TO.N,Net-(D10-K)*%
X25250000Y-110630000D03*
D19*
%TO.P,D8,2,A*%
%TO.N,Net-(D8-A)*%
X27790000Y-110630000D03*
%TD*%
D17*
%TO.P,R27,1*%
%TO.N,Net-(U15-QA)*%
X97821600Y-41966000D03*
%TO.P,R27,2*%
%TO.N,Net-(R27-Pad2)*%
X97821600Y-39426000D03*
%TD*%
D21*
%TO.P,JP4,1,A*%
%TO.N,+5V*%
X132040000Y-136950000D03*
D22*
%TO.P,JP4,2,C*%
%TO.N,/~{ROM_BASIC}*%
X134580000Y-136950000D03*
%TO.P,JP4,3,B*%
%TO.N,Net-(JP14-A)*%
X137120000Y-136950000D03*
%TD*%
D18*
%TO.P,D9,1,K*%
%TO.N,Net-(D10-K)*%
X25250000Y-115710000D03*
D19*
%TO.P,D9,2,A*%
%TO.N,Net-(D9-A)*%
X27790000Y-115710000D03*
%TD*%
D17*
%TO.P,C14,1*%
%TO.N,Net-(C14-Pad1)*%
X29520000Y-157150000D03*
%TO.P,C14,2*%
%TO.N,GNDREF*%
X32020000Y-157150000D03*
%TD*%
%TO.P,R26,1*%
%TO.N,Net-(U16-QH)*%
X101530000Y-41966000D03*
%TO.P,R26,2*%
%TO.N,Net-(R26-Pad2)*%
X101530000Y-39426000D03*
%TD*%
D34*
%TO.P,Q1,1,C*%
%TO.N,Net-(J3-Pin_2)*%
X76813800Y-46901200D03*
D35*
%TO.P,Q1,2,B*%
%TO.N,Net-(Q1-B)*%
X75543800Y-46901200D03*
%TO.P,Q1,3,E*%
%TO.N,GNDREF*%
X74273800Y-46901200D03*
%TD*%
D15*
%TO.P,SW3,1,1*%
%TO.N,GNDREF*%
X76150000Y-191750000D03*
X69650000Y-191750000D03*
%TO.P,SW3,2,2*%
%TO.N,PX2*%
X76150000Y-187250000D03*
X69650000Y-187250000D03*
%TD*%
D30*
%TO.P,U16,1,QB*%
%TO.N,Net-(U16-QB)*%
X127496800Y-46371200D03*
D17*
%TO.P,U16,2,QC*%
%TO.N,Net-(U16-QC)*%
X124956800Y-46371200D03*
%TO.P,U16,3,QD*%
%TO.N,Net-(U16-QD)*%
X122416800Y-46371200D03*
%TO.P,U16,4,QE*%
%TO.N,Net-(U16-QE)*%
X119876800Y-46371200D03*
%TO.P,U16,5,QF*%
%TO.N,Net-(U16-QF)*%
X117336800Y-46371200D03*
%TO.P,U16,6,QG*%
%TO.N,Net-(U16-QG)*%
X114796800Y-46371200D03*
%TO.P,U16,7,QH*%
%TO.N,Net-(U16-QH)*%
X112256800Y-46371200D03*
%TO.P,U16,8,GND*%
%TO.N,GNDREF*%
X109716800Y-46371200D03*
%TO.P,U16,9,QH'*%
%TO.N,Net-(U15-SER)*%
X109716800Y-53991200D03*
%TO.P,U16,10,~{SRCLR}*%
%TO.N,+3V3*%
X112256800Y-53991200D03*
%TO.P,U16,11,SRCLK*%
%TO.N,Net-(U15-SRCLK)*%
X114796800Y-53991200D03*
%TO.P,U16,12,RCLK*%
%TO.N,Net-(U15-RCLK)*%
X117336800Y-53991200D03*
%TO.P,U16,13,~{OE}*%
%TO.N,GNDREF*%
X119876800Y-53991200D03*
%TO.P,U16,14,SER*%
%TO.N,Net-(U16-SER)*%
X122416800Y-53991200D03*
%TO.P,U16,15,QA*%
%TO.N,Net-(U16-QA)*%
X124956800Y-53991200D03*
%TO.P,U16,16,VCC*%
%TO.N,+3V3*%
X127496800Y-53991200D03*
%TD*%
%TO.P,R35,1*%
%TO.N,Net-(R27-Pad2)*%
X101580800Y-33012400D03*
%TO.P,R35,2*%
%TO.N,Net-(R26-Pad2)*%
X101580800Y-35552400D03*
%TD*%
%TO.P,C5,1*%
%TO.N,+5V*%
X99940000Y-153710000D03*
%TO.P,C5,2*%
%TO.N,GNDREF*%
X97440000Y-153710000D03*
%TD*%
D36*
%TO.P,U2,1,NC*%
%TO.N,unconnected-(U2-NC-Pad1)*%
X80067600Y-98679400D03*
D37*
%TO.P,U2,2,A12*%
%TO.N,A12*%
X80067600Y-101219400D03*
%TO.P,U2,3,A7*%
%TO.N,A7*%
X80067600Y-103759400D03*
%TO.P,U2,4,A6*%
%TO.N,A6*%
X80067600Y-106299400D03*
%TO.P,U2,5,A5*%
%TO.N,A5*%
X80067600Y-108839400D03*
%TO.P,U2,6,A4*%
%TO.N,A4*%
X80067600Y-111379400D03*
%TO.P,U2,7,A3*%
%TO.N,A3*%
X80067600Y-113919400D03*
%TO.P,U2,8,A2*%
%TO.N,A2*%
X80067600Y-116459400D03*
%TO.P,U2,9,A1*%
%TO.N,A1*%
X80067600Y-118999400D03*
%TO.P,U2,10,A0*%
%TO.N,A0*%
X80067600Y-121539400D03*
%TO.P,U2,11,I/O0*%
%TO.N,D0*%
X80067600Y-124079400D03*
%TO.P,U2,12,I/O1*%
%TO.N,D1*%
X80067600Y-126619400D03*
%TO.P,U2,13,I/O2*%
%TO.N,D2*%
X80067600Y-129159400D03*
%TO.P,U2,14,GND*%
%TO.N,GNDREF*%
X80067600Y-131699400D03*
%TO.P,U2,15,I/O3*%
%TO.N,D3*%
X95307600Y-131699400D03*
%TO.P,U2,16,I/O4*%
%TO.N,D4*%
X95307600Y-129159400D03*
%TO.P,U2,17,I/O5*%
%TO.N,D5*%
X95307600Y-126619400D03*
%TO.P,U2,18,I/O6*%
%TO.N,D6*%
X95307600Y-124079400D03*
%TO.P,U2,19,I/O7*%
%TO.N,D7*%
X95307600Y-121539400D03*
%TO.P,U2,20,~{CE}*%
%TO.N,/~{SEL_ROM}*%
X95307600Y-118999400D03*
%TO.P,U2,21,A10*%
%TO.N,A10*%
X95307600Y-116459400D03*
%TO.P,U2,22,~{OE}*%
%TO.N,~{READ}*%
X95307600Y-113919400D03*
%TO.P,U2,23,A11*%
%TO.N,Net-(JP18-C)*%
X95307600Y-111379400D03*
%TO.P,U2,24,A9*%
%TO.N,A9*%
X95307600Y-108839400D03*
%TO.P,U2,25,A8*%
%TO.N,A8*%
X95307600Y-106299400D03*
%TO.P,U2,26,NC*%
%TO.N,+5V*%
X95307600Y-103759400D03*
%TO.P,U2,27,~{WE}*%
X95307600Y-101219400D03*
%TO.P,U2,28,VCC*%
X95307600Y-98679400D03*
%TD*%
D17*
%TO.P,R29,1*%
%TO.N,Net-(U15-QC)*%
X90404800Y-41959600D03*
%TO.P,R29,2*%
%TO.N,Net-(R29-Pad2)*%
X90404800Y-39419600D03*
%TD*%
%TO.P,R54,1*%
%TO.N,Net-(R46-Pad2)*%
X127539600Y-33006000D03*
%TO.P,R54,2*%
%TO.N,Net-(C21-Pad1)*%
X127539600Y-35546000D03*
%TD*%
%TO.P,R8,1*%
%TO.N,PA4*%
X35410000Y-125870000D03*
%TO.P,R8,2*%
%TO.N,Net-(D3-A)*%
X32870000Y-125870000D03*
%TD*%
D15*
%TO.P,SW4,1,1*%
%TO.N,GNDREF*%
X88850000Y-191750000D03*
X82350000Y-191750000D03*
%TO.P,SW4,2,2*%
%TO.N,PX3*%
X88850000Y-187250000D03*
X82350000Y-187250000D03*
%TD*%
D20*
%TO.P,U3,1,A0*%
%TO.N,Net-(JP15-C)*%
X92386600Y-157556600D03*
D17*
%TO.P,U3,2,A1*%
%TO.N,Net-(JP16-C)*%
X92386600Y-160096600D03*
%TO.P,U3,3,A2*%
%TO.N,Net-(JP17-C)*%
X92386600Y-162636600D03*
%TO.P,U3,4,E1*%
%TO.N,~{MREQ}*%
X92386600Y-165176600D03*
%TO.P,U3,5,E2*%
%TO.N,GNDREF*%
X92386600Y-167716600D03*
%TO.P,U3,6,E3*%
%TO.N,+5V*%
X92386600Y-170256600D03*
%TO.P,U3,7,O7*%
%TO.N,unconnected-(U3-O7-Pad7)*%
X92386600Y-172796600D03*
%TO.P,U3,8,GND*%
%TO.N,GNDREF*%
X92386600Y-175336600D03*
%TO.P,U3,9,O6*%
%TO.N,unconnected-(U3-O6-Pad9)*%
X100006600Y-175336600D03*
%TO.P,U3,10,O5*%
%TO.N,unconnected-(U3-O5-Pad10)*%
X100006600Y-172796600D03*
%TO.P,U3,11,O4*%
%TO.N,unconnected-(U3-O4-Pad11)*%
X100006600Y-170256600D03*
%TO.P,U3,12,O3*%
%TO.N,Net-(U3-O3)*%
X100006600Y-167716600D03*
%TO.P,U3,13,O2*%
%TO.N,Net-(U3-O2)*%
X100006600Y-165176600D03*
%TO.P,U3,14,O1*%
%TO.N,Net-(JP14-A)*%
X100006600Y-162636600D03*
%TO.P,U3,15,O0*%
%TO.N,/~{SEL_ROM}*%
X100006600Y-160096600D03*
%TO.P,U3,16,VCC*%
%TO.N,+5V*%
X100006600Y-157556600D03*
%TD*%
%TO.P,C91,1*%
%TO.N,+5V*%
X86780000Y-154320000D03*
%TO.P,C91,2*%
%TO.N,GNDREF*%
X84280000Y-154320000D03*
%TD*%
%TO.P,C15,1*%
%TO.N,+5V*%
X37660000Y-157170000D03*
%TO.P,C15,2*%
%TO.N,GNDREF*%
X35160000Y-157170000D03*
%TD*%
%TO.P,C16,1*%
%TO.N,+5V*%
X165380000Y-156880000D03*
%TO.P,C16,2*%
%TO.N,GNDREF*%
X162880000Y-156880000D03*
%TD*%
D29*
%TO.P,U17,1,PWREN*%
%TO.N,unconnected-(U17-PWREN-Pad1)*%
X25260000Y-35120000D03*
D11*
%TO.P,U17,2,TEN*%
%TO.N,unconnected-(U17-TEN-Pad2)*%
X25260000Y-37660000D03*
%TO.P,U17,3,SLEEP*%
%TO.N,unconnected-(U17-SLEEP-Pad3)*%
X25260000Y-40200000D03*
%TO.P,U17,4,~{CTS}*%
%TO.N,Net-(U17-~{CTS})*%
X25260000Y-42740000D03*
%TO.P,U17,5,3V3*%
%TO.N,unconnected-(U17-3V3-Pad5)*%
X25260000Y-45280000D03*
%TO.P,U17,6,5V*%
%TO.N,+5V*%
X25260000Y-47820000D03*
%TO.P,U17,7,RXL*%
%TO.N,unconnected-(U17-RXL-Pad7)*%
X25260000Y-50360000D03*
%TO.P,U17,8,TXL*%
%TO.N,unconnected-(U17-TXL-Pad8)*%
X25260000Y-52900000D03*
%TO.P,U17,9,GND*%
%TO.N,GNDREF*%
X25260000Y-55440000D03*
%TO.P,U17,10,TXD*%
%TO.N,Net-(U17-TXD)*%
X40500000Y-55440000D03*
%TO.P,U17,11,~{DTR}*%
%TO.N,unconnected-(U17-~{DTR}-Pad11)*%
X40500000Y-52900000D03*
%TO.P,U17,12,~{RTS}*%
%TO.N,unconnected-(U17-~{RTS}-Pad12)*%
X40500000Y-50360000D03*
%TO.P,U17,13,VCC*%
%TO.N,unconnected-(U17-VCC-Pad13)*%
X40500000Y-47820000D03*
%TO.P,U17,14,RXD*%
%TO.N,Net-(U17-RXD)*%
X40500000Y-45280000D03*
%TO.P,U17,15,~{RI}*%
%TO.N,unconnected-(U17-~{RI}-Pad15)*%
X40500000Y-42740000D03*
%TO.P,U17,16,GND*%
%TO.N,GNDREF*%
X40500000Y-40200000D03*
%TO.P,U17,17,~{RSD}*%
%TO.N,unconnected-(U17-~{RSD}-Pad17)*%
X40500000Y-37660000D03*
%TO.P,U17,18,~{DCD}*%
%TO.N,unconnected-(U17-~{DCD}-Pad18)*%
X40500000Y-35120000D03*
%TD*%
D20*
%TO.P,U99,1,~{R}*%
%TO.N,~{RESET}*%
X39570000Y-93245000D03*
D17*
%TO.P,U99,2,D*%
%TO.N,D0*%
X39570000Y-95785000D03*
%TO.P,U99,3,C*%
%TO.N,/kraft80V2-ios/CKFF*%
X39570000Y-98325000D03*
%TO.P,U99,4,~{S}*%
%TO.N,+5V*%
X39570000Y-100865000D03*
%TO.P,U99,5,Q*%
%TO.N,CPM*%
X39570000Y-103405000D03*
%TO.P,U99,6,~{Q}*%
%TO.N,unconnected-(U99A-~{Q}-Pad6)*%
X39570000Y-105945000D03*
%TO.P,U99,7,GND*%
%TO.N,GNDREF*%
X39570000Y-108485000D03*
%TO.P,U99,8,~{Q}*%
%TO.N,unconnected-(U99B-~{Q}-Pad8)*%
X47190000Y-108485000D03*
%TO.P,U99,9,Q*%
%TO.N,PC1*%
X47190000Y-105945000D03*
%TO.P,U99,10,~{S}*%
%TO.N,+5V*%
X47190000Y-103405000D03*
%TO.P,U99,11,C*%
%TO.N,/kraft80V2-ios/CKFF*%
X47190000Y-100865000D03*
%TO.P,U99,12,D*%
%TO.N,D1*%
X47190000Y-98325000D03*
%TO.P,U99,13,~{R}*%
%TO.N,~{RESET}*%
X47190000Y-95785000D03*
%TO.P,U99,14,VCC*%
%TO.N,+5V*%
X47190000Y-93245000D03*
%TD*%
%TO.P,R48,1*%
%TO.N,Net-(U16-QD)*%
X116363600Y-41959600D03*
%TO.P,R48,2*%
%TO.N,Net-(R41-Pad2)*%
X116363600Y-39419600D03*
%TD*%
D38*
%TO.P,LCD1,1,VSS*%
%TO.N,GNDREF*%
X93220000Y-181500000D03*
D39*
%TO.P,LCD1,2,VDD*%
%TO.N,+5V*%
X90680000Y-181500000D03*
%TO.P,LCD1,3,VO*%
%TO.N,Net-(LCD1-VO)*%
X88140000Y-181500000D03*
%TO.P,LCD1,4,RS*%
%TO.N,Net-(LCD1-RS)*%
X85600000Y-181500000D03*
%TO.P,LCD1,5,R/~{W}*%
%TO.N,GNDREF*%
X83060000Y-181500000D03*
%TO.P,LCD1,6,E*%
%TO.N,Net-(LCD1-E)*%
X80520000Y-181500000D03*
%TO.P,LCD1,7,DB0*%
%TO.N,GNDREF*%
X77980000Y-181500000D03*
%TO.P,LCD1,8,DB1*%
X75440000Y-181500000D03*
%TO.P,LCD1,9,DB2*%
X72900000Y-181500000D03*
%TO.P,LCD1,10,DB3*%
X70360000Y-181500000D03*
%TO.P,LCD1,11,DB4*%
%TO.N,Net-(LCD1-DB4)*%
X67820000Y-181500000D03*
%TO.P,LCD1,12,DB5*%
%TO.N,Net-(LCD1-DB5)*%
X65280000Y-181500000D03*
%TO.P,LCD1,13,DB6*%
%TO.N,Net-(LCD1-DB6)*%
X62734920Y-181497460D03*
%TO.P,LCD1,14,DB7*%
%TO.N,Net-(LCD1-DB7)*%
X60200000Y-181500000D03*
%TO.P,LCD1,15,A/VEE*%
%TO.N,Net-(LCD1-A{slash}VEE)*%
X98300000Y-181500000D03*
%TO.P,LCD1,16,K*%
%TO.N,GNDREF*%
X95754920Y-181497460D03*
%TD*%
D20*
%TO.P,U18,1,NC*%
%TO.N,unconnected-(U18-NC-Pad1)*%
X104248400Y-98755600D03*
D17*
%TO.P,U18,2,A12*%
%TO.N,A12*%
X104248400Y-101295600D03*
%TO.P,U18,3,A7*%
%TO.N,A7*%
X104248400Y-103835600D03*
%TO.P,U18,4,A6*%
%TO.N,A6*%
X104248400Y-106375600D03*
%TO.P,U18,5,A5*%
%TO.N,A5*%
X104248400Y-108915600D03*
%TO.P,U18,6,A4*%
%TO.N,A4*%
X104248400Y-111455600D03*
%TO.P,U18,7,A3*%
%TO.N,A3*%
X104248400Y-113995600D03*
%TO.P,U18,8,A2*%
%TO.N,A2*%
X104248400Y-116535600D03*
%TO.P,U18,9,A1*%
%TO.N,A1*%
X104248400Y-119075600D03*
%TO.P,U18,10,A0*%
%TO.N,A0*%
X104248400Y-121615600D03*
%TO.P,U18,11,I/O0*%
%TO.N,D0*%
X104248400Y-124155600D03*
%TO.P,U18,12,I/O1*%
%TO.N,D1*%
X104248400Y-126695600D03*
%TO.P,U18,13,I/O2*%
%TO.N,D2*%
X104248400Y-129235600D03*
%TO.P,U18,14,GND*%
%TO.N,GNDREF*%
X104248400Y-131775600D03*
%TO.P,U18,15,I/O3*%
%TO.N,D3*%
X119488400Y-131775600D03*
%TO.P,U18,16,I/O4*%
%TO.N,D4*%
X119488400Y-129235600D03*
%TO.P,U18,17,I/O5*%
%TO.N,D5*%
X119488400Y-126695600D03*
%TO.P,U18,18,I/O6*%
%TO.N,D6*%
X119488400Y-124155600D03*
%TO.P,U18,19,I/O7*%
%TO.N,D7*%
X119488400Y-121615600D03*
%TO.P,U18,20,~{CE}*%
%TO.N,/~{ROM_BASIC}*%
X119488400Y-119075600D03*
%TO.P,U18,21,A10*%
%TO.N,A10*%
X119488400Y-116535600D03*
%TO.P,U18,22,~{OE}*%
%TO.N,~{READ}*%
X119488400Y-113995600D03*
%TO.P,U18,23,A11*%
%TO.N,A11*%
X119488400Y-111455600D03*
%TO.P,U18,24,A9*%
%TO.N,A9*%
X119488400Y-108915600D03*
%TO.P,U18,25,A8*%
%TO.N,A8*%
X119488400Y-106375600D03*
%TO.P,U18,26,NC*%
%TO.N,unconnected-(U18-NC-Pad26)*%
X119488400Y-103835600D03*
%TO.P,U18,27,~{WE}*%
%TO.N,+5V*%
X119488400Y-101295600D03*
%TO.P,U18,28,VCC*%
X119488400Y-98755600D03*
%TD*%
D20*
%TO.P,U9,1,A14*%
%TO.N,A14*%
X126016200Y-98933400D03*
D17*
%TO.P,U9,2,A12*%
%TO.N,A12*%
X126016200Y-101473400D03*
%TO.P,U9,3,A7*%
%TO.N,A7*%
X126016200Y-104013400D03*
%TO.P,U9,4,A6*%
%TO.N,A6*%
X126016200Y-106553400D03*
%TO.P,U9,5,A5*%
%TO.N,A5*%
X126016200Y-109093400D03*
%TO.P,U9,6,A4*%
%TO.N,A4*%
X126016200Y-111633400D03*
%TO.P,U9,7,A3*%
%TO.N,A3*%
X126016200Y-114173400D03*
%TO.P,U9,8,A2*%
%TO.N,A2*%
X126016200Y-116713400D03*
%TO.P,U9,9,A1*%
%TO.N,A1*%
X126016200Y-119253400D03*
%TO.P,U9,10,A0*%
%TO.N,A0*%
X126016200Y-121793400D03*
%TO.P,U9,11,Q0*%
%TO.N,D0*%
X126016200Y-124333400D03*
%TO.P,U9,12,Q1*%
%TO.N,D1*%
X126016200Y-126873400D03*
%TO.P,U9,13,Q2*%
%TO.N,D2*%
X126016200Y-129413400D03*
%TO.P,U9,14,GND*%
%TO.N,GNDREF*%
X126016200Y-131953400D03*
%TO.P,U9,15,Q3*%
%TO.N,D3*%
X141256200Y-131953400D03*
%TO.P,U9,16,Q4*%
%TO.N,D4*%
X141256200Y-129413400D03*
%TO.P,U9,17,Q5*%
%TO.N,D5*%
X141256200Y-126873400D03*
%TO.P,U9,18,Q6*%
%TO.N,D6*%
X141256200Y-124333400D03*
%TO.P,U9,19,Q7*%
%TO.N,D7*%
X141256200Y-121793400D03*
%TO.P,U9,20,~{CS}*%
%TO.N,/~{SEL_RAM}*%
X141256200Y-119253400D03*
%TO.P,U9,21,A10*%
%TO.N,A10*%
X141256200Y-116713400D03*
%TO.P,U9,22,~{OE}*%
%TO.N,~{READ}*%
X141256200Y-114173400D03*
%TO.P,U9,23,A11*%
%TO.N,Net-(JP20-C)*%
X141256200Y-111633400D03*
%TO.P,U9,24,A9*%
%TO.N,A9*%
X141256200Y-109093400D03*
%TO.P,U9,25,A8*%
%TO.N,A8*%
X141256200Y-106553400D03*
%TO.P,U9,26,A13*%
%TO.N,Net-(JP19-C)*%
X141256200Y-104013400D03*
%TO.P,U9,27,~{WE}*%
%TO.N,~{WRITE}*%
X141256200Y-101473400D03*
%TO.P,U9,28,VCC*%
%TO.N,+5V*%
X141256200Y-98933400D03*
%TD*%
D20*
%TO.P,U1,1,A_{11}*%
%TO.N,A11*%
X52280000Y-88875000D03*
D17*
%TO.P,U1,2,A_{12}*%
%TO.N,A12*%
X52280000Y-91415000D03*
%TO.P,U1,3,A_{13}*%
%TO.N,A13*%
X52280000Y-93955000D03*
%TO.P,U1,4,A_{14}*%
%TO.N,A14*%
X52280000Y-96495000D03*
%TO.P,U1,5,A_{15}*%
%TO.N,A15*%
X52280000Y-99035000D03*
%TO.P,U1,6,CLK*%
%TO.N,CLOCK*%
X52280000Y-101575000D03*
%TO.P,U1,7,D_{4}*%
%TO.N,D4*%
X52280000Y-104115000D03*
%TO.P,U1,8,D_{3}*%
%TO.N,D3*%
X52280000Y-106655000D03*
%TO.P,U1,9,D_{5}*%
%TO.N,D5*%
X52280000Y-109195000D03*
%TO.P,U1,10,D_{6}*%
%TO.N,D6*%
X52280000Y-111735000D03*
%TO.P,U1,11,V_{CC}*%
%TO.N,+5V*%
X52280000Y-114275000D03*
%TO.P,U1,12,D_{2}*%
%TO.N,D2*%
X52280000Y-116815000D03*
%TO.P,U1,13,D_{7}*%
%TO.N,D7*%
X52280000Y-119355000D03*
%TO.P,U1,14,D_{0}*%
%TO.N,D0*%
X52280000Y-121895000D03*
%TO.P,U1,15,D_{1}*%
%TO.N,D1*%
X52280000Y-124435000D03*
%TO.P,U1,16,~{INT}*%
%TO.N,~{INT}*%
X52280000Y-126975000D03*
%TO.P,U1,17,~{NMI}*%
%TO.N,~{NMI}*%
X52280000Y-129515000D03*
%TO.P,U1,18,~{HALT}*%
%TO.N,~{HALT}*%
X52280000Y-132055000D03*
%TO.P,U1,19,~{MREQ}*%
%TO.N,~{MREQ}*%
X52280000Y-134595000D03*
%TO.P,U1,20,~{IORQ}*%
%TO.N,~{IORQ}*%
X52280000Y-137135000D03*
%TO.P,U1,21,~{RD}*%
%TO.N,~{READ}*%
X67520000Y-137135000D03*
%TO.P,U1,22,~{WR}*%
%TO.N,~{WRITE}*%
X67520000Y-134595000D03*
%TO.P,U1,23,~{BUSACK}*%
%TO.N,~{BUSAK}*%
X67520000Y-132055000D03*
%TO.P,U1,24,~{WAIT}*%
%TO.N,~{WAIT}*%
X67520000Y-129515000D03*
%TO.P,U1,25,~{BUSREQ}*%
%TO.N,~{BUSRQ}*%
X67520000Y-126975000D03*
%TO.P,U1,26,~{RESET}*%
%TO.N,~{RESET}*%
X67520000Y-124435000D03*
%TO.P,U1,27,~{M1}*%
%TO.N,~{M1}*%
X67520000Y-121895000D03*
%TO.P,U1,28,~{RFSH}*%
%TO.N,~{RFSH}*%
X67520000Y-119355000D03*
%TO.P,U1,29,GND*%
%TO.N,GNDREF*%
X67520000Y-116815000D03*
%TO.P,U1,30,A_{0}*%
%TO.N,A0*%
X67520000Y-114275000D03*
%TO.P,U1,31,A_{1}*%
%TO.N,A1*%
X67520000Y-111735000D03*
%TO.P,U1,32,A_{2}*%
%TO.N,A2*%
X67520000Y-109195000D03*
%TO.P,U1,33,A_{3}*%
%TO.N,A3*%
X67520000Y-106655000D03*
%TO.P,U1,34,A_{4}*%
%TO.N,A4*%
X67520000Y-104115000D03*
%TO.P,U1,35,A_{5}*%
%TO.N,A5*%
X67520000Y-101575000D03*
%TO.P,U1,36,A_{6}*%
%TO.N,A6*%
X67520000Y-99035000D03*
%TO.P,U1,37,A_{7}*%
%TO.N,A7*%
X67520000Y-96495000D03*
%TO.P,U1,38,A_{8}*%
%TO.N,A8*%
X67520000Y-93955000D03*
%TO.P,U1,39,A_{9}*%
%TO.N,A9*%
X67520000Y-91415000D03*
%TO.P,U1,40,A_{10}*%
%TO.N,A10*%
X67520000Y-88875000D03*
%TD*%
D20*
%TO.P,U90,1,A14*%
%TO.N,A14*%
X147370000Y-98870000D03*
D17*
%TO.P,U90,2,A12*%
%TO.N,A12*%
X147370000Y-101410000D03*
%TO.P,U90,3,A7*%
%TO.N,A7*%
X147370000Y-103950000D03*
%TO.P,U90,4,A6*%
%TO.N,A6*%
X147370000Y-106490000D03*
%TO.P,U90,5,A5*%
%TO.N,A5*%
X147370000Y-109030000D03*
%TO.P,U90,6,A4*%
%TO.N,A4*%
X147370000Y-111570000D03*
%TO.P,U90,7,A3*%
%TO.N,A3*%
X147370000Y-114110000D03*
%TO.P,U90,8,A2*%
%TO.N,A2*%
X147370000Y-116650000D03*
%TO.P,U90,9,A1*%
%TO.N,A1*%
X147370000Y-119190000D03*
%TO.P,U90,10,A0*%
%TO.N,A0*%
X147370000Y-121730000D03*
%TO.P,U90,11,Q0*%
%TO.N,D0*%
X147370000Y-124270000D03*
%TO.P,U90,12,Q1*%
%TO.N,D1*%
X147370000Y-126810000D03*
%TO.P,U90,13,Q2*%
%TO.N,D2*%
X147370000Y-129350000D03*
%TO.P,U90,14,GND*%
%TO.N,GNDREF*%
X147370000Y-131890000D03*
%TO.P,U90,15,Q3*%
%TO.N,D3*%
X162610000Y-131890000D03*
%TO.P,U90,16,Q4*%
%TO.N,D4*%
X162610000Y-129350000D03*
%TO.P,U90,17,Q5*%
%TO.N,D5*%
X162610000Y-126810000D03*
%TO.P,U90,18,Q6*%
%TO.N,D6*%
X162610000Y-124270000D03*
%TO.P,U90,19,Q7*%
%TO.N,D7*%
X162610000Y-121730000D03*
%TO.P,U90,20,~{CS}*%
%TO.N,/~{SEL_RAM2}*%
X162610000Y-119190000D03*
%TO.P,U90,21,A10*%
%TO.N,A10*%
X162610000Y-116650000D03*
%TO.P,U90,22,~{OE}*%
%TO.N,~{READ}*%
X162610000Y-114110000D03*
%TO.P,U90,23,A11*%
%TO.N,A11*%
X162610000Y-111570000D03*
%TO.P,U90,24,A9*%
%TO.N,A9*%
X162610000Y-109030000D03*
%TO.P,U90,25,A8*%
%TO.N,A8*%
X162610000Y-106490000D03*
%TO.P,U90,26,A13*%
%TO.N,A13*%
X162610000Y-103950000D03*
%TO.P,U90,27,~{WE}*%
%TO.N,~{WRITE}*%
X162610000Y-101410000D03*
%TO.P,U90,28,VCC*%
%TO.N,+5V*%
X162610000Y-98870000D03*
%TD*%
D40*
%TO.N,GNDREF*%
X159500000Y-93559000D03*
%TO.N,/~{SEL_RAM2}*%
X146470000Y-146160000D03*
%TO.N,D5*%
X54140000Y-133156000D03*
D41*
X111803826Y-80706776D03*
D40*
X55955833Y-73187963D03*
X55677521Y-110121008D03*
X109072035Y-80007665D03*
D41*
%TO.N,D4*%
X111080347Y-80767334D03*
D40*
X57600000Y-104120000D03*
X71730000Y-166550000D03*
X55161000Y-73278764D03*
X54880000Y-135980000D03*
D41*
%TO.N,A10*%
X72300000Y-89160000D03*
X72460000Y-117330000D03*
D40*
X68157127Y-75322873D03*
%TO.N,~{MREQ}*%
X111400000Y-161690000D03*
X93760000Y-161395800D03*
X59530000Y-159950000D03*
X59510000Y-134950000D03*
X41810000Y-132959000D03*
D41*
%TO.N,PA7*%
X45870000Y-141030000D03*
D40*
%TO.N,A7*%
X68760000Y-77490586D03*
D41*
X76260000Y-96470000D03*
D40*
%TO.N,CLOCK*%
X80480000Y-83819000D03*
X51050000Y-84930000D03*
X57600000Y-101575000D03*
X56310000Y-147740000D03*
D41*
%TO.N,~{READ}*%
X89646500Y-57750000D03*
D40*
X128470000Y-114173400D03*
X90700000Y-139140000D03*
D41*
X90990000Y-113960000D03*
%TO.N,A3*%
X120850000Y-112830000D03*
D40*
X70421000Y-79226529D03*
D41*
X76210000Y-106700000D03*
D40*
%TO.N,A6*%
X76040000Y-152102600D03*
D41*
X76220000Y-99060000D03*
D40*
X66709000Y-77923373D03*
X78550000Y-153442600D03*
D41*
%TO.N,~{WRITE}*%
X92280000Y-57140000D03*
D40*
X121410000Y-72320000D03*
D41*
X121880000Y-101720000D03*
D40*
X119410000Y-135610000D03*
%TO.N,D0*%
X126510000Y-82670000D03*
D41*
X42360000Y-120859000D03*
D40*
X38200000Y-82790000D03*
D41*
X105360000Y-82630000D03*
D40*
X49449000Y-81931000D03*
%TO.N,GNDREF*%
X135190000Y-155529000D03*
D41*
X109970000Y-131775600D03*
D40*
X62710000Y-85840000D03*
D41*
X83150000Y-28150000D03*
D40*
X154290000Y-155529000D03*
D41*
X68920000Y-42290000D03*
X109970000Y-93608000D03*
D40*
X116960000Y-93559000D03*
X43860000Y-139570000D03*
X106980000Y-155789000D03*
X111040000Y-155740000D03*
X93610000Y-155789000D03*
X83280000Y-74210000D03*
D41*
X49580000Y-60970000D03*
X68920000Y-46910000D03*
D40*
X44970000Y-85880000D03*
X144770000Y-155529000D03*
D41*
X49580000Y-40460000D03*
X92880000Y-131540000D03*
D40*
X46940000Y-175430000D03*
X44670000Y-108460000D03*
X25100000Y-85881000D03*
X84050000Y-151400000D03*
D41*
X130730000Y-33790000D03*
X83290000Y-85840000D03*
D40*
X149920000Y-93559000D03*
X124460000Y-155529000D03*
X62720000Y-116815000D03*
D41*
X83280000Y-68000000D03*
D40*
X93080000Y-94260000D03*
D41*
X130720000Y-28150000D03*
D40*
X47770000Y-151352600D03*
X35115478Y-151397889D03*
X139210000Y-155529000D03*
X114060000Y-74220000D03*
X70820000Y-151352600D03*
X97520000Y-94260000D03*
X122150000Y-155529000D03*
D41*
X130741968Y-45109428D03*
X104170000Y-45044000D03*
D40*
X97420000Y-155789000D03*
X127450000Y-93559000D03*
X67020000Y-151600000D03*
D41*
X109970000Y-95550000D03*
X68920000Y-60280000D03*
D40*
X159260000Y-155529000D03*
X138620000Y-93559000D03*
D41*
%TO.N,A2*%
X124200000Y-115434600D03*
X76180000Y-109240000D03*
D40*
X64619000Y-78160000D03*
%TO.N,~{INT}*%
X57990000Y-126950000D03*
X59150000Y-70137000D03*
D41*
%TO.N,A13*%
X147070000Y-95570000D03*
X89280000Y-95170000D03*
X53367039Y-74303524D03*
%TO.N,A15*%
X54810000Y-73941561D03*
D40*
X57170000Y-99430000D03*
X89289265Y-176969000D03*
X54210000Y-176691600D03*
%TO.N,A1*%
X71150000Y-80196000D03*
D41*
X76160000Y-111760000D03*
X129080000Y-119253400D03*
D40*
%TO.N,D2*%
X53630000Y-130690000D03*
D41*
X43362000Y-132120000D03*
D40*
X122650000Y-81698000D03*
D41*
X106690000Y-81747000D03*
D40*
X49610298Y-80720000D03*
X54280000Y-116860000D03*
X63190000Y-161790000D03*
D41*
%TO.N,A8*%
X72300000Y-107270000D03*
D40*
X66920000Y-75900911D03*
D41*
X72300000Y-94620000D03*
D40*
%TO.N,A12*%
X52734812Y-74707000D03*
X76960000Y-80597000D03*
X98450000Y-100198400D03*
D41*
%TO.N,~{RESET}*%
X65900000Y-148210000D03*
X86450000Y-92640000D03*
X27090000Y-91541000D03*
X37620000Y-93590000D03*
X152770000Y-153620000D03*
X66180000Y-118460000D03*
D40*
%TO.N,A5*%
X69696596Y-78252461D03*
D41*
X76129583Y-101787401D03*
D40*
%TO.N,/~{SEL_RAM2}*%
X145090000Y-174060000D03*
%TO.N,D3*%
X50400000Y-80319000D03*
D41*
X110647819Y-81346000D03*
D40*
X40960000Y-107680000D03*
X62900000Y-164400000D03*
D41*
X42853600Y-135018759D03*
D40*
X119120000Y-81297000D03*
D41*
%TO.N,D7*%
X112299968Y-79322630D03*
D40*
X57440000Y-71987963D03*
X103910000Y-79394000D03*
X70930000Y-173940000D03*
X54810000Y-119240000D03*
%TO.N,D6*%
X71510000Y-170530000D03*
X106450000Y-79795000D03*
D41*
X112020289Y-79964334D03*
D40*
X56824527Y-72587963D03*
X53610000Y-125170000D03*
%TO.N,+5V*%
X60100000Y-86600000D03*
X85830000Y-86600000D03*
D41*
X59520000Y-67850000D03*
D40*
X155850000Y-154778000D03*
X56950000Y-150602600D03*
X37600000Y-150591600D03*
X102330000Y-170260000D03*
X108870000Y-154990000D03*
X141670000Y-154778000D03*
X20290000Y-77580000D03*
X151680000Y-154778000D03*
X113460000Y-154779000D03*
X47200000Y-86600000D03*
X105790000Y-154990000D03*
X99890000Y-94580000D03*
X20260000Y-84854500D03*
X102131000Y-154990000D03*
X95600000Y-95010000D03*
X86345000Y-151765000D03*
X60190000Y-114290000D03*
X126890000Y-154778000D03*
X148080000Y-94358000D03*
%TO.N,A4*%
X84680000Y-110460400D03*
X65354101Y-77196629D03*
D41*
X76115000Y-104175000D03*
%TO.N,A0*%
X76220000Y-114330000D03*
D40*
X63888185Y-79273500D03*
D41*
X131050000Y-121793400D03*
D40*
X87260000Y-122630000D03*
D41*
%TO.N,A14*%
X54403591Y-74511500D03*
X107240000Y-97596000D03*
D40*
%TO.N,A9*%
X68309999Y-76324275D03*
D41*
X63867000Y-91730000D03*
X64010000Y-109870000D03*
D40*
%TO.N,D1*%
X48570000Y-81530000D03*
D41*
X105975200Y-82296034D03*
D40*
X125723941Y-82247034D03*
D41*
X42961000Y-123420000D03*
D40*
X49048000Y-98210000D03*
%TO.N,/~{SEL_RAM}*%
X133410000Y-118653400D03*
%TO.N,~{IORQ}*%
X30710000Y-139600000D03*
X77580000Y-136020000D03*
D41*
%TO.N,~{M1}*%
X71560000Y-121895000D03*
D40*
X76340000Y-121895000D03*
D41*
X70310000Y-57330000D03*
%TO.N,PX5*%
X49570000Y-189899000D03*
D40*
%TO.N,/~{ROM_BASIC}*%
X120720000Y-133930000D03*
X134430000Y-134690000D03*
D41*
%TO.N,PX6*%
X48470000Y-192599000D03*
X115090000Y-193051000D03*
%TO.N,CPM*%
X102270000Y-102188400D03*
D40*
%TO.N,Net-(U10-Pad8)*%
X111400000Y-177570000D03*
D41*
%TO.N,PX7*%
X48960000Y-190598000D03*
%TO.N,PX3*%
X47370000Y-189310000D03*
%TO.N,+3V3*%
X60190000Y-55220000D03*
X116590000Y-55242200D03*
X132700000Y-52700000D03*
X132700000Y-31200000D03*
X121850000Y-28930000D03*
D40*
%TO.N,~{FPGA_CS}*%
X82678069Y-170878069D03*
D41*
%TO.N,PA2*%
X37670000Y-128840000D03*
%TO.N,PA0*%
X33410000Y-123550000D03*
%TO.N,PX4*%
X88910000Y-193601000D03*
X47950000Y-193150000D03*
%TO.N,PA4*%
X37120000Y-133559000D03*
%TO.N,Net-(U15-RCLK)*%
X117090000Y-50390000D03*
X133400000Y-50306500D03*
%TO.N,Net-(U15-SRCLK)*%
X133550000Y-49620000D03*
X114570000Y-49780000D03*
%TO.N,Net-(U12-LV8)*%
X152690000Y-70650000D03*
X103910000Y-67620000D03*
%TO.N,Net-(U12-LV3)*%
X155929000Y-55240000D03*
%TO.N,Net-(U19-IOB29A)*%
X131250000Y-66069636D03*
X139600000Y-56580000D03*
%TO.N,Net-(U19-IOB13B)*%
X137870000Y-66730000D03*
X133060000Y-62860000D03*
%TO.N,Net-(U12-LV5)*%
X154977000Y-62580000D03*
X111595000Y-66791091D03*
%TO.N,Net-(U12-LV4)*%
X155379000Y-52920000D03*
%TO.N,Net-(U19-IOB23B)*%
X139920000Y-61680000D03*
X132720000Y-64700000D03*
%TO.N,Net-(U12-LV1)*%
X157030000Y-57820000D03*
%TO.N,Net-(U19-IOB11B)*%
X133200000Y-61100000D03*
X140240000Y-71680000D03*
%TO.N,Net-(U19-IOB33B)*%
X131730000Y-65490000D03*
X139790000Y-59210000D03*
%TO.N,Net-(U19-IOB23A)*%
X132760000Y-63780000D03*
X138830000Y-64900000D03*
%TO.N,Net-(U12-LV7)*%
X106460000Y-67140000D03*
X154057909Y-67350000D03*
%TO.N,Net-(U19-IOB8A)*%
X141950000Y-50300000D03*
%TO.N,Net-(U16-SER)*%
X122480000Y-49230000D03*
X134118425Y-48579637D03*
%TO.N,Net-(U19-IOB13A)*%
X133780000Y-62070000D03*
X139380000Y-69340000D03*
%TO.N,Net-(U12-LV2)*%
X155920000Y-60580000D03*
%TO.N,Net-(U12-LV6)*%
X108990000Y-66791091D03*
X154660000Y-65420000D03*
D40*
%TO.N,Net-(LCD1-RS)*%
X84540000Y-156890000D03*
%TO.N,Net-(LCD1-VO)*%
X89030000Y-150370000D03*
%TO.N,Net-(LCD1-E)*%
X76270000Y-164240000D03*
%TO.N,Net-(LCD1-DB5)*%
X70128000Y-165860000D03*
%TO.N,Net-(LCD1-DB6)*%
X70128000Y-163560000D03*
D41*
%TO.N,PA1*%
X37943787Y-127062117D03*
%TO.N,PA3*%
X34050000Y-129730000D03*
X37861000Y-130330000D03*
%TO.N,PA6*%
X45320000Y-135980000D03*
X33200000Y-139000000D03*
%TO.N,PA5*%
X33910000Y-137340000D03*
D40*
%TO.N,PB2*%
X60940000Y-88150000D03*
%TO.N,PB3*%
X60940000Y-91540000D03*
%TO.N,Net-(U19-IOT8A)*%
X136820000Y-80660000D03*
D41*
%TO.N,~{INT2}*%
X136620000Y-92110000D03*
D40*
X81540000Y-89710000D03*
X81490000Y-74740000D03*
%TO.N,Net-(JP14-A)*%
X104800000Y-136930000D03*
X99200000Y-171500000D03*
X104300000Y-162610000D03*
X129810000Y-172680000D03*
%TO.N,A11*%
X138810700Y-112472400D03*
X144070000Y-112440000D03*
X101100000Y-112180000D03*
D41*
X101080000Y-150421000D03*
X92770000Y-150421000D03*
D40*
X51980527Y-75108000D03*
D41*
X101420000Y-89080000D03*
D40*
%TO.N,Net-(JP3-C)*%
X123490000Y-159100000D03*
%TO.N,~{RFSH}*%
X68625157Y-141540000D03*
X21460000Y-144440000D03*
%TO.N,~{BUSRQ}*%
X69397559Y-141186468D03*
X22150000Y-144030000D03*
%TO.N,~{BUSAK}*%
X21970000Y-128220000D03*
%TO.N,~{WAIT}*%
X69710000Y-140450000D03*
X20980000Y-143430000D03*
D41*
%TO.N,/kraft80V2-ios/CKFF*%
X57550000Y-100330000D03*
X58060000Y-89520000D03*
X121035400Y-165250000D03*
X122580000Y-92890000D03*
D40*
%TO.N,/kraft80V2-ios/CKLED*%
X114671000Y-140100000D03*
%TO.N,/kraft80V2-ios/CKPSHB*%
X125620000Y-153490000D03*
%TO.N,/kraft80V2-ios/~{CS1}*%
X130290000Y-164000000D03*
X116480000Y-164000000D03*
D41*
%TO.N,Net-(JP11-C)*%
X87520000Y-158980000D03*
D40*
%TO.N,/kraft80V2-ios/~{CS0}*%
X87880000Y-166360000D03*
X130420000Y-166440000D03*
X118120000Y-166590000D03*
D41*
%TO.N,/kraft80V2-fpga/~{DISK_CS}*%
X140786091Y-26393909D03*
X141341000Y-64180000D03*
%TO.N,/kraft80V2-fpga/DAT_KBD*%
X61480000Y-38940000D03*
X71470000Y-39510000D03*
%TO.N,/kraft80V2-fpga/CK_KBD*%
X92200000Y-55942200D03*
X59720000Y-35251000D03*
X59490000Y-55880000D03*
D40*
%TO.N,/kraft80V2-ios/~{CS4}*%
X116370000Y-159510000D03*
X97650000Y-159190000D03*
X97650000Y-171220000D03*
%TO.N,/kraft80V2-ios/~{DISP_CS}*%
X115190000Y-173990000D03*
%TO.N,/kraft80V2-ios/~{CS2}*%
X85530000Y-152619000D03*
X120818202Y-152400000D03*
D41*
%TO.N,Net-(U17-TXD)*%
X53370000Y-66190000D03*
%TO.N,Net-(U17-~{CTS})*%
X139800000Y-49210000D03*
%TO.N,Net-(U17-RXD)*%
X141891000Y-45226500D03*
D40*
%TO.N,Net-(U19-IOT12B)*%
X137910000Y-85330000D03*
%TO.N,Net-(U19-IOT12A)*%
X137420000Y-83170000D03*
%TO.N,Net-(R42-Pad1)*%
X132239000Y-79019000D03*
%TO.N,Net-(JP18-C)*%
X100990000Y-111017600D03*
%TO.N,Net-(U3-O2)*%
X101570000Y-158395600D03*
%TO.N,/~{SEL_ROM}*%
X101700000Y-119914600D03*
%TO.N,Net-(JP17-C)*%
X89788881Y-162921119D03*
%TO.N,Net-(JP16-C)*%
X91370000Y-173880000D03*
X102900000Y-174690000D03*
%TD*%
D42*
%TO.N,A13*%
X163809000Y-97790000D02*
X163809000Y-102751000D01*
X163809000Y-102751000D02*
X162610000Y-103950000D01*
X163809000Y-97790000D02*
X162880000Y-96861000D01*
%TO.N,/~{SEL_RAM2}*%
X162610000Y-119190000D02*
X163711000Y-120291000D01*
X163711000Y-120291000D02*
X163711000Y-139665340D01*
%TO.N,D3*%
X162610000Y-131890000D02*
X161200000Y-133300000D01*
%TO.N,D2*%
X126016200Y-129413400D02*
X127117200Y-130514400D01*
X127117200Y-130514400D02*
X146205600Y-130514400D01*
X146205600Y-130514400D02*
X147370000Y-129350000D01*
%TO.N,D4*%
X141256200Y-129413400D02*
X145749550Y-129413400D01*
X145749550Y-129413400D02*
X146913950Y-128249000D01*
X146913950Y-128249000D02*
X161509000Y-128249000D01*
X161509000Y-128249000D02*
X162610000Y-129350000D01*
%TO.N,D5*%
X141256200Y-126873400D02*
X142420600Y-125709000D01*
X142420600Y-125709000D02*
X161509000Y-125709000D01*
X161509000Y-125709000D02*
X162610000Y-126810000D01*
%TO.N,D1*%
X140800150Y-127974400D02*
X146205600Y-127974400D01*
X146205600Y-127974400D02*
X147370000Y-126810000D01*
%TO.N,D0*%
X126016200Y-124333400D02*
X139283300Y-124333400D01*
X139283300Y-124333400D02*
X140722300Y-125772400D01*
X140722300Y-125772400D02*
X141712250Y-125772400D01*
X141712250Y-125772400D02*
X143214650Y-124270000D01*
X143214650Y-124270000D02*
X147370000Y-124270000D01*
%TO.N,D6*%
X141256200Y-124333400D02*
X142420600Y-123169000D01*
X142420600Y-123169000D02*
X161509000Y-123169000D01*
X161509000Y-123169000D02*
X162610000Y-124270000D01*
%TO.N,A0*%
X131050000Y-121793400D02*
X139361150Y-121793400D01*
X143214650Y-121730000D02*
X147370000Y-121730000D01*
X139361150Y-121793400D02*
X140800150Y-123232400D01*
X140800150Y-123232400D02*
X141712250Y-123232400D01*
X141712250Y-123232400D02*
X143214650Y-121730000D01*
%TO.N,D7*%
X141256200Y-121793400D02*
X142288600Y-120761000D01*
X142288600Y-120761000D02*
X146443950Y-120761000D01*
X146443950Y-120761000D02*
X146575950Y-120629000D01*
X146575950Y-120629000D02*
X161509000Y-120629000D01*
X161509000Y-120629000D02*
X162610000Y-121730000D01*
%TO.N,A1*%
X140467750Y-120360000D02*
X146200000Y-120360000D01*
X146200000Y-120360000D02*
X147370000Y-119190000D01*
%TO.N,A10*%
X142458800Y-117916000D02*
X161344000Y-117916000D01*
X161344000Y-117916000D02*
X162610000Y-116650000D01*
%TO.N,A2*%
X126016200Y-116713400D02*
X127117600Y-115612000D01*
X127117600Y-115612000D02*
X146332000Y-115612000D01*
X146332000Y-115612000D02*
X147370000Y-116650000D01*
%TO.N,~{READ}*%
X141256200Y-114173400D02*
X142293800Y-115211000D01*
X142293800Y-115211000D02*
X161509000Y-115211000D01*
X161509000Y-115211000D02*
X162610000Y-114110000D01*
%TO.N,A3*%
X126016200Y-114173400D02*
X127117200Y-113072400D01*
X127117200Y-113072400D02*
X143360000Y-113072400D01*
X147032400Y-113772400D02*
X147370000Y-114110000D01*
X143360000Y-113072400D02*
X144060000Y-113772400D01*
X144060000Y-113772400D02*
X147032400Y-113772400D01*
%TO.N,A11*%
X162610000Y-111570000D02*
X161171000Y-113009000D01*
X161171000Y-113009000D02*
X144639000Y-113009000D01*
X144639000Y-113009000D02*
X144070000Y-112440000D01*
%TO.N,A4*%
X126016200Y-111633400D02*
X127117200Y-110532400D01*
X146332400Y-110532400D02*
X147370000Y-111570000D01*
X127117200Y-110532400D02*
X146332400Y-110532400D01*
%TO.N,A9*%
X162610000Y-109030000D02*
X161509000Y-110131000D01*
X161509000Y-110131000D02*
X142293800Y-110131000D01*
X142293800Y-110131000D02*
X141256200Y-109093400D01*
%TO.N,A5*%
X126016200Y-109093400D02*
X127117600Y-107992000D01*
X127117600Y-107992000D02*
X146332000Y-107992000D01*
X146332000Y-107992000D02*
X147370000Y-109030000D01*
%TO.N,A8*%
X141256200Y-106553400D02*
X142293800Y-107591000D01*
X142293800Y-107591000D02*
X161509000Y-107591000D01*
X161509000Y-107591000D02*
X162610000Y-106490000D01*
%TO.N,A6*%
X147370000Y-106490000D02*
X146332400Y-105452400D01*
X146332400Y-105452400D02*
X127117200Y-105452400D01*
X127117200Y-105452400D02*
X126016200Y-106553400D01*
%TO.N,~{WRITE}*%
X162610000Y-101410000D02*
X161509000Y-102511000D01*
X161509000Y-102511000D02*
X142293800Y-102511000D01*
X142293800Y-102511000D02*
X141256200Y-101473400D01*
%TO.N,A7*%
X147370000Y-103950000D02*
X146332400Y-102912400D01*
%TO.N,A12*%
X127117200Y-100372400D02*
X146332400Y-100372400D01*
X147370000Y-101410000D02*
X146332400Y-100372400D01*
%TO.N,A14*%
X126110000Y-97596000D02*
X146110000Y-97596000D01*
X147370000Y-98870000D02*
X147370000Y-98856000D01*
X147370000Y-98856000D02*
X146110000Y-97596000D01*
D43*
%TO.N,GNDREF*%
X116960000Y-93559000D02*
X110019000Y-93559000D01*
X110019000Y-93559000D02*
X109970000Y-93608000D01*
X127450000Y-93559000D02*
X127418000Y-93591000D01*
X127418000Y-93591000D02*
X116992000Y-93591000D01*
X116992000Y-93591000D02*
X116960000Y-93559000D01*
X159500000Y-93559000D02*
X127450000Y-93559000D01*
%TO.N,+5V*%
X141309000Y-94309000D02*
X162370000Y-94309000D01*
X162560000Y-95680000D02*
X162560000Y-94499000D01*
X162560000Y-94499000D02*
X162370000Y-94309000D01*
D42*
%TO.N,/~{SEL_RAM2}*%
X157216340Y-146160000D02*
X146470000Y-146160000D01*
X163711000Y-139665340D02*
X157216340Y-146160000D01*
D43*
%TO.N,+3V3*%
X121850000Y-28930000D02*
X130430000Y-28930000D01*
X130430000Y-28930000D02*
X132700000Y-31200000D01*
D42*
%TO.N,~{READ}*%
X89646500Y-57750000D02*
X89616000Y-57719500D01*
X89616000Y-57719500D02*
X71347000Y-57719500D01*
X71347000Y-57719500D02*
X71126500Y-57940000D01*
X71126500Y-57940000D02*
X31700000Y-57940000D01*
X31700000Y-57940000D02*
X31240000Y-58400000D01*
X31240000Y-58400000D02*
X31240000Y-69270000D01*
X31240000Y-69270000D02*
X28010000Y-72500000D01*
D43*
%TO.N,+5V*%
X85490000Y-69126500D02*
X60796500Y-69126500D01*
X60796500Y-69126500D02*
X59520000Y-67850000D01*
X85490000Y-69126500D02*
X85207000Y-69126500D01*
X85810000Y-69153500D02*
X85180000Y-69153500D01*
X116610000Y-70550000D02*
X115186500Y-69126500D01*
X115186500Y-69126500D02*
X85490000Y-69126500D01*
X85207000Y-69126500D02*
X85180000Y-69153500D01*
D42*
%TO.N,D5*%
X75490000Y-79595000D02*
X74442100Y-79595000D01*
X74825000Y-79595000D02*
X75080000Y-79595000D01*
X54885988Y-72118118D02*
X46545218Y-72118118D01*
X75490000Y-79595000D02*
X77620000Y-79595000D01*
X42602600Y-167970600D02*
X43703600Y-169071600D01*
X34200000Y-65880000D02*
X32600000Y-67480000D01*
X68035063Y-73187963D02*
X55955833Y-73187963D01*
X55955833Y-73187963D02*
X54885988Y-72118118D01*
X55677521Y-110121008D02*
X54751513Y-109195000D01*
X46545218Y-72118118D02*
X45581000Y-71153900D01*
X45581000Y-71153900D02*
X45581000Y-69281000D01*
X45581000Y-69281000D02*
X43450000Y-67150000D01*
X78420000Y-80395000D02*
X108590000Y-80395000D01*
X95307600Y-126619400D02*
X96332400Y-125594600D01*
X111687050Y-80590000D02*
X111803826Y-80706776D01*
X77620000Y-79595000D02*
X78420000Y-80395000D01*
X120411600Y-125772400D02*
X140155200Y-125772400D01*
X74442100Y-79595000D02*
X68035063Y-73187963D01*
X119488400Y-126695600D02*
X120411600Y-125772400D01*
X110852115Y-80216334D02*
X109280704Y-80216334D01*
X75080000Y-79595000D02*
X75490000Y-79595000D01*
X110852115Y-80216334D02*
X111308579Y-80216334D01*
X109072035Y-80007665D02*
X108977335Y-80007665D01*
X109280704Y-80216334D02*
X109072035Y-80007665D01*
X108977335Y-80007665D02*
X108590000Y-80395000D01*
X118387400Y-125594600D02*
X119488400Y-126695600D01*
X96332400Y-125594600D02*
X118387400Y-125594600D01*
X43450000Y-67150000D02*
X43450000Y-61912900D01*
X54751513Y-109195000D02*
X52280000Y-109195000D01*
X34200000Y-62190000D02*
X34200000Y-65880000D01*
X43450000Y-61912900D02*
X41777100Y-60240000D01*
X111631347Y-80539102D02*
X111631347Y-80590000D01*
X41777100Y-60240000D02*
X36150000Y-60240000D01*
X36150000Y-60240000D02*
X34200000Y-62190000D01*
X72159400Y-169071600D02*
X73387400Y-167843600D01*
X140155200Y-125772400D02*
X141256200Y-126873400D01*
X43703600Y-169071600D02*
X72159400Y-169071600D01*
X48326000Y-133156000D02*
X54140000Y-133156000D01*
X111631347Y-80590000D02*
X111687050Y-80590000D01*
X47290000Y-132120000D02*
X48326000Y-133156000D01*
X111308579Y-80216334D02*
X111631347Y-80539102D01*
%TO.N,D4*%
X110997681Y-80850000D02*
X110957100Y-80850000D01*
X43722000Y-166550000D02*
X71730000Y-166550000D01*
X55225000Y-104115000D02*
X52280000Y-104115000D01*
X42970000Y-62000000D02*
X41659000Y-60689000D01*
X54601354Y-72719118D02*
X46579118Y-72719118D01*
X110957100Y-80850000D02*
X110903100Y-80796000D01*
X41659000Y-60689000D02*
X36268100Y-60689000D01*
X55230000Y-104120000D02*
X55225000Y-104115000D01*
X95307600Y-129159400D02*
X96332400Y-128134600D01*
X48610000Y-135980000D02*
X47290000Y-134660000D01*
X45180000Y-71320000D02*
X45180000Y-69640000D01*
X118387400Y-128134600D02*
X119488400Y-129235600D01*
X46579118Y-72719118D02*
X45180000Y-71320000D01*
X78008943Y-80796000D02*
X77208943Y-79996000D01*
X54880000Y-135980000D02*
X48610000Y-135980000D01*
X74276000Y-79996000D02*
X68799352Y-74519352D01*
X42602600Y-165430600D02*
X43722000Y-166550000D01*
X34740000Y-62217100D02*
X34740000Y-67880000D01*
X120411600Y-128312400D02*
X140155200Y-128312400D01*
X68770649Y-74519352D02*
X68039926Y-73788629D01*
X36268100Y-60689000D02*
X34740000Y-62217100D01*
X34740000Y-67880000D02*
X32600000Y-70020000D01*
X55253118Y-73278764D02*
X55161000Y-73278764D01*
X55161000Y-73278764D02*
X54601354Y-72719118D01*
X68799352Y-74519352D02*
X68770649Y-74519352D01*
X119488400Y-129235600D02*
X120411600Y-128312400D01*
X140155200Y-128312400D02*
X141256200Y-129413400D01*
X96332400Y-128134600D02*
X118387400Y-128134600D01*
X110903100Y-80796000D02*
X78008943Y-80796000D01*
X68039926Y-73788629D02*
X55670865Y-73788629D01*
X57600000Y-104120000D02*
X55230000Y-104120000D01*
X42970000Y-67430000D02*
X42970000Y-62000000D01*
X45180000Y-69640000D02*
X42970000Y-67430000D01*
X111080347Y-80767334D02*
X110997681Y-80850000D01*
X55670865Y-73788629D02*
X55161000Y-73278764D01*
X77208943Y-79996000D02*
X74276000Y-79996000D01*
%TO.N,A10*%
X95307600Y-116459400D02*
X94286600Y-117480400D01*
X68157127Y-75322873D02*
X68158540Y-75322873D01*
X55840000Y-75708000D02*
X56085500Y-75462500D01*
X45957060Y-75708000D02*
X55840000Y-75708000D01*
X67875697Y-75322873D02*
X68157127Y-75322873D01*
X67143453Y-74590629D02*
X67875697Y-75322873D01*
X39420000Y-67765140D02*
X41674530Y-70019670D01*
X94286600Y-117480400D02*
X72610400Y-117480400D01*
X140155200Y-117814400D02*
X120767200Y-117814400D01*
X72300000Y-89160000D02*
X72015000Y-88875000D01*
X118387400Y-117636600D02*
X96484800Y-117636600D01*
X56085500Y-75462500D02*
X61050000Y-75462500D01*
X141256200Y-116713400D02*
X140155200Y-117814400D01*
X41674530Y-70019670D02*
X41674530Y-71425470D01*
X41674530Y-71425470D02*
X45957060Y-75708000D01*
X72610400Y-117480400D02*
X72460000Y-117330000D01*
X119488400Y-116535600D02*
X118387400Y-117636600D01*
X96484800Y-117636600D02*
X95307600Y-116459400D01*
X61050000Y-75462500D02*
X61921871Y-74590629D01*
X120767200Y-117814400D02*
X119488400Y-116535600D01*
X72015000Y-88875000D02*
X67520000Y-88875000D01*
X142458800Y-117916000D02*
X141256200Y-116713400D01*
X39420000Y-67420000D02*
X39420000Y-67765140D01*
X61921871Y-74590629D02*
X67143453Y-74590629D01*
%TO.N,~{MREQ}*%
X49120050Y-134595000D02*
X47746050Y-133221000D01*
X59155000Y-134595000D02*
X52280000Y-134595000D01*
X111400000Y-161690000D02*
X111400000Y-161671600D01*
X59510000Y-134950000D02*
X59155000Y-134595000D01*
X63936750Y-159950000D02*
X59530000Y-159950000D01*
X111124200Y-161395800D02*
X65382550Y-161395800D01*
X111400000Y-161671600D02*
X111124200Y-161395800D01*
X65382550Y-161395800D02*
X63936750Y-159950000D01*
X43907332Y-133221000D02*
X43645332Y-132959000D01*
X43645332Y-132959000D02*
X41810000Y-132959000D01*
X47746050Y-133221000D02*
X43907332Y-133221000D01*
X52280000Y-134595000D02*
X49120050Y-134595000D01*
%TO.N,PA7*%
X20230000Y-142390000D02*
X34130000Y-142390000D01*
X19380000Y-141540000D02*
X20230000Y-142390000D01*
X34130000Y-142390000D02*
X35410000Y-141110000D01*
X35410000Y-141110000D02*
X45790000Y-141110000D01*
X45790000Y-141110000D02*
X45870000Y-141030000D01*
%TO.N,A7*%
X76170000Y-96470000D02*
X76145000Y-96495000D01*
X56520000Y-76911000D02*
X56765500Y-76665500D01*
X65962775Y-75793629D02*
X66548865Y-76379719D01*
X76145000Y-96495000D02*
X67520000Y-96495000D01*
X127117200Y-102912400D02*
X126016200Y-104013400D01*
X81088600Y-102738400D02*
X80067600Y-103759400D01*
X146332400Y-102912400D02*
X127117200Y-102912400D01*
X66548865Y-76379719D02*
X66550281Y-76379719D01*
X103151200Y-102738400D02*
X81088600Y-102738400D01*
X124737400Y-102734600D02*
X105349400Y-102734600D01*
X62626371Y-75793629D02*
X65962775Y-75793629D01*
X68760000Y-77490586D02*
X67632199Y-77490586D01*
X76260000Y-96470000D02*
X76170000Y-96470000D01*
X36880000Y-72500000D02*
X38031000Y-71349000D01*
X61754500Y-76665500D02*
X62626371Y-75793629D01*
X67632199Y-77490586D02*
X67110000Y-76968385D01*
X39896760Y-71349000D02*
X45458760Y-76911000D01*
X126016200Y-104013400D02*
X124737400Y-102734600D01*
X45458760Y-76911000D02*
X56520000Y-76911000D01*
X66550281Y-76408666D02*
X66550281Y-76379719D01*
X38031000Y-71349000D02*
X39896760Y-71349000D01*
X56765500Y-76665500D02*
X61754500Y-76665500D01*
X105349400Y-102734600D02*
X104248400Y-103835600D01*
X67110000Y-76968385D02*
X66550281Y-76408666D01*
X104248400Y-103835600D02*
X103151200Y-102738400D01*
%TO.N,CLOCK*%
X40165000Y-148770000D02*
X41195000Y-147740000D01*
X52280000Y-101575000D02*
X57600000Y-101575000D01*
X41195000Y-147740000D02*
X56310000Y-147740000D01*
X52161000Y-83819000D02*
X80480000Y-83819000D01*
X28010000Y-80120000D02*
X32820000Y-84930000D01*
X51050000Y-84930000D02*
X32820000Y-84930000D01*
X51050000Y-84930000D02*
X52161000Y-83819000D01*
%TO.N,~{READ}*%
X67770000Y-139140000D02*
X67520000Y-138890000D01*
X123943350Y-113995600D02*
X119488400Y-113995600D01*
X105994400Y-113995600D02*
X104555400Y-115434600D01*
X90700000Y-139140000D02*
X67770000Y-139140000D01*
X103714500Y-115434600D02*
X102199300Y-113919400D01*
X126287600Y-115612400D02*
X125560150Y-115612400D01*
X90990000Y-113960000D02*
X91030600Y-113919400D01*
X128470000Y-114173400D02*
X127726600Y-114173400D01*
X127726600Y-114173400D02*
X126287600Y-115612400D01*
X119488400Y-113995600D02*
X105994400Y-113995600D01*
X102199300Y-113919400D02*
X95307600Y-113919400D01*
X91030600Y-113919400D02*
X95307600Y-113919400D01*
X141256200Y-114173400D02*
X128470000Y-114173400D01*
X67520000Y-138890000D02*
X67520000Y-137135000D01*
X125560150Y-115612400D02*
X123943350Y-113995600D01*
X104555400Y-115434600D02*
X103714500Y-115434600D01*
%TO.N,A3*%
X64170057Y-77759000D02*
X64370057Y-77559000D01*
X104248400Y-113995600D02*
X105414000Y-112830000D01*
X63298300Y-77759000D02*
X64170057Y-77759000D01*
X57670000Y-78515000D02*
X57915500Y-78269500D01*
X38031000Y-76429000D02*
X39896760Y-76429000D01*
X39896760Y-76429000D02*
X41982760Y-78515000D01*
X64370057Y-77559000D02*
X64867943Y-77559000D01*
X124672800Y-112830000D02*
X126016200Y-114173400D01*
X36880000Y-77580000D02*
X38031000Y-76429000D01*
X120850000Y-112830000D02*
X124672800Y-112830000D01*
X66392199Y-79593000D02*
X70054529Y-79593000D01*
X65220000Y-77911057D02*
X65220000Y-78408943D01*
X80067600Y-113919400D02*
X81088600Y-112898400D01*
X41982760Y-78515000D02*
X57670000Y-78515000D01*
X103151200Y-112898400D02*
X104248400Y-113995600D01*
X105414000Y-112830000D02*
X120850000Y-112830000D01*
X70054529Y-79593000D02*
X70421000Y-79226529D01*
X76165000Y-106655000D02*
X67520000Y-106655000D01*
X81088600Y-112898400D02*
X103151200Y-112898400D01*
X62787800Y-78269500D02*
X63298300Y-77759000D01*
X57915500Y-78269500D02*
X62787800Y-78269500D01*
X65220000Y-78408943D02*
X65214071Y-78414872D01*
X65214071Y-78414872D02*
X66392199Y-79593000D01*
X76210000Y-106700000D02*
X76165000Y-106655000D01*
X70421000Y-79226529D02*
X70453529Y-79194000D01*
X64867943Y-77559000D02*
X65220000Y-77911057D01*
%TO.N,A6*%
X67520000Y-99035000D02*
X76195000Y-99035000D01*
X62093500Y-77066500D02*
X62965371Y-76194629D01*
X104248400Y-106375600D02*
X105349400Y-105274600D01*
X124737400Y-105274600D02*
X126016200Y-106553400D01*
X57417200Y-77066500D02*
X62093500Y-77066500D01*
X76195000Y-99035000D02*
X76220000Y-99060000D01*
X65769144Y-76194629D02*
X66709000Y-77134485D01*
X39420000Y-72500000D02*
X44232000Y-77312000D01*
X81586600Y-104780400D02*
X102653200Y-104780400D01*
X62965371Y-76194629D02*
X65769144Y-76194629D01*
X78550000Y-153442600D02*
X77210000Y-152102600D01*
X102653200Y-104780400D02*
X104248400Y-106375600D01*
X57171700Y-77312000D02*
X57417200Y-77066500D01*
X80067600Y-106299400D02*
X81586600Y-104780400D01*
X44232000Y-77312000D02*
X57171700Y-77312000D01*
X77210000Y-152102600D02*
X76040000Y-152102600D01*
X66709000Y-77134485D02*
X66709000Y-77923373D01*
X105349400Y-105274600D02*
X124737400Y-105274600D01*
%TO.N,~{WRITE}*%
X26640000Y-57480000D02*
X26640000Y-73670000D01*
X68319999Y-135394999D02*
X119194999Y-135394999D01*
X124289900Y-101720000D02*
X125194950Y-102625050D01*
X127573250Y-101473400D02*
X141256200Y-101473400D01*
X93440000Y-70600000D02*
X94700000Y-71860000D01*
X126854400Y-170383600D02*
X119234400Y-170383600D01*
X27426500Y-56693500D02*
X26640000Y-57480000D01*
X119194999Y-135394999D02*
X119410000Y-135610000D01*
X92280000Y-57140000D02*
X91833500Y-56693500D01*
X91833500Y-56693500D02*
X27426500Y-56693500D01*
X93440000Y-70557000D02*
X93440000Y-70600000D01*
X121880000Y-101720000D02*
X124289900Y-101720000D01*
X120950000Y-71860000D02*
X94700000Y-71860000D01*
X125194950Y-102625050D02*
X126421600Y-102625050D01*
X67520000Y-134595000D02*
X68319999Y-135394999D01*
X26640000Y-73670000D02*
X28010000Y-75040000D01*
X121410000Y-72320000D02*
X120950000Y-71860000D01*
X126421600Y-102625050D02*
X127573250Y-101473400D01*
%TO.N,D0*%
X47969000Y-81732000D02*
X41382200Y-81732000D01*
X105272800Y-125180000D02*
X104248400Y-124155600D01*
X126332966Y-82847034D02*
X105577034Y-82847034D01*
X51101000Y-81732000D02*
X49688000Y-81732000D01*
X126510000Y-82670000D02*
X126332966Y-82847034D01*
X41382200Y-81732000D02*
X40334200Y-82780000D01*
X40334200Y-82780000D02*
X35200000Y-82780000D01*
X104248400Y-124155600D02*
X103303600Y-125100400D01*
X103303600Y-125100400D02*
X81088600Y-125100400D01*
X81088600Y-125100400D02*
X80067600Y-124079400D01*
X48321057Y-82131000D02*
X47969000Y-81778943D01*
X49688000Y-81732000D02*
X49489000Y-81931000D01*
X51244000Y-120859000D02*
X40771000Y-120859000D01*
X59033710Y-81323000D02*
X51510000Y-81323000D01*
X105577034Y-82847034D02*
X105360000Y-82630000D01*
X105130000Y-82400000D02*
X64642900Y-82400000D01*
X64666400Y-156582600D02*
X65767400Y-157683600D01*
X40771000Y-120859000D02*
X39670000Y-121960000D01*
X51510000Y-81323000D02*
X51101000Y-81732000D01*
X49249000Y-82131000D02*
X48321057Y-82131000D01*
X105360000Y-82630000D02*
X105130000Y-82400000D01*
X47969000Y-81778943D02*
X47969000Y-81732000D01*
X49449000Y-81931000D02*
X49249000Y-82131000D01*
X119064150Y-125180000D02*
X105272800Y-125180000D01*
X35200000Y-82780000D02*
X32600000Y-80180000D01*
X126016200Y-124333400D02*
X124978200Y-125371400D01*
X64642900Y-82400000D02*
X63319400Y-81076500D01*
X42602600Y-155270600D02*
X43914600Y-156582600D01*
X124978200Y-125371400D02*
X119255550Y-125371400D01*
X59280210Y-81076500D02*
X59033710Y-81323000D01*
X49489000Y-81931000D02*
X49449000Y-81931000D01*
X119255550Y-125371400D02*
X119064150Y-125180000D01*
X43914600Y-156582600D02*
X64666400Y-156582600D01*
X63319400Y-81076500D02*
X59280210Y-81076500D01*
X52280000Y-121895000D02*
X51244000Y-120859000D01*
D43*
%TO.N,GNDREF*%
X49580000Y-40460000D02*
X49320000Y-40200000D01*
X50860000Y-28310000D02*
X50870000Y-28320000D01*
X68920000Y-60280000D02*
X68780000Y-60280000D01*
X159180000Y-140960000D02*
X156480000Y-143660000D01*
X64210000Y-42270000D02*
X68900000Y-42270000D01*
X155933600Y-173890000D02*
X157664600Y-175621000D01*
X47770000Y-151352600D02*
X42937400Y-151352600D01*
X104170000Y-45044000D02*
X108389600Y-45044000D01*
X113639000Y-77889000D02*
X113639000Y-74641000D01*
X69510000Y-28370000D02*
X69730000Y-28150000D01*
X93100000Y-85840000D02*
X83290000Y-85840000D01*
X85000000Y-155740000D02*
X84560000Y-155740000D01*
X116790000Y-28150000D02*
X130720000Y-28150000D01*
X45650000Y-40200000D02*
X40500000Y-40200000D01*
X139210000Y-155529000D02*
X135190000Y-155529000D01*
X114880000Y-79130000D02*
X113639000Y-77889000D01*
X42937400Y-151352600D02*
X42600000Y-151352600D01*
X116770000Y-27860000D02*
X116770000Y-26390000D01*
X83150000Y-28150000D02*
X116790000Y-28150000D01*
X47380000Y-31800000D02*
X45650000Y-33530000D01*
X47380000Y-28320000D02*
X50870000Y-28320000D01*
X83250000Y-46295000D02*
X84501000Y-45044000D01*
X76640000Y-68000000D02*
X83280000Y-68000000D01*
X68900000Y-42270000D02*
X68920000Y-42290000D01*
X98172000Y-93608000D02*
X97520000Y-94260000D01*
X18810000Y-80140000D02*
X23370000Y-80140000D01*
X147570000Y-142330000D02*
X142500000Y-142330000D01*
X39570000Y-108485000D02*
X44645000Y-108485000D01*
X156480000Y-143660000D02*
X149900000Y-143660000D01*
X42602600Y-152730600D02*
X42602600Y-151355200D01*
X57700000Y-28370000D02*
X69510000Y-28370000D01*
X109440000Y-74220000D02*
X108520000Y-74220000D01*
X67020000Y-151600000D02*
X67267400Y-151352600D01*
X47380000Y-31800000D02*
X47380000Y-28320000D01*
X109980000Y-95560000D02*
X109970000Y-95550000D01*
X42602600Y-175590600D02*
X46779400Y-175590600D01*
X51390000Y-42270000D02*
X49580000Y-40460000D01*
X45650000Y-33530000D02*
X45650000Y-40200000D01*
X152300000Y-173890000D02*
X155933600Y-173890000D01*
X68928800Y-46901200D02*
X68920000Y-46910000D01*
X149900000Y-143660000D02*
X148140000Y-141900000D01*
X38590000Y-42420000D02*
X38590000Y-53310000D01*
X19760000Y-179020000D02*
X26687800Y-179020000D01*
X84002600Y-151352600D02*
X84050000Y-151400000D01*
X157150000Y-191750000D02*
X44250000Y-191750000D01*
X68090000Y-60970000D02*
X62700000Y-60970000D01*
X68780000Y-60280000D02*
X68090000Y-60970000D01*
X44970000Y-85880000D02*
X25101000Y-85880000D01*
X116790000Y-28150000D02*
X116790000Y-27880000D01*
X122378000Y-51490000D02*
X130730000Y-51490000D01*
X111040000Y-155740000D02*
X111120000Y-155740000D01*
X67020000Y-151600000D02*
X66772600Y-151352600D01*
X120900000Y-74220000D02*
X131110800Y-74220000D01*
X161570000Y-155529000D02*
X161570000Y-155570000D01*
X68920000Y-60280000D02*
X76640000Y-68000000D01*
X111459000Y-155740000D02*
X85000000Y-155740000D01*
X42600000Y-151352600D02*
X34907400Y-151352600D01*
X62700000Y-60970000D02*
X49580000Y-60970000D01*
X25101000Y-85880000D02*
X25100000Y-85881000D01*
X38590000Y-33590000D02*
X43860000Y-28320000D01*
X70360000Y-181500000D02*
X77980000Y-181500000D01*
X84501000Y-45044000D02*
X104170000Y-45044000D01*
X43860000Y-28320000D02*
X47380000Y-28320000D01*
X36460000Y-55440000D02*
X25260000Y-55440000D01*
X26687800Y-179020000D02*
X30083400Y-175624400D01*
X66772600Y-151352600D02*
X47770000Y-151352600D01*
X39840000Y-139570000D02*
X39670000Y-139740000D01*
X148140000Y-141900000D02*
X148000000Y-141900000D01*
X67267400Y-151352600D02*
X70820000Y-151352600D01*
X46779400Y-175590600D02*
X46940000Y-175430000D01*
X97520000Y-94260000D02*
X93080000Y-94260000D01*
X83290000Y-74220000D02*
X83280000Y-74210000D01*
X50870000Y-28320000D02*
X57650000Y-28320000D01*
D42*
X131110800Y-74220000D02*
X131136200Y-74245400D01*
D43*
X50860000Y-27100000D02*
X50860000Y-28310000D01*
X120900000Y-74220000D02*
X114060000Y-74220000D01*
X80067600Y-131699400D02*
X92720600Y-131699400D01*
X159260000Y-155529000D02*
X161570000Y-155529000D01*
X43860000Y-139570000D02*
X39840000Y-139570000D01*
X31730000Y-146800000D02*
X29190000Y-146800000D01*
X135190000Y-155529000D02*
X124460000Y-155529000D01*
X62730000Y-60940000D02*
X62700000Y-60970000D01*
X69730000Y-28150000D02*
X83150000Y-28150000D01*
X124460000Y-155529000D02*
X122150000Y-155529000D01*
X130731196Y-45120200D02*
X130741968Y-45109428D01*
X116960000Y-95560000D02*
X109980000Y-95560000D01*
X34907400Y-151352600D02*
X34900000Y-151360000D01*
X144770000Y-155529000D02*
X139210000Y-155529000D01*
X109970000Y-93608000D02*
X98172000Y-93608000D01*
X40500000Y-40200000D02*
X38640000Y-40200000D01*
X74273800Y-46901200D02*
X68928800Y-46901200D01*
X42602600Y-151355200D02*
X42600000Y-151352600D01*
X93410000Y-53915000D02*
X95905000Y-51420000D01*
X32357889Y-151397889D02*
X31690000Y-150730000D01*
X45010000Y-85840000D02*
X44970000Y-85880000D01*
X64210000Y-42270000D02*
X51390000Y-42270000D01*
X113639000Y-74641000D02*
X114060000Y-74220000D01*
X35115478Y-151397889D02*
X32357889Y-151397889D01*
X110967800Y-45120200D02*
X130600000Y-45120200D01*
X84560000Y-155740000D02*
X84280000Y-155460000D01*
X108389600Y-45044000D02*
X109716800Y-46371200D01*
X116790000Y-27880000D02*
X116770000Y-27860000D01*
X23370000Y-80140000D02*
X23400000Y-80110000D01*
X95905000Y-51420000D02*
X104200000Y-51420000D01*
X154290000Y-155529000D02*
X144770000Y-155529000D01*
X159260000Y-155529000D02*
X154290000Y-155529000D01*
X62710000Y-85840000D02*
X45010000Y-85840000D01*
X148000000Y-141900000D02*
X147570000Y-142330000D01*
X62720000Y-116815000D02*
X67520000Y-116815000D01*
X38590000Y-42420000D02*
X38590000Y-40150000D01*
X108520000Y-74220000D02*
X83290000Y-74220000D01*
X57650000Y-28320000D02*
X57700000Y-28370000D01*
X38640000Y-40200000D02*
X38590000Y-40150000D01*
X109716800Y-46371200D02*
X110967800Y-45120200D01*
X122150000Y-155529000D02*
X120460000Y-155529000D01*
X38590000Y-40150000D02*
X38590000Y-33590000D01*
X38590000Y-53310000D02*
X36460000Y-55440000D01*
X114060000Y-74220000D02*
X109440000Y-74220000D01*
X120460000Y-155529000D02*
X111670000Y-155529000D01*
X111670000Y-155529000D02*
X111459000Y-155740000D01*
X161570000Y-155570000D02*
X162880000Y-156880000D01*
X44645000Y-108485000D02*
X44670000Y-108460000D01*
X135450000Y-33780000D02*
X130740000Y-33780000D01*
X49320000Y-40200000D02*
X45650000Y-40200000D01*
X70820000Y-151352600D02*
X84002600Y-151352600D01*
X119876800Y-53991200D02*
X122378000Y-51490000D01*
X84280000Y-155460000D02*
X84280000Y-154320000D01*
X92720600Y-131699400D02*
X92880000Y-131540000D01*
X130600000Y-45120200D02*
X130731196Y-45120200D01*
X31690000Y-150730000D02*
X29150000Y-150730000D01*
X130740000Y-33780000D02*
X130730000Y-33790000D01*
X83290000Y-85840000D02*
X62710000Y-85840000D01*
X62730000Y-59470000D02*
X62730000Y-60940000D01*
X109970000Y-131775600D02*
X104248400Y-131775600D01*
D42*
%TO.N,A2*%
X80067600Y-116459400D02*
X81088600Y-115438400D01*
X41290000Y-78916000D02*
X58013900Y-78916000D01*
X81088600Y-115438400D02*
X103151200Y-115438400D01*
X124200000Y-115434600D02*
X124737400Y-115434600D01*
X58013900Y-78916000D02*
X58259400Y-78670500D01*
X39420000Y-77580000D02*
X39954000Y-77580000D01*
X104248400Y-116535600D02*
X105349400Y-115434600D01*
X63464400Y-78160000D02*
X64619000Y-78160000D01*
X40058100Y-77580000D02*
X39420000Y-77580000D01*
X64619000Y-78386900D02*
X64619000Y-78160000D01*
X105349400Y-115434600D02*
X124200000Y-115434600D01*
X76180000Y-109240000D02*
X76135000Y-109195000D01*
X62953900Y-78670500D02*
X63464400Y-78160000D01*
X58259400Y-78670500D02*
X62953900Y-78670500D01*
X76135000Y-109195000D02*
X67520000Y-109195000D01*
X103151200Y-115438400D02*
X104248400Y-116535600D01*
X124737400Y-115434600D02*
X126016200Y-116713400D01*
X39954000Y-77580000D02*
X41290000Y-78916000D01*
%TO.N,~{INT}*%
X75660000Y-70557000D02*
X74406500Y-71810500D01*
X57990000Y-126950000D02*
X57965000Y-126975000D01*
X59350000Y-70337000D02*
X59150000Y-70137000D01*
X74406500Y-71810500D02*
X69104700Y-71810500D01*
X67631200Y-70337000D02*
X59350000Y-70337000D01*
X68250000Y-125760000D02*
X70830000Y-123180000D01*
X57965000Y-126975000D02*
X52280000Y-126975000D01*
X57990000Y-126950000D02*
X59180000Y-125760000D01*
X59180000Y-125760000D02*
X68250000Y-125760000D01*
X69104700Y-71810500D02*
X67631200Y-70337000D01*
%TO.N,A13*%
X53495000Y-95170000D02*
X89280000Y-95170000D01*
X90971000Y-96861000D02*
X147030000Y-96861000D01*
X53169515Y-74106000D02*
X53367039Y-74303524D01*
X147030000Y-95610000D02*
X147070000Y-95570000D01*
X52280000Y-93955000D02*
X53495000Y-95170000D01*
X41593080Y-68236920D02*
X43575180Y-70219020D01*
X89280000Y-95170000D02*
X90971000Y-96861000D01*
X43575180Y-70219020D02*
X43575180Y-71624820D01*
X52140000Y-74106000D02*
X46056360Y-74106000D01*
X147030000Y-96861000D02*
X162880000Y-96861000D01*
X40350000Y-63718409D02*
X41593080Y-64961489D01*
X36880000Y-64880000D02*
X38041591Y-63718409D01*
X46056360Y-74106000D02*
X43575180Y-71624820D01*
X147030000Y-96861000D02*
X147030000Y-95610000D01*
X38041591Y-63718409D02*
X40350000Y-63718409D01*
X52140000Y-74106000D02*
X53169515Y-74106000D01*
X41593080Y-64961489D02*
X41593080Y-68236920D01*
%TO.N,Net-(Q1-B)*%
X66331320Y-47270000D02*
X71414120Y-42187200D01*
X64210000Y-47270000D02*
X66331320Y-47270000D01*
X71414120Y-42187200D02*
X74195000Y-42187200D01*
%TO.N,A15*%
X89089265Y-177169000D02*
X72547400Y-177169000D01*
X54810000Y-73941561D02*
X53988557Y-73120118D01*
X38130000Y-61090000D02*
X36880000Y-62340000D01*
X57170000Y-99430000D02*
X52675000Y-99430000D01*
X42395080Y-62685080D02*
X40800000Y-61090000D01*
X44522280Y-69732280D02*
X42395080Y-67605080D01*
X72070000Y-176691600D02*
X54210000Y-176691600D01*
X54210000Y-176691600D02*
X41310600Y-176691600D01*
X72547400Y-177169000D02*
X72070000Y-176691600D01*
X41310600Y-176691600D02*
X37703400Y-173084400D01*
X52675000Y-99430000D02*
X52280000Y-99035000D01*
X46204678Y-73120118D02*
X44522280Y-71437720D01*
X42395080Y-67605080D02*
X42395080Y-62685080D01*
X53988557Y-73120118D02*
X46204678Y-73120118D01*
X40800000Y-61090000D02*
X38130000Y-61090000D01*
X44522280Y-71437720D02*
X44522280Y-69732280D01*
X89289265Y-176969000D02*
X89089265Y-177169000D01*
%TO.N,A1*%
X125019600Y-120250000D02*
X126016200Y-119253400D01*
X104248400Y-119075600D02*
X117593350Y-119075600D01*
X38031000Y-78969000D02*
X40462000Y-78969000D01*
X97107712Y-119075600D02*
X96010512Y-117978400D01*
X118767750Y-120250000D02*
X125019600Y-120250000D01*
X40810000Y-79317000D02*
X58180000Y-79317000D01*
X63120000Y-79071500D02*
X63519000Y-78672500D01*
X36880000Y-80120000D02*
X38031000Y-78969000D01*
X126016200Y-119253400D02*
X129080000Y-119253400D01*
X64337128Y-78872500D02*
X64537500Y-78872500D01*
X75345000Y-111735000D02*
X67520000Y-111735000D01*
X58180000Y-79317000D02*
X58425500Y-79071500D01*
X40462000Y-78969000D02*
X40810000Y-79317000D01*
X66060000Y-80395000D02*
X70951000Y-80395000D01*
X75370000Y-111760000D02*
X75345000Y-111735000D01*
X81088600Y-117978400D02*
X80067600Y-118999400D01*
X58425500Y-79071500D02*
X63120000Y-79071500D01*
X63519000Y-78672500D02*
X64137128Y-78672500D01*
X139361150Y-119253400D02*
X140467750Y-120360000D01*
X117593350Y-119075600D02*
X118767750Y-120250000D01*
X96010512Y-117978400D02*
X81088600Y-117978400D01*
X64537500Y-78872500D02*
X66060000Y-80395000D01*
X64137128Y-78672500D02*
X64337128Y-78872500D01*
X76160000Y-111760000D02*
X75370000Y-111760000D01*
X70951000Y-80395000D02*
X71150000Y-80196000D01*
X129080000Y-119253400D02*
X139361150Y-119253400D01*
X104248400Y-119075600D02*
X97107712Y-119075600D01*
%TO.N,D2*%
X58948010Y-80274500D02*
X58701510Y-80521000D01*
X35328000Y-77828000D02*
X32600000Y-75100000D01*
X52830000Y-130681000D02*
X53621000Y-130681000D01*
X49810298Y-80920000D02*
X49610298Y-80720000D01*
X102805600Y-130678400D02*
X81586600Y-130678400D01*
X106840000Y-81897000D02*
X106690000Y-81747000D01*
X41050000Y-80930000D02*
X40240000Y-81740000D01*
X35328000Y-80762860D02*
X35328000Y-77828000D01*
X63190000Y-161790000D02*
X62851600Y-161451600D01*
X58701510Y-80521000D02*
X51050000Y-80521000D01*
X43703600Y-161451600D02*
X42602600Y-160350600D01*
X54280000Y-116860000D02*
X54235000Y-116815000D01*
X122650000Y-81698000D02*
X122451000Y-81897000D01*
X49610298Y-80720000D02*
X49610298Y-80800043D01*
X124755000Y-130674600D02*
X105687400Y-130674600D01*
X49610298Y-80800043D02*
X49480341Y-80930000D01*
X54235000Y-116815000D02*
X52280000Y-116815000D01*
X40240000Y-81740000D02*
X36305140Y-81740000D01*
X49480341Y-80930000D02*
X41050000Y-80930000D01*
X51050000Y-80521000D02*
X50651000Y-80920000D01*
X47171950Y-130681000D02*
X52830000Y-130681000D01*
X45732950Y-132120000D02*
X47171950Y-130681000D01*
X126016200Y-129413400D02*
X124755000Y-130674600D01*
X106507000Y-81747000D02*
X106358000Y-81598000D01*
X106690000Y-81747000D02*
X106507000Y-81747000D01*
X105687400Y-130674600D02*
X104248400Y-129235600D01*
X39670000Y-132120000D02*
X45732950Y-132120000D01*
X62851600Y-161451600D02*
X43703600Y-161451600D01*
X63776500Y-80274500D02*
X58948010Y-80274500D01*
X106358000Y-81598000D02*
X65100000Y-81598000D01*
X65100000Y-81598000D02*
X63776500Y-80274500D01*
X104248400Y-129235600D02*
X102805600Y-130678400D01*
X53621000Y-130681000D02*
X53630000Y-130690000D01*
X50651000Y-80920000D02*
X49810298Y-80920000D01*
X122451000Y-81897000D02*
X106840000Y-81897000D01*
X81586600Y-130678400D02*
X80067600Y-129159400D01*
X36305140Y-81740000D02*
X35328000Y-80762860D01*
%TO.N,A8*%
X72300000Y-94620000D02*
X70660000Y-94620000D01*
X61525500Y-76264500D02*
X62397371Y-75392629D01*
X95307600Y-106299400D02*
X94286600Y-107320400D01*
X102210200Y-106299400D02*
X95307600Y-106299400D01*
X106143450Y-106375600D02*
X104704450Y-107814600D01*
X141256200Y-106553400D02*
X127911250Y-106553400D01*
X126472250Y-107992400D02*
X125560150Y-107992400D01*
X56485500Y-76264500D02*
X61525500Y-76264500D01*
X103725400Y-107814600D02*
X102210200Y-106299400D01*
X104704450Y-107814600D02*
X103725400Y-107814600D01*
X66789089Y-75900911D02*
X66920000Y-75900911D01*
X62397371Y-75392629D02*
X66130291Y-75392629D01*
X127911250Y-106553400D02*
X126472250Y-107992400D01*
X39420000Y-70305140D02*
X45624860Y-76510000D01*
X69995000Y-93955000D02*
X67520000Y-93955000D01*
X119488400Y-106375600D02*
X106143450Y-106375600D01*
X66713831Y-75976169D02*
X66789089Y-75900911D01*
X94286600Y-107320400D02*
X72350400Y-107320400D01*
X72350400Y-107320400D02*
X72300000Y-107270000D01*
X45624860Y-76510000D02*
X56240000Y-76510000D01*
X66130291Y-75392629D02*
X66713831Y-75976169D01*
X70660000Y-94620000D02*
X69995000Y-93955000D01*
X123943350Y-106375600D02*
X119488400Y-106375600D01*
X66920000Y-75900911D02*
X66941911Y-75879000D01*
X125560150Y-107992400D02*
X123943350Y-106375600D01*
X39420000Y-69960000D02*
X39420000Y-70305140D01*
X56240000Y-76510000D02*
X56485500Y-76264500D01*
%TO.N,A12*%
X81088600Y-100198400D02*
X80067600Y-101219400D01*
X52734812Y-74707000D02*
X52534812Y-74507000D01*
X74281196Y-80597000D02*
X67873826Y-74189629D01*
X53089312Y-75061500D02*
X52734812Y-74707000D01*
X103151200Y-100198400D02*
X98450000Y-100198400D01*
X105349400Y-100194600D02*
X124737400Y-100194600D01*
X60883900Y-75061500D02*
X53089312Y-75061500D01*
X76960000Y-80597000D02*
X74281196Y-80597000D01*
X45890260Y-74507000D02*
X42900000Y-71516740D01*
X126016200Y-101473400D02*
X127117200Y-100372400D01*
X104248400Y-101295600D02*
X103151200Y-100198400D01*
X124737400Y-100194600D02*
X126016200Y-101473400D01*
X41079530Y-68290470D02*
X41079530Y-66539530D01*
X67873826Y-74189629D02*
X61755771Y-74189629D01*
X52534812Y-74507000D02*
X45890260Y-74507000D01*
X41079530Y-66539530D02*
X39420000Y-64880000D01*
X42900000Y-71516740D02*
X42900000Y-70110940D01*
X42900000Y-70110940D02*
X41079530Y-68290470D01*
X104248400Y-101295600D02*
X105349400Y-100194600D01*
X61755771Y-74189629D02*
X60883900Y-75061500D01*
X98450000Y-100198400D02*
X81088600Y-100198400D01*
%TO.N,~{RESET}*%
X83518232Y-148159000D02*
X65951000Y-148159000D01*
X37965000Y-93245000D02*
X39570000Y-93245000D01*
X152770000Y-153620000D02*
X140229000Y-153620000D01*
X86330232Y-150971000D02*
X83518232Y-148159000D01*
X37620000Y-93590000D02*
X37965000Y-93245000D01*
X35571000Y-91541000D02*
X27090000Y-91541000D01*
X37620000Y-93590000D02*
X35571000Y-91541000D01*
X44650000Y-93245000D02*
X47190000Y-95785000D01*
X41044000Y-118254000D02*
X39670000Y-116880000D01*
X60380000Y-118254000D02*
X41044000Y-118254000D01*
X60380000Y-118254000D02*
X65974000Y-118254000D01*
X52037950Y-92640000D02*
X48892950Y-95785000D01*
X137580000Y-150971000D02*
X86330232Y-150971000D01*
X39570000Y-93245000D02*
X44650000Y-93245000D01*
X86450000Y-92640000D02*
X52037950Y-92640000D01*
X65951000Y-148159000D02*
X65900000Y-148210000D01*
X48892950Y-95785000D02*
X47190000Y-95785000D01*
X65974000Y-118254000D02*
X66180000Y-118460000D01*
X140229000Y-153620000D02*
X137580000Y-150971000D01*
%TO.N,A5*%
X66108000Y-77100585D02*
X65603044Y-76595629D01*
X66108000Y-78170900D02*
X66108000Y-77100585D01*
X74540000Y-101590000D02*
X74525000Y-101575000D01*
X80067600Y-108839400D02*
X81088600Y-107818400D01*
X41010000Y-75510000D02*
X41010000Y-75002240D01*
X66597100Y-78660000D02*
X66108000Y-78170900D01*
X63327471Y-76595629D02*
X62455600Y-77467500D01*
X81088600Y-107818400D02*
X103151200Y-107818400D01*
X76129583Y-101787401D02*
X75932182Y-101590000D01*
X105349400Y-107814600D02*
X104248400Y-108915600D01*
X65603044Y-76595629D02*
X63327471Y-76595629D01*
X75932182Y-101590000D02*
X74540000Y-101590000D01*
X62455600Y-77467500D02*
X57583300Y-77467500D01*
X69696596Y-78252461D02*
X69289057Y-78660000D01*
X126016200Y-109093400D02*
X124737400Y-107814600D01*
X124737400Y-107814600D02*
X105349400Y-107814600D01*
X57337800Y-77713000D02*
X43213000Y-77713000D01*
X69696596Y-78252461D02*
X69724528Y-78224529D01*
X38031000Y-73889000D02*
X36880000Y-75040000D01*
X57583300Y-77467500D02*
X57337800Y-77713000D01*
X103151200Y-107818400D02*
X104248400Y-108915600D01*
X41010000Y-75002240D02*
X39896760Y-73889000D01*
X69289057Y-78660000D02*
X66597100Y-78660000D01*
X43213000Y-77713000D02*
X41010000Y-75510000D01*
X74525000Y-101575000D02*
X67520000Y-101575000D01*
X39896760Y-73889000D02*
X38031000Y-73889000D01*
%TO.N,/~{SEL_RAM2}*%
X113417800Y-175534800D02*
X114597600Y-176714600D01*
X124046350Y-176714600D02*
X126700950Y-174060000D01*
X114597600Y-176714600D02*
X124046350Y-176714600D01*
X126700950Y-174060000D02*
X145090000Y-174060000D01*
D43*
%TO.N,Net-(J3-Pin_2)*%
X74195000Y-39647200D02*
X79152200Y-34690000D01*
D42*
X79152200Y-34690000D02*
X79450000Y-34690000D01*
%TO.N,D3*%
X35729000Y-80596760D02*
X35729000Y-75689000D01*
X141256200Y-131953400D02*
X140155200Y-133054400D01*
X62900000Y-164400000D02*
X62702600Y-164202600D01*
X118387400Y-132876600D02*
X96484800Y-132876600D01*
X39881000Y-81320000D02*
X36452240Y-81320000D01*
X58781910Y-79873500D02*
X58535410Y-80120000D01*
X161200000Y-133300000D02*
X142602800Y-133300000D01*
X64216500Y-79873500D02*
X58781910Y-79873500D01*
X120767200Y-133054400D02*
X119488400Y-131775600D01*
X140155200Y-133054400D02*
X120767200Y-133054400D01*
X42494841Y-134660000D02*
X39670000Y-134660000D01*
X41081000Y-80120000D02*
X39881000Y-81320000D01*
X110498819Y-81197000D02*
X65540000Y-81197000D01*
X119488400Y-131775600D02*
X118387400Y-132876600D01*
X35729000Y-75689000D02*
X32600000Y-72560000D01*
X110647819Y-81346000D02*
X119071000Y-81346000D01*
X119071000Y-81346000D02*
X119120000Y-81297000D01*
X50400000Y-80319000D02*
X50400000Y-80380000D01*
X62702600Y-164202600D02*
X43914600Y-164202600D01*
X110647819Y-81346000D02*
X110498819Y-81197000D01*
X58535410Y-80120000D02*
X50599000Y-80120000D01*
X65540000Y-81197000D02*
X64216500Y-79873500D01*
X50220000Y-80120000D02*
X41081000Y-80120000D01*
X40960000Y-107680000D02*
X41256000Y-107384000D01*
X42853600Y-135018759D02*
X42494841Y-134660000D01*
X36452240Y-81320000D02*
X35729000Y-80596760D01*
X50400000Y-80319000D02*
X50400000Y-80300000D01*
X41256000Y-107384000D02*
X51551000Y-107384000D01*
X51551000Y-107384000D02*
X52280000Y-106655000D01*
X50400000Y-80300000D02*
X50220000Y-80120000D01*
X96484800Y-132876600D02*
X95307600Y-131699400D01*
X43914600Y-164202600D02*
X42602600Y-162890600D01*
X50599000Y-80120000D02*
X50400000Y-80319000D01*
X142602800Y-133300000D02*
X141256200Y-131953400D01*
%TO.N,D7*%
X70718400Y-174151600D02*
X70930000Y-173940000D01*
X119488400Y-121615600D02*
X118387400Y-120514600D01*
X70140000Y-73980000D02*
X74953000Y-78793000D01*
X103910000Y-79394000D02*
X103910000Y-79560000D01*
X103910000Y-79560000D02*
X103877000Y-79593000D01*
X120411600Y-120692400D02*
X119488400Y-121615600D01*
X104062057Y-79546057D02*
X103910000Y-79394000D01*
X52736050Y-122996000D02*
X53381000Y-122351050D01*
X109894334Y-79414334D02*
X112208264Y-79414334D01*
X54695000Y-119355000D02*
X52280000Y-119355000D01*
X106389392Y-79005665D02*
X106127528Y-79267529D01*
X103877000Y-79593000D02*
X99000000Y-79593000D01*
X107638335Y-79005665D02*
X106389392Y-79005665D01*
X56768155Y-71316118D02*
X47083218Y-71316118D01*
X54810000Y-119240000D02*
X54695000Y-119355000D01*
X53381000Y-122351050D02*
X53381000Y-120456000D01*
X109487078Y-79007078D02*
X109487078Y-79005665D01*
X68147963Y-71987963D02*
X70140000Y-73980000D01*
X118387400Y-120514600D02*
X96332400Y-120514600D01*
X35570000Y-59430000D02*
X32600000Y-62400000D01*
X141256200Y-121793400D02*
X140155200Y-120692400D01*
X57440000Y-71987963D02*
X68147963Y-71987963D01*
X48326000Y-122996000D02*
X52736050Y-122996000D01*
X112208264Y-79414334D02*
X112299968Y-79322630D01*
X105849000Y-79546057D02*
X106201057Y-79194000D01*
X53381000Y-120456000D02*
X52280000Y-119355000D01*
X42197100Y-59430000D02*
X35570000Y-59430000D01*
X47083218Y-71316118D02*
X46541000Y-70773900D01*
X105849000Y-79546057D02*
X104062057Y-79546057D01*
X46541000Y-70773900D02*
X46541000Y-68640000D01*
X74953000Y-78793000D02*
X78180000Y-78793000D01*
X47290000Y-121960000D02*
X48326000Y-122996000D01*
X79400000Y-79593000D02*
X80050000Y-79593000D01*
X44461000Y-66560000D02*
X44461000Y-61693900D01*
X78600000Y-78793000D02*
X79400000Y-79593000D01*
X96332400Y-120514600D02*
X95307600Y-121539400D01*
X42602600Y-173050600D02*
X43703600Y-174151600D01*
X46541000Y-68640000D02*
X44461000Y-66560000D01*
X107638335Y-79005665D02*
X109487078Y-79005665D01*
X140155200Y-120692400D02*
X120411600Y-120692400D01*
X109894334Y-79414334D02*
X109487078Y-79007078D01*
X78180000Y-78793000D02*
X78600000Y-78793000D01*
X43703600Y-174151600D02*
X70718400Y-174151600D01*
X57440000Y-71987963D02*
X56768155Y-71316118D01*
X44461000Y-61693900D02*
X42197100Y-59430000D01*
X99337000Y-79593000D02*
X79900000Y-79593000D01*
%TO.N,D6*%
X96332400Y-123054600D02*
X118387400Y-123054600D01*
X140155200Y-123232400D02*
X141256200Y-124333400D01*
X106450000Y-79795000D02*
X106450000Y-79810000D01*
X35841000Y-59839000D02*
X33751000Y-61929000D01*
X108235757Y-79994000D02*
X108823092Y-79406665D01*
X120411600Y-123232400D02*
X140155200Y-123232400D01*
X47290000Y-124500000D02*
X48326000Y-125536000D01*
X106450000Y-79920000D02*
X106376000Y-79994000D01*
X33751000Y-63789000D02*
X32600000Y-64940000D01*
X78110000Y-79194000D02*
X78910000Y-79994000D01*
X44060000Y-61860000D02*
X42039000Y-59839000D01*
X43703600Y-171611600D02*
X70428400Y-171611600D01*
X68002163Y-72587963D02*
X74608200Y-79194000D01*
X109320978Y-79406665D02*
X109728234Y-79813921D01*
X106450000Y-79795000D02*
X106450000Y-79920000D01*
X109728234Y-79813921D02*
X109728234Y-79815334D01*
X70428400Y-171611600D02*
X71510000Y-170530000D01*
X99503100Y-79994000D02*
X79940000Y-79994000D01*
X44060000Y-66860000D02*
X44060000Y-61860000D01*
X118387400Y-123054600D02*
X119488400Y-124155600D01*
X33751000Y-61929000D02*
X33751000Y-63789000D01*
X46140000Y-68940000D02*
X44060000Y-66860000D01*
X78910000Y-79994000D02*
X80100000Y-79994000D01*
X111897064Y-79815334D02*
X112020289Y-79938559D01*
X74608200Y-79194000D02*
X78110000Y-79194000D01*
X55953682Y-71717118D02*
X46917118Y-71717118D01*
X42039000Y-59839000D02*
X35841000Y-59839000D01*
X106376000Y-79994000D02*
X98950000Y-79994000D01*
X108823092Y-79406665D02*
X109320978Y-79406665D01*
X52736050Y-125536000D02*
X53244000Y-125536000D01*
X42602600Y-170510600D02*
X43703600Y-171611600D01*
X95307600Y-124079400D02*
X96332400Y-123054600D01*
X109728234Y-79815334D02*
X111897064Y-79815334D01*
X48326000Y-125536000D02*
X52736050Y-125536000D01*
X53244000Y-125536000D02*
X53610000Y-125170000D01*
X112020289Y-79938559D02*
X112020289Y-79964334D01*
X56824527Y-72587963D02*
X55953682Y-71717118D01*
X46917118Y-71717118D02*
X46140000Y-70940000D01*
X106634000Y-79994000D02*
X108235757Y-79994000D01*
X46140000Y-70940000D02*
X46140000Y-68940000D01*
X119488400Y-124155600D02*
X120411600Y-123232400D01*
X106450000Y-79810000D02*
X106634000Y-79994000D01*
X56824527Y-72587963D02*
X68002163Y-72587963D01*
%TO.N,+5V*%
X92386600Y-170256600D02*
X93487600Y-169155600D01*
D43*
X69580000Y-33970000D02*
X69460000Y-34090000D01*
X62830000Y-31800000D02*
X64300000Y-30330000D01*
X141309000Y-94309000D02*
X141340000Y-94340000D01*
X107649000Y-180609000D02*
X102871000Y-180609000D01*
X100161000Y-94309000D02*
X116180000Y-94309000D01*
X113461000Y-154778000D02*
X113460000Y-154779000D01*
X113460000Y-154779000D02*
X110940000Y-154779000D01*
X162670000Y-154778000D02*
X155850000Y-154778000D01*
X116180000Y-94309000D02*
X119460000Y-94309000D01*
D42*
X101982900Y-170260000D02*
X102330000Y-170260000D01*
D43*
X85830000Y-86600000D02*
X47200000Y-86600000D01*
X60175000Y-114275000D02*
X60190000Y-114290000D01*
D42*
X44650000Y-100865000D02*
X47190000Y-103405000D01*
D43*
X99460000Y-95010000D02*
X95600000Y-95010000D01*
X20366607Y-84961107D02*
X20366607Y-85317607D01*
X69460000Y-34090000D02*
X64330000Y-34090000D01*
X110940000Y-154779000D02*
X110680000Y-155039000D01*
X73682600Y-33970000D02*
X74273800Y-34561200D01*
X147840000Y-157910000D02*
X151337800Y-157910000D01*
X47169000Y-86631000D02*
X47200000Y-86600000D01*
X71181075Y-150651600D02*
X71750000Y-150651600D01*
X85830000Y-86600000D02*
X89979000Y-86600000D01*
X50240000Y-150651600D02*
X70458925Y-150651600D01*
X20366607Y-85317607D02*
X21680000Y-86631000D01*
X100400000Y-155039000D02*
X99940000Y-155039000D01*
X102871000Y-180609000D02*
X101580000Y-181900000D01*
D42*
X100878500Y-169155600D02*
X101982900Y-170260000D01*
D43*
X73390000Y-150651600D02*
X71730000Y-150651600D01*
X85820000Y-69163500D02*
X85810000Y-69153500D01*
X70458925Y-150651600D02*
X70508925Y-150601600D01*
X99940000Y-155039000D02*
X87499000Y-155039000D01*
X148140000Y-139900000D02*
X142570000Y-139900000D01*
X52280000Y-114275000D02*
X60175000Y-114275000D01*
D42*
X20300000Y-77570000D02*
X20290000Y-77580000D01*
D43*
X165284600Y-173081000D02*
X160204600Y-173081000D01*
X54280000Y-31800000D02*
X62830000Y-31800000D01*
D42*
X93487600Y-169155600D02*
X100878500Y-169155600D01*
D43*
X85820000Y-70557000D02*
X85820000Y-69163500D01*
X90470000Y-87091000D02*
X94349000Y-87091000D01*
X87499000Y-155039000D02*
X86780000Y-154320000D01*
X51635000Y-113630000D02*
X52280000Y-114275000D01*
X142570000Y-139900000D02*
X142500000Y-139830000D01*
X85229000Y-150649000D02*
X73810000Y-150649000D01*
X73807400Y-150651600D02*
X73390000Y-150651600D01*
X119460000Y-95560000D02*
X119460000Y-94309000D01*
X89979000Y-86600000D02*
X90470000Y-87091000D01*
X94349000Y-87091000D02*
X95600000Y-85840000D01*
X73810000Y-150649000D02*
X73807400Y-150651600D01*
X132020000Y-136930000D02*
X132040000Y-136950000D01*
X141160000Y-94520000D02*
X141160000Y-95730000D01*
X110680000Y-155039000D02*
X100400000Y-155039000D01*
X153180000Y-140960000D02*
X149200000Y-140960000D01*
X21680000Y-86631000D02*
X47169000Y-86631000D01*
X160204600Y-173081000D02*
X157664600Y-170541000D01*
X125950000Y-136930000D02*
X132020000Y-136930000D01*
X73390000Y-149260000D02*
X73390000Y-150651600D01*
X126890000Y-154778000D02*
X113461000Y-154778000D01*
X149200000Y-140960000D02*
X148140000Y-139900000D01*
X108900000Y-181860000D02*
X107649000Y-180609000D01*
X141670000Y-154778000D02*
X126890000Y-154778000D01*
X119460000Y-94309000D02*
X141309000Y-94309000D01*
X50300000Y-149500000D02*
X50300000Y-150591600D01*
D42*
X39570000Y-100865000D02*
X44650000Y-100865000D01*
D43*
X86345000Y-151765000D02*
X85229000Y-150649000D01*
X50300000Y-150591600D02*
X37600000Y-150591600D01*
X151337800Y-157910000D02*
X151670200Y-158242400D01*
X151680000Y-154778000D02*
X141670000Y-154778000D01*
X71131075Y-150601600D02*
X71181075Y-150651600D01*
X23400000Y-77570000D02*
X20300000Y-77570000D01*
X99890000Y-94580000D02*
X100161000Y-94309000D01*
X163278000Y-154778000D02*
X165380000Y-156880000D01*
X59520000Y-67850000D02*
X53285000Y-67850000D01*
X69800000Y-33970000D02*
X69580000Y-33970000D01*
X99940000Y-153710000D02*
X99940000Y-155039000D01*
X141340000Y-94340000D02*
X141160000Y-94520000D01*
X155850000Y-154778000D02*
X151680000Y-154778000D01*
X20260000Y-84854500D02*
X20366607Y-84961107D01*
X50300000Y-150591600D02*
X50240000Y-150651600D01*
X70508925Y-150601600D02*
X71131075Y-150601600D01*
X69800000Y-33970000D02*
X73682600Y-33970000D01*
X99890000Y-94580000D02*
X99460000Y-95010000D01*
X162670000Y-154778000D02*
X163278000Y-154778000D01*
X47320000Y-113630000D02*
X51635000Y-113630000D01*
D42*
%TO.N,A4*%
X96069712Y-110417600D02*
X96010512Y-110358400D01*
X67520000Y-104115000D02*
X76055000Y-104115000D01*
X57749400Y-77868500D02*
X57503900Y-78114000D01*
X64169057Y-77158000D02*
X63969057Y-77358000D01*
X96010512Y-110358400D02*
X81088600Y-110358400D01*
X103557600Y-110417600D02*
X96069712Y-110417600D01*
X76055000Y-104115000D02*
X76115000Y-104175000D01*
X62621700Y-77868500D02*
X57749400Y-77868500D01*
X65315473Y-77158000D02*
X64169057Y-77158000D01*
X124737400Y-110354600D02*
X105349400Y-110354600D01*
X81088600Y-110358400D02*
X80067600Y-111379400D01*
X57503900Y-78114000D02*
X42494000Y-78114000D01*
X42494000Y-78114000D02*
X39420000Y-75040000D01*
X65354101Y-77196629D02*
X65315473Y-77158000D01*
X126016200Y-111633400D02*
X124737400Y-110354600D01*
X63132200Y-77358000D02*
X62621700Y-77868500D01*
X104248400Y-111108400D02*
X103557600Y-110417600D01*
X105349400Y-110354600D02*
X104248400Y-111455600D01*
X63969057Y-77358000D02*
X63132200Y-77358000D01*
X104248400Y-111455600D02*
X104248400Y-111108400D01*
%TO.N,A0*%
X126016200Y-121793400D02*
X124978200Y-122831400D01*
X76220000Y-114330000D02*
X75760000Y-114330000D01*
X131050000Y-121793400D02*
X126016200Y-121793400D01*
X118731300Y-122831400D02*
X117515500Y-121615600D01*
X81158200Y-122630000D02*
X80067600Y-121539400D01*
X58370310Y-79718000D02*
X58615810Y-79472500D01*
X75705000Y-114275000D02*
X67520000Y-114275000D01*
X58615810Y-79472500D02*
X63689185Y-79472500D01*
X87260000Y-122630000D02*
X81158200Y-122630000D01*
X124978200Y-122831400D02*
X118731300Y-122831400D01*
X39420000Y-80120000D02*
X39822000Y-79718000D01*
X39822000Y-79718000D02*
X58370310Y-79718000D01*
X117515500Y-121615600D02*
X104248400Y-121615600D01*
X63689185Y-79472500D02*
X63888185Y-79273500D01*
X104248400Y-121615600D02*
X103234000Y-122630000D01*
X103234000Y-122630000D02*
X87260000Y-122630000D01*
X75760000Y-114330000D02*
X75705000Y-114275000D01*
%TO.N,A14*%
X53381000Y-97596000D02*
X52280000Y-96495000D01*
X41994080Y-63711999D02*
X40622081Y-62340000D01*
X107240000Y-97596000D02*
X126110000Y-97596000D01*
X44000000Y-71482540D02*
X44000000Y-70010000D01*
X53597091Y-73705000D02*
X46222460Y-73705000D01*
X41994080Y-68004080D02*
X41994080Y-63711999D01*
X126016200Y-98933400D02*
X126016200Y-97689800D01*
X40622081Y-62340000D02*
X39420000Y-62340000D01*
X126016200Y-97689800D02*
X126110000Y-97596000D01*
X107240000Y-97596000D02*
X53381000Y-97596000D01*
X44000000Y-70010000D02*
X41994080Y-68004080D01*
X54403591Y-74511500D02*
X53597091Y-73705000D01*
X46222460Y-73705000D02*
X44000000Y-71482540D01*
%TO.N,A9*%
X77144032Y-110296000D02*
X64436000Y-110296000D01*
X61306500Y-75863500D02*
X62178371Y-74991629D01*
X125404950Y-110455050D02*
X123865500Y-108915600D01*
X141256200Y-109093400D02*
X127896600Y-109093400D01*
X40960980Y-69873220D02*
X40960980Y-71279020D01*
X62178371Y-74991629D02*
X66977353Y-74991629D01*
X119488400Y-108915600D02*
X105954400Y-108915600D01*
X94286600Y-109860400D02*
X77579632Y-109860400D01*
X77579632Y-109860400D02*
X77144032Y-110296000D01*
X64436000Y-110296000D02*
X64010000Y-109870000D01*
X123865500Y-108915600D02*
X119488400Y-108915600D01*
X127896600Y-109093400D02*
X126534950Y-110455050D01*
X105954400Y-108915600D02*
X104853400Y-110016600D01*
X66977353Y-74991629D02*
X68309999Y-76324275D01*
X63867000Y-91730000D02*
X64182000Y-91415000D01*
X104853400Y-110016600D02*
X96484800Y-110016600D01*
X96484800Y-110016600D02*
X95307600Y-108839400D01*
X45790960Y-76109000D02*
X56073900Y-76109000D01*
X68309999Y-76324275D02*
X68434185Y-76448461D01*
X38031000Y-68809000D02*
X39896760Y-68809000D01*
X56073900Y-76109000D02*
X56319400Y-75863500D01*
X56319400Y-75863500D02*
X61306500Y-75863500D01*
X39896760Y-68809000D02*
X40960980Y-69873220D01*
X36880000Y-69960000D02*
X38031000Y-68809000D01*
X40960980Y-71279020D02*
X45790960Y-76109000D01*
X126534950Y-110455050D02*
X125404950Y-110455050D01*
X64182000Y-91415000D02*
X67520000Y-91415000D01*
X95307600Y-108839400D02*
X94286600Y-109860400D01*
%TO.N,D1*%
X103214000Y-127730000D02*
X81178200Y-127730000D01*
X59114110Y-80675500D02*
X58867610Y-80922000D01*
X81178200Y-127730000D02*
X80067600Y-126619400D01*
X125093000Y-127796600D02*
X118616500Y-127796600D01*
X105977166Y-82298000D02*
X125672975Y-82298000D01*
X140800150Y-127974400D02*
X139699150Y-126873400D01*
X118616500Y-127796600D02*
X117515500Y-126695600D01*
X47190000Y-98325000D02*
X48933000Y-98325000D01*
X40771000Y-123399000D02*
X39670000Y-124500000D01*
X105975200Y-82296034D02*
X105977166Y-82298000D01*
X105678166Y-81999000D02*
X64818057Y-81999000D01*
X48933000Y-98325000D02*
X49048000Y-98210000D01*
X105975200Y-82296034D02*
X105678166Y-81999000D01*
X48570000Y-81530000D02*
X48371000Y-81331000D01*
X104248400Y-126695600D02*
X103214000Y-127730000D01*
X36188040Y-82190000D02*
X33751000Y-79752960D01*
X52280000Y-124435000D02*
X51244000Y-123399000D01*
X64818057Y-81999000D02*
X63494557Y-80675500D01*
X33751000Y-78791000D02*
X32600000Y-77640000D01*
X125672975Y-82298000D02*
X125723941Y-82247034D01*
X48371000Y-81331000D02*
X41216100Y-81331000D01*
X50841000Y-81331000D02*
X48769000Y-81331000D01*
X58867610Y-80922000D02*
X51250000Y-80922000D01*
X64455400Y-158911600D02*
X65767400Y-160223600D01*
X51250000Y-80922000D02*
X50841000Y-81331000D01*
X40357100Y-82190000D02*
X36188040Y-82190000D01*
X41216100Y-81331000D02*
X40357100Y-82190000D01*
X117515500Y-126695600D02*
X104248400Y-126695600D01*
X51244000Y-123399000D02*
X40771000Y-123399000D01*
X42602600Y-157810600D02*
X43703600Y-158911600D01*
X63494557Y-80675500D02*
X59114110Y-80675500D01*
X43703600Y-158911600D02*
X64455400Y-158911600D01*
X126016200Y-126873400D02*
X125093000Y-127796600D01*
X33751000Y-79752960D02*
X33751000Y-78791000D01*
X139699150Y-126873400D02*
X126016200Y-126873400D01*
X48769000Y-81331000D02*
X48570000Y-81530000D01*
%TO.N,/~{SEL_RAM}*%
X133410000Y-118653400D02*
X140656200Y-118653400D01*
X140656200Y-118653400D02*
X141256200Y-119253400D01*
%TO.N,~{IORQ}*%
X51114000Y-138301000D02*
X36618232Y-138301000D01*
X52280000Y-137135000D02*
X59715000Y-137135000D01*
X52280000Y-137135000D02*
X51114000Y-138301000D01*
X59715000Y-137135000D02*
X60830000Y-136020000D01*
X36618232Y-138301000D02*
X35319232Y-139600000D01*
X77580000Y-136020000D02*
X60830000Y-136020000D01*
X35319232Y-139600000D02*
X30710000Y-139600000D01*
D43*
%TO.N,Net-(D1-A)*%
X151822600Y-165506800D02*
X147863200Y-165506800D01*
X147863200Y-165506800D02*
X147840000Y-165530000D01*
D42*
X157150000Y-187250000D02*
X150650000Y-187250000D01*
D43*
X155078800Y-165506800D02*
X157664600Y-162921000D01*
X151822600Y-165506800D02*
X155078800Y-165506800D01*
D42*
%TO.N,~{M1}*%
X76340000Y-121895000D02*
X71560000Y-121895000D01*
X29860000Y-63030000D02*
X28010000Y-64880000D01*
X70310000Y-57330000D02*
X70170000Y-57190000D01*
X29860000Y-57850000D02*
X29860000Y-63030000D01*
X71560000Y-121895000D02*
X67520000Y-121895000D01*
X30520000Y-57190000D02*
X29860000Y-57850000D01*
X70170000Y-57190000D02*
X30520000Y-57190000D01*
%TO.N,PX2*%
X76150000Y-187250000D02*
X69650000Y-187250000D01*
X50349600Y-162763600D02*
X50222600Y-162890600D01*
X56928200Y-162763600D02*
X50349600Y-162763600D01*
%TO.N,PX5*%
X38596760Y-187919000D02*
X40725760Y-190048000D01*
X40810000Y-190048000D02*
X40890000Y-190048000D01*
X36731000Y-187919000D02*
X38596760Y-187919000D01*
X35580000Y-189070000D02*
X36731000Y-187919000D01*
X56801200Y-170510600D02*
X56928200Y-170383600D01*
X107750000Y-187250000D02*
X104952000Y-190048000D01*
X40725760Y-190048000D02*
X40890000Y-190048000D01*
X114250000Y-187250000D02*
X107750000Y-187250000D01*
X50222600Y-170510600D02*
X56801200Y-170510600D01*
X104670000Y-190048000D02*
X40810000Y-190048000D01*
X104952000Y-190048000D02*
X104670000Y-190048000D01*
%TO.N,/~{ROM_BASIC}*%
X120720000Y-133930000D02*
X121260000Y-133930000D01*
X121260000Y-133930000D02*
X122020000Y-134690000D01*
X122020000Y-134690000D02*
X134430000Y-134690000D01*
%TO.N,PX6*%
X49148232Y-192599000D02*
X47481000Y-192599000D01*
X115090000Y-193051000D02*
X93929232Y-193051000D01*
X93929232Y-193051000D02*
X93928232Y-193050000D01*
X56928200Y-172923600D02*
X50349600Y-172923600D01*
X47481000Y-192599000D02*
X47029000Y-193051000D01*
X49591000Y-193051000D02*
X49471000Y-192931000D01*
X50349600Y-172923600D02*
X50222600Y-173050600D01*
X47029000Y-193051000D02*
X39561000Y-193051000D01*
X93470768Y-193051000D02*
X49591000Y-193051000D01*
X93928232Y-193050000D02*
X93471768Y-193050000D01*
X93471768Y-193050000D02*
X93470768Y-193051000D01*
X49471000Y-192931000D02*
X49471000Y-192921768D01*
X126950000Y-187250000D02*
X120450000Y-187250000D01*
X49471000Y-192921768D02*
X49148232Y-192599000D01*
X39561000Y-193051000D02*
X38120000Y-191610000D01*
%TO.N,CPM*%
X36361000Y-94441000D02*
X35260000Y-93340000D01*
X47646050Y-104506000D02*
X46318100Y-104506000D01*
X102270000Y-102188400D02*
X101681600Y-102188400D01*
X49472050Y-102680000D02*
X47646050Y-104506000D01*
X68314650Y-102337400D02*
X67972050Y-102680000D01*
X67972050Y-102680000D02*
X49472050Y-102680000D01*
X39570000Y-103405000D02*
X36361000Y-100196000D01*
X101532600Y-102337400D02*
X68314650Y-102337400D01*
X101681600Y-102188400D02*
X101532600Y-102337400D01*
X45217100Y-103405000D02*
X39570000Y-103405000D01*
X36361000Y-100196000D02*
X36361000Y-94441000D01*
X46318100Y-104506000D02*
X45217100Y-103405000D01*
%TO.N,Net-(U10-Pad8)*%
X37703400Y-175624400D02*
X39649000Y-177570000D01*
X39649000Y-177570000D02*
X111400000Y-177570000D01*
%TO.N,PX7*%
X139650000Y-187250000D02*
X133150000Y-187250000D01*
X50222600Y-175590600D02*
X56801200Y-175590600D01*
X133150000Y-187250000D02*
X129951000Y-190449000D01*
X38120000Y-189070000D02*
X39499000Y-190449000D01*
X39499000Y-190449000D02*
X44110000Y-190449000D01*
X56801200Y-175590600D02*
X56928200Y-175463600D01*
X44110000Y-190449000D02*
X129951000Y-190449000D01*
%TO.N,PX3*%
X56801200Y-165430600D02*
X56928200Y-165303600D01*
X41143000Y-189310000D02*
X39351000Y-187518000D01*
X88850000Y-187250000D02*
X82350000Y-187250000D01*
X47370000Y-189310000D02*
X41143000Y-189310000D01*
X80290000Y-189310000D02*
X82350000Y-187250000D01*
X50222600Y-165430600D02*
X56801200Y-165430600D01*
X39351000Y-187518000D02*
X34592000Y-187518000D01*
X47370000Y-189310000D02*
X80290000Y-189310000D01*
X34592000Y-187518000D02*
X33040000Y-189070000D01*
%TO.N,Net-(U10-Pad13)*%
X30083400Y-173084400D02*
X36602400Y-166565400D01*
X36602400Y-164025400D02*
X37703400Y-162924400D01*
X36602400Y-166565400D02*
X36602400Y-164025400D01*
D43*
%TO.N,Net-(C14-Pad1)*%
X25410000Y-168360000D02*
X28832400Y-164937600D01*
X28832400Y-161635400D02*
X30083400Y-160384400D01*
X28832400Y-164937600D02*
X28832400Y-161635400D01*
%TO.N,+3V3*%
X104200000Y-53920000D02*
X104200000Y-55232200D01*
X85800000Y-55242200D02*
X60212200Y-55242200D01*
X127496800Y-53991200D02*
X130728800Y-53991200D01*
X104200000Y-55232200D02*
X104210000Y-55242200D01*
X127496800Y-53991200D02*
X126245800Y-55242200D01*
X132740000Y-31240000D02*
X132700000Y-31200000D01*
X101080000Y-55242200D02*
X87550000Y-55242200D01*
X101030000Y-53915000D02*
X101030000Y-55192200D01*
X104210000Y-55242200D02*
X101080000Y-55242200D01*
X60212200Y-55242200D02*
X60190000Y-55220000D01*
X112280000Y-55242200D02*
X104210000Y-55242200D01*
X112256800Y-53991200D02*
X112256800Y-55219000D01*
X116590000Y-55242200D02*
X112280000Y-55242200D01*
X112256800Y-55219000D02*
X112280000Y-55242200D01*
X135450000Y-31240000D02*
X132740000Y-31240000D01*
X130730000Y-53990000D02*
X131410000Y-53990000D01*
X85790000Y-55232200D02*
X85800000Y-55242200D01*
X101030000Y-55192200D02*
X101080000Y-55242200D01*
X87550000Y-55242200D02*
X85800000Y-55242200D01*
X126245800Y-55242200D02*
X116590000Y-55242200D01*
X131410000Y-53990000D02*
X132700000Y-52700000D01*
X130728800Y-53991200D02*
X130730000Y-53990000D01*
X85790000Y-53915000D02*
X85790000Y-55232200D01*
D42*
%TO.N,Net-(D3-A)*%
X32870000Y-125870000D02*
X27790000Y-125870000D01*
%TO.N,Net-(D4-A)*%
X27790000Y-130950000D02*
X32870000Y-130950000D01*
%TO.N,Net-(D5-A)*%
X27790000Y-136030000D02*
X32870000Y-136030000D01*
%TO.N,Net-(D6-A)*%
X27790000Y-141110000D02*
X32870000Y-141110000D01*
%TO.N,Net-(D7-A)*%
X32870000Y-105550000D02*
X27790000Y-105550000D01*
%TO.N,Net-(D8-A)*%
X27790000Y-110630000D02*
X32870000Y-110630000D01*
%TO.N,Net-(D9-A)*%
X32870000Y-115710000D02*
X27790000Y-115710000D01*
%TO.N,Net-(D10-A)*%
X27790000Y-120790000D02*
X32870000Y-120790000D01*
%TO.N,~{FPGA_CS}*%
X84698200Y-172898200D02*
X82678069Y-170878069D01*
X86798600Y-172898200D02*
X84698200Y-172898200D01*
%TO.N,PA2*%
X38930000Y-128840000D02*
X19380000Y-128840000D01*
X39670000Y-129580000D02*
X38930000Y-128840000D01*
%TO.N,PA0*%
X39670000Y-119420000D02*
X36673950Y-122416050D01*
X33200000Y-123760000D02*
X33410000Y-123550000D01*
X33410000Y-123550000D02*
X34543950Y-122416050D01*
X34543950Y-122416050D02*
X36673950Y-122416050D01*
X19380000Y-123760000D02*
X33200000Y-123760000D01*
%TO.N,PX4*%
X37571000Y-193601000D02*
X47950000Y-193601000D01*
X101550000Y-187250000D02*
X95050000Y-187250000D01*
X88910000Y-193601000D02*
X47950000Y-193601000D01*
X47950000Y-193150000D02*
X47950000Y-193601000D01*
X56928200Y-167843600D02*
X50349600Y-167843600D01*
X35580000Y-191610000D02*
X37571000Y-193601000D01*
X50349600Y-167843600D02*
X50222600Y-167970600D01*
%TO.N,Net-(U15-SER)*%
X97051000Y-52814000D02*
X95950000Y-53915000D01*
X109716800Y-53991200D02*
X108539600Y-52814000D01*
X108539600Y-52814000D02*
X97051000Y-52814000D01*
%TO.N,Net-(C21-Pad1)*%
X79603200Y-40551000D02*
X126357400Y-40551000D01*
X126357400Y-40551000D02*
X127488800Y-39419600D01*
X79328400Y-40276200D02*
X79603200Y-40551000D01*
%TO.N,PA4*%
X43678232Y-133559000D02*
X47290000Y-137170768D01*
X36759000Y-133920000D02*
X19380000Y-133920000D01*
X37120000Y-133559000D02*
X36759000Y-133920000D01*
X37120000Y-133559000D02*
X43678232Y-133559000D01*
X47290000Y-137170768D02*
X47290000Y-137200000D01*
%TO.N,Net-(D11-A)*%
X32720000Y-93340000D02*
X27640000Y-93340000D01*
%TO.N,Net-(D12-A)*%
X32720000Y-98420000D02*
X27640000Y-98420000D01*
%TO.N,Net-(U15-RCLK)*%
X117173500Y-50306500D02*
X117090000Y-50390000D01*
X94466000Y-50319000D02*
X109999000Y-50319000D01*
X109999000Y-50319000D02*
X110010000Y-50330000D01*
X133400000Y-50306500D02*
X117173500Y-50306500D01*
X110010000Y-50330000D02*
X117030000Y-50330000D01*
X90870000Y-53915000D02*
X94466000Y-50319000D01*
X117030000Y-50330000D02*
X117090000Y-50390000D01*
%TO.N,Net-(U15-SRCLK)*%
X133550000Y-49620000D02*
X133077282Y-49620000D01*
X114500000Y-49780000D02*
X92465000Y-49780000D01*
X133077282Y-49620000D02*
X132917282Y-49780000D01*
X132917282Y-49780000D02*
X114570000Y-49780000D01*
X92465000Y-49780000D02*
X88330000Y-53915000D01*
%TO.N,Net-(U12-LV8)*%
X117254091Y-68144091D02*
X106864091Y-68144091D01*
X117590000Y-68480000D02*
X117254091Y-68144091D01*
X132817283Y-68480000D02*
X117590000Y-68480000D01*
X134930783Y-70593500D02*
X132817283Y-68480000D01*
X106420000Y-67700000D02*
X103990000Y-67700000D01*
X106864091Y-68144091D02*
X106420000Y-67700000D01*
X152633500Y-70593500D02*
X134930783Y-70593500D01*
X103990000Y-67700000D02*
X103910000Y-67620000D01*
X152690000Y-70650000D02*
X152633500Y-70593500D01*
%TO.N,Net-(U12-LV3)*%
X134963783Y-55353500D02*
X155815500Y-55353500D01*
X132850000Y-57320000D02*
X134086359Y-56083641D01*
X134233641Y-56083641D02*
X134963783Y-55353500D01*
X123405000Y-57320000D02*
X132850000Y-57320000D01*
X134086359Y-56083641D02*
X134233641Y-56083641D01*
X121690000Y-59035000D02*
X123405000Y-57320000D01*
X155815500Y-55353500D02*
X155929000Y-55240000D01*
%TO.N,Net-(U19-IOB29A)*%
X131229636Y-66090000D02*
X80210000Y-66090000D01*
X131250000Y-66069636D02*
X131229636Y-66090000D01*
X80210000Y-66090000D02*
X73120000Y-59000000D01*
X139600000Y-56580000D02*
X139660000Y-56640000D01*
X139660000Y-56640000D02*
X158310000Y-56640000D01*
%TO.N,Net-(U19-IOB13B)*%
X137940000Y-66800000D02*
X158310000Y-66800000D01*
X92180000Y-62820000D02*
X88360000Y-59000000D01*
X137870000Y-66730000D02*
X137940000Y-66800000D01*
X133020000Y-62820000D02*
X92180000Y-62820000D01*
X133060000Y-62860000D02*
X133020000Y-62820000D01*
%TO.N,Net-(U12-LV5)*%
X134196500Y-64233500D02*
X134196500Y-63740783D01*
X135969217Y-63006500D02*
X135971358Y-63008642D01*
X134196500Y-63740783D02*
X134930783Y-63006500D01*
X134930783Y-63006500D02*
X135969217Y-63006500D01*
X131690000Y-66740000D02*
X134196500Y-64233500D01*
X154583500Y-62973500D02*
X154977000Y-62580000D01*
X136006500Y-62973500D02*
X154583500Y-62973500D01*
X111672182Y-66740000D02*
X131690000Y-66740000D01*
X135971358Y-63008642D02*
X136006500Y-62973500D01*
X111621091Y-66791091D02*
X111672182Y-66740000D01*
X111595000Y-66791091D02*
X111621091Y-66791091D01*
%TO.N,Net-(U12-LV4)*%
X121266000Y-56919000D02*
X130858283Y-56919000D01*
X119150000Y-59035000D02*
X121266000Y-56919000D01*
X155305500Y-52846500D02*
X155379000Y-52920000D01*
X130858283Y-56919000D02*
X134930783Y-52846500D01*
X134930783Y-52846500D02*
X155305500Y-52846500D01*
%TO.N,Net-(U19-IOB23B)*%
X78200000Y-59000000D02*
X83930000Y-64730000D01*
X132690000Y-64730000D02*
X132720000Y-64700000D01*
X139920000Y-61680000D02*
X139960000Y-61720000D01*
X83930000Y-64730000D02*
X132690000Y-64730000D01*
X139960000Y-61720000D02*
X158310000Y-61720000D01*
%TO.N,Net-(U12-LV1)*%
X127911500Y-57893500D02*
X156956500Y-57893500D01*
X156956500Y-57893500D02*
X157030000Y-57820000D01*
X126770000Y-59035000D02*
X127911500Y-57893500D01*
%TO.N,Net-(U19-IOB11B)*%
X140240000Y-71680000D02*
X140440000Y-71880000D01*
X140440000Y-71880000D02*
X158310000Y-71880000D01*
X133200000Y-61100000D02*
X95540000Y-61100000D01*
X95540000Y-61100000D02*
X93440000Y-59000000D01*
%TO.N,Net-(U19-IOB33B)*%
X139820000Y-59180000D02*
X158310000Y-59180000D01*
X82150000Y-65490000D02*
X75660000Y-59000000D01*
X139790000Y-59210000D02*
X139820000Y-59180000D01*
X131730000Y-65490000D02*
X82150000Y-65490000D01*
%TO.N,Net-(U19-IOB23A)*%
X138830000Y-64900000D02*
X151430000Y-64900000D01*
X85520000Y-63780000D02*
X80740000Y-59000000D01*
X132760000Y-63780000D02*
X85520000Y-63780000D01*
X151430000Y-64900000D02*
X152070000Y-64260000D01*
X152070000Y-64260000D02*
X158310000Y-64260000D01*
%TO.N,Net-(U12-LV7)*%
X127300000Y-67542000D02*
X112450000Y-67542000D01*
X127808000Y-68050000D02*
X127300000Y-67542000D01*
X134930783Y-68053500D02*
X134927283Y-68050000D01*
X153420000Y-68050000D02*
X135972717Y-68050000D01*
X107063091Y-67743091D02*
X106460000Y-67140000D01*
X135969217Y-68053500D02*
X134930783Y-68053500D01*
X112248909Y-67743091D02*
X107063091Y-67743091D01*
X112450000Y-67542000D02*
X112248909Y-67743091D01*
X134927283Y-68050000D02*
X127808000Y-68050000D01*
X154057909Y-67412091D02*
X153420000Y-68050000D01*
X135972717Y-68050000D02*
X135969217Y-68053500D01*
X154057909Y-67350000D02*
X154057909Y-67412091D01*
%TO.N,Net-(U19-IOB8A)*%
X136520000Y-50300000D02*
X136500000Y-50320000D01*
X136486500Y-50306500D02*
X134930783Y-50306500D01*
X134930783Y-50306500D02*
X133875092Y-51362191D01*
X133875092Y-51362191D02*
X133875092Y-53335091D01*
X120972000Y-56518000D02*
X119900000Y-57590000D01*
X119900000Y-57590000D02*
X97390000Y-57590000D01*
X97390000Y-57590000D02*
X95980000Y-59000000D01*
X141950000Y-50300000D02*
X136520000Y-50300000D01*
X136500000Y-50320000D02*
X136486500Y-50306500D01*
X133875092Y-53335091D02*
X130692183Y-56518000D01*
X130692183Y-56518000D02*
X120972000Y-56518000D01*
%TO.N,Net-(U16-SER)*%
X133339828Y-48579637D02*
X132540465Y-49379000D01*
X132540465Y-49379000D02*
X122629000Y-49379000D01*
X134118425Y-48579637D02*
X133339828Y-48579637D01*
X122629000Y-49379000D02*
X122480000Y-49230000D01*
%TO.N,Net-(U19-IOB13A)*%
X139380000Y-69340000D02*
X158310000Y-69340000D01*
X93860000Y-61960000D02*
X90900000Y-59000000D01*
X133670000Y-61960000D02*
X93860000Y-61960000D01*
X133780000Y-62070000D02*
X133670000Y-61960000D01*
%TO.N,Net-(U12-LV2)*%
X125655000Y-60460000D02*
X124230000Y-59035000D01*
X155800000Y-60460000D02*
X125655000Y-60460000D01*
X155920000Y-60580000D02*
X155800000Y-60460000D01*
%TO.N,Net-(U12-LV6)*%
X112024323Y-67141000D02*
X111823232Y-67342091D01*
X111823232Y-67342091D02*
X109541000Y-67342091D01*
X154660000Y-65420000D02*
X154566500Y-65513500D01*
X109541000Y-67342091D02*
X108990000Y-66791091D01*
X132832500Y-67141000D02*
X112024323Y-67141000D01*
X154566500Y-65513500D02*
X134460000Y-65513500D01*
X134460000Y-65513500D02*
X132832500Y-67141000D01*
D43*
%TO.N,Net-(J3-Pin_1)*%
X74273800Y-32021200D02*
X79321200Y-32021200D01*
D42*
X79321200Y-32021200D02*
X79450000Y-32150000D01*
%TO.N,Net-(C21-Pad2)*%
X71691800Y-43288200D02*
X78316400Y-43288200D01*
X64210000Y-52270000D02*
X64210000Y-50770000D01*
X64210000Y-50770000D02*
X71691800Y-43288200D01*
X78316400Y-43288200D02*
X79328400Y-42276200D01*
%TO.N,Net-(LCD1-RS)*%
X84540000Y-156890000D02*
X80296560Y-156890000D01*
X66868400Y-156244600D02*
X65767400Y-155143600D01*
X80296560Y-156890000D02*
X79651160Y-156244600D01*
X79651160Y-156244600D02*
X66868400Y-156244600D01*
%TO.N,Net-(LCD1-VO)*%
X89030000Y-150370000D02*
X89690000Y-149710000D01*
X89690000Y-149710000D02*
X139685000Y-149710000D01*
%TO.N,Net-(LCD1-E)*%
X76028000Y-164240000D02*
X75949000Y-164161000D01*
X76270000Y-164240000D02*
X76028000Y-164240000D01*
X75949000Y-164161000D02*
X67164800Y-164161000D01*
X67164800Y-164161000D02*
X65767400Y-162763600D01*
%TO.N,Net-(LCD1-DB5)*%
X70684400Y-165303600D02*
X73387400Y-165303600D01*
X70128000Y-165860000D02*
X70684400Y-165303600D01*
%TO.N,Net-(LCD1-DB6)*%
X70128000Y-163560000D02*
X70924400Y-162763600D01*
X70924400Y-162763600D02*
X73387400Y-162763600D01*
%TO.N,PA1*%
X39670000Y-127040000D02*
X39639000Y-127071000D01*
X20151000Y-127071000D02*
X19380000Y-126300000D01*
X39639000Y-127071000D02*
X20151000Y-127071000D01*
%TO.N,PA3*%
X34050000Y-129730000D02*
X37261000Y-129730000D01*
X21030000Y-129730000D02*
X34050000Y-129730000D01*
X19380000Y-131380000D02*
X21030000Y-129730000D01*
X37261000Y-129730000D02*
X37861000Y-130330000D01*
%TO.N,PA6*%
X45270000Y-136030000D02*
X45320000Y-135980000D01*
X35410000Y-136030000D02*
X45270000Y-136030000D01*
X33200000Y-139000000D02*
X19380000Y-139000000D01*
%TO.N,PA5*%
X45920000Y-130950000D02*
X47290000Y-129580000D01*
X20260000Y-137340000D02*
X19380000Y-136460000D01*
X35410000Y-130950000D02*
X45920000Y-130950000D01*
X33910000Y-137340000D02*
X20260000Y-137340000D01*
%TO.N,PB2*%
X60240000Y-88150000D02*
X59864000Y-87774000D01*
X20004000Y-87774000D02*
X18890000Y-86660000D01*
X59864000Y-87774000D02*
X20004000Y-87774000D01*
X60940000Y-88150000D02*
X60240000Y-88150000D01*
%TO.N,PB3*%
X60940000Y-91540000D02*
X59714000Y-90314000D01*
X47626050Y-90991000D02*
X20681000Y-90991000D01*
X20681000Y-90991000D02*
X18890000Y-89200000D01*
X59714000Y-90314000D02*
X48303050Y-90314000D01*
X48303050Y-90314000D02*
X47626050Y-90991000D01*
%TO.N,PC1*%
X45751000Y-104506000D02*
X36916000Y-104506000D01*
X34059000Y-97219000D02*
X24369000Y-97219000D01*
X36916000Y-104506000D02*
X35260000Y-102850000D01*
X35260000Y-98420000D02*
X34059000Y-97219000D01*
X47190000Y-105945000D02*
X45751000Y-104506000D01*
X24369000Y-97219000D02*
X18890000Y-91740000D01*
X35260000Y-102850000D02*
X35260000Y-98420000D01*
%TO.N,Net-(U19-IOT8A)*%
X136726500Y-80753500D02*
X119733500Y-80753500D01*
X118110000Y-79130000D02*
X117420000Y-79130000D01*
X114890000Y-76600000D02*
X114890000Y-75910000D01*
X136820000Y-80660000D02*
X136726500Y-80753500D01*
X114850000Y-75870000D02*
X114890000Y-75910000D01*
X117420000Y-79130000D02*
X114890000Y-76600000D01*
X119733500Y-80753500D02*
X118110000Y-79130000D01*
%TO.N,PX1*%
X56801200Y-160350600D02*
X56928200Y-160223600D01*
X55510000Y-188690000D02*
X56950000Y-187250000D01*
X50222600Y-160350600D02*
X56801200Y-160350600D01*
X63450000Y-187250000D02*
X56950000Y-187250000D01*
X41814000Y-188690000D02*
X55510000Y-188690000D01*
X32453000Y-187117000D02*
X40241000Y-187117000D01*
X30500000Y-189070000D02*
X32453000Y-187117000D01*
X40241000Y-187117000D02*
X41814000Y-188690000D01*
%TO.N,~{INT2}*%
X120680000Y-89710000D02*
X81540000Y-89710000D01*
X67465100Y-70738000D02*
X71467100Y-74740000D01*
X58080000Y-70738000D02*
X67465100Y-70738000D01*
X56804500Y-69462500D02*
X58080000Y-70738000D01*
X71467100Y-74740000D02*
X81490000Y-74740000D01*
X123080000Y-92110000D02*
X120680000Y-89710000D01*
X52357500Y-69462500D02*
X56804500Y-69462500D01*
X52357500Y-69462500D02*
X50745000Y-67850000D01*
X136620000Y-92110000D02*
X123080000Y-92110000D01*
%TO.N,Net-(JP14-A)*%
X103643400Y-162636600D02*
X100006600Y-162636600D01*
X122021000Y-135779000D02*
X120870000Y-136930000D01*
X135949000Y-135779000D02*
X122021000Y-135779000D01*
X137120000Y-136950000D02*
X135949000Y-135779000D01*
X129810000Y-172680000D02*
X128825600Y-171695600D01*
X128825600Y-171695600D02*
X99395600Y-171695600D01*
X104300000Y-162610000D02*
X103670000Y-162610000D01*
X103670000Y-162610000D02*
X103643400Y-162636600D01*
X104800000Y-136930000D02*
X120870000Y-136930000D01*
X99395600Y-171695600D02*
X99200000Y-171500000D01*
%TO.N,A11*%
X39667760Y-66040000D02*
X38260000Y-66040000D01*
X40571000Y-66943240D02*
X39667760Y-66040000D01*
X101080000Y-150421000D02*
X92770000Y-150421000D01*
X100949000Y-88609000D02*
X101420000Y-89080000D01*
X125482300Y-113072400D02*
X123865500Y-111455600D01*
X104884000Y-112715050D02*
X103534950Y-112715050D01*
X42258080Y-71441920D02*
X42258080Y-70036120D01*
X51980527Y-75108000D02*
X51781527Y-75307000D01*
X106143450Y-111455600D02*
X104884000Y-112715050D01*
X38260000Y-66040000D02*
X36880000Y-67420000D01*
X119488400Y-111455600D02*
X106143450Y-111455600D01*
X126701000Y-112671400D02*
X126300000Y-113072400D01*
X65962950Y-88875000D02*
X67063950Y-87774000D01*
X123865500Y-111455600D02*
X119488400Y-111455600D01*
X72316100Y-88609000D02*
X100949000Y-88609000D01*
X40571000Y-68349000D02*
X40571000Y-66943240D01*
X102999900Y-112180000D02*
X101100000Y-112180000D01*
X103534950Y-112715050D02*
X102999900Y-112180000D01*
X51980527Y-75108000D02*
X51980527Y-75130527D01*
X51781527Y-75307000D02*
X46123160Y-75307000D01*
X46123160Y-75307000D02*
X42258080Y-71441920D01*
X126300000Y-113072400D02*
X125482300Y-113072400D01*
X52280000Y-88875000D02*
X65962950Y-88875000D01*
X67063950Y-87774000D02*
X71481100Y-87774000D01*
X138660000Y-112671400D02*
X126701000Y-112671400D01*
X40570980Y-68349020D02*
X40571000Y-68349000D01*
X42258080Y-70036120D02*
X40570980Y-68349020D01*
X71481100Y-87774000D02*
X72316100Y-88609000D01*
%TO.N,PX0*%
X56928200Y-157683600D02*
X50349600Y-157683600D01*
X50750000Y-187250000D02*
X44250000Y-187250000D01*
X50349600Y-157683600D02*
X50222600Y-157810600D01*
%TO.N,Net-(JP3-C)*%
X123490000Y-159100000D02*
X132969800Y-159100000D01*
X132969800Y-159100000D02*
X133966400Y-160096600D01*
%TO.N,~{RFSH}*%
X47170000Y-144232000D02*
X46771000Y-144631000D01*
X68625157Y-141540000D02*
X52195844Y-141540000D01*
X21651000Y-144631000D02*
X21460000Y-144440000D01*
X49503844Y-144232000D02*
X47170000Y-144232000D01*
X46771000Y-144631000D02*
X21651000Y-144631000D01*
X52195844Y-141540000D02*
X49503844Y-144232000D01*
%TO.N,~{BUSRQ}*%
X68095000Y-126400000D02*
X67520000Y-126975000D01*
X70815000Y-126400000D02*
X68095000Y-126400000D01*
X69397559Y-141186468D02*
X69151091Y-140940000D01*
X69151091Y-140940000D02*
X52147100Y-140940000D01*
X22349000Y-143831000D02*
X22150000Y-144030000D01*
X52147100Y-140940000D02*
X49256100Y-143831000D01*
X49256100Y-143831000D02*
X22349000Y-143831000D01*
%TO.N,~{NMI}*%
X69090000Y-133340001D02*
X70209999Y-133340001D01*
X69090000Y-133340001D02*
X57129944Y-133340001D01*
X53304943Y-129515000D02*
X52280000Y-129515000D01*
X70040001Y-133340001D02*
X69090000Y-133340001D01*
X57129944Y-133340001D02*
X53304943Y-129515000D01*
X70209999Y-133340001D02*
X70810000Y-132740000D01*
%TO.N,~{BUSAK}*%
X23200000Y-72690000D02*
X23400000Y-72490000D01*
X21990000Y-128240000D02*
X63705000Y-128240000D01*
X63705000Y-128240000D02*
X67520000Y-132055000D01*
X21970000Y-128220000D02*
X21990000Y-128240000D01*
%TO.N,~{WAIT}*%
X69600000Y-140340000D02*
X52180000Y-140340000D01*
X67585000Y-129580000D02*
X67520000Y-129515000D01*
X70825000Y-129580000D02*
X67585000Y-129580000D01*
X69710000Y-140450000D02*
X69600000Y-140340000D01*
X52180000Y-140340000D02*
X49090000Y-143430000D01*
X49090000Y-143430000D02*
X20980000Y-143430000D01*
%TO.N,/kraft80V2-ios/CKFF*%
X119234400Y-165303600D02*
X120981800Y-165303600D01*
X49925000Y-100865000D02*
X47190000Y-100865000D01*
X44650000Y-98325000D02*
X47190000Y-100865000D01*
X120004000Y-90314000D02*
X122580000Y-92890000D01*
X57550000Y-100330000D02*
X50460000Y-100330000D01*
X120981800Y-165303600D02*
X121035400Y-165250000D01*
X58060000Y-89520000D02*
X62221943Y-89520000D01*
X62221943Y-89520000D02*
X63015943Y-90314000D01*
X50460000Y-100330000D02*
X49925000Y-100865000D01*
X39570000Y-98325000D02*
X44650000Y-98325000D01*
X63015943Y-90314000D02*
X120004000Y-90314000D01*
%TO.N,/kraft80V2-ios/CKLED*%
X114671000Y-140100000D02*
X114200000Y-140100000D01*
X114200000Y-140100000D02*
X113840000Y-139740000D01*
X113840000Y-139740000D02*
X47290000Y-139740000D01*
%TO.N,/kraft80V2-ios/CKPSHB*%
X83000350Y-154042600D02*
X83823950Y-153219000D01*
X83823950Y-153219000D02*
X96373950Y-153219000D01*
X96983950Y-152609000D02*
X120149000Y-152609000D01*
X120540000Y-153000000D02*
X125130000Y-153000000D01*
X51450600Y-154042600D02*
X83000350Y-154042600D01*
X50222600Y-155270600D02*
X51450600Y-154042600D01*
X120149000Y-152609000D02*
X120540000Y-153000000D01*
X125130000Y-153000000D02*
X125620000Y-153490000D01*
X96373950Y-153219000D02*
X96983950Y-152609000D01*
%TO.N,/kraft80V2-ios/CKDIS*%
X110540000Y-176969000D02*
X112349000Y-176969000D01*
X126854400Y-175463600D02*
X124988000Y-177330000D01*
X90339000Y-177169000D02*
X110340000Y-177169000D01*
X112349000Y-176969000D02*
X112710000Y-177330000D01*
X74644857Y-176721057D02*
X88598943Y-176721057D01*
X112710000Y-177330000D02*
X124988000Y-177330000D01*
X110340000Y-177169000D02*
X110540000Y-176969000D01*
X73387400Y-175463600D02*
X74644857Y-176721057D01*
X88951000Y-176369000D02*
X89539000Y-176369000D01*
X89539000Y-176369000D02*
X90339000Y-177169000D01*
X88598943Y-176721057D02*
X88951000Y-176369000D01*
%TO.N,/kraft80V2-ios/~{CS1}*%
X88757432Y-162738200D02*
X86798600Y-162738200D01*
X130290000Y-164000000D02*
X116390000Y-164000000D01*
X116390000Y-164000000D02*
X90019232Y-164000000D01*
X90019232Y-164000000D02*
X88757432Y-162738200D01*
X116390000Y-164000000D02*
X116480000Y-164000000D01*
%TO.N,Net-(JP11-C)*%
X80500400Y-158980000D02*
X79178600Y-157658200D01*
X87520000Y-158980000D02*
X80500400Y-158980000D01*
%TO.N,/kraft80V2-ios/~{CS0}*%
X130380000Y-166480000D02*
X88000000Y-166480000D01*
X88000000Y-166480000D02*
X87880000Y-166360000D01*
X130420000Y-166440000D02*
X130380000Y-166480000D01*
%TO.N,/kraft80V2-fpga/DISK_SCK*%
X142230000Y-27060000D02*
X156867100Y-27060000D01*
X156867100Y-27060000D02*
X159964500Y-30157400D01*
X159964500Y-82925500D02*
X158310000Y-84580000D01*
X126930000Y-26390000D02*
X128081000Y-25239000D01*
X159964500Y-30157400D02*
X159964500Y-82925500D01*
X140409000Y-25239000D02*
X142230000Y-27060000D01*
X128081000Y-25239000D02*
X140409000Y-25239000D01*
%TO.N,/kraft80V2-fpga/DISK_MOSI*%
X124390000Y-26390000D02*
X125942000Y-24838000D01*
X140799000Y-24838000D02*
X142550000Y-26589000D01*
X125942000Y-24838000D02*
X140799000Y-24838000D01*
X160365500Y-85064500D02*
X158310000Y-87120000D01*
X160365500Y-29991300D02*
X160365500Y-85064500D01*
X142550000Y-26589000D02*
X156963200Y-26589000D01*
X156963200Y-26589000D02*
X160365500Y-29991300D01*
%TO.N,/kraft80V2-fpga/DISK_MISO*%
X123001000Y-27541000D02*
X156781000Y-27541000D01*
X156781000Y-27541000D02*
X159563500Y-30323500D01*
X159563500Y-30323500D02*
X159563500Y-80786500D01*
X121850000Y-26390000D02*
X123001000Y-27541000D01*
X159563500Y-80786500D02*
X158310000Y-82040000D01*
%TO.N,/kraft80V2-fpga/~{DISK_CS}*%
X141000000Y-64180000D02*
X140920000Y-64260000D01*
X135982182Y-26390000D02*
X129470000Y-26390000D01*
X140786091Y-26393909D02*
X135986091Y-26393909D01*
X140920000Y-64260000D02*
X135450000Y-64260000D01*
X141341000Y-64180000D02*
X141000000Y-64180000D01*
X135986091Y-26393909D02*
X135982182Y-26390000D01*
%TO.N,/kraft80V2-fpga/DAT_KBD*%
X61441000Y-30649000D02*
X61760000Y-30330000D01*
X50521000Y-30649000D02*
X61441000Y-30649000D01*
X49380000Y-31790000D02*
X50521000Y-30649000D01*
X62050000Y-39510000D02*
X61480000Y-38940000D01*
X71470000Y-39510000D02*
X62050000Y-39510000D01*
%TO.N,/kraft80V2-fpga/CK_KBD*%
X47380000Y-34100000D02*
X48531000Y-35251000D01*
X59552200Y-55942200D02*
X59490000Y-55880000D01*
X92200000Y-55942200D02*
X59552200Y-55942200D01*
X59720000Y-35251000D02*
X60629000Y-35251000D01*
X60629000Y-35251000D02*
X61790000Y-34090000D01*
X48531000Y-35251000D02*
X59720000Y-35251000D01*
%TO.N,/kraft80V2-ios/~{CS4}*%
X97650000Y-159190000D02*
X97844400Y-158995600D01*
X97844400Y-158995600D02*
X115855600Y-158995600D01*
X115855600Y-158995600D02*
X116370000Y-159510000D01*
X116370000Y-159899200D02*
X119234400Y-162763600D01*
X116370000Y-159510000D02*
X116370000Y-159899200D01*
X87798000Y-171357600D02*
X97512400Y-171357600D01*
X97512400Y-171357600D02*
X97650000Y-171220000D01*
X86798600Y-170358200D02*
X87798000Y-171357600D01*
%TO.N,/kraft80V2-ios/~{DISP_CS}*%
X115190000Y-173990000D02*
X115224600Y-174024600D01*
X115224600Y-174024600D02*
X125753400Y-174024600D01*
X125753400Y-174024600D02*
X126854400Y-172923600D01*
%TO.N,/kraft80V2-ios/~{CS2}*%
X87081000Y-152619000D02*
X87710000Y-151990000D01*
X120408202Y-151990000D02*
X120818202Y-152400000D01*
X85530000Y-152619000D02*
X87081000Y-152619000D01*
X87710000Y-151990000D02*
X120408202Y-151990000D01*
%TO.N,Net-(U17-TXD)*%
X130179900Y-69230000D02*
X134116400Y-73166500D01*
X157056500Y-73166500D02*
X158310000Y-74420000D01*
X117380000Y-69230000D02*
X130179900Y-69230000D01*
X73640000Y-66190000D02*
X76000000Y-68550000D01*
X53370000Y-66190000D02*
X73640000Y-66190000D01*
X116700000Y-68550000D02*
X117380000Y-69230000D01*
X76000000Y-68550000D02*
X116700000Y-68550000D01*
X134116400Y-73166500D02*
X157056500Y-73166500D01*
%TO.N,Net-(U17-~{CTS})*%
X44740000Y-54830000D02*
X44096500Y-54186500D01*
X23450000Y-55950000D02*
X23450000Y-44550000D01*
X59961768Y-54669000D02*
X59800768Y-54830000D01*
X139800000Y-49210000D02*
X138356500Y-47766500D01*
X23450000Y-44550000D02*
X25260000Y-42740000D01*
X60418232Y-54669000D02*
X59961768Y-54669000D01*
X129240000Y-48978000D02*
X123428000Y-48978000D01*
X73588800Y-54691200D02*
X60440432Y-54691200D01*
X26180000Y-57130000D02*
X24630000Y-57130000D01*
X24630000Y-57130000D02*
X23450000Y-55950000D01*
X130451500Y-47766500D02*
X129240000Y-48978000D01*
X79150000Y-49130000D02*
X73588800Y-54691200D01*
X36844000Y-56292500D02*
X27017500Y-56292500D01*
X121370000Y-49130000D02*
X79150000Y-49130000D01*
X44096500Y-54186500D02*
X38950000Y-54186500D01*
X60440432Y-54691200D02*
X60418232Y-54669000D01*
X138356500Y-47766500D02*
X130451500Y-47766500D01*
X27017500Y-56292500D02*
X26180000Y-57130000D01*
X59800768Y-54830000D02*
X44740000Y-54830000D01*
X123129000Y-48679000D02*
X121821000Y-48679000D01*
X123428000Y-48978000D02*
X123129000Y-48679000D01*
X38950000Y-54186500D02*
X36844000Y-56292500D01*
X121821000Y-48679000D02*
X121370000Y-49130000D01*
%TO.N,Net-(U17-RXD)*%
X72968000Y-54268000D02*
X49488000Y-54268000D01*
X141891000Y-45226500D02*
X134369000Y-45226500D01*
X132230000Y-47365500D02*
X130285400Y-47365500D01*
X49488000Y-54268000D02*
X40500000Y-45280000D01*
X134369000Y-45226500D02*
X132230000Y-47365500D01*
X124310000Y-48577000D02*
X124011000Y-48278000D01*
X78958000Y-48278000D02*
X72968000Y-54268000D01*
X129073900Y-48577000D02*
X124310000Y-48577000D01*
X124011000Y-48278000D02*
X78958000Y-48278000D01*
X130285400Y-47365500D02*
X129073900Y-48577000D01*
%TO.N,Net-(U19-IOT11A)*%
X135275400Y-76785400D02*
X135450000Y-76960000D01*
X131136200Y-76785400D02*
X135275400Y-76785400D01*
%TO.N,Net-(U19-IOT11B)*%
X128833600Y-75684400D02*
X134185600Y-75684400D01*
X134185600Y-75684400D02*
X135450000Y-74420000D01*
X127732600Y-76785400D02*
X128833600Y-75684400D01*
%TO.N,Net-(U19-IOT12B)*%
X120876400Y-85174600D02*
X122013200Y-86311400D01*
X134452883Y-86311400D02*
X134930783Y-85833500D01*
X134930783Y-85833500D02*
X137406500Y-85833500D01*
X122013200Y-86311400D02*
X134452883Y-86311400D01*
X137406500Y-85833500D02*
X137910000Y-85330000D01*
%TO.N,Net-(U19-IOT12A)*%
X124280000Y-85200000D02*
X126153500Y-83326500D01*
X137263500Y-83326500D02*
X137420000Y-83170000D01*
X126153500Y-83326500D02*
X137263500Y-83326500D01*
%TO.N,Net-(R42-Pad1)*%
X132239000Y-79019000D02*
X120539000Y-79019000D01*
X120539000Y-79019000D02*
X117430000Y-75910000D01*
%TO.N,Net-(JP18-C)*%
X100628200Y-111379400D02*
X95307600Y-111379400D01*
X100990000Y-111017600D02*
X100628200Y-111379400D01*
%TO.N,Net-(U3-O2)*%
X135067400Y-161535600D02*
X135067400Y-159311440D01*
X134305960Y-158550000D02*
X132940000Y-158550000D01*
X133966400Y-162636600D02*
X135067400Y-161535600D01*
X132940000Y-158550000D02*
X132785600Y-158395600D01*
X135067400Y-159311440D02*
X134305960Y-158550000D01*
X132785600Y-158395600D02*
X101570000Y-158395600D01*
%TO.N,Net-(U3-O3)*%
X133966400Y-170256600D02*
X132992400Y-169282600D01*
X101572600Y-169282600D02*
X100006600Y-167716600D01*
X132992400Y-169282600D02*
X101572600Y-169282600D01*
%TO.N,/~{SEL_ROM}*%
X96222800Y-119914600D02*
X95307600Y-118999400D01*
X101700000Y-119914600D02*
X96222800Y-119914600D01*
%TO.N,Net-(JP17-C)*%
X90073400Y-162636600D02*
X92386600Y-162636600D01*
X89788881Y-162921119D02*
X90073400Y-162636600D01*
%TO.N,Net-(JP16-C)*%
X91725600Y-174235600D02*
X91370000Y-173880000D01*
X102900000Y-174690000D02*
X102445600Y-174235600D01*
X102445600Y-174235600D02*
X91725600Y-174235600D01*
D43*
%TO.N,GNDREF*%
X77980000Y-181500000D02*
X79731000Y-183251000D01*
X81309000Y-183251000D02*
X83060000Y-181500000D01*
X79731000Y-183251000D02*
X81309000Y-183251000D01*
X97547460Y-183290000D02*
X102690000Y-183290000D01*
X95752380Y-181500000D02*
X95754920Y-181497460D01*
X102690000Y-183290000D02*
X104080000Y-181900000D01*
X95754920Y-181497460D02*
X97547460Y-183290000D01*
X93220000Y-181500000D02*
X95752380Y-181500000D01*
X84811000Y-183251000D02*
X91469000Y-183251000D01*
X83060000Y-181500000D02*
X84811000Y-183251000D01*
X91469000Y-183251000D02*
X93220000Y-181500000D01*
%TO.N,+5V*%
X101580000Y-181900000D02*
X99426460Y-179746460D01*
X91871540Y-179746460D02*
X90680000Y-180938000D01*
X99426460Y-179746460D02*
X91871540Y-179746460D01*
X90680000Y-180938000D02*
X90680000Y-181500000D01*
%TD*%
M02*
