%TF.GenerationSoftware,KiCad,Pcbnew,9.0.5-9.0.5~ubuntu24.04.1*%
%TF.CreationDate,2025-10-10T17:05:08-03:00*%
%TF.ProjectId,Kraft80V2,4b726166-7438-4305-9632-2e6b69636164,rev?*%
%TF.SameCoordinates,Original*%
%TF.FileFunction,Copper,L1,Top*%
%TF.FilePolarity,Positive*%
%FSLAX46Y46*%
G04 Gerber Fmt 4.6, Leading zero omitted, Abs format (unit mm)*
G04 Created by KiCad (PCBNEW 9.0.5-9.0.5~ubuntu24.04.1) date 2025-10-10 17:05:08*
%MOMM*%
%LPD*%
G01*
G04 APERTURE LIST*
G04 Aperture macros list*
%AMRoundRect*
0 Rectangle with rounded corners*
0 $1 Rounding radius*
0 $2 $3 $4 $5 $6 $7 $8 $9 X,Y pos of 4 corners*
0 Add a 4 corners polygon primitive as box body*
4,1,4,$2,$3,$4,$5,$6,$7,$8,$9,$2,$3,0*
0 Add four circle primitives for the rounded corners*
1,1,$1+$1,$2,$3*
1,1,$1+$1,$4,$5*
1,1,$1+$1,$6,$7*
1,1,$1+$1,$8,$9*
0 Add four rect primitives between the rounded corners*
20,1,$1+$1,$2,$3,$4,$5,0*
20,1,$1+$1,$4,$5,$6,$7,0*
20,1,$1+$1,$6,$7,$8,$9,0*
20,1,$1+$1,$8,$9,$2,$3,0*%
%AMFreePoly0*
4,1,23,0.550000,-0.750000,0.000000,-0.750000,0.000000,-0.745722,-0.065263,-0.745722,-0.191342,-0.711940,-0.304381,-0.646677,-0.396677,-0.554381,-0.461940,-0.441342,-0.495722,-0.315263,-0.495722,-0.250000,-0.500000,-0.250000,-0.500000,0.250000,-0.495722,0.250000,-0.495722,0.315263,-0.461940,0.441342,-0.396677,0.554381,-0.304381,0.646677,-0.191342,0.711940,-0.065263,0.745722,0.000000,0.745722,
0.000000,0.750000,0.550000,0.750000,0.550000,-0.750000,0.550000,-0.750000,$1*%
%AMFreePoly1*
4,1,23,0.000000,0.745722,0.065263,0.745722,0.191342,0.711940,0.304381,0.646677,0.396677,0.554381,0.461940,0.441342,0.495722,0.315263,0.495722,0.250000,0.500000,0.250000,0.500000,-0.250000,0.495722,-0.250000,0.495722,-0.315263,0.461940,-0.441342,0.396677,-0.554381,0.304381,-0.646677,0.191342,-0.711940,0.065263,-0.745722,0.000000,-0.745722,0.000000,-0.750000,-0.550000,-0.750000,
-0.550000,0.750000,0.000000,0.750000,0.000000,0.745722,0.000000,0.745722,$1*%
%AMFreePoly2*
4,1,23,0.500000,-0.750000,0.000000,-0.750000,0.000000,-0.745722,-0.065263,-0.745722,-0.191342,-0.711940,-0.304381,-0.646677,-0.396677,-0.554381,-0.461940,-0.441342,-0.495722,-0.315263,-0.495722,-0.250000,-0.500000,-0.250000,-0.500000,0.250000,-0.495722,0.250000,-0.495722,0.315263,-0.461940,0.441342,-0.396677,0.554381,-0.304381,0.646677,-0.191342,0.711940,-0.065263,0.745722,0.000000,0.745722,
0.000000,0.750000,0.500000,0.750000,0.500000,-0.750000,0.500000,-0.750000,$1*%
%AMFreePoly3*
4,1,23,0.000000,0.745722,0.065263,0.745722,0.191342,0.711940,0.304381,0.646677,0.396677,0.554381,0.461940,0.441342,0.495722,0.315263,0.495722,0.250000,0.500000,0.250000,0.500000,-0.250000,0.495722,-0.250000,0.495722,-0.315263,0.461940,-0.441342,0.396677,-0.554381,0.304381,-0.646677,0.191342,-0.711940,0.065263,-0.745722,0.000000,-0.745722,0.000000,-0.750000,-0.500000,-0.750000,
-0.500000,0.750000,0.000000,0.750000,0.000000,0.745722,0.000000,0.745722,$1*%
G04 Aperture macros list end*
%TA.AperFunction,ComponentPad*%
%ADD10RoundRect,0.250000X-0.702500X0.702500X-0.702500X-0.702500X0.702500X-0.702500X0.702500X0.702500X0*%
%TD*%
%TA.AperFunction,ComponentPad*%
%ADD11C,1.905000*%
%TD*%
%TA.AperFunction,ComponentPad*%
%ADD12RoundRect,0.875000X0.875000X0.875000X-0.875000X0.875000X-0.875000X-0.875000X0.875000X-0.875000X0*%
%TD*%
%TA.AperFunction,ComponentPad*%
%ADD13RoundRect,0.750000X0.750000X1.000000X-0.750000X1.000000X-0.750000X-1.000000X0.750000X-1.000000X0*%
%TD*%
%TA.AperFunction,ComponentPad*%
%ADD14R,3.500000X3.500000*%
%TD*%
%TA.AperFunction,ComponentPad*%
%ADD15C,2.000000*%
%TD*%
%TA.AperFunction,ComponentPad*%
%ADD16C,1.200000*%
%TD*%
%TA.AperFunction,ComponentPad*%
%ADD17C,1.600000*%
%TD*%
%TA.AperFunction,ComponentPad*%
%ADD18R,1.800000X1.800000*%
%TD*%
%TA.AperFunction,ComponentPad*%
%ADD19C,1.800000*%
%TD*%
%TA.AperFunction,ComponentPad*%
%ADD20RoundRect,0.250000X-0.550000X-0.550000X0.550000X-0.550000X0.550000X0.550000X-0.550000X0.550000X0*%
%TD*%
%TA.AperFunction,ComponentPad*%
%ADD21R,1.700000X1.700000*%
%TD*%
%TA.AperFunction,ComponentPad*%
%ADD22C,1.700000*%
%TD*%
%TA.AperFunction,ComponentPad*%
%ADD23R,3.000000X3.000000*%
%TD*%
%TA.AperFunction,ComponentPad*%
%ADD24C,3.000000*%
%TD*%
%TA.AperFunction,SMDPad,CuDef*%
%ADD25FreePoly0,0.000000*%
%TD*%
%TA.AperFunction,SMDPad,CuDef*%
%ADD26R,1.000000X1.500000*%
%TD*%
%TA.AperFunction,SMDPad,CuDef*%
%ADD27FreePoly1,0.000000*%
%TD*%
%TA.AperFunction,SMDPad,CuDef*%
%ADD28FreePoly0,90.000000*%
%TD*%
%TA.AperFunction,SMDPad,CuDef*%
%ADD29R,1.500000X1.000000*%
%TD*%
%TA.AperFunction,SMDPad,CuDef*%
%ADD30FreePoly1,90.000000*%
%TD*%
%TA.AperFunction,WasherPad*%
%ADD31C,5.600000*%
%TD*%
%TA.AperFunction,ComponentPad*%
%ADD32R,1.600000X1.600000*%
%TD*%
%TA.AperFunction,ComponentPad*%
%ADD33C,1.440000*%
%TD*%
%TA.AperFunction,ComponentPad*%
%ADD34C,1.500000*%
%TD*%
%TA.AperFunction,ComponentPad*%
%ADD35RoundRect,0.285750X0.666750X-0.666750X0.666750X0.666750X-0.666750X0.666750X-0.666750X-0.666750X0*%
%TD*%
%TA.AperFunction,ComponentPad*%
%ADD36RoundRect,0.250000X-0.550000X0.550000X-0.550000X-0.550000X0.550000X-0.550000X0.550000X0.550000X0*%
%TD*%
%TA.AperFunction,SMDPad,CuDef*%
%ADD37FreePoly0,180.000000*%
%TD*%
%TA.AperFunction,SMDPad,CuDef*%
%ADD38FreePoly1,180.000000*%
%TD*%
%TA.AperFunction,SMDPad,CuDef*%
%ADD39FreePoly2,0.000000*%
%TD*%
%TA.AperFunction,SMDPad,CuDef*%
%ADD40FreePoly3,0.000000*%
%TD*%
%TA.AperFunction,SMDPad,CuDef*%
%ADD41FreePoly2,180.000000*%
%TD*%
%TA.AperFunction,SMDPad,CuDef*%
%ADD42FreePoly3,180.000000*%
%TD*%
%TA.AperFunction,SMDPad,CuDef*%
%ADD43FreePoly0,270.000000*%
%TD*%
%TA.AperFunction,SMDPad,CuDef*%
%ADD44FreePoly1,270.000000*%
%TD*%
%TA.AperFunction,ComponentPad*%
%ADD45O,1.800000X3.600000*%
%TD*%
%TA.AperFunction,ComponentPad*%
%ADD46O,3.600000X1.800000*%
%TD*%
%TA.AperFunction,ComponentPad*%
%ADD47RoundRect,0.375000X0.577500X0.577500X-0.577500X0.577500X-0.577500X-0.577500X0.577500X-0.577500X0*%
%TD*%
%TA.AperFunction,ComponentPad*%
%ADD48R,1.050000X1.500000*%
%TD*%
%TA.AperFunction,ComponentPad*%
%ADD49O,1.050000X1.500000*%
%TD*%
%TA.AperFunction,ComponentPad*%
%ADD50R,2.000000X1.440000*%
%TD*%
%TA.AperFunction,ComponentPad*%
%ADD51O,2.000000X1.440000*%
%TD*%
%TA.AperFunction,ComponentPad*%
%ADD52R,1.800000X2.600000*%
%TD*%
%TA.AperFunction,ComponentPad*%
%ADD53O,1.800000X2.600000*%
%TD*%
%TA.AperFunction,ViaPad*%
%ADD54C,0.600000*%
%TD*%
%TA.AperFunction,ViaPad*%
%ADD55C,0.500000*%
%TD*%
%TA.AperFunction,Conductor*%
%ADD56C,0.200000*%
%TD*%
%TA.AperFunction,Conductor*%
%ADD57C,0.500000*%
%TD*%
G04 APERTURE END LIST*
D10*
%TO.P,U8,1,LV1*%
%TO.N,Net-(U19-IOB8A)*%
X95960000Y-58973000D03*
D11*
%TO.P,U8,2,LV2*%
%TO.N,Net-(U19-IOB11B)*%
X93420000Y-58973000D03*
%TO.P,U8,3,LV3*%
%TO.N,Net-(U19-IOB13A)*%
X90880000Y-58973000D03*
%TO.P,U8,4,LV4*%
%TO.N,Net-(U19-IOB13B)*%
X88340000Y-58973000D03*
%TO.P,U8,5,LV*%
%TO.N,+3V3*%
X85800000Y-58973000D03*
%TO.P,U8,6,GND*%
%TO.N,GNDREF*%
X83260000Y-58973000D03*
%TO.P,U8,7,LV5*%
%TO.N,Net-(U19-IOB23A)*%
X80720000Y-58973000D03*
%TO.P,U8,8,LV6*%
%TO.N,Net-(U19-IOB23B)*%
X78180000Y-58973000D03*
%TO.P,U8,9,LV7*%
%TO.N,Net-(U19-IOB33B)*%
X75640000Y-58973000D03*
%TO.P,U8,10,LV8*%
%TO.N,Net-(U19-IOB29A)*%
X73100000Y-58973000D03*
%TO.P,U8,11,HV8*%
%TO.N,/kraft80V2-fpga/DAT_KBD*%
X73100000Y-70530000D03*
%TO.P,U8,12,HV7*%
%TO.N,~{INT}*%
X75640000Y-70530000D03*
%TO.P,U8,13,HV6*%
%TO.N,~{FPGA_CS}*%
X78180000Y-70530000D03*
%TO.P,U8,14,HV5*%
%TO.N,CLOCK*%
X80720000Y-70530000D03*
%TO.P,U8,15,GND*%
%TO.N,GNDREF*%
X83260000Y-70530000D03*
%TO.P,U8,16,HV*%
%TO.N,+5V*%
X85800000Y-70530000D03*
%TO.P,U8,17,HV4*%
%TO.N,~{RESET}*%
X88340000Y-70530000D03*
%TO.P,U8,18,HV3*%
%TO.N,~{READ}*%
X90880000Y-70530000D03*
%TO.P,U8,19,HV2*%
%TO.N,~{WRITE}*%
X93420000Y-70530000D03*
%TO.P,U8,20,HV1*%
%TO.N,/kraft80V2-fpga/CK_KBD*%
X95960000Y-70530000D03*
%TD*%
%TO.P,U12,20,HV1*%
%TO.N,D0*%
X126770000Y-70550000D03*
%TO.P,U12,19,HV2*%
%TO.N,D1*%
X124230000Y-70550000D03*
%TO.P,U12,18,HV3*%
%TO.N,D2*%
X121690000Y-70550000D03*
%TO.P,U12,17,HV4*%
%TO.N,D3*%
X119150000Y-70550000D03*
%TO.P,U12,16,HV*%
%TO.N,+5V*%
X116610000Y-70550000D03*
%TO.P,U12,15,GND*%
%TO.N,GNDREF*%
X114070000Y-70550000D03*
%TO.P,U12,14,HV5*%
%TO.N,D4*%
X111530000Y-70550000D03*
%TO.P,U12,13,HV6*%
%TO.N,D5*%
X108990000Y-70550000D03*
%TO.P,U12,12,HV7*%
%TO.N,D6*%
X106450000Y-70550000D03*
%TO.P,U12,11,HV8*%
%TO.N,D7*%
X103910000Y-70550000D03*
%TO.P,U12,10,LV8*%
%TO.N,Net-(U12-LV8)*%
X103910000Y-58993000D03*
%TO.P,U12,9,LV7*%
%TO.N,Net-(U12-LV7)*%
X106450000Y-58993000D03*
%TO.P,U12,8,LV6*%
%TO.N,Net-(U12-LV6)*%
X108990000Y-58993000D03*
%TO.P,U12,7,LV5*%
%TO.N,Net-(U12-LV5)*%
X111530000Y-58993000D03*
%TO.P,U12,6,GND*%
%TO.N,GNDREF*%
X114070000Y-58993000D03*
%TO.P,U12,5,LV*%
%TO.N,+3V3*%
X116610000Y-58993000D03*
%TO.P,U12,4,LV4*%
%TO.N,Net-(U12-LV4)*%
X119150000Y-58993000D03*
%TO.P,U12,3,LV3*%
%TO.N,Net-(U12-LV3)*%
X121690000Y-58993000D03*
%TO.P,U12,2,LV2*%
%TO.N,Net-(U12-LV2)*%
X124230000Y-58993000D03*
D10*
%TO.P,U12,1,LV1*%
%TO.N,Net-(U12-LV1)*%
X126770000Y-58993000D03*
%TD*%
D12*
%TO.P,CN1,3*%
%TO.N,N/C*%
X156180000Y-136260000D03*
D13*
%TO.P,CN1,2*%
%TO.N,GNDREF*%
X159180000Y-140960000D03*
D14*
%TO.P,CN1,1*%
%TO.N,+5V*%
X153180000Y-140960000D03*
%TD*%
D15*
%TO.P,SW5,1,1*%
%TO.N,GNDREF*%
X101550000Y-191750000D03*
X95050000Y-191750000D03*
%TO.P,SW5,2,2*%
%TO.N,PX4*%
X101550000Y-187250000D03*
X95050000Y-187250000D03*
%TD*%
D16*
%TO.P,C23,1*%
%TO.N,+5V*%
X69730000Y-29650000D03*
%TO.P,C23,2*%
%TO.N,GNDREF*%
X69730000Y-28150000D03*
%TD*%
D17*
%TO.P,R37,1*%
%TO.N,Net-(R25-Pad2)*%
X108997600Y-33012400D03*
%TO.P,R37,2*%
%TO.N,Net-(R24-Pad2)*%
X108997600Y-35552400D03*
%TD*%
%TO.P,R20,1*%
%TO.N,Net-(J3-Pin_2)*%
X74195000Y-39647200D03*
%TO.P,R20,2*%
%TO.N,Net-(Q1-B)*%
X74195000Y-42187200D03*
%TD*%
D18*
%TO.P,D2,1,K*%
%TO.N,GNDREF*%
X154410000Y-152140000D03*
D19*
%TO.P,D2,2,A*%
%TO.N,Net-(D2-A)*%
X151870000Y-152140000D03*
%TD*%
D17*
%TO.P,C12,1*%
%TO.N,+5V*%
X141160000Y-95730000D03*
%TO.P,C12,2*%
%TO.N,GNDREF*%
X138660000Y-95730000D03*
%TD*%
D20*
%TO.P,U5,1,~{Mr}*%
%TO.N,~{RESET}*%
X39670000Y-116880000D03*
D17*
%TO.P,U5,2,Q0*%
%TO.N,PA0*%
X39670000Y-119420000D03*
%TO.P,U5,3,D0*%
%TO.N,D0*%
X39670000Y-121960000D03*
%TO.P,U5,4,D1*%
%TO.N,D1*%
X39670000Y-124500000D03*
%TO.P,U5,5,Q1*%
%TO.N,PA1*%
X39670000Y-127040000D03*
%TO.P,U5,6,Q2*%
%TO.N,PA2*%
X39670000Y-129580000D03*
%TO.P,U5,7,D2*%
%TO.N,D2*%
X39670000Y-132120000D03*
%TO.P,U5,8,D3*%
%TO.N,D3*%
X39670000Y-134660000D03*
%TO.P,U5,9,Q3*%
%TO.N,PA3*%
X39670000Y-137200000D03*
%TO.P,U5,10,GND*%
%TO.N,GNDREF*%
X39670000Y-139740000D03*
%TO.P,U5,11,Cp*%
%TO.N,/kraft80V2-ios/CKLED*%
X47290000Y-139740000D03*
%TO.P,U5,12,Q4*%
%TO.N,PA4*%
X47290000Y-137200000D03*
%TO.P,U5,13,D4*%
%TO.N,D4*%
X47290000Y-134660000D03*
%TO.P,U5,14,D5*%
%TO.N,D5*%
X47290000Y-132120000D03*
%TO.P,U5,15,Q5*%
%TO.N,PA5*%
X47290000Y-129580000D03*
%TO.P,U5,16,Q6*%
%TO.N,PA6*%
X47290000Y-127040000D03*
%TO.P,U5,17,D6*%
%TO.N,D6*%
X47290000Y-124500000D03*
%TO.P,U5,18,D7*%
%TO.N,D7*%
X47290000Y-121960000D03*
%TO.P,U5,19,Q7*%
%TO.N,PA7*%
X47290000Y-119420000D03*
%TO.P,U5,20,VCC*%
%TO.N,+5V*%
X47290000Y-116880000D03*
%TD*%
D15*
%TO.P,SW7,1,1*%
%TO.N,GNDREF*%
X126950000Y-191750000D03*
X120450000Y-191750000D03*
%TO.P,SW7,2,2*%
%TO.N,PX6*%
X126950000Y-187250000D03*
X120450000Y-187250000D03*
%TD*%
D17*
%TO.P,R21,1*%
%TO.N,CPM*%
X35260000Y-93340000D03*
%TO.P,R21,2*%
%TO.N,Net-(D11-A)*%
X32720000Y-93340000D03*
%TD*%
D18*
%TO.P,D10,1,K*%
%TO.N,Net-(D10-K)*%
X25250000Y-120790000D03*
D19*
%TO.P,D10,2,A*%
%TO.N,Net-(D10-A)*%
X27790000Y-120790000D03*
%TD*%
D17*
%TO.P,R19,1*%
%TO.N,+5V*%
X37625000Y-148770000D03*
%TO.P,R19,2*%
%TO.N,CLOCK*%
X40165000Y-148770000D03*
%TD*%
D15*
%TO.P,SW2,1,1*%
%TO.N,GNDREF*%
X63450000Y-191750000D03*
X56950000Y-191750000D03*
%TO.P,SW2,2,2*%
%TO.N,PX1*%
X63450000Y-187250000D03*
X56950000Y-187250000D03*
%TD*%
D17*
%TO.P,R10,1*%
%TO.N,PA6*%
X35410000Y-136030000D03*
%TO.P,R10,2*%
%TO.N,Net-(D5-A)*%
X32870000Y-136030000D03*
%TD*%
D16*
%TO.P,C6,1*%
%TO.N,+5V*%
X148140000Y-139900000D03*
%TO.P,C6,2*%
%TO.N,GNDREF*%
X148140000Y-141900000D03*
%TD*%
D17*
%TO.P,C13,1*%
%TO.N,Net-(C13-Pad1)*%
X23100000Y-160500000D03*
%TO.P,C13,2*%
%TO.N,Net-(C13-Pad2)*%
X23100000Y-163000000D03*
%TD*%
D21*
%TO.P,J7,1,Pin_1*%
%TO.N,+5V*%
X18780000Y-62350000D03*
D22*
%TO.P,J7,2,Pin_2*%
X18780000Y-64890000D03*
%TO.P,J7,3,Pin_3*%
X18780000Y-67430000D03*
%TD*%
D17*
%TO.P,R15,1*%
%TO.N,PA3*%
X35410000Y-120790000D03*
%TO.P,R15,2*%
%TO.N,Net-(D10-A)*%
X32870000Y-120790000D03*
%TD*%
%TO.P,R17,1*%
%TO.N,Net-(R17-Pad1)*%
X26570000Y-163040000D03*
%TO.P,R17,2*%
%TO.N,Net-(C13-Pad2)*%
X26570000Y-160500000D03*
%TD*%
%TO.P,C11,1*%
%TO.N,+3V3*%
X104200000Y-53920000D03*
%TO.P,C11,2*%
%TO.N,GNDREF*%
X104200000Y-51420000D03*
%TD*%
D21*
%TO.P,J5,1,Pin_1*%
%TO.N,~{HALT}*%
X28010000Y-62340000D03*
D22*
%TO.P,J5,2,Pin_2*%
%TO.N,~{M1}*%
X28010000Y-64880000D03*
%TO.P,J5,3,Pin_3*%
%TO.N,~{MREQ}*%
X28010000Y-67420000D03*
%TO.P,J5,4,Pin_4*%
%TO.N,~{IORQ}*%
X28010000Y-69960000D03*
%TO.P,J5,5,Pin_5*%
%TO.N,~{READ}*%
X28010000Y-72500000D03*
%TO.P,J5,6,Pin_6*%
%TO.N,~{WRITE}*%
X28010000Y-75040000D03*
%TO.P,J5,7,Pin_7*%
%TO.N,~{RESET}*%
X28010000Y-77580000D03*
%TO.P,J5,8,Pin_8*%
%TO.N,CLOCK*%
X28010000Y-80120000D03*
%TD*%
D17*
%TO.P,R44,1*%
%TO.N,+5V*%
X108900000Y-181860000D03*
%TO.P,R44,2*%
%TO.N,Net-(LCD1-A{slash}VEE)*%
X106360000Y-181860000D03*
%TD*%
D18*
%TO.P,D12,1,K*%
%TO.N,GNDREF*%
X25100000Y-98420000D03*
D19*
%TO.P,D12,2,A*%
%TO.N,Net-(D12-A)*%
X27640000Y-98420000D03*
%TD*%
D20*
%TO.P,U93,1*%
%TO.N,Net-(JP3-C)*%
X133966400Y-160096600D03*
D17*
%TO.P,U93,2*%
%TO.N,Net-(U3-O2)*%
X133966400Y-162636600D03*
%TO.P,U93,3*%
%TO.N,Net-(U93-Pad3)*%
X133966400Y-165176600D03*
%TO.P,U93,4*%
X133966400Y-167716600D03*
%TO.P,U93,5*%
%TO.N,Net-(U3-O3)*%
X133966400Y-170256600D03*
%TO.P,U93,6*%
%TO.N,/~{SEL_RAM}*%
X133966400Y-172796600D03*
%TO.P,U93,7,GND*%
%TO.N,GNDREF*%
X133966400Y-175336600D03*
%TO.P,U93,8*%
%TO.N,unconnected-(U93-Pad8)*%
X141586400Y-175336600D03*
%TO.P,U93,9*%
%TO.N,+5V*%
X141586400Y-172796600D03*
%TO.P,U93,10*%
X141586400Y-170256600D03*
%TO.P,U93,11*%
%TO.N,Net-(R42-Pad1)*%
X141586400Y-167716600D03*
%TO.P,U93,12*%
%TO.N,~{INT2}*%
X141586400Y-165176600D03*
%TO.P,U93,13*%
X141586400Y-162636600D03*
%TO.P,U93,14,VCC*%
%TO.N,+5V*%
X141586400Y-160096600D03*
%TD*%
%TO.P,R11,1*%
%TO.N,PA7*%
X35410000Y-141110000D03*
%TO.P,R11,2*%
%TO.N,Net-(D6-A)*%
X32870000Y-141110000D03*
%TD*%
D23*
%TO.P,RV1,1,1*%
%TO.N,GNDREF*%
X64210000Y-42270000D03*
D24*
%TO.P,RV1,2,2*%
%TO.N,Net-(Q1-B)*%
X64210000Y-47270000D03*
%TO.P,RV1,3,3*%
%TO.N,Net-(C21-Pad2)*%
X64210000Y-52270000D03*
%TD*%
D17*
%TO.P,C2,1*%
%TO.N,+5V*%
X95600000Y-85840000D03*
%TO.P,C2,2*%
%TO.N,GNDREF*%
X93100000Y-85840000D03*
%TD*%
%TO.P,R56,1*%
%TO.N,Net-(R41-Pad2)*%
X120122800Y-33006000D03*
%TO.P,R56,2*%
%TO.N,Net-(R47-Pad2)*%
X120122800Y-35546000D03*
%TD*%
D18*
%TO.P,D6,1,K*%
%TO.N,Net-(D3-K)*%
X25250000Y-141110000D03*
D19*
%TO.P,D6,2,A*%
%TO.N,Net-(D6-A)*%
X27790000Y-141110000D03*
%TD*%
D21*
%TO.P,JP1,1,A*%
%TO.N,Net-(D10-K)*%
X26610000Y-150730000D03*
D22*
%TO.P,JP1,2,C*%
%TO.N,GNDREF*%
X29150000Y-150730000D03*
%TO.P,JP1,3,B*%
X31690000Y-150730000D03*
%TD*%
D17*
%TO.P,R47,1*%
%TO.N,Net-(U16-QC)*%
X120072000Y-41959600D03*
%TO.P,R47,2*%
%TO.N,Net-(R47-Pad2)*%
X120072000Y-39419600D03*
%TD*%
%TO.P,R61,1*%
%TO.N,+5V*%
X53285000Y-67850000D03*
%TO.P,R61,2*%
%TO.N,~{INT2}*%
X50745000Y-67850000D03*
%TD*%
D20*
%TO.P,U4,1*%
%TO.N,Net-(D1-A)*%
X157664600Y-160381000D03*
D17*
%TO.P,U4,2*%
X157664600Y-162921000D03*
%TO.P,U4,3*%
%TO.N,Net-(U4-Pad3)*%
X157664600Y-165461000D03*
%TO.P,U4,4*%
%TO.N,~{RESET}*%
X157664600Y-168001000D03*
%TO.P,U4,5*%
%TO.N,+5V*%
X157664600Y-170541000D03*
%TO.P,U4,6*%
%TO.N,Net-(U4-Pad3)*%
X157664600Y-173081000D03*
%TO.P,U4,7,GND*%
%TO.N,GNDREF*%
X157664600Y-175621000D03*
%TO.P,U4,8*%
%TO.N,+5V*%
X165284600Y-175621000D03*
%TO.P,U4,9*%
X165284600Y-173081000D03*
%TO.P,U4,10*%
%TO.N,unconnected-(U4-Pad10)*%
X165284600Y-170541000D03*
%TO.P,U4,11*%
%TO.N,unconnected-(U4-Pad11)*%
X165284600Y-168001000D03*
%TO.P,U4,12*%
%TO.N,+5V*%
X165284600Y-165461000D03*
%TO.P,U4,13*%
X165284600Y-162921000D03*
%TO.P,U4,14,VCC*%
X165284600Y-160381000D03*
%TD*%
%TO.P,R18,1*%
%TO.N,Net-(C14-Pad1)*%
X19680000Y-168390000D03*
%TO.P,R18,2*%
%TO.N,Net-(R17-Pad1)*%
X19680000Y-170930000D03*
%TD*%
D20*
%TO.P,U11,1,~{Mr}*%
%TO.N,~{RESET}*%
X65767400Y-152603600D03*
D17*
%TO.P,U11,2,Q0*%
%TO.N,Net-(LCD1-RS)*%
X65767400Y-155143600D03*
%TO.P,U11,3,D0*%
%TO.N,D0*%
X65767400Y-157683600D03*
%TO.P,U11,4,D1*%
%TO.N,D1*%
X65767400Y-160223600D03*
%TO.P,U11,5,Q1*%
%TO.N,Net-(LCD1-E)*%
X65767400Y-162763600D03*
%TO.P,U11,6,Q2*%
%TO.N,PB2*%
X65767400Y-165303600D03*
%TO.P,U11,7,D2*%
%TO.N,D2*%
X65767400Y-167843600D03*
%TO.P,U11,8,D3*%
%TO.N,D3*%
X65767400Y-170383600D03*
%TO.P,U11,9,Q3*%
%TO.N,PB3*%
X65767400Y-172923600D03*
%TO.P,U11,10,GND*%
%TO.N,GNDREF*%
X65767400Y-175463600D03*
%TO.P,U11,11,Cp*%
%TO.N,/kraft80V2-ios/CKDIS*%
X73387400Y-175463600D03*
%TO.P,U11,12,Q4*%
%TO.N,Net-(LCD1-DB4)*%
X73387400Y-172923600D03*
%TO.P,U11,13,D4*%
%TO.N,D4*%
X73387400Y-170383600D03*
%TO.P,U11,14,D5*%
%TO.N,D5*%
X73387400Y-167843600D03*
%TO.P,U11,15,Q5*%
%TO.N,Net-(LCD1-DB5)*%
X73387400Y-165303600D03*
%TO.P,U11,16,Q6*%
%TO.N,Net-(LCD1-DB6)*%
X73387400Y-162763600D03*
%TO.P,U11,17,D6*%
%TO.N,D6*%
X73387400Y-160223600D03*
%TO.P,U11,18,D7*%
%TO.N,D7*%
X73387400Y-157683600D03*
%TO.P,U11,19,Q7*%
%TO.N,Net-(LCD1-DB7)*%
X73387400Y-155143600D03*
%TO.P,U11,20,VCC*%
%TO.N,+5V*%
X73387400Y-152603600D03*
%TD*%
D15*
%TO.P,SW1,1,1*%
%TO.N,GNDREF*%
X50750000Y-191750000D03*
X44250000Y-191750000D03*
%TO.P,SW1,2,2*%
%TO.N,PX0*%
X50750000Y-187250000D03*
X44250000Y-187250000D03*
%TD*%
D20*
%TO.P,U91,1,A0*%
%TO.N,Net-(JP11-C)*%
X79178600Y-157658200D03*
D17*
%TO.P,U91,2,A1*%
%TO.N,Net-(JP12-C)*%
X79178600Y-160198200D03*
%TO.P,U91,3,A2*%
%TO.N,Net-(JP13-C)*%
X79178600Y-162738200D03*
%TO.P,U91,4,E1*%
%TO.N,~{IORQ}*%
X79178600Y-165278200D03*
%TO.P,U91,5,E2*%
%TO.N,A7*%
X79178600Y-167818200D03*
%TO.P,U91,6,E3*%
%TO.N,~{M1}*%
X79178600Y-170358200D03*
%TO.P,U91,7,O7*%
%TO.N,unconnected-(U91-O7-Pad7)*%
X79178600Y-172898200D03*
%TO.P,U91,8,GND*%
%TO.N,GNDREF*%
X79178600Y-175438200D03*
%TO.P,U91,9,O6*%
%TO.N,unconnected-(U91-O6-Pad9)*%
X86798600Y-175438200D03*
%TO.P,U91,10,O5*%
%TO.N,~{FPGA_CS}*%
X86798600Y-172898200D03*
%TO.P,U91,11,O4*%
%TO.N,/kraft80V2-ios/~{CS4}*%
X86798600Y-170358200D03*
%TO.P,U91,12,O3*%
%TO.N,unconnected-(U91-O3-Pad12)*%
X86798600Y-167818200D03*
%TO.P,U91,13,O2*%
%TO.N,/kraft80V2-ios/~{CS2}*%
X86798600Y-165278200D03*
%TO.P,U91,14,O1*%
%TO.N,/kraft80V2-ios/~{CS1}*%
X86798600Y-162738200D03*
%TO.P,U91,15,O0*%
%TO.N,/kraft80V2-ios/~{CS0}*%
X86798600Y-160198200D03*
%TO.P,U91,16,VCC*%
%TO.N,+5V*%
X86798600Y-157658200D03*
%TD*%
D21*
%TO.P,J11,1,Pin_1*%
%TO.N,PA0*%
X19380000Y-123760000D03*
D22*
%TO.P,J11,2,Pin_2*%
%TO.N,PA1*%
X19380000Y-126300000D03*
%TO.P,J11,3,Pin_3*%
%TO.N,PA2*%
X19380000Y-128840000D03*
%TO.P,J11,4,Pin_4*%
%TO.N,PA3*%
X19380000Y-131380000D03*
%TO.P,J11,5,Pin_5*%
%TO.N,PA4*%
X19380000Y-133920000D03*
%TO.P,J11,6,Pin_6*%
%TO.N,PA5*%
X19380000Y-136460000D03*
%TO.P,J11,7,Pin_7*%
%TO.N,PA6*%
X19380000Y-139000000D03*
%TO.P,J11,8,Pin_8*%
%TO.N,PA7*%
X19380000Y-141540000D03*
%TD*%
D17*
%TO.P,C8,1*%
%TO.N,+5V*%
X47320000Y-113630000D03*
%TO.P,C8,2*%
%TO.N,GNDREF*%
X44820000Y-113630000D03*
%TD*%
D25*
%TO.P,JP13,1,A*%
%TO.N,A6*%
X78570000Y-153760000D03*
D26*
%TO.P,JP13,2,C*%
%TO.N,Net-(JP13-C)*%
X79870000Y-153760000D03*
D27*
%TO.P,JP13,3,B*%
%TO.N,A2*%
X81170000Y-153760000D03*
%TD*%
D21*
%TO.P,J6,1,Pin_1*%
%TO.N,~{NMI}*%
X23400000Y-62330000D03*
D22*
%TO.P,J6,2,Pin_2*%
%TO.N,~{INT2}*%
X23400000Y-64870000D03*
%TO.P,J6,3,Pin_3*%
%TO.N,~{WAIT}*%
X23400000Y-67410000D03*
%TO.P,J6,4,Pin_4*%
%TO.N,~{RFSH}*%
X23400000Y-69950000D03*
%TO.P,J6,5,Pin_5*%
%TO.N,~{BUSAK}*%
X23400000Y-72490000D03*
%TO.P,J6,6,Pin_6*%
%TO.N,~{BUSRQ}*%
X23400000Y-75030000D03*
%TO.P,J6,7,Pin_7*%
%TO.N,+5V*%
X23400000Y-77570000D03*
%TO.P,J6,8,Pin_8*%
%TO.N,GNDREF*%
X23400000Y-80110000D03*
%TD*%
D17*
%TO.P,R34,1*%
%TO.N,Net-(R28-Pad2)*%
X97872400Y-33012400D03*
%TO.P,R34,2*%
%TO.N,Net-(R27-Pad2)*%
X97872400Y-35552400D03*
%TD*%
D28*
%TO.P,JP10,1,A*%
%TO.N,/kraft80V2-ios/~{CS0}*%
X130390000Y-166560000D03*
D29*
%TO.P,JP10,2,C*%
%TO.N,/kraft80V2-ios/~{PSHB_CS}*%
X130390000Y-165260000D03*
D30*
%TO.P,JP10,3,B*%
%TO.N,/kraft80V2-ios/~{CS1}*%
X130390000Y-163960000D03*
%TD*%
D17*
%TO.P,R57,1*%
%TO.N,A1*%
X127709000Y-87740000D03*
%TO.P,R57,2*%
%TO.N,Net-(U19-IOT11B)*%
X127709000Y-85200000D03*
%TD*%
%TO.P,R60,1*%
%TO.N,Net-(U19-IOT8A)*%
X117420000Y-79130000D03*
%TO.P,R60,2*%
%TO.N,GNDREF*%
X114880000Y-79130000D03*
%TD*%
D28*
%TO.P,JP9,1,A*%
%TO.N,/kraft80V2-ios/~{CS1}*%
X116410000Y-162110000D03*
D29*
%TO.P,JP9,2,C*%
%TO.N,/kraft80V2-ios/~{DISP_CS}*%
X116410000Y-160810000D03*
D30*
%TO.P,JP9,3,B*%
%TO.N,/kraft80V2-ios/~{CS4}*%
X116410000Y-159510000D03*
%TD*%
D17*
%TO.P,C17,1*%
%TO.N,+5V*%
X73390000Y-149260000D03*
%TO.P,C17,2*%
%TO.N,GNDREF*%
X70890000Y-149260000D03*
%TD*%
%TO.P,R45,1*%
%TO.N,Net-(U16-QA)*%
X127488800Y-41959600D03*
%TO.P,R45,2*%
%TO.N,Net-(C21-Pad1)*%
X127488800Y-39419600D03*
%TD*%
%TO.P,C99,1*%
%TO.N,+5V*%
X47170000Y-89890000D03*
%TO.P,C99,2*%
%TO.N,GNDREF*%
X44670000Y-89890000D03*
%TD*%
%TO.P,R52,1*%
%TO.N,Net-(U19-IOT12B)*%
X120900000Y-76760000D03*
%TO.P,R52,2*%
%TO.N,GNDREF*%
X120900000Y-74220000D03*
%TD*%
%TO.P,R7,1*%
%TO.N,+5V*%
X154305000Y-147960000D03*
%TO.P,R7,2*%
%TO.N,Net-(D2-A)*%
X151765000Y-147960000D03*
%TD*%
D31*
%TO.P,REF\u002A\u002A,*%
%TO.N,*%
X19743200Y-191410600D03*
%TD*%
D32*
%TO.P,RN1,1,common*%
%TO.N,+5V*%
X56928200Y-155143600D03*
D17*
%TO.P,RN1,2,R1*%
%TO.N,PX0*%
X56928200Y-157683600D03*
%TO.P,RN1,3,R2*%
%TO.N,PX1*%
X56928200Y-160223600D03*
%TO.P,RN1,4,R3*%
%TO.N,PX2*%
X56928200Y-162763600D03*
%TO.P,RN1,5,R4*%
%TO.N,PX3*%
X56928200Y-165303600D03*
%TO.P,RN1,6,R5*%
%TO.N,PX4*%
X56928200Y-167843600D03*
%TO.P,RN1,7,R6*%
%TO.N,PX5*%
X56928200Y-170383600D03*
%TO.P,RN1,8,R7*%
%TO.N,PX6*%
X56928200Y-172923600D03*
%TO.P,RN1,9,R8*%
%TO.N,PX7*%
X56928200Y-175463600D03*
%TD*%
D16*
%TO.P,C3,1*%
%TO.N,Net-(D1-A)*%
X150800000Y-173890000D03*
%TO.P,C3,2*%
%TO.N,GNDREF*%
X152300000Y-173890000D03*
%TD*%
D33*
%TO.P,P1,1,1*%
%TO.N,+5V*%
X144765000Y-147170000D03*
%TO.P,P1,2,2*%
%TO.N,Net-(LCD1-VO)*%
X139685000Y-149710000D03*
%TO.P,P1,3,3*%
%TO.N,GNDREF*%
X144765000Y-152250000D03*
%TD*%
D17*
%TO.P,R12,1*%
%TO.N,PA0*%
X35410000Y-105550000D03*
%TO.P,R12,2*%
%TO.N,Net-(D7-A)*%
X32870000Y-105550000D03*
%TD*%
%TO.P,R42,1*%
%TO.N,Net-(R42-Pad1)*%
X117430000Y-75910000D03*
%TO.P,R42,2*%
%TO.N,Net-(U19-IOT8A)*%
X114890000Y-75910000D03*
%TD*%
%TO.P,R14,1*%
%TO.N,PA2*%
X35410000Y-115710000D03*
%TO.P,R14,2*%
%TO.N,Net-(D9-A)*%
X32870000Y-115710000D03*
%TD*%
D21*
%TO.P,JP2,1,A*%
%TO.N,Net-(D3-K)*%
X26650000Y-146800000D03*
D22*
%TO.P,JP2,2,C*%
%TO.N,GNDREF*%
X29190000Y-146800000D03*
%TO.P,JP2,3,B*%
X31730000Y-146800000D03*
%TD*%
D18*
%TO.P,D11,1,K*%
%TO.N,GNDREF*%
X25100000Y-93340000D03*
D19*
%TO.P,D11,2,A*%
%TO.N,Net-(D11-A)*%
X27640000Y-93340000D03*
%TD*%
D17*
%TO.P,R38,1*%
%TO.N,Net-(R24-Pad2)*%
X112706000Y-33006000D03*
%TO.P,R38,2*%
%TO.N,Net-(R23-Pad2)*%
X112706000Y-35546000D03*
%TD*%
D34*
%TO.P,X1,1,1*%
%TO.N,Net-(C14-Pad1)*%
X25410000Y-168360000D03*
%TO.P,X1,2,2*%
%TO.N,Net-(R17-Pad1)*%
X25410000Y-173260000D03*
%TD*%
D17*
%TO.P,R30,1*%
%TO.N,Net-(U15-QD)*%
X84830000Y-41970000D03*
%TO.P,R30,2*%
%TO.N,Net-(R30-Pad2)*%
X84830000Y-39430000D03*
%TD*%
D35*
%TO.P,U13,1,Vin*%
%TO.N,+5V*%
X60190000Y-82330000D03*
D11*
%TO.P,U13,2,GND*%
%TO.N,GNDREF*%
X62730000Y-82330000D03*
%TO.P,U13,3,GND*%
X62730000Y-59470000D03*
%TO.P,U13,4,Vout*%
%TO.N,+3V3*%
X60190000Y-59470000D03*
%TD*%
D17*
%TO.P,R51,1*%
%TO.N,Net-(U19-IOT12A)*%
X124303600Y-76785400D03*
%TO.P,R51,2*%
%TO.N,GNDREF*%
X124303600Y-74245400D03*
%TD*%
D31*
%TO.P,REF\u002A\u002A,*%
%TO.N,*%
X19750000Y-26000000D03*
%TD*%
D15*
%TO.P,SW6,1,1*%
%TO.N,GNDREF*%
X114250000Y-191750000D03*
X107750000Y-191750000D03*
%TO.P,SW6,2,2*%
%TO.N,PX5*%
X114250000Y-187250000D03*
X107750000Y-187250000D03*
%TD*%
D36*
%TO.P,D1,1,K*%
%TO.N,+5V*%
X147840000Y-157910000D03*
D17*
%TO.P,D1,2,A*%
%TO.N,Net-(D1-A)*%
X147840000Y-165530000D03*
%TD*%
D31*
%TO.P,REF\u002A\u002A,*%
%TO.N,*%
X163750000Y-26250000D03*
%TD*%
D17*
%TO.P,R46,1*%
%TO.N,Net-(U16-QB)*%
X123780400Y-41959600D03*
%TO.P,R46,2*%
%TO.N,Net-(R46-Pad2)*%
X123780400Y-39419600D03*
%TD*%
%TO.P,R31,1*%
%TO.N,GNDREF*%
X84860000Y-32920000D03*
%TO.P,R31,2*%
%TO.N,Net-(R30-Pad2)*%
X84860000Y-35460000D03*
%TD*%
%TO.P,R13,1*%
%TO.N,PA1*%
X35410000Y-110630000D03*
%TO.P,R13,2*%
%TO.N,Net-(D8-A)*%
X32870000Y-110630000D03*
%TD*%
%TO.P,R25,1*%
%TO.N,Net-(U16-QG)*%
X105238400Y-41966000D03*
%TO.P,R25,2*%
%TO.N,Net-(R25-Pad2)*%
X105238400Y-39426000D03*
%TD*%
D21*
%TO.P,J9,1,Pin_1*%
%TO.N,/kraft80V2-fpga/~{DISK_CS}*%
X129470000Y-26390000D03*
D22*
%TO.P,J9,2,Pin_2*%
%TO.N,/kraft80V2-fpga/DISK_SCK*%
X126930000Y-26390000D03*
%TO.P,J9,3,Pin_3*%
%TO.N,/kraft80V2-fpga/DISK_MOSI*%
X124390000Y-26390000D03*
%TO.P,J9,4,Pin_4*%
%TO.N,/kraft80V2-fpga/DISK_MISO*%
X121850000Y-26390000D03*
%TO.P,J9,5,Pin_5*%
%TO.N,+3V3*%
X119310000Y-26390000D03*
%TO.P,J9,6,Pin_6*%
%TO.N,GNDREF*%
X116770000Y-26390000D03*
%TD*%
D15*
%TO.P,RST1,1,1*%
%TO.N,GNDREF*%
X157150000Y-191750000D03*
X150650000Y-191750000D03*
%TO.P,RST1,2,2*%
%TO.N,Net-(D1-A)*%
X157150000Y-187250000D03*
X150650000Y-187250000D03*
%TD*%
D17*
%TO.P,R3,1*%
%TO.N,+5V*%
X73355000Y-126400000D03*
%TO.P,R3,2*%
%TO.N,~{BUSRQ}*%
X70815000Y-126400000D03*
%TD*%
%TO.P,C97,1*%
%TO.N,+5V*%
X126990000Y-156940000D03*
%TO.P,C97,2*%
%TO.N,GNDREF*%
X124490000Y-156940000D03*
%TD*%
D21*
%TO.P,J3,1,Pin_1*%
%TO.N,Net-(J3-Pin_1)*%
X79450000Y-32150000D03*
D22*
%TO.P,J3,2,Pin_2*%
%TO.N,Net-(J3-Pin_2)*%
X79450000Y-34690000D03*
%TD*%
D17*
%TO.P,C9,1*%
%TO.N,+5V*%
X50270000Y-149330000D03*
%TO.P,C9,2*%
%TO.N,GNDREF*%
X47770000Y-149330000D03*
%TD*%
D36*
%TO.P,U15,1,QB*%
%TO.N,Net-(U15-QB)*%
X101030000Y-46295000D03*
D17*
%TO.P,U15,2,QC*%
%TO.N,Net-(U15-QC)*%
X98490000Y-46295000D03*
%TO.P,U15,3,QD*%
%TO.N,Net-(U15-QD)*%
X95950000Y-46295000D03*
%TO.P,U15,4,QE*%
%TO.N,unconnected-(U15-QE-Pad4)*%
X93410000Y-46295000D03*
%TO.P,U15,5,QF*%
%TO.N,unconnected-(U15-QF-Pad5)*%
X90870000Y-46295000D03*
%TO.P,U15,6,QG*%
%TO.N,unconnected-(U15-QG-Pad6)*%
X88330000Y-46295000D03*
%TO.P,U15,7,QH*%
%TO.N,unconnected-(U15-QH-Pad7)*%
X85790000Y-46295000D03*
%TO.P,U15,8,GND*%
%TO.N,GNDREF*%
X83250000Y-46295000D03*
%TO.P,U15,9,QH'*%
%TO.N,unconnected-(U15-QH'-Pad9)*%
X83250000Y-53915000D03*
%TO.P,U15,10,~{SRCLR}*%
%TO.N,+3V3*%
X85790000Y-53915000D03*
%TO.P,U15,11,SRCLK*%
%TO.N,Net-(U15-SRCLK)*%
X88330000Y-53915000D03*
%TO.P,U15,12,RCLK*%
%TO.N,Net-(U15-RCLK)*%
X90870000Y-53915000D03*
%TO.P,U15,13,~{OE}*%
%TO.N,GNDREF*%
X93410000Y-53915000D03*
%TO.P,U15,14,SER*%
%TO.N,Net-(U15-SER)*%
X95950000Y-53915000D03*
%TO.P,U15,15,QA*%
%TO.N,Net-(U15-QA)*%
X98490000Y-53915000D03*
%TO.P,U15,16,VCC*%
%TO.N,+3V3*%
X101030000Y-53915000D03*
%TD*%
D21*
%TO.P,J13,1,Pin_1*%
%TO.N,PX0*%
X30500000Y-191610000D03*
D22*
%TO.P,J13,2,Pin_2*%
%TO.N,PX1*%
X30500000Y-189070000D03*
%TO.P,J13,3,Pin_3*%
%TO.N,PX2*%
X33040000Y-191610000D03*
%TO.P,J13,4,Pin_4*%
%TO.N,PX3*%
X33040000Y-189070000D03*
%TO.P,J13,5,Pin_5*%
%TO.N,PX4*%
X35580000Y-191610000D03*
%TO.P,J13,6,Pin_6*%
%TO.N,PX5*%
X35580000Y-189070000D03*
%TO.P,J13,7,Pin_7*%
%TO.N,PX6*%
X38120000Y-191610000D03*
%TO.P,J13,8,Pin_8*%
%TO.N,PX7*%
X38120000Y-189070000D03*
%TD*%
D17*
%TO.P,R55,1*%
%TO.N,Net-(R47-Pad2)*%
X123831200Y-33006000D03*
%TO.P,R55,2*%
%TO.N,Net-(R46-Pad2)*%
X123831200Y-35546000D03*
%TD*%
%TO.P,R2,1*%
%TO.N,+5V*%
X151670200Y-158242400D03*
%TO.P,R2,2*%
%TO.N,~{RESET}*%
X154210200Y-158242400D03*
%TD*%
%TO.P,C90,1*%
%TO.N,+5V*%
X162560000Y-95680000D03*
%TO.P,C90,2*%
%TO.N,GNDREF*%
X160060000Y-95680000D03*
%TD*%
%TO.P,R4,1*%
%TO.N,+5V*%
X73365000Y-129580000D03*
%TO.P,R4,2*%
%TO.N,~{WAIT}*%
X70825000Y-129580000D03*
%TD*%
D21*
%TO.P,J1,1,Pin_1*%
%TO.N,A15*%
X36880000Y-62340000D03*
D22*
%TO.P,J1,2,Pin_2*%
%TO.N,A14*%
X39420000Y-62340000D03*
%TO.P,J1,3,Pin_3*%
%TO.N,A13*%
X36880000Y-64880000D03*
%TO.P,J1,4,Pin_4*%
%TO.N,A12*%
X39420000Y-64880000D03*
%TO.P,J1,5,Pin_5*%
%TO.N,A11*%
X36880000Y-67420000D03*
%TO.P,J1,6,Pin_6*%
%TO.N,A10*%
X39420000Y-67420000D03*
%TO.P,J1,7,Pin_7*%
%TO.N,A9*%
X36880000Y-69960000D03*
%TO.P,J1,8,Pin_8*%
%TO.N,A8*%
X39420000Y-69960000D03*
%TO.P,J1,9,Pin_9*%
%TO.N,A7*%
X36880000Y-72500000D03*
%TO.P,J1,10,Pin_10*%
%TO.N,A6*%
X39420000Y-72500000D03*
%TO.P,J1,11,Pin_11*%
%TO.N,A5*%
X36880000Y-75040000D03*
%TO.P,J1,12,Pin_12*%
%TO.N,A4*%
X39420000Y-75040000D03*
%TO.P,J1,13,Pin_13*%
%TO.N,A3*%
X36880000Y-77580000D03*
%TO.P,J1,14,Pin_14*%
%TO.N,A2*%
X39420000Y-77580000D03*
%TO.P,J1,15,Pin_15*%
%TO.N,A1*%
X36880000Y-80120000D03*
%TO.P,J1,16,Pin_16*%
%TO.N,A0*%
X39420000Y-80120000D03*
%TD*%
D20*
%TO.P,U97,1*%
%TO.N,~{WRITE}*%
X119234400Y-160223600D03*
D17*
%TO.P,U97,2*%
%TO.N,/kraft80V2-ios/~{CS4}*%
X119234400Y-162763600D03*
%TO.P,U97,3*%
%TO.N,/kraft80V2-ios/CKFF*%
X119234400Y-165303600D03*
%TO.P,U97,4*%
%TO.N,/kraft80V2-ios/~{LEDS_CS}*%
X119234400Y-167843600D03*
%TO.P,U97,5*%
%TO.N,~{WRITE}*%
X119234400Y-170383600D03*
%TO.P,U97,6*%
%TO.N,/kraft80V2-ios/CKLED*%
X119234400Y-172923600D03*
%TO.P,U97,7,GND*%
%TO.N,GNDREF*%
X119234400Y-175463600D03*
%TO.P,U97,8*%
%TO.N,/kraft80V2-ios/CKDIS*%
X126854400Y-175463600D03*
%TO.P,U97,9*%
%TO.N,/kraft80V2-ios/~{DISP_CS}*%
X126854400Y-172923600D03*
%TO.P,U97,10*%
%TO.N,~{WRITE}*%
X126854400Y-170383600D03*
%TO.P,U97,11*%
%TO.N,/kraft80V2-ios/CKPSHB*%
X126854400Y-167843600D03*
%TO.P,U97,12*%
%TO.N,/kraft80V2-ios/~{PSHB_CS}*%
X126854400Y-165303600D03*
%TO.P,U97,13*%
%TO.N,~{READ}*%
X126854400Y-162763600D03*
%TO.P,U97,14,VCC*%
%TO.N,+5V*%
X126854400Y-160223600D03*
%TD*%
D25*
%TO.P,JP8,1,A*%
%TO.N,/kraft80V2-ios/~{CS0}*%
X118220000Y-152790000D03*
D26*
%TO.P,JP8,2,C*%
%TO.N,/kraft80V2-ios/~{LEDS_CS}*%
X119520000Y-152790000D03*
D27*
%TO.P,JP8,3,B*%
%TO.N,/kraft80V2-ios/~{CS2}*%
X120820000Y-152790000D03*
%TD*%
D21*
%TO.P,J12,1,Pin_1*%
%TO.N,PB2*%
X18890000Y-86660000D03*
D22*
%TO.P,J12,2,Pin_2*%
%TO.N,PB3*%
X18890000Y-89200000D03*
%TO.P,J12,3,Pin_3*%
%TO.N,PC1*%
X18890000Y-91740000D03*
%TD*%
D17*
%TO.P,C19,1*%
%TO.N,+5V*%
X141710000Y-156810000D03*
%TO.P,C19,2*%
%TO.N,GNDREF*%
X139210000Y-156810000D03*
%TD*%
%TO.P,R9,1*%
%TO.N,PA5*%
X35410000Y-130950000D03*
%TO.P,R9,2*%
%TO.N,Net-(D4-A)*%
X32870000Y-130950000D03*
%TD*%
D18*
%TO.P,D7,1,K*%
%TO.N,Net-(D10-K)*%
X25250000Y-105550000D03*
D19*
%TO.P,D7,2,A*%
%TO.N,Net-(D7-A)*%
X27790000Y-105550000D03*
%TD*%
D17*
%TO.P,R50,1*%
%TO.N,Net-(U19-IOT11B)*%
X127732600Y-76785400D03*
%TO.P,R50,2*%
%TO.N,GNDREF*%
X127732600Y-74245400D03*
%TD*%
D16*
%TO.P,C21,1*%
%TO.N,Net-(C21-Pad1)*%
X79328400Y-40276200D03*
%TO.P,C21,2*%
%TO.N,Net-(C21-Pad2)*%
X79328400Y-42276200D03*
%TD*%
D17*
%TO.P,C22,1*%
%TO.N,+5V*%
X69800000Y-33970000D03*
%TO.P,C22,2*%
%TO.N,GNDREF*%
X69800000Y-36470000D03*
%TD*%
D28*
%TO.P,JP18,1,A*%
%TO.N,A11*%
X101100000Y-112180000D03*
D29*
%TO.P,JP18,2,C*%
%TO.N,Net-(JP18-C)*%
X101100000Y-110880000D03*
D30*
%TO.P,JP18,3,B*%
%TO.N,+5V*%
X101100000Y-109580000D03*
%TD*%
D17*
%TO.P,R43,1*%
%TO.N,+5V*%
X74273800Y-34561200D03*
%TO.P,R43,2*%
%TO.N,Net-(J3-Pin_1)*%
X74273800Y-32021200D03*
%TD*%
D28*
%TO.P,JP20,1,A*%
%TO.N,A11*%
X144070000Y-112440000D03*
D29*
%TO.P,JP20,2,C*%
%TO.N,Net-(JP20-C)*%
X144070000Y-111140000D03*
D30*
%TO.P,JP20,3,B*%
%TO.N,~{WRITE}*%
X144070000Y-109840000D03*
%TD*%
D37*
%TO.P,JP19,1,A*%
%TO.N,A13*%
X147070000Y-95570000D03*
D26*
%TO.P,JP19,2,C*%
%TO.N,Net-(JP19-C)*%
X145770000Y-95570000D03*
D38*
%TO.P,JP19,3,B*%
%TO.N,+5V*%
X144470000Y-95570000D03*
%TD*%
D21*
%TO.P,JP3,1,A*%
%TO.N,Net-(JP14-A)*%
X120870000Y-136930000D03*
D22*
%TO.P,JP3,2,C*%
%TO.N,Net-(JP3-C)*%
X123410000Y-136930000D03*
%TO.P,JP3,3,B*%
%TO.N,+5V*%
X125950000Y-136930000D03*
%TD*%
D17*
%TO.P,R39,1*%
%TO.N,+5V*%
X64300000Y-30330000D03*
%TO.P,R39,2*%
%TO.N,/kraft80V2-fpga/DAT_KBD*%
X61760000Y-30330000D03*
%TD*%
D39*
%TO.P,JP14,1,A*%
%TO.N,Net-(JP14-A)*%
X129840000Y-172730000D03*
D40*
%TO.P,JP14,2,B*%
%TO.N,/~{SEL_RAM}*%
X131140000Y-172730000D03*
%TD*%
D17*
%TO.P,C18,1*%
%TO.N,+5V*%
X119460000Y-95560000D03*
%TO.P,C18,2*%
%TO.N,GNDREF*%
X116960000Y-95560000D03*
%TD*%
D21*
%TO.P,J10,1,Pin_1*%
%TO.N,GNDREF*%
X19760000Y-179020000D03*
D22*
%TO.P,J10,2,Pin_2*%
X19760000Y-181560000D03*
%TO.P,J10,3,Pin_3*%
X19760000Y-184100000D03*
%TD*%
D20*
%TO.P,U6,1,A->B*%
%TO.N,GNDREF*%
X42602600Y-152730600D03*
D17*
%TO.P,U6,2,A0*%
%TO.N,D0*%
X42602600Y-155270600D03*
%TO.P,U6,3,A1*%
%TO.N,D1*%
X42602600Y-157810600D03*
%TO.P,U6,4,A2*%
%TO.N,D2*%
X42602600Y-160350600D03*
%TO.P,U6,5,A3*%
%TO.N,D3*%
X42602600Y-162890600D03*
%TO.P,U6,6,A4*%
%TO.N,D4*%
X42602600Y-165430600D03*
%TO.P,U6,7,A5*%
%TO.N,D5*%
X42602600Y-167970600D03*
%TO.P,U6,8,A6*%
%TO.N,D6*%
X42602600Y-170510600D03*
%TO.P,U6,9,A7*%
%TO.N,D7*%
X42602600Y-173050600D03*
%TO.P,U6,10,GND*%
%TO.N,GNDREF*%
X42602600Y-175590600D03*
%TO.P,U6,11,B7*%
%TO.N,PX7*%
X50222600Y-175590600D03*
%TO.P,U6,12,B6*%
%TO.N,PX6*%
X50222600Y-173050600D03*
%TO.P,U6,13,B5*%
%TO.N,PX5*%
X50222600Y-170510600D03*
%TO.P,U6,14,B4*%
%TO.N,PX4*%
X50222600Y-167970600D03*
%TO.P,U6,15,B3*%
%TO.N,PX3*%
X50222600Y-165430600D03*
%TO.P,U6,16,B2*%
%TO.N,PX2*%
X50222600Y-162890600D03*
%TO.P,U6,17,B1*%
%TO.N,PX1*%
X50222600Y-160350600D03*
%TO.P,U6,18,B0*%
%TO.N,PX0*%
X50222600Y-157810600D03*
%TO.P,U6,19,CE*%
%TO.N,/kraft80V2-ios/CKPSHB*%
X50222600Y-155270600D03*
%TO.P,U6,20,VCC*%
%TO.N,+5V*%
X50222600Y-152730600D03*
%TD*%
D41*
%TO.P,JP7,1,A*%
%TO.N,CPM*%
X103630000Y-170260000D03*
D42*
%TO.P,JP7,2,B*%
%TO.N,+5V*%
X102330000Y-170260000D03*
%TD*%
D17*
%TO.P,R23,1*%
%TO.N,Net-(U16-QE)*%
X112655200Y-41959600D03*
%TO.P,R23,2*%
%TO.N,Net-(R23-Pad2)*%
X112655200Y-39419600D03*
%TD*%
D21*
%TO.P,J8,1,Pin_1*%
%TO.N,GNDREF*%
X18810000Y-75060000D03*
D22*
%TO.P,J8,2,Pin_2*%
X18810000Y-77600000D03*
%TO.P,J8,3,Pin_3*%
X18810000Y-80140000D03*
%TD*%
D15*
%TO.P,SW8,1,1*%
%TO.N,GNDREF*%
X139650000Y-191750000D03*
X133150000Y-191750000D03*
%TO.P,SW8,2,2*%
%TO.N,PX7*%
X139650000Y-187250000D03*
X133150000Y-187250000D03*
%TD*%
D17*
%TO.P,C10,1*%
%TO.N,+5V*%
X113570000Y-156960000D03*
%TO.P,C10,2*%
%TO.N,GNDREF*%
X111070000Y-156960000D03*
%TD*%
%TO.P,R59,1*%
%TO.N,A3*%
X120876400Y-87714600D03*
%TO.P,R59,2*%
%TO.N,Net-(U19-IOT12B)*%
X120876400Y-85174600D03*
%TD*%
D20*
%TO.P,U7,1*%
%TO.N,+5V*%
X105797800Y-160294800D03*
D17*
%TO.P,U7,2*%
X105797800Y-162834800D03*
%TO.P,U7,3*%
%TO.N,unconnected-(U7-Pad3)*%
X105797800Y-165374800D03*
%TO.P,U7,4*%
%TO.N,A14*%
X105797800Y-167914800D03*
%TO.P,U7,5*%
%TO.N,CPM*%
X105797800Y-170454800D03*
%TO.P,U7,6*%
%TO.N,Net-(JP16-A)*%
X105797800Y-172994800D03*
%TO.P,U7,7,GND*%
%TO.N,GNDREF*%
X105797800Y-175534800D03*
%TO.P,U7,8*%
%TO.N,/~{SEL_RAM2}*%
X113417800Y-175534800D03*
%TO.P,U7,9*%
%TO.N,Net-(U10-Pad8)*%
X113417800Y-172994800D03*
%TO.P,U7,10*%
%TO.N,~{MREQ}*%
X113417800Y-170454800D03*
%TO.P,U7,11*%
%TO.N,unconnected-(U7-Pad11)*%
X113417800Y-167914800D03*
%TO.P,U7,12*%
%TO.N,+5V*%
X113417800Y-165374800D03*
%TO.P,U7,13*%
X113417800Y-162834800D03*
%TO.P,U7,14,VCC*%
X113417800Y-160294800D03*
%TD*%
%TO.P,R16,1*%
%TO.N,Net-(C14-Pad1)*%
X19650000Y-162950000D03*
%TO.P,R16,2*%
%TO.N,Net-(C13-Pad1)*%
X19650000Y-160410000D03*
%TD*%
%TO.P,R58,1*%
%TO.N,A2*%
X124280000Y-87740000D03*
%TO.P,R58,2*%
%TO.N,Net-(U19-IOT12A)*%
X124280000Y-85200000D03*
%TD*%
D43*
%TO.P,JP16,1,A*%
%TO.N,Net-(JP16-A)*%
X102940000Y-173410000D03*
D29*
%TO.P,JP16,2,C*%
%TO.N,Net-(JP16-C)*%
X102940000Y-174710000D03*
D44*
%TO.P,JP16,3,B*%
%TO.N,A12*%
X102940000Y-176010000D03*
%TD*%
D17*
%TO.P,R32,1*%
%TO.N,Net-(R30-Pad2)*%
X90455600Y-33006000D03*
%TO.P,R32,2*%
%TO.N,Net-(R29-Pad2)*%
X90455600Y-35546000D03*
%TD*%
D31*
%TO.P,REF\u002A\u002A,*%
%TO.N,*%
X164043200Y-191410600D03*
%TD*%
D17*
%TO.P,R6,1*%
%TO.N,+5V*%
X73350000Y-132740000D03*
%TO.P,R6,2*%
%TO.N,~{NMI}*%
X70810000Y-132740000D03*
%TD*%
D25*
%TO.P,JP11,1,A*%
%TO.N,A4*%
X84700000Y-150000000D03*
D26*
%TO.P,JP11,2,C*%
%TO.N,Net-(JP11-C)*%
X86000000Y-150000000D03*
D27*
%TO.P,JP11,3,B*%
%TO.N,A0*%
X87300000Y-150000000D03*
%TD*%
D17*
%TO.P,C7,1*%
%TO.N,+5V*%
X142500000Y-139830000D03*
%TO.P,C7,2*%
%TO.N,GNDREF*%
X142500000Y-142330000D03*
%TD*%
D20*
%TO.P,U10,1*%
%TO.N,Net-(C14-Pad1)*%
X30083400Y-160384400D03*
D17*
%TO.P,U10,2*%
%TO.N,Net-(C13-Pad1)*%
X30083400Y-162924400D03*
%TO.P,U10,3*%
%TO.N,Net-(C13-Pad2)*%
X30083400Y-165464400D03*
%TO.P,U10,4*%
%TO.N,Net-(R17-Pad1)*%
X30083400Y-168004400D03*
%TO.P,U10,5*%
X30083400Y-170544400D03*
%TO.P,U10,6*%
%TO.N,Net-(U10-Pad13)*%
X30083400Y-173084400D03*
%TO.P,U10,7,GND*%
%TO.N,GNDREF*%
X30083400Y-175624400D03*
%TO.P,U10,8*%
%TO.N,Net-(U10-Pad8)*%
X37703400Y-175624400D03*
%TO.P,U10,9*%
%TO.N,A15*%
X37703400Y-173084400D03*
%TO.P,U10,10*%
%TO.N,unconnected-(U10-Pad10)*%
X37703400Y-170544400D03*
%TO.P,U10,11*%
%TO.N,+5V*%
X37703400Y-168004400D03*
%TO.P,U10,12*%
%TO.N,CLOCK*%
X37703400Y-165464400D03*
%TO.P,U10,13*%
%TO.N,Net-(U10-Pad13)*%
X37703400Y-162924400D03*
%TO.P,U10,14,VCC*%
%TO.N,+5V*%
X37703400Y-160384400D03*
%TD*%
D18*
%TO.P,D3,1,K*%
%TO.N,Net-(D3-K)*%
X25250000Y-125870000D03*
D19*
%TO.P,D3,2,A*%
%TO.N,Net-(D3-A)*%
X27790000Y-125870000D03*
%TD*%
D17*
%TO.P,R41,1*%
%TO.N,Net-(R23-Pad2)*%
X116414400Y-33006000D03*
%TO.P,R41,2*%
%TO.N,Net-(R41-Pad2)*%
X116414400Y-35546000D03*
%TD*%
%TO.P,R36,1*%
%TO.N,Net-(R26-Pad2)*%
X105289200Y-33012400D03*
%TO.P,R36,2*%
%TO.N,Net-(R25-Pad2)*%
X105289200Y-35552400D03*
%TD*%
%TO.P,R49,1*%
%TO.N,Net-(U19-IOT11A)*%
X131136200Y-76785400D03*
%TO.P,R49,2*%
%TO.N,GNDREF*%
X131136200Y-74245400D03*
%TD*%
%TO.P,R28,1*%
%TO.N,Net-(U15-QB)*%
X94113200Y-41959600D03*
%TO.P,R28,2*%
%TO.N,Net-(R28-Pad2)*%
X94113200Y-39419600D03*
%TD*%
%TO.P,C1,1*%
%TO.N,+5V*%
X72830000Y-87420000D03*
%TO.P,C1,2*%
%TO.N,GNDREF*%
X72830000Y-84920000D03*
%TD*%
%TO.P,R22,1*%
%TO.N,PC1*%
X35260000Y-98420000D03*
%TO.P,R22,2*%
%TO.N,Net-(D12-A)*%
X32720000Y-98420000D03*
%TD*%
D28*
%TO.P,JP17,1,A*%
%TO.N,A15*%
X89630000Y-164390000D03*
D29*
%TO.P,JP17,2,C*%
%TO.N,Net-(JP17-C)*%
X89630000Y-163090000D03*
D30*
%TO.P,JP17,3,B*%
%TO.N,A13*%
X89630000Y-161790000D03*
%TD*%
D17*
%TO.P,R5,1*%
%TO.N,+5V*%
X73370000Y-123180000D03*
%TO.P,R5,2*%
%TO.N,~{INT}*%
X70830000Y-123180000D03*
%TD*%
D22*
%TO.P,J4,1*%
%TO.N,/kraft80V2-fpga/DAT_KBD*%
X49380000Y-31790000D03*
%TO.P,J4,2*%
%TO.N,unconnected-(J4-Pad2)*%
X52260000Y-31800000D03*
%TO.P,J4,3*%
%TO.N,GNDREF*%
X47380000Y-31800000D03*
%TO.P,J4,4*%
%TO.N,+5V*%
X54280000Y-31800000D03*
%TO.P,J4,5*%
%TO.N,/kraft80V2-fpga/CK_KBD*%
X47380000Y-34100000D03*
%TO.P,J4,6*%
%TO.N,unconnected-(J4-Pad6)*%
X54280000Y-34100000D03*
D45*
%TO.P,J4,7*%
%TO.N,GNDREF*%
X57700000Y-28370000D03*
X43860000Y-28320000D03*
D46*
X50860000Y-27100000D03*
%TD*%
D17*
%TO.P,R53,1*%
%TO.N,A0*%
X131138000Y-87750400D03*
%TO.P,R53,2*%
%TO.N,Net-(U19-IOT11A)*%
X131138000Y-85210400D03*
%TD*%
D18*
%TO.P,D5,1,K*%
%TO.N,Net-(D3-K)*%
X25250000Y-136030000D03*
D19*
%TO.P,D5,2,A*%
%TO.N,Net-(D5-A)*%
X27790000Y-136030000D03*
%TD*%
D25*
%TO.P,JP15,1,A*%
%TO.N,A13*%
X90100000Y-153740000D03*
D26*
%TO.P,JP15,2,C*%
%TO.N,Net-(JP15-C)*%
X91400000Y-153740000D03*
D27*
%TO.P,JP15,3,B*%
%TO.N,A11*%
X92700000Y-153740000D03*
%TD*%
D47*
%TO.P,U19,1,IOB31B*%
%TO.N,unconnected-(U19-IOB31B-Pad1)*%
X158310000Y-89660000D03*
D11*
%TO.P,U19,2,IOB31A*%
%TO.N,/kraft80V2-fpga/DISK_MOSI*%
X158310000Y-87120000D03*
%TO.P,U19,3,IOB29B*%
%TO.N,/kraft80V2-fpga/DISK_SCK*%
X158310000Y-84580000D03*
%TO.P,U19,4,IOB33A*%
%TO.N,/kraft80V2-fpga/DISK_MISO*%
X158310000Y-82040000D03*
%TO.P,U19,5,IOB8A*%
%TO.N,Net-(U19-IOB8A)*%
X158310000Y-79500000D03*
%TO.P,U19,6,IOB8B*%
%TO.N,Net-(U17-RXD)*%
X158310000Y-76960000D03*
%TO.P,U19,7,IOB11A*%
%TO.N,Net-(U17-TXD)*%
X158310000Y-74420000D03*
%TO.P,U19,8,IOB11B*%
%TO.N,Net-(U19-IOB11B)*%
X158310000Y-71880000D03*
%TO.P,U19,9,IOB13A*%
%TO.N,Net-(U19-IOB13A)*%
X158310000Y-69340000D03*
%TO.P,U19,10,IOB13B*%
%TO.N,Net-(U19-IOB13B)*%
X158310000Y-66800000D03*
%TO.P,U19,11,IOB23A*%
%TO.N,Net-(U19-IOB23A)*%
X158310000Y-64260000D03*
%TO.P,U19,12,IOB23B*%
%TO.N,Net-(U19-IOB23B)*%
X158310000Y-61720000D03*
%TO.P,U19,13,IOB33B*%
%TO.N,Net-(U19-IOB33B)*%
X158310000Y-59180000D03*
%TO.P,U19,14,IOB29A*%
%TO.N,Net-(U19-IOB29A)*%
X158310000Y-56640000D03*
%TO.P,U19,15,IOB41A*%
%TO.N,Net-(U12-LV1)*%
X158310000Y-54100000D03*
%TO.P,U19,16,IOB41B*%
%TO.N,Net-(U12-LV2)*%
X158310000Y-51560000D03*
%TO.P,U19,17,IOB17B*%
%TO.N,Net-(U12-LV3)*%
X158310000Y-49020000D03*
%TO.P,U19,18,IOR15B*%
%TO.N,Net-(U12-LV4)*%
X158310000Y-46480000D03*
%TO.P,U19,19,IOR15A*%
%TO.N,Net-(U12-LV5)*%
X158310000Y-43940000D03*
%TO.P,U19,20,IOR14B*%
%TO.N,Net-(U12-LV6)*%
X158310000Y-41400000D03*
%TO.P,U19,21,IOR14A*%
%TO.N,Net-(U12-LV7)*%
X158310000Y-38860000D03*
%TO.P,U19,22,IOR13A*%
%TO.N,Net-(U12-LV8)*%
X158310000Y-36320000D03*
%TO.P,U19,23,IOT42B*%
%TO.N,unconnected-(U19-IOT42B-Pad23)*%
X158310000Y-33780000D03*
%TO.P,U19,24,IOT42A*%
%TO.N,unconnected-(U19-IOT42A-Pad24)*%
X158310000Y-31240000D03*
%TO.P,U19,25,+3V3*%
%TO.N,+3V3*%
X135450000Y-31240000D03*
%TO.P,U19,26,GND*%
%TO.N,GNDREF*%
X135450000Y-33780000D03*
%TO.P,U19,27,IOR15B*%
%TO.N,Net-(U15-RCLK)*%
X135450000Y-36320000D03*
%TO.P,U19,28,IOR15A*%
%TO.N,Net-(U15-SRCLK)*%
X135450000Y-38860000D03*
%TO.P,U19,29,IOR24A*%
%TO.N,Net-(U16-SER)*%
X135450000Y-41400000D03*
%TO.P,U19,30,IOR24B*%
%TO.N,unconnected-(U19-IOR24B-Pad30)*%
X135450000Y-43940000D03*
%TO.P,U19,31,+5V*%
%TO.N,unconnected-(U19-+5V-Pad31)*%
X135450000Y-46480000D03*
%TO.P,U19,32,IOT41B*%
%TO.N,unconnected-(U19-IOT41B-Pad32)*%
X135450000Y-49020000D03*
%TO.P,U19,33,IOT41A*%
%TO.N,unconnected-(U19-IOT41A-Pad33)*%
X135450000Y-51560000D03*
%TO.P,U19,34,IOT39B*%
%TO.N,unconnected-(U19-IOT39B-Pad34)*%
X135450000Y-54100000D03*
%TO.P,U19,35,IOT39A*%
%TO.N,unconnected-(U19-IOT39A-Pad35)*%
X135450000Y-56640000D03*
%TO.P,U19,36,IOT38B*%
%TO.N,unconnected-(U19-IOT38B-Pad36)*%
X135450000Y-59180000D03*
%TO.P,U19,37,IOT38A*%
%TO.N,unconnected-(U19-IOT38A-Pad37)*%
X135450000Y-61720000D03*
%TO.P,U19,38,IOT37B*%
%TO.N,/kraft80V2-fpga/~{DISK_CS}*%
X135450000Y-64260000D03*
%TO.P,U19,39,IOT37A*%
%TO.N,unconnected-(U19-IOT37A-Pad39)*%
X135450000Y-66800000D03*
%TO.P,U19,40,IOT12B*%
%TO.N,Net-(U19-IOT12B)*%
X135450000Y-69340000D03*
%TO.P,U19,41,IOT12A*%
%TO.N,Net-(U19-IOT12A)*%
X135450000Y-71880000D03*
%TO.P,U19,42,IOT11B*%
%TO.N,Net-(U19-IOT11B)*%
X135450000Y-74420000D03*
%TO.P,U19,43,IOT11A*%
%TO.N,Net-(U19-IOT11A)*%
X135450000Y-76960000D03*
%TO.P,U19,44,IOT10B*%
%TO.N,unconnected-(U19-IOT10B-Pad44)*%
X135450000Y-79500000D03*
%TO.P,U19,45,IOT10A*%
%TO.N,unconnected-(U19-IOT10A-Pad45)*%
X135450000Y-82040000D03*
%TO.P,U19,46,IOT8B*%
%TO.N,unconnected-(U19-IOT8B-Pad46)*%
X135450000Y-84580000D03*
%TO.P,U19,47,IOT8A*%
%TO.N,Net-(U19-IOT8A)*%
X135450000Y-87120000D03*
%TO.P,U19,48,IOR5A*%
%TO.N,Net-(U17-~{CTS})*%
X135450000Y-89660000D03*
%TD*%
D17*
%TO.P,R1,1*%
%TO.N,+5V*%
X151822600Y-162966800D03*
%TO.P,R1,2*%
%TO.N,Net-(D1-A)*%
X151822600Y-165506800D03*
%TD*%
%TO.P,R24,1*%
%TO.N,Net-(U16-QF)*%
X108946800Y-41966000D03*
%TO.P,R24,2*%
%TO.N,Net-(R24-Pad2)*%
X108946800Y-39426000D03*
%TD*%
%TO.P,C4,1*%
%TO.N,+3V3*%
X130730000Y-53990000D03*
%TO.P,C4,2*%
%TO.N,GNDREF*%
X130730000Y-51490000D03*
%TD*%
%TO.P,C20,1*%
%TO.N,+5V*%
X101580000Y-181900000D03*
%TO.P,C20,2*%
%TO.N,GNDREF*%
X104080000Y-181900000D03*
%TD*%
%TO.P,R40,1*%
%TO.N,+5V*%
X64330000Y-34090000D03*
%TO.P,R40,2*%
%TO.N,/kraft80V2-fpga/CK_KBD*%
X61790000Y-34090000D03*
%TD*%
D25*
%TO.P,JP12,1,A*%
%TO.N,A5*%
X78560000Y-149980000D03*
D26*
%TO.P,JP12,2,C*%
%TO.N,Net-(JP12-C)*%
X79860000Y-149980000D03*
D27*
%TO.P,JP12,3,B*%
%TO.N,A1*%
X81160000Y-149980000D03*
%TD*%
D17*
%TO.P,R33,1*%
%TO.N,Net-(R29-Pad2)*%
X94164000Y-33006000D03*
%TO.P,R33,2*%
%TO.N,Net-(R28-Pad2)*%
X94164000Y-35546000D03*
%TD*%
D21*
%TO.P,J2,1,Pin_1*%
%TO.N,D7*%
X32600000Y-62400000D03*
D22*
%TO.P,J2,2,Pin_2*%
%TO.N,D6*%
X32600000Y-64940000D03*
%TO.P,J2,3,Pin_3*%
%TO.N,D5*%
X32600000Y-67480000D03*
%TO.P,J2,4,Pin_4*%
%TO.N,D4*%
X32600000Y-70020000D03*
%TO.P,J2,5,Pin_5*%
%TO.N,D3*%
X32600000Y-72560000D03*
%TO.P,J2,6,Pin_6*%
%TO.N,D2*%
X32600000Y-75100000D03*
%TO.P,J2,7,Pin_7*%
%TO.N,D1*%
X32600000Y-77640000D03*
%TO.P,J2,8,Pin_8*%
%TO.N,D0*%
X32600000Y-80180000D03*
%TD*%
D18*
%TO.P,D4,1,K*%
%TO.N,Net-(D3-K)*%
X25250000Y-130950000D03*
D19*
%TO.P,D4,2,A*%
%TO.N,Net-(D4-A)*%
X27790000Y-130950000D03*
%TD*%
D18*
%TO.P,D8,1,K*%
%TO.N,Net-(D10-K)*%
X25250000Y-110630000D03*
D19*
%TO.P,D8,2,A*%
%TO.N,Net-(D8-A)*%
X27790000Y-110630000D03*
%TD*%
D17*
%TO.P,R27,1*%
%TO.N,Net-(U15-QA)*%
X97821600Y-41966000D03*
%TO.P,R27,2*%
%TO.N,Net-(R27-Pad2)*%
X97821600Y-39426000D03*
%TD*%
D21*
%TO.P,JP4,1,A*%
%TO.N,+5V*%
X132040000Y-136950000D03*
D22*
%TO.P,JP4,2,C*%
%TO.N,/~{ROM_BASIC}*%
X134580000Y-136950000D03*
%TO.P,JP4,3,B*%
%TO.N,Net-(JP14-A)*%
X137120000Y-136950000D03*
%TD*%
D18*
%TO.P,D9,1,K*%
%TO.N,Net-(D10-K)*%
X25250000Y-115710000D03*
D19*
%TO.P,D9,2,A*%
%TO.N,Net-(D9-A)*%
X27790000Y-115710000D03*
%TD*%
D17*
%TO.P,C14,1*%
%TO.N,Net-(C14-Pad1)*%
X29520000Y-157150000D03*
%TO.P,C14,2*%
%TO.N,GNDREF*%
X32020000Y-157150000D03*
%TD*%
%TO.P,R26,1*%
%TO.N,Net-(U16-QH)*%
X101530000Y-41966000D03*
%TO.P,R26,2*%
%TO.N,Net-(R26-Pad2)*%
X101530000Y-39426000D03*
%TD*%
D48*
%TO.P,Q1,1,C*%
%TO.N,Net-(J3-Pin_2)*%
X76813800Y-46901200D03*
D49*
%TO.P,Q1,2,B*%
%TO.N,Net-(Q1-B)*%
X75543800Y-46901200D03*
%TO.P,Q1,3,E*%
%TO.N,GNDREF*%
X74273800Y-46901200D03*
%TD*%
D15*
%TO.P,SW3,1,1*%
%TO.N,GNDREF*%
X76150000Y-191750000D03*
X69650000Y-191750000D03*
%TO.P,SW3,2,2*%
%TO.N,PX2*%
X76150000Y-187250000D03*
X69650000Y-187250000D03*
%TD*%
D36*
%TO.P,U16,1,QB*%
%TO.N,Net-(U16-QB)*%
X127496800Y-46371200D03*
D17*
%TO.P,U16,2,QC*%
%TO.N,Net-(U16-QC)*%
X124956800Y-46371200D03*
%TO.P,U16,3,QD*%
%TO.N,Net-(U16-QD)*%
X122416800Y-46371200D03*
%TO.P,U16,4,QE*%
%TO.N,Net-(U16-QE)*%
X119876800Y-46371200D03*
%TO.P,U16,5,QF*%
%TO.N,Net-(U16-QF)*%
X117336800Y-46371200D03*
%TO.P,U16,6,QG*%
%TO.N,Net-(U16-QG)*%
X114796800Y-46371200D03*
%TO.P,U16,7,QH*%
%TO.N,Net-(U16-QH)*%
X112256800Y-46371200D03*
%TO.P,U16,8,GND*%
%TO.N,GNDREF*%
X109716800Y-46371200D03*
%TO.P,U16,9,QH'*%
%TO.N,Net-(U15-SER)*%
X109716800Y-53991200D03*
%TO.P,U16,10,~{SRCLR}*%
%TO.N,+3V3*%
X112256800Y-53991200D03*
%TO.P,U16,11,SRCLK*%
%TO.N,Net-(U15-SRCLK)*%
X114796800Y-53991200D03*
%TO.P,U16,12,RCLK*%
%TO.N,Net-(U15-RCLK)*%
X117336800Y-53991200D03*
%TO.P,U16,13,~{OE}*%
%TO.N,GNDREF*%
X119876800Y-53991200D03*
%TO.P,U16,14,SER*%
%TO.N,Net-(U16-SER)*%
X122416800Y-53991200D03*
%TO.P,U16,15,QA*%
%TO.N,Net-(U16-QA)*%
X124956800Y-53991200D03*
%TO.P,U16,16,VCC*%
%TO.N,+3V3*%
X127496800Y-53991200D03*
%TD*%
%TO.P,R35,1*%
%TO.N,Net-(R27-Pad2)*%
X101580800Y-33012400D03*
%TO.P,R35,2*%
%TO.N,Net-(R26-Pad2)*%
X101580800Y-35552400D03*
%TD*%
%TO.P,C5,1*%
%TO.N,+5V*%
X99940000Y-153710000D03*
%TO.P,C5,2*%
%TO.N,GNDREF*%
X97440000Y-153710000D03*
%TD*%
D50*
%TO.P,U2,1,NC*%
%TO.N,unconnected-(U2-NC-Pad1)*%
X80067600Y-98679400D03*
D51*
%TO.P,U2,2,A12*%
%TO.N,A12*%
X80067600Y-101219400D03*
%TO.P,U2,3,A7*%
%TO.N,A7*%
X80067600Y-103759400D03*
%TO.P,U2,4,A6*%
%TO.N,A6*%
X80067600Y-106299400D03*
%TO.P,U2,5,A5*%
%TO.N,A5*%
X80067600Y-108839400D03*
%TO.P,U2,6,A4*%
%TO.N,A4*%
X80067600Y-111379400D03*
%TO.P,U2,7,A3*%
%TO.N,A3*%
X80067600Y-113919400D03*
%TO.P,U2,8,A2*%
%TO.N,A2*%
X80067600Y-116459400D03*
%TO.P,U2,9,A1*%
%TO.N,A1*%
X80067600Y-118999400D03*
%TO.P,U2,10,A0*%
%TO.N,A0*%
X80067600Y-121539400D03*
%TO.P,U2,11,I/O0*%
%TO.N,D0*%
X80067600Y-124079400D03*
%TO.P,U2,12,I/O1*%
%TO.N,D1*%
X80067600Y-126619400D03*
%TO.P,U2,13,I/O2*%
%TO.N,D2*%
X80067600Y-129159400D03*
%TO.P,U2,14,GND*%
%TO.N,GNDREF*%
X80067600Y-131699400D03*
%TO.P,U2,15,I/O3*%
%TO.N,D3*%
X95307600Y-131699400D03*
%TO.P,U2,16,I/O4*%
%TO.N,D4*%
X95307600Y-129159400D03*
%TO.P,U2,17,I/O5*%
%TO.N,D5*%
X95307600Y-126619400D03*
%TO.P,U2,18,I/O6*%
%TO.N,D6*%
X95307600Y-124079400D03*
%TO.P,U2,19,I/O7*%
%TO.N,D7*%
X95307600Y-121539400D03*
%TO.P,U2,20,~{CE}*%
%TO.N,/~{SEL_ROM}*%
X95307600Y-118999400D03*
%TO.P,U2,21,A10*%
%TO.N,A10*%
X95307600Y-116459400D03*
%TO.P,U2,22,~{OE}*%
%TO.N,~{READ}*%
X95307600Y-113919400D03*
%TO.P,U2,23,A11*%
%TO.N,Net-(JP18-C)*%
X95307600Y-111379400D03*
%TO.P,U2,24,A9*%
%TO.N,A9*%
X95307600Y-108839400D03*
%TO.P,U2,25,A8*%
%TO.N,A8*%
X95307600Y-106299400D03*
%TO.P,U2,26,NC*%
%TO.N,+5V*%
X95307600Y-103759400D03*
%TO.P,U2,27,~{WE}*%
X95307600Y-101219400D03*
%TO.P,U2,28,VCC*%
X95307600Y-98679400D03*
%TD*%
D17*
%TO.P,R29,1*%
%TO.N,Net-(U15-QC)*%
X90404800Y-41959600D03*
%TO.P,R29,2*%
%TO.N,Net-(R29-Pad2)*%
X90404800Y-39419600D03*
%TD*%
%TO.P,R54,1*%
%TO.N,Net-(R46-Pad2)*%
X127539600Y-33006000D03*
%TO.P,R54,2*%
%TO.N,Net-(C21-Pad1)*%
X127539600Y-35546000D03*
%TD*%
%TO.P,R8,1*%
%TO.N,PA4*%
X35410000Y-125870000D03*
%TO.P,R8,2*%
%TO.N,Net-(D3-A)*%
X32870000Y-125870000D03*
%TD*%
D15*
%TO.P,SW4,1,1*%
%TO.N,GNDREF*%
X88850000Y-191750000D03*
X82350000Y-191750000D03*
%TO.P,SW4,2,2*%
%TO.N,PX3*%
X88850000Y-187250000D03*
X82350000Y-187250000D03*
%TD*%
D20*
%TO.P,U3,1,A0*%
%TO.N,Net-(JP15-C)*%
X92386600Y-157556600D03*
D17*
%TO.P,U3,2,A1*%
%TO.N,Net-(JP16-C)*%
X92386600Y-160096600D03*
%TO.P,U3,3,A2*%
%TO.N,Net-(JP17-C)*%
X92386600Y-162636600D03*
%TO.P,U3,4,E1*%
%TO.N,~{MREQ}*%
X92386600Y-165176600D03*
%TO.P,U3,5,E2*%
%TO.N,GNDREF*%
X92386600Y-167716600D03*
%TO.P,U3,6,E3*%
%TO.N,+5V*%
X92386600Y-170256600D03*
%TO.P,U3,7,O7*%
%TO.N,unconnected-(U3-O7-Pad7)*%
X92386600Y-172796600D03*
%TO.P,U3,8,GND*%
%TO.N,GNDREF*%
X92386600Y-175336600D03*
%TO.P,U3,9,O6*%
%TO.N,unconnected-(U3-O6-Pad9)*%
X100006600Y-175336600D03*
%TO.P,U3,10,O5*%
%TO.N,unconnected-(U3-O5-Pad10)*%
X100006600Y-172796600D03*
%TO.P,U3,11,O4*%
%TO.N,unconnected-(U3-O4-Pad11)*%
X100006600Y-170256600D03*
%TO.P,U3,12,O3*%
%TO.N,Net-(U3-O3)*%
X100006600Y-167716600D03*
%TO.P,U3,13,O2*%
%TO.N,Net-(U3-O2)*%
X100006600Y-165176600D03*
%TO.P,U3,14,O1*%
%TO.N,Net-(JP14-A)*%
X100006600Y-162636600D03*
%TO.P,U3,15,O0*%
%TO.N,/~{SEL_ROM}*%
X100006600Y-160096600D03*
%TO.P,U3,16,VCC*%
%TO.N,+5V*%
X100006600Y-157556600D03*
%TD*%
%TO.P,C91,1*%
%TO.N,+5V*%
X86780000Y-154320000D03*
%TO.P,C91,2*%
%TO.N,GNDREF*%
X84280000Y-154320000D03*
%TD*%
%TO.P,C15,1*%
%TO.N,+5V*%
X37660000Y-157170000D03*
%TO.P,C15,2*%
%TO.N,GNDREF*%
X35160000Y-157170000D03*
%TD*%
%TO.P,C16,1*%
%TO.N,+5V*%
X165380000Y-156880000D03*
%TO.P,C16,2*%
%TO.N,GNDREF*%
X162880000Y-156880000D03*
%TD*%
D35*
%TO.P,U17,1,PWREN*%
%TO.N,unconnected-(U17-PWREN-Pad1)*%
X25260000Y-35120000D03*
D11*
%TO.P,U17,2,TEN*%
%TO.N,unconnected-(U17-TEN-Pad2)*%
X25260000Y-37660000D03*
%TO.P,U17,3,SLEEP*%
%TO.N,unconnected-(U17-SLEEP-Pad3)*%
X25260000Y-40200000D03*
%TO.P,U17,4,~{CTS}*%
%TO.N,Net-(U17-~{CTS})*%
X25260000Y-42740000D03*
%TO.P,U17,5,3V3*%
%TO.N,unconnected-(U17-3V3-Pad5)*%
X25260000Y-45280000D03*
%TO.P,U17,6,5V*%
%TO.N,+5V*%
X25260000Y-47820000D03*
%TO.P,U17,7,RXL*%
%TO.N,unconnected-(U17-RXL-Pad7)*%
X25260000Y-50360000D03*
%TO.P,U17,8,TXL*%
%TO.N,unconnected-(U17-TXL-Pad8)*%
X25260000Y-52900000D03*
%TO.P,U17,9,GND*%
%TO.N,GNDREF*%
X25260000Y-55440000D03*
%TO.P,U17,10,TXD*%
%TO.N,Net-(U17-TXD)*%
X40500000Y-55440000D03*
%TO.P,U17,11,~{DTR}*%
%TO.N,unconnected-(U17-~{DTR}-Pad11)*%
X40500000Y-52900000D03*
%TO.P,U17,12,~{RTS}*%
%TO.N,unconnected-(U17-~{RTS}-Pad12)*%
X40500000Y-50360000D03*
%TO.P,U17,13,VCC*%
%TO.N,unconnected-(U17-VCC-Pad13)*%
X40500000Y-47820000D03*
%TO.P,U17,14,RXD*%
%TO.N,Net-(U17-RXD)*%
X40500000Y-45280000D03*
%TO.P,U17,15,~{RI}*%
%TO.N,unconnected-(U17-~{RI}-Pad15)*%
X40500000Y-42740000D03*
%TO.P,U17,16,GND*%
%TO.N,GNDREF*%
X40500000Y-40200000D03*
%TO.P,U17,17,~{RSD}*%
%TO.N,unconnected-(U17-~{RSD}-Pad17)*%
X40500000Y-37660000D03*
%TO.P,U17,18,~{DCD}*%
%TO.N,unconnected-(U17-~{DCD}-Pad18)*%
X40500000Y-35120000D03*
%TD*%
D20*
%TO.P,U99,1,~{R}*%
%TO.N,~{RESET}*%
X39570000Y-93245000D03*
D17*
%TO.P,U99,2,D*%
%TO.N,D0*%
X39570000Y-95785000D03*
%TO.P,U99,3,C*%
%TO.N,/kraft80V2-ios/CKFF*%
X39570000Y-98325000D03*
%TO.P,U99,4,~{S}*%
%TO.N,+5V*%
X39570000Y-100865000D03*
%TO.P,U99,5,Q*%
%TO.N,CPM*%
X39570000Y-103405000D03*
%TO.P,U99,6,~{Q}*%
%TO.N,unconnected-(U99A-~{Q}-Pad6)*%
X39570000Y-105945000D03*
%TO.P,U99,7,GND*%
%TO.N,GNDREF*%
X39570000Y-108485000D03*
%TO.P,U99,8,~{Q}*%
%TO.N,unconnected-(U99B-~{Q}-Pad8)*%
X47190000Y-108485000D03*
%TO.P,U99,9,Q*%
%TO.N,PC1*%
X47190000Y-105945000D03*
%TO.P,U99,10,~{S}*%
%TO.N,+5V*%
X47190000Y-103405000D03*
%TO.P,U99,11,C*%
%TO.N,/kraft80V2-ios/CKFF*%
X47190000Y-100865000D03*
%TO.P,U99,12,D*%
%TO.N,D1*%
X47190000Y-98325000D03*
%TO.P,U99,13,~{R}*%
%TO.N,~{RESET}*%
X47190000Y-95785000D03*
%TO.P,U99,14,VCC*%
%TO.N,+5V*%
X47190000Y-93245000D03*
%TD*%
%TO.P,R48,1*%
%TO.N,Net-(U16-QD)*%
X116363600Y-41959600D03*
%TO.P,R48,2*%
%TO.N,Net-(R41-Pad2)*%
X116363600Y-39419600D03*
%TD*%
D52*
%TO.P,LCD1,1,VSS*%
%TO.N,GNDREF*%
X93220000Y-181500000D03*
D53*
%TO.P,LCD1,2,VDD*%
%TO.N,+5V*%
X90680000Y-181500000D03*
%TO.P,LCD1,3,VO*%
%TO.N,Net-(LCD1-VO)*%
X88140000Y-181500000D03*
%TO.P,LCD1,4,RS*%
%TO.N,Net-(LCD1-RS)*%
X85600000Y-181500000D03*
%TO.P,LCD1,5,R/~{W}*%
%TO.N,GNDREF*%
X83060000Y-181500000D03*
%TO.P,LCD1,6,E*%
%TO.N,Net-(LCD1-E)*%
X80520000Y-181500000D03*
%TO.P,LCD1,7,DB0*%
%TO.N,GNDREF*%
X77980000Y-181500000D03*
%TO.P,LCD1,8,DB1*%
X75440000Y-181500000D03*
%TO.P,LCD1,9,DB2*%
X72900000Y-181500000D03*
%TO.P,LCD1,10,DB3*%
X70360000Y-181500000D03*
%TO.P,LCD1,11,DB4*%
%TO.N,Net-(LCD1-DB4)*%
X67820000Y-181500000D03*
%TO.P,LCD1,12,DB5*%
%TO.N,Net-(LCD1-DB5)*%
X65280000Y-181500000D03*
%TO.P,LCD1,13,DB6*%
%TO.N,Net-(LCD1-DB6)*%
X62734920Y-181497460D03*
%TO.P,LCD1,14,DB7*%
%TO.N,Net-(LCD1-DB7)*%
X60200000Y-181500000D03*
%TO.P,LCD1,15,A/VEE*%
%TO.N,Net-(LCD1-A{slash}VEE)*%
X98300000Y-181500000D03*
%TO.P,LCD1,16,K*%
%TO.N,GNDREF*%
X95754920Y-181497460D03*
%TD*%
D20*
%TO.P,U18,1,NC*%
%TO.N,unconnected-(U18-NC-Pad1)*%
X104248400Y-98755600D03*
D17*
%TO.P,U18,2,A12*%
%TO.N,A12*%
X104248400Y-101295600D03*
%TO.P,U18,3,A7*%
%TO.N,A7*%
X104248400Y-103835600D03*
%TO.P,U18,4,A6*%
%TO.N,A6*%
X104248400Y-106375600D03*
%TO.P,U18,5,A5*%
%TO.N,A5*%
X104248400Y-108915600D03*
%TO.P,U18,6,A4*%
%TO.N,A4*%
X104248400Y-111455600D03*
%TO.P,U18,7,A3*%
%TO.N,A3*%
X104248400Y-113995600D03*
%TO.P,U18,8,A2*%
%TO.N,A2*%
X104248400Y-116535600D03*
%TO.P,U18,9,A1*%
%TO.N,A1*%
X104248400Y-119075600D03*
%TO.P,U18,10,A0*%
%TO.N,A0*%
X104248400Y-121615600D03*
%TO.P,U18,11,I/O0*%
%TO.N,D0*%
X104248400Y-124155600D03*
%TO.P,U18,12,I/O1*%
%TO.N,D1*%
X104248400Y-126695600D03*
%TO.P,U18,13,I/O2*%
%TO.N,D2*%
X104248400Y-129235600D03*
%TO.P,U18,14,GND*%
%TO.N,GNDREF*%
X104248400Y-131775600D03*
%TO.P,U18,15,I/O3*%
%TO.N,D3*%
X119488400Y-131775600D03*
%TO.P,U18,16,I/O4*%
%TO.N,D4*%
X119488400Y-129235600D03*
%TO.P,U18,17,I/O5*%
%TO.N,D5*%
X119488400Y-126695600D03*
%TO.P,U18,18,I/O6*%
%TO.N,D6*%
X119488400Y-124155600D03*
%TO.P,U18,19,I/O7*%
%TO.N,D7*%
X119488400Y-121615600D03*
%TO.P,U18,20,~{CE}*%
%TO.N,/~{ROM_BASIC}*%
X119488400Y-119075600D03*
%TO.P,U18,21,A10*%
%TO.N,A10*%
X119488400Y-116535600D03*
%TO.P,U18,22,~{OE}*%
%TO.N,~{READ}*%
X119488400Y-113995600D03*
%TO.P,U18,23,A11*%
%TO.N,A11*%
X119488400Y-111455600D03*
%TO.P,U18,24,A9*%
%TO.N,A9*%
X119488400Y-108915600D03*
%TO.P,U18,25,A8*%
%TO.N,A8*%
X119488400Y-106375600D03*
%TO.P,U18,26,NC*%
%TO.N,unconnected-(U18-NC-Pad26)*%
X119488400Y-103835600D03*
%TO.P,U18,27,~{WE}*%
%TO.N,+5V*%
X119488400Y-101295600D03*
%TO.P,U18,28,VCC*%
X119488400Y-98755600D03*
%TD*%
D20*
%TO.P,U9,1,A14*%
%TO.N,A14*%
X126016200Y-98933400D03*
D17*
%TO.P,U9,2,A12*%
%TO.N,A12*%
X126016200Y-101473400D03*
%TO.P,U9,3,A7*%
%TO.N,A7*%
X126016200Y-104013400D03*
%TO.P,U9,4,A6*%
%TO.N,A6*%
X126016200Y-106553400D03*
%TO.P,U9,5,A5*%
%TO.N,A5*%
X126016200Y-109093400D03*
%TO.P,U9,6,A4*%
%TO.N,A4*%
X126016200Y-111633400D03*
%TO.P,U9,7,A3*%
%TO.N,A3*%
X126016200Y-114173400D03*
%TO.P,U9,8,A2*%
%TO.N,A2*%
X126016200Y-116713400D03*
%TO.P,U9,9,A1*%
%TO.N,A1*%
X126016200Y-119253400D03*
%TO.P,U9,10,A0*%
%TO.N,A0*%
X126016200Y-121793400D03*
%TO.P,U9,11,Q0*%
%TO.N,D0*%
X126016200Y-124333400D03*
%TO.P,U9,12,Q1*%
%TO.N,D1*%
X126016200Y-126873400D03*
%TO.P,U9,13,Q2*%
%TO.N,D2*%
X126016200Y-129413400D03*
%TO.P,U9,14,GND*%
%TO.N,GNDREF*%
X126016200Y-131953400D03*
%TO.P,U9,15,Q3*%
%TO.N,D3*%
X141256200Y-131953400D03*
%TO.P,U9,16,Q4*%
%TO.N,D4*%
X141256200Y-129413400D03*
%TO.P,U9,17,Q5*%
%TO.N,D5*%
X141256200Y-126873400D03*
%TO.P,U9,18,Q6*%
%TO.N,D6*%
X141256200Y-124333400D03*
%TO.P,U9,19,Q7*%
%TO.N,D7*%
X141256200Y-121793400D03*
%TO.P,U9,20,~{CS}*%
%TO.N,/~{SEL_RAM}*%
X141256200Y-119253400D03*
%TO.P,U9,21,A10*%
%TO.N,A10*%
X141256200Y-116713400D03*
%TO.P,U9,22,~{OE}*%
%TO.N,~{READ}*%
X141256200Y-114173400D03*
%TO.P,U9,23,A11*%
%TO.N,Net-(JP20-C)*%
X141256200Y-111633400D03*
%TO.P,U9,24,A9*%
%TO.N,A9*%
X141256200Y-109093400D03*
%TO.P,U9,25,A8*%
%TO.N,A8*%
X141256200Y-106553400D03*
%TO.P,U9,26,A13*%
%TO.N,Net-(JP19-C)*%
X141256200Y-104013400D03*
%TO.P,U9,27,~{WE}*%
%TO.N,~{WRITE}*%
X141256200Y-101473400D03*
%TO.P,U9,28,VCC*%
%TO.N,+5V*%
X141256200Y-98933400D03*
%TD*%
D20*
%TO.P,U1,1,A_{11}*%
%TO.N,A11*%
X52280000Y-88875000D03*
D17*
%TO.P,U1,2,A_{12}*%
%TO.N,A12*%
X52280000Y-91415000D03*
%TO.P,U1,3,A_{13}*%
%TO.N,A13*%
X52280000Y-93955000D03*
%TO.P,U1,4,A_{14}*%
%TO.N,A14*%
X52280000Y-96495000D03*
%TO.P,U1,5,A_{15}*%
%TO.N,A15*%
X52280000Y-99035000D03*
%TO.P,U1,6,CLK*%
%TO.N,CLOCK*%
X52280000Y-101575000D03*
%TO.P,U1,7,D_{4}*%
%TO.N,D4*%
X52280000Y-104115000D03*
%TO.P,U1,8,D_{3}*%
%TO.N,D3*%
X52280000Y-106655000D03*
%TO.P,U1,9,D_{5}*%
%TO.N,D5*%
X52280000Y-109195000D03*
%TO.P,U1,10,D_{6}*%
%TO.N,D6*%
X52280000Y-111735000D03*
%TO.P,U1,11,V_{CC}*%
%TO.N,+5V*%
X52280000Y-114275000D03*
%TO.P,U1,12,D_{2}*%
%TO.N,D2*%
X52280000Y-116815000D03*
%TO.P,U1,13,D_{7}*%
%TO.N,D7*%
X52280000Y-119355000D03*
%TO.P,U1,14,D_{0}*%
%TO.N,D0*%
X52280000Y-121895000D03*
%TO.P,U1,15,D_{1}*%
%TO.N,D1*%
X52280000Y-124435000D03*
%TO.P,U1,16,~{INT}*%
%TO.N,~{INT}*%
X52280000Y-126975000D03*
%TO.P,U1,17,~{NMI}*%
%TO.N,~{NMI}*%
X52280000Y-129515000D03*
%TO.P,U1,18,~{HALT}*%
%TO.N,~{HALT}*%
X52280000Y-132055000D03*
%TO.P,U1,19,~{MREQ}*%
%TO.N,~{MREQ}*%
X52280000Y-134595000D03*
%TO.P,U1,20,~{IORQ}*%
%TO.N,~{IORQ}*%
X52280000Y-137135000D03*
%TO.P,U1,21,~{RD}*%
%TO.N,~{READ}*%
X67520000Y-137135000D03*
%TO.P,U1,22,~{WR}*%
%TO.N,~{WRITE}*%
X67520000Y-134595000D03*
%TO.P,U1,23,~{BUSACK}*%
%TO.N,~{BUSAK}*%
X67520000Y-132055000D03*
%TO.P,U1,24,~{WAIT}*%
%TO.N,~{WAIT}*%
X67520000Y-129515000D03*
%TO.P,U1,25,~{BUSREQ}*%
%TO.N,~{BUSRQ}*%
X67520000Y-126975000D03*
%TO.P,U1,26,~{RESET}*%
%TO.N,~{RESET}*%
X67520000Y-124435000D03*
%TO.P,U1,27,~{M1}*%
%TO.N,~{M1}*%
X67520000Y-121895000D03*
%TO.P,U1,28,~{RFSH}*%
%TO.N,~{RFSH}*%
X67520000Y-119355000D03*
%TO.P,U1,29,GND*%
%TO.N,GNDREF*%
X67520000Y-116815000D03*
%TO.P,U1,30,A_{0}*%
%TO.N,A0*%
X67520000Y-114275000D03*
%TO.P,U1,31,A_{1}*%
%TO.N,A1*%
X67520000Y-111735000D03*
%TO.P,U1,32,A_{2}*%
%TO.N,A2*%
X67520000Y-109195000D03*
%TO.P,U1,33,A_{3}*%
%TO.N,A3*%
X67520000Y-106655000D03*
%TO.P,U1,34,A_{4}*%
%TO.N,A4*%
X67520000Y-104115000D03*
%TO.P,U1,35,A_{5}*%
%TO.N,A5*%
X67520000Y-101575000D03*
%TO.P,U1,36,A_{6}*%
%TO.N,A6*%
X67520000Y-99035000D03*
%TO.P,U1,37,A_{7}*%
%TO.N,A7*%
X67520000Y-96495000D03*
%TO.P,U1,38,A_{8}*%
%TO.N,A8*%
X67520000Y-93955000D03*
%TO.P,U1,39,A_{9}*%
%TO.N,A9*%
X67520000Y-91415000D03*
%TO.P,U1,40,A_{10}*%
%TO.N,A10*%
X67520000Y-88875000D03*
%TD*%
D20*
%TO.P,U90,1,A14*%
%TO.N,A14*%
X147370000Y-98870000D03*
D17*
%TO.P,U90,2,A12*%
%TO.N,A12*%
X147370000Y-101410000D03*
%TO.P,U90,3,A7*%
%TO.N,A7*%
X147370000Y-103950000D03*
%TO.P,U90,4,A6*%
%TO.N,A6*%
X147370000Y-106490000D03*
%TO.P,U90,5,A5*%
%TO.N,A5*%
X147370000Y-109030000D03*
%TO.P,U90,6,A4*%
%TO.N,A4*%
X147370000Y-111570000D03*
%TO.P,U90,7,A3*%
%TO.N,A3*%
X147370000Y-114110000D03*
%TO.P,U90,8,A2*%
%TO.N,A2*%
X147370000Y-116650000D03*
%TO.P,U90,9,A1*%
%TO.N,A1*%
X147370000Y-119190000D03*
%TO.P,U90,10,A0*%
%TO.N,A0*%
X147370000Y-121730000D03*
%TO.P,U90,11,Q0*%
%TO.N,D0*%
X147370000Y-124270000D03*
%TO.P,U90,12,Q1*%
%TO.N,D1*%
X147370000Y-126810000D03*
%TO.P,U90,13,Q2*%
%TO.N,D2*%
X147370000Y-129350000D03*
%TO.P,U90,14,GND*%
%TO.N,GNDREF*%
X147370000Y-131890000D03*
%TO.P,U90,15,Q3*%
%TO.N,D3*%
X162610000Y-131890000D03*
%TO.P,U90,16,Q4*%
%TO.N,D4*%
X162610000Y-129350000D03*
%TO.P,U90,17,Q5*%
%TO.N,D5*%
X162610000Y-126810000D03*
%TO.P,U90,18,Q6*%
%TO.N,D6*%
X162610000Y-124270000D03*
%TO.P,U90,19,Q7*%
%TO.N,D7*%
X162610000Y-121730000D03*
%TO.P,U90,20,~{CS}*%
%TO.N,/~{SEL_RAM2}*%
X162610000Y-119190000D03*
%TO.P,U90,21,A10*%
%TO.N,A10*%
X162610000Y-116650000D03*
%TO.P,U90,22,~{OE}*%
%TO.N,~{READ}*%
X162610000Y-114110000D03*
%TO.P,U90,23,A11*%
%TO.N,A11*%
X162610000Y-111570000D03*
%TO.P,U90,24,A9*%
%TO.N,A9*%
X162610000Y-109030000D03*
%TO.P,U90,25,A8*%
%TO.N,A8*%
X162610000Y-106490000D03*
%TO.P,U90,26,A13*%
%TO.N,A13*%
X162610000Y-103950000D03*
%TO.P,U90,27,~{WE}*%
%TO.N,~{WRITE}*%
X162610000Y-101410000D03*
%TO.P,U90,28,VCC*%
%TO.N,+5V*%
X162610000Y-98870000D03*
%TD*%
D54*
%TO.N,GNDREF*%
X159500000Y-93559000D03*
%TO.N,/~{SEL_RAM2}*%
X146470000Y-146160000D03*
%TO.N,D5*%
X54140000Y-133156000D03*
D55*
X111803826Y-80706776D03*
D54*
X55955833Y-73187963D03*
X55677521Y-110121008D03*
X109072035Y-80007665D03*
D55*
%TO.N,D4*%
X111080347Y-80767334D03*
D54*
X57600000Y-104120000D03*
X71730000Y-166550000D03*
X55161000Y-73278764D03*
X54880000Y-135980000D03*
D55*
%TO.N,A10*%
X72300000Y-89160000D03*
X72460000Y-117330000D03*
D54*
X68157127Y-75322873D03*
%TO.N,~{MREQ}*%
X111400000Y-161690000D03*
X93760000Y-161395800D03*
X59530000Y-159950000D03*
X59510000Y-134950000D03*
X41810000Y-132959000D03*
D55*
%TO.N,PA7*%
X45870000Y-141030000D03*
D54*
%TO.N,A7*%
X68760000Y-77490586D03*
D55*
X76260000Y-96470000D03*
D54*
%TO.N,CLOCK*%
X80480000Y-83819000D03*
X51050000Y-84930000D03*
X57600000Y-101575000D03*
X56310000Y-147740000D03*
D55*
%TO.N,~{READ}*%
X89646500Y-57750000D03*
D54*
X128470000Y-114173400D03*
X90700000Y-139140000D03*
D55*
X90990000Y-113960000D03*
%TO.N,A3*%
X120850000Y-112830000D03*
D54*
X70421000Y-79226529D03*
D55*
X76210000Y-106700000D03*
D54*
%TO.N,A6*%
X76040000Y-152102600D03*
D55*
X76220000Y-99060000D03*
D54*
X66709000Y-77923373D03*
X78550000Y-153442600D03*
D55*
%TO.N,~{WRITE}*%
X92280000Y-57140000D03*
D54*
X121410000Y-72320000D03*
D55*
X121880000Y-101720000D03*
D54*
X119410000Y-135610000D03*
%TO.N,D0*%
X126510000Y-82670000D03*
D55*
X42360000Y-120859000D03*
D54*
X38200000Y-82790000D03*
D55*
X105360000Y-82630000D03*
D54*
X49449000Y-81931000D03*
%TO.N,GNDREF*%
X135190000Y-155529000D03*
D55*
X109970000Y-131775600D03*
D54*
X62710000Y-85840000D03*
D55*
X83150000Y-28150000D03*
D54*
X154290000Y-155529000D03*
D55*
X68920000Y-42290000D03*
X109970000Y-93608000D03*
D54*
X116960000Y-93559000D03*
X43860000Y-139570000D03*
X106980000Y-155789000D03*
X111040000Y-155740000D03*
X93610000Y-155789000D03*
X83280000Y-74210000D03*
D55*
X49580000Y-60970000D03*
X68920000Y-46910000D03*
D54*
X44970000Y-85880000D03*
X144770000Y-155529000D03*
D55*
X49580000Y-40460000D03*
X92880000Y-131540000D03*
D54*
X46940000Y-175430000D03*
X44670000Y-108460000D03*
X25100000Y-85881000D03*
X84050000Y-151400000D03*
D55*
X130730000Y-33790000D03*
X83290000Y-85840000D03*
D54*
X149920000Y-93559000D03*
X124460000Y-155529000D03*
X62720000Y-116815000D03*
D55*
X83280000Y-68000000D03*
D54*
X93080000Y-94260000D03*
D55*
X130720000Y-28150000D03*
D54*
X47770000Y-151352600D03*
X35115478Y-151397889D03*
X139210000Y-155529000D03*
X114060000Y-74220000D03*
X70820000Y-151352600D03*
X97520000Y-94260000D03*
X122150000Y-155529000D03*
D55*
X130741968Y-45109428D03*
X104170000Y-45044000D03*
D54*
X97420000Y-155789000D03*
X127450000Y-93559000D03*
X67020000Y-151600000D03*
D55*
X109970000Y-95550000D03*
X68920000Y-60280000D03*
D54*
X159260000Y-155529000D03*
X138620000Y-93559000D03*
D55*
%TO.N,A2*%
X124200000Y-115434600D03*
X76180000Y-109240000D03*
D54*
X64619000Y-78160000D03*
%TO.N,~{INT}*%
X57990000Y-126950000D03*
X59150000Y-70137000D03*
D55*
%TO.N,A13*%
X147070000Y-95570000D03*
X89280000Y-95170000D03*
X53367039Y-74303524D03*
%TO.N,A15*%
X54810000Y-73941561D03*
D54*
X57170000Y-99430000D03*
X89289265Y-176969000D03*
X54210000Y-176691600D03*
%TO.N,A1*%
X71150000Y-80196000D03*
D55*
X76160000Y-111760000D03*
X129080000Y-119253400D03*
D54*
%TO.N,D2*%
X53630000Y-130690000D03*
D55*
X43362000Y-132120000D03*
D54*
X122650000Y-81698000D03*
D55*
X106690000Y-81747000D03*
D54*
X49610298Y-80720000D03*
X54280000Y-116860000D03*
X63190000Y-161790000D03*
D55*
%TO.N,A8*%
X72300000Y-107270000D03*
D54*
X66920000Y-75900911D03*
D55*
X72300000Y-94620000D03*
D54*
%TO.N,A12*%
X52734812Y-74707000D03*
X76960000Y-80597000D03*
X98450000Y-100198400D03*
D55*
%TO.N,~{RESET}*%
X65900000Y-148210000D03*
X86450000Y-92640000D03*
X27090000Y-91541000D03*
X37620000Y-93590000D03*
X152770000Y-153620000D03*
X66180000Y-118460000D03*
D54*
%TO.N,A5*%
X69696596Y-78252461D03*
D55*
X76129583Y-101787401D03*
D54*
%TO.N,/~{SEL_RAM2}*%
X145090000Y-174060000D03*
%TO.N,D3*%
X50400000Y-80319000D03*
D55*
X110647819Y-81346000D03*
D54*
X40960000Y-107680000D03*
X62900000Y-164400000D03*
D55*
X42853600Y-135018759D03*
D54*
X119120000Y-81297000D03*
D55*
%TO.N,D7*%
X112299968Y-79322630D03*
D54*
X57440000Y-71987963D03*
X103910000Y-79394000D03*
X70930000Y-173940000D03*
X54810000Y-119240000D03*
%TO.N,D6*%
X71510000Y-170530000D03*
X106450000Y-79795000D03*
D55*
X112020289Y-79964334D03*
D54*
X56824527Y-72587963D03*
X53610000Y-125170000D03*
%TO.N,+5V*%
X60100000Y-86600000D03*
X85830000Y-86600000D03*
D55*
X59520000Y-67850000D03*
D54*
X155850000Y-154778000D03*
X56950000Y-150602600D03*
X37600000Y-150591600D03*
X102330000Y-170260000D03*
X108870000Y-154990000D03*
X141670000Y-154778000D03*
X20290000Y-77580000D03*
X151680000Y-154778000D03*
X113460000Y-154779000D03*
X47200000Y-86600000D03*
X105790000Y-154990000D03*
X99890000Y-94580000D03*
X20260000Y-84854500D03*
X102131000Y-154990000D03*
X95600000Y-95010000D03*
X86345000Y-151765000D03*
X60190000Y-114290000D03*
X126890000Y-154778000D03*
X148080000Y-94358000D03*
%TO.N,A4*%
X84680000Y-110460400D03*
X65354101Y-77196629D03*
D55*
X76115000Y-104175000D03*
%TO.N,A0*%
X76220000Y-114330000D03*
D54*
X63888185Y-79273500D03*
D55*
X131050000Y-121793400D03*
D54*
X87260000Y-122630000D03*
D55*
%TO.N,A14*%
X54403591Y-74511500D03*
X107240000Y-97596000D03*
D54*
%TO.N,A9*%
X68309999Y-76324275D03*
D55*
X63867000Y-91730000D03*
X64010000Y-109870000D03*
D54*
%TO.N,D1*%
X48570000Y-81530000D03*
D55*
X105975200Y-82296034D03*
D54*
X125723941Y-82247034D03*
D55*
X42961000Y-123420000D03*
D54*
X49048000Y-98210000D03*
%TO.N,/~{SEL_RAM}*%
X133410000Y-118653400D03*
%TO.N,~{IORQ}*%
X30710000Y-139600000D03*
X77580000Y-136020000D03*
D55*
%TO.N,~{M1}*%
X71560000Y-121895000D03*
D54*
X76340000Y-121895000D03*
D55*
X70310000Y-57330000D03*
%TO.N,PX5*%
X49570000Y-189899000D03*
D54*
%TO.N,/~{ROM_BASIC}*%
X120720000Y-133930000D03*
X134430000Y-134690000D03*
D55*
%TO.N,PX6*%
X48470000Y-192599000D03*
X115090000Y-193051000D03*
%TO.N,CPM*%
X102270000Y-102188400D03*
D54*
%TO.N,Net-(U10-Pad8)*%
X111400000Y-177570000D03*
D55*
%TO.N,PX7*%
X48960000Y-190598000D03*
%TO.N,PX3*%
X47370000Y-189310000D03*
%TO.N,+3V3*%
X60190000Y-55220000D03*
X116590000Y-55242200D03*
X132700000Y-52700000D03*
X132700000Y-31200000D03*
X121850000Y-28930000D03*
D54*
%TO.N,~{FPGA_CS}*%
X82678069Y-170878069D03*
D55*
%TO.N,PA2*%
X37670000Y-128840000D03*
%TO.N,PA0*%
X33410000Y-123550000D03*
%TO.N,PX4*%
X88910000Y-193601000D03*
X47950000Y-193150000D03*
%TO.N,PA4*%
X37120000Y-133559000D03*
%TO.N,Net-(U15-RCLK)*%
X117090000Y-50390000D03*
X133400000Y-50306500D03*
%TO.N,Net-(U15-SRCLK)*%
X133550000Y-49620000D03*
X114570000Y-49780000D03*
%TO.N,Net-(U12-LV8)*%
X152690000Y-70650000D03*
X103910000Y-67620000D03*
%TO.N,Net-(U12-LV3)*%
X155929000Y-55240000D03*
%TO.N,Net-(U19-IOB29A)*%
X131250000Y-66069636D03*
X139600000Y-56580000D03*
%TO.N,Net-(U19-IOB13B)*%
X137870000Y-66730000D03*
X133060000Y-62860000D03*
%TO.N,Net-(U12-LV5)*%
X154977000Y-62580000D03*
X111595000Y-66791091D03*
%TO.N,Net-(U12-LV4)*%
X155379000Y-52920000D03*
%TO.N,Net-(U19-IOB23B)*%
X139920000Y-61680000D03*
X132720000Y-64700000D03*
%TO.N,Net-(U12-LV1)*%
X157030000Y-57820000D03*
%TO.N,Net-(U19-IOB11B)*%
X133200000Y-61100000D03*
X140240000Y-71680000D03*
%TO.N,Net-(U19-IOB33B)*%
X131730000Y-65490000D03*
X139790000Y-59210000D03*
%TO.N,Net-(U19-IOB23A)*%
X132760000Y-63780000D03*
X138830000Y-64900000D03*
%TO.N,Net-(U12-LV7)*%
X106460000Y-67140000D03*
X154057909Y-67350000D03*
%TO.N,Net-(U19-IOB8A)*%
X141950000Y-50300000D03*
%TO.N,Net-(U16-SER)*%
X122480000Y-49230000D03*
X134118425Y-48579637D03*
%TO.N,Net-(U19-IOB13A)*%
X133780000Y-62070000D03*
X139380000Y-69340000D03*
%TO.N,Net-(U12-LV2)*%
X155920000Y-60580000D03*
%TO.N,Net-(U12-LV6)*%
X108990000Y-66791091D03*
X154660000Y-65420000D03*
D54*
%TO.N,Net-(LCD1-RS)*%
X84540000Y-156890000D03*
%TO.N,Net-(LCD1-VO)*%
X89030000Y-150370000D03*
%TO.N,Net-(LCD1-E)*%
X76270000Y-164240000D03*
%TO.N,Net-(LCD1-DB5)*%
X70128000Y-165860000D03*
%TO.N,Net-(LCD1-DB6)*%
X70128000Y-163560000D03*
D55*
%TO.N,PA1*%
X37943787Y-127062117D03*
%TO.N,PA3*%
X34050000Y-129730000D03*
X37861000Y-130330000D03*
%TO.N,PA6*%
X45320000Y-135980000D03*
X33200000Y-139000000D03*
%TO.N,PA5*%
X33910000Y-137340000D03*
D54*
%TO.N,PB2*%
X60940000Y-88150000D03*
%TO.N,PB3*%
X60940000Y-91540000D03*
%TO.N,Net-(U19-IOT8A)*%
X136820000Y-80660000D03*
D55*
%TO.N,~{INT2}*%
X136620000Y-92110000D03*
D54*
X81540000Y-89710000D03*
X81490000Y-74740000D03*
%TO.N,Net-(JP14-A)*%
X104800000Y-136930000D03*
X99200000Y-171500000D03*
X104300000Y-162610000D03*
X129810000Y-172680000D03*
%TO.N,A11*%
X138810700Y-112472400D03*
X144070000Y-112440000D03*
X101100000Y-112180000D03*
D55*
X101080000Y-150421000D03*
X92770000Y-150421000D03*
D54*
X51980527Y-75108000D03*
D55*
X101420000Y-89080000D03*
D54*
%TO.N,Net-(JP3-C)*%
X123490000Y-159100000D03*
%TO.N,~{RFSH}*%
X68625157Y-141540000D03*
X21460000Y-144440000D03*
%TO.N,~{BUSRQ}*%
X69397559Y-141186468D03*
X22150000Y-144030000D03*
%TO.N,~{BUSAK}*%
X21970000Y-128220000D03*
%TO.N,~{WAIT}*%
X69710000Y-140450000D03*
X20980000Y-143430000D03*
D55*
%TO.N,/kraft80V2-ios/CKFF*%
X57550000Y-100330000D03*
X58060000Y-89520000D03*
X121035400Y-165250000D03*
X122580000Y-92890000D03*
D54*
%TO.N,/kraft80V2-ios/CKLED*%
X114671000Y-140100000D03*
%TO.N,/kraft80V2-ios/CKPSHB*%
X125620000Y-153490000D03*
%TO.N,/kraft80V2-ios/~{CS1}*%
X130290000Y-164000000D03*
X116480000Y-164000000D03*
D55*
%TO.N,Net-(JP11-C)*%
X87520000Y-158980000D03*
D54*
%TO.N,/kraft80V2-ios/~{CS0}*%
X87880000Y-166360000D03*
X130420000Y-166440000D03*
X118120000Y-166590000D03*
D55*
%TO.N,/kraft80V2-fpga/~{DISK_CS}*%
X140786091Y-26393909D03*
X141341000Y-64180000D03*
%TO.N,/kraft80V2-fpga/DAT_KBD*%
X61480000Y-38940000D03*
X71470000Y-39510000D03*
%TO.N,/kraft80V2-fpga/CK_KBD*%
X92200000Y-55942200D03*
X59720000Y-35251000D03*
X59490000Y-55880000D03*
D54*
%TO.N,/kraft80V2-ios/~{CS4}*%
X116370000Y-159510000D03*
X97650000Y-159190000D03*
X97650000Y-171220000D03*
%TO.N,/kraft80V2-ios/~{DISP_CS}*%
X115190000Y-173990000D03*
%TO.N,/kraft80V2-ios/~{CS2}*%
X85530000Y-152619000D03*
X120818202Y-152400000D03*
D55*
%TO.N,Net-(U17-TXD)*%
X53370000Y-66190000D03*
%TO.N,Net-(U17-~{CTS})*%
X139800000Y-49210000D03*
%TO.N,Net-(U17-RXD)*%
X141891000Y-45226500D03*
D54*
%TO.N,Net-(U19-IOT12B)*%
X137910000Y-85330000D03*
%TO.N,Net-(U19-IOT12A)*%
X137420000Y-83170000D03*
%TO.N,Net-(R42-Pad1)*%
X132239000Y-79019000D03*
%TO.N,Net-(JP18-C)*%
X100990000Y-111017600D03*
%TO.N,Net-(U3-O2)*%
X101570000Y-158395600D03*
%TO.N,/~{SEL_ROM}*%
X101700000Y-119914600D03*
%TO.N,Net-(JP17-C)*%
X89788881Y-162921119D03*
%TO.N,Net-(JP16-C)*%
X91370000Y-173880000D03*
X102900000Y-174690000D03*
%TD*%
D56*
%TO.N,~{INT2}*%
X141586400Y-162636600D02*
X140480000Y-161530200D01*
X140480000Y-161530200D02*
X140480000Y-150700000D01*
X140480000Y-150700000D02*
X140706000Y-150474000D01*
X140706000Y-150474000D02*
X140706000Y-133386000D01*
X138880000Y-131134250D02*
X136620000Y-128874250D01*
X140706000Y-133386000D02*
X138880000Y-131560000D01*
X138880000Y-131560000D02*
X138880000Y-131134250D01*
X136620000Y-128874250D02*
X136620000Y-92110000D01*
D57*
%TO.N,GNDREF*%
X147370000Y-131890000D02*
X148914200Y-131890000D01*
X148914200Y-131890000D02*
X150000200Y-130804000D01*
%TO.N,+5V*%
X148140000Y-139900000D02*
X145340000Y-137100000D01*
X145340000Y-137100000D02*
X145340000Y-97767116D01*
X145340000Y-97767116D02*
X146187116Y-96920000D01*
X146187116Y-96920000D02*
X147520000Y-96920000D01*
X147520000Y-96920000D02*
X148080000Y-96360000D01*
X148080000Y-96360000D02*
X148080000Y-94358000D01*
%TO.N,GNDREF*%
X160060000Y-95680000D02*
X160060000Y-94119000D01*
X160060000Y-94119000D02*
X159500000Y-93559000D01*
%TO.N,+5V*%
X162610000Y-98870000D02*
X162610000Y-95730000D01*
X162610000Y-95730000D02*
X162560000Y-95680000D01*
%TO.N,+3V3*%
X121850000Y-28930000D02*
X119310000Y-26390000D01*
D56*
%TO.N,~{READ}*%
X89646500Y-57750000D02*
X89626500Y-57770000D01*
X89626500Y-57770000D02*
X89626500Y-69276500D01*
X89626500Y-69276500D02*
X90880000Y-70530000D01*
%TO.N,D5*%
X45307600Y-143846550D02*
X48792000Y-140362150D01*
X108990000Y-70592000D02*
X109942500Y-71544500D01*
X116815600Y-126695600D02*
X112140000Y-122020000D01*
X42602600Y-167970600D02*
X45307600Y-165265600D01*
X112140000Y-122020000D02*
X112010000Y-121890000D01*
X48792000Y-133622000D02*
X47290000Y-132120000D01*
X112010000Y-121890000D02*
X112010000Y-99470000D01*
X54650000Y-120630000D02*
X54650000Y-132646000D01*
X55720000Y-101242100D02*
X55720000Y-105755000D01*
X55677521Y-119602479D02*
X54650000Y-120630000D01*
X48792000Y-140362150D02*
X48792000Y-133622000D01*
X109942500Y-79137200D02*
X109072035Y-80007665D01*
X54650000Y-132646000D02*
X54140000Y-133156000D01*
X119488400Y-126695600D02*
X116815600Y-126695600D01*
X45307600Y-165265600D02*
X45307600Y-143846550D01*
X55955833Y-73187963D02*
X55761000Y-73382796D01*
X55677521Y-110121008D02*
X55677521Y-119602479D01*
X55720000Y-105755000D02*
X52280000Y-109195000D01*
X112010000Y-80912950D02*
X111803826Y-80706776D01*
X55761000Y-73382796D02*
X55761000Y-101201100D01*
X109942500Y-71544500D02*
X109942500Y-79137200D01*
X55761000Y-101201100D02*
X55720000Y-101242100D01*
X112010000Y-99470000D02*
X112010000Y-80912950D01*
%TO.N,D4*%
X48391000Y-140196050D02*
X48391000Y-135761000D01*
X111561000Y-81241768D02*
X111086566Y-80767334D01*
X55161000Y-73278764D02*
X55360000Y-73477764D01*
X111520000Y-122730000D02*
X111561000Y-122689000D01*
X44906600Y-143680450D02*
X48391000Y-140196050D01*
X57450000Y-104270000D02*
X57450000Y-108877100D01*
X42602600Y-165430600D02*
X44906600Y-163126600D01*
X55360000Y-73477764D02*
X55360000Y-101035000D01*
X55360000Y-101035000D02*
X52280000Y-104115000D01*
X57450000Y-108877100D02*
X56679521Y-109647579D01*
X111086566Y-80767334D02*
X111080347Y-80767334D01*
X111080347Y-77406703D02*
X112161000Y-76326050D01*
X57600000Y-104120000D02*
X57450000Y-104270000D01*
X56679521Y-109647579D02*
X56679521Y-120322479D01*
X71730000Y-166550000D02*
X71730000Y-168726200D01*
X119488400Y-129235600D02*
X118025600Y-129235600D01*
X71730000Y-168726200D02*
X73387400Y-170383600D01*
X55452000Y-133629000D02*
X54681000Y-134400000D01*
X112161000Y-71223000D02*
X111530000Y-70592000D01*
X54681000Y-134400000D02*
X54681000Y-135781000D01*
X44906600Y-163126600D02*
X44906600Y-143680450D01*
X55452000Y-121550000D02*
X55452000Y-133629000D01*
X56679521Y-120322479D02*
X55452000Y-121550000D01*
X118025600Y-129235600D02*
X111520000Y-122730000D01*
X111561000Y-122689000D02*
X111561000Y-81241768D01*
X48391000Y-135761000D02*
X47290000Y-134660000D01*
X111080347Y-80767334D02*
X111080347Y-77406703D01*
X54681000Y-135781000D02*
X54880000Y-135980000D01*
X112161000Y-76326050D02*
X112161000Y-71223000D01*
%TO.N,A10*%
X67708999Y-75771001D02*
X67708999Y-76348999D01*
X67430000Y-88785000D02*
X67520000Y-88875000D01*
X67708999Y-76348999D02*
X67710000Y-76350000D01*
X68157127Y-75322873D02*
X67708999Y-75771001D01*
X72851000Y-116939000D02*
X72851000Y-89711000D01*
X72851000Y-89711000D02*
X72300000Y-89160000D01*
X72460000Y-117330000D02*
X72851000Y-116939000D01*
X67710000Y-87695050D02*
X67430000Y-87975050D01*
X67430000Y-87975050D02*
X67430000Y-88785000D01*
X67710000Y-76350000D02*
X67710000Y-87695050D01*
%TO.N,~{MREQ}*%
X41810000Y-132959000D02*
X41810000Y-70722240D01*
X39718760Y-68631000D02*
X29221000Y-68631000D01*
X59530000Y-134970000D02*
X59510000Y-134950000D01*
X111400000Y-168437000D02*
X113417800Y-170454800D01*
X111400000Y-161690000D02*
X111400000Y-168437000D01*
X93760000Y-163803200D02*
X93760000Y-161395800D01*
X29221000Y-68631000D02*
X28010000Y-67420000D01*
X92386600Y-165176600D02*
X93760000Y-163803200D01*
X59530000Y-159950000D02*
X59530000Y-134970000D01*
X41810000Y-70722240D02*
X39718760Y-68631000D01*
%TO.N,PA7*%
X44820000Y-136259232D02*
X44769000Y-136208232D01*
X44820000Y-135700768D02*
X44820000Y-128320000D01*
X45870000Y-141030000D02*
X45870000Y-137570000D01*
X44769000Y-135751768D02*
X44820000Y-135700768D01*
X44820000Y-128320000D02*
X45870000Y-127270000D01*
X44820000Y-136520000D02*
X44820000Y-136259232D01*
X45870000Y-120840000D02*
X47290000Y-119420000D01*
X45870000Y-127270000D02*
X45870000Y-120840000D01*
X45870000Y-137570000D02*
X44820000Y-136520000D01*
X44769000Y-136208232D02*
X44769000Y-135751768D01*
%TO.N,A7*%
X69030000Y-94985000D02*
X67520000Y-96495000D01*
X82459000Y-164537800D02*
X82459000Y-106150800D01*
X79178600Y-167818200D02*
X82459000Y-164537800D01*
X82459000Y-106150800D02*
X80067600Y-103759400D01*
X76240000Y-98280000D02*
X77449100Y-99489100D01*
X76260000Y-96470000D02*
X76240000Y-96490000D01*
X69030000Y-77760586D02*
X69030000Y-94985000D01*
X77449100Y-101140900D02*
X80067600Y-103759400D01*
X77449100Y-99489100D02*
X77449100Y-101140900D01*
X76240000Y-96490000D02*
X76240000Y-98280000D01*
X68760000Y-77490586D02*
X69030000Y-77760586D01*
%TO.N,CLOCK*%
X37703400Y-165464400D02*
X38804400Y-164363400D01*
X57389000Y-146661000D02*
X56310000Y-147740000D01*
X51050000Y-100345000D02*
X52280000Y-101575000D01*
X38804400Y-164363400D02*
X38804400Y-149815600D01*
X58201000Y-102176000D02*
X57600000Y-101575000D01*
X80740000Y-70557000D02*
X80740000Y-83559000D01*
X51050000Y-100345000D02*
X51050000Y-84930000D01*
X57389000Y-128290000D02*
X57389000Y-109505200D01*
X57389000Y-109505200D02*
X58201000Y-108693200D01*
X38804400Y-149815600D02*
X39850000Y-148770000D01*
X39850000Y-148770000D02*
X40165000Y-148770000D01*
X80740000Y-83559000D02*
X80480000Y-83819000D01*
X58201000Y-108693200D02*
X58201000Y-102176000D01*
X57389000Y-128290000D02*
X57389000Y-146661000D01*
%TO.N,~{READ}*%
X126854400Y-162763600D02*
X128470000Y-161148000D01*
X90900000Y-113870000D02*
X90990000Y-113960000D01*
X128470000Y-161148000D02*
X128470000Y-114173400D01*
X89646500Y-69303500D02*
X90900000Y-70557000D01*
X90900000Y-70557000D02*
X90900000Y-113870000D01*
X90990000Y-113960000D02*
X90990000Y-138850000D01*
X90990000Y-138850000D02*
X90700000Y-139140000D01*
%TO.N,A3*%
X77379100Y-109509100D02*
X76210000Y-108340000D01*
X120876400Y-87714600D02*
X120876400Y-112803600D01*
X120876400Y-112803600D02*
X120850000Y-112830000D01*
X70421000Y-103754000D02*
X67520000Y-106655000D01*
X80067600Y-113919400D02*
X77379100Y-111230900D01*
X70421000Y-79226529D02*
X70421000Y-103754000D01*
X77379100Y-111230900D02*
X77379100Y-109509100D01*
X76210000Y-108340000D02*
X76210000Y-106700000D01*
%TO.N,A6*%
X75163000Y-151225600D02*
X75163000Y-100117000D01*
X65819000Y-79530000D02*
X65819000Y-97334000D01*
X78570000Y-153760000D02*
X78570000Y-153462600D01*
X76040000Y-152102600D02*
X75163000Y-151225600D01*
X78570000Y-153462600D02*
X78550000Y-153442600D01*
X77409100Y-103640900D02*
X80067600Y-106299400D01*
X75163000Y-100117000D02*
X76220000Y-99060000D01*
X66709000Y-77923373D02*
X66709000Y-78640000D01*
X76206091Y-99073909D02*
X76206091Y-101086091D01*
X76220000Y-99060000D02*
X76206091Y-99073909D01*
X76206091Y-101086091D02*
X77409100Y-102289100D01*
X66709000Y-78640000D02*
X65819000Y-79530000D01*
X77409100Y-102289100D02*
X77409100Y-103640900D01*
X65819000Y-97334000D02*
X67520000Y-99035000D01*
%TO.N,~{WRITE}*%
X141256200Y-101473400D02*
X144070000Y-104287200D01*
X119410000Y-137772000D02*
X121640000Y-140002000D01*
X120485400Y-160210000D02*
X120485400Y-161474600D01*
X121640000Y-154050000D02*
X120485400Y-155204600D01*
X119410000Y-135610000D02*
X119410000Y-137772000D01*
X121640000Y-140002000D02*
X121640000Y-154050000D01*
X121860000Y-134580000D02*
X121860000Y-101740000D01*
X92153500Y-69270500D02*
X92153500Y-57266500D01*
X120485400Y-169132600D02*
X120485400Y-161474600D01*
X93440000Y-70557000D02*
X92153500Y-69270500D01*
X144070000Y-104287200D02*
X144070000Y-109840000D01*
X122001000Y-101599000D02*
X122001000Y-72911000D01*
X121860000Y-101740000D02*
X121880000Y-101720000D01*
X119234400Y-160223600D02*
X120471800Y-160223600D01*
X119234400Y-170383600D02*
X120485400Y-169132600D01*
X92153500Y-57266500D02*
X92280000Y-57140000D01*
X120471800Y-160223600D02*
X120485400Y-160210000D01*
X120485400Y-155204600D02*
X120485400Y-160210000D01*
X121880000Y-101720000D02*
X122001000Y-101599000D01*
X120830000Y-135610000D02*
X121860000Y-134580000D01*
X119410000Y-135610000D02*
X120830000Y-135610000D01*
X122001000Y-72911000D02*
X121410000Y-72320000D01*
%TO.N,D0*%
X51179000Y-117471900D02*
X51179000Y-120794000D01*
X49449000Y-83984761D02*
X49648000Y-84183761D01*
X38170000Y-94385000D02*
X39570000Y-95785000D01*
X41501600Y-154169600D02*
X41501600Y-134117343D01*
X49648000Y-115940900D02*
X51179000Y-117471900D01*
X49449000Y-82366262D02*
X49449000Y-83984761D01*
X49448000Y-82365262D02*
X49449000Y-82366262D01*
X49449000Y-81931000D02*
X49448000Y-81932000D01*
X38170000Y-82820000D02*
X38170000Y-94385000D01*
X126770000Y-70592000D02*
X126510000Y-70852000D01*
X104248400Y-124155600D02*
X105360000Y-123044000D01*
X41501600Y-134117343D02*
X42411000Y-133207943D01*
X49448000Y-81932000D02*
X49448000Y-82365262D01*
X105360000Y-123044000D02*
X105360000Y-82630000D01*
X49648000Y-84183761D02*
X49648000Y-104110000D01*
X42602600Y-155270600D02*
X41501600Y-154169600D01*
X42411000Y-120910000D02*
X42360000Y-120859000D01*
X51179000Y-120794000D02*
X52280000Y-121895000D01*
X126510000Y-70852000D02*
X126510000Y-82670000D01*
X42411000Y-133207943D02*
X42411000Y-120910000D01*
X49648000Y-104110000D02*
X49648000Y-115940900D01*
X38200000Y-82790000D02*
X38170000Y-82820000D01*
D57*
%TO.N,GNDREF*%
X92880000Y-131540000D02*
X93080000Y-131340000D01*
X126016200Y-131953400D02*
X127500000Y-130469600D01*
X30083400Y-175624400D02*
X35160000Y-170547800D01*
X44970000Y-85880000D02*
X44970000Y-89590000D01*
X144765000Y-155524000D02*
X144770000Y-155529000D01*
X67020000Y-174211000D02*
X67020000Y-151600000D01*
X159990000Y-173295600D02*
X157664600Y-175621000D01*
X94510000Y-165640000D02*
X94510000Y-173133200D01*
X111070000Y-155770000D02*
X111040000Y-155740000D01*
X79178600Y-175438200D02*
X83789000Y-170827800D01*
X134640000Y-185055176D02*
X133966400Y-184381576D01*
X127500000Y-93609000D02*
X127450000Y-93559000D01*
X83060000Y-179319600D02*
X79178600Y-175438200D01*
X138660000Y-93599000D02*
X138620000Y-93559000D01*
X114070000Y-70592000D02*
X114070000Y-59035000D01*
X159260000Y-155929000D02*
X159990000Y-156659000D01*
X97440000Y-94340000D02*
X97520000Y-94260000D01*
X130550000Y-57600000D02*
X132000000Y-56150000D01*
X135217400Y-174085600D02*
X135217400Y-155556400D01*
X97440000Y-153710000D02*
X97440000Y-94340000D01*
X93624200Y-167716600D02*
X93637600Y-167730000D01*
X46940000Y-175430000D02*
X46940000Y-152182600D01*
X130550000Y-66250000D02*
X130550000Y-57600000D01*
X92386600Y-167716600D02*
X93624200Y-167716600D01*
X132000000Y-56150000D02*
X132000000Y-52060000D01*
X93637600Y-167730000D02*
X94510000Y-166857600D01*
X127500000Y-130469600D02*
X127500000Y-93609000D01*
X135217400Y-155556400D02*
X135190000Y-155529000D01*
X44970000Y-89590000D02*
X44670000Y-89890000D01*
X150000200Y-130140000D02*
X150000200Y-93639200D01*
X150000200Y-130804000D02*
X150000200Y-130140000D01*
X44190000Y-139240000D02*
X43860000Y-139570000D01*
X77980000Y-181500000D02*
X77980000Y-189920000D01*
X114070000Y-70592000D02*
X114070000Y-74210000D01*
X107048800Y-155857800D02*
X106980000Y-155789000D01*
X114070000Y-74210000D02*
X114060000Y-74220000D01*
X93080000Y-131340000D02*
X93080000Y-94260000D01*
X46940000Y-152182600D02*
X47770000Y-151352600D01*
X131136200Y-74245400D02*
X130550000Y-73659200D01*
X83789000Y-154811000D02*
X84280000Y-154320000D01*
X69800000Y-36470000D02*
X68920000Y-37350000D01*
X62720000Y-116815000D02*
X62720000Y-85850000D01*
X111070000Y-156960000D02*
X111070000Y-155770000D01*
X83260000Y-32940000D02*
X83250000Y-32930000D01*
X150000200Y-93639200D02*
X149920000Y-93559000D01*
X122150000Y-161790000D02*
X122150000Y-155529000D01*
X84050000Y-151400000D02*
X84050000Y-154090000D01*
X104200000Y-45074000D02*
X104170000Y-45044000D01*
X31690000Y-150730000D02*
X31690000Y-146840000D01*
X68549000Y-29331000D02*
X69730000Y-28150000D01*
X62730000Y-82330000D02*
X62730000Y-85820000D01*
X130730000Y-33790000D02*
X130730000Y-28160000D01*
X44820000Y-113630000D02*
X44190000Y-114260000D01*
X83060000Y-181500000D02*
X83060000Y-179319600D01*
X44670000Y-108460000D02*
X44670000Y-113480000D01*
X49580000Y-60970000D02*
X49580000Y-40460000D01*
X69800000Y-36470000D02*
X68549000Y-35219000D01*
X130550000Y-73659200D02*
X130550000Y-66250000D01*
X111330000Y-156910000D02*
X111360000Y-156940000D01*
X159180000Y-152150000D02*
X159180000Y-140960000D01*
X83250000Y-34580000D02*
X83250000Y-32930000D01*
X104200000Y-51420000D02*
X104200000Y-45074000D01*
X109970000Y-95550000D02*
X109970000Y-93608000D01*
X44670000Y-89890000D02*
X44670000Y-108460000D01*
X18810000Y-75060000D02*
X18810000Y-80140000D01*
X68549000Y-35219000D02*
X68549000Y-29331000D01*
X114360000Y-70882000D02*
X114070000Y-70592000D01*
X83280000Y-70557000D02*
X83280000Y-74210000D01*
X159260000Y-155289000D02*
X159180000Y-155209000D01*
X93100000Y-94240000D02*
X93100000Y-85840000D01*
X97440000Y-155769000D02*
X97420000Y-155789000D01*
X133150000Y-191750000D02*
X134640000Y-190260000D01*
X148140000Y-141900000D02*
X149549199Y-140490801D01*
X109970000Y-131775600D02*
X109970000Y-95550000D01*
X47800000Y-149500000D02*
X47800000Y-151322600D01*
X62720000Y-85850000D02*
X62710000Y-85840000D01*
X35140000Y-157150000D02*
X35160000Y-157170000D01*
X133966400Y-175336600D02*
X135217400Y-174085600D01*
X159260000Y-155529000D02*
X159260000Y-155929000D01*
X133966400Y-175336600D02*
X133966400Y-184381576D01*
X35160000Y-157170000D02*
X35160000Y-151442411D01*
X70816600Y-149400000D02*
X70816600Y-151349200D01*
X19760000Y-184100000D02*
X19760000Y-179020000D01*
X83789000Y-170827800D02*
X83789000Y-154811000D01*
X35160000Y-170547800D02*
X35160000Y-157170000D01*
X94510000Y-165640000D02*
X94510000Y-156689000D01*
X119234400Y-175463600D02*
X122150000Y-172548000D01*
X31690000Y-146840000D02*
X31730000Y-146800000D01*
X122150000Y-172548000D02*
X122150000Y-161790000D01*
X77980000Y-189920000D02*
X76150000Y-191750000D01*
X134640000Y-190260000D02*
X134640000Y-185055176D01*
X32020000Y-157150000D02*
X35140000Y-157150000D01*
X154410000Y-152140000D02*
X154410000Y-155409000D01*
X68920000Y-42290000D02*
X68920000Y-46910000D01*
X138660000Y-95730000D02*
X138660000Y-93599000D01*
X124490000Y-155559000D02*
X124460000Y-155529000D01*
X124490000Y-156940000D02*
X124490000Y-155559000D01*
X25100000Y-81810000D02*
X25100000Y-93340000D01*
X130730000Y-51490000D02*
X130730000Y-33790000D01*
X65767400Y-175463600D02*
X67020000Y-174211000D01*
X154410000Y-155409000D02*
X154290000Y-155529000D01*
X85100000Y-32940000D02*
X83260000Y-32940000D01*
X83280000Y-70557000D02*
X83280000Y-68000000D01*
X130730000Y-28160000D02*
X130720000Y-28150000D01*
X47800000Y-151322600D02*
X47770000Y-151352600D01*
X68920000Y-37350000D02*
X68920000Y-42290000D01*
X93080000Y-94260000D02*
X93100000Y-94240000D01*
X92386600Y-175336600D02*
X94550000Y-173173200D01*
X44190000Y-114260000D02*
X44190000Y-139240000D01*
X116960000Y-95560000D02*
X116960000Y-93559000D01*
X94510000Y-166857600D02*
X94510000Y-165640000D01*
X107048800Y-174283800D02*
X107048800Y-155857800D01*
X94510000Y-156689000D02*
X93610000Y-155789000D01*
X62730000Y-85820000D02*
X62710000Y-85840000D01*
X83280000Y-75920000D02*
X83280000Y-85830000D01*
X132000000Y-52060000D02*
X131390000Y-51450000D01*
X150000200Y-130140000D02*
X150000200Y-140039800D01*
X68920000Y-46910000D02*
X68920000Y-60280000D01*
X144765000Y-152250000D02*
X144765000Y-155524000D01*
X97440000Y-153710000D02*
X97440000Y-155769000D01*
X139210000Y-156810000D02*
X139210000Y-155529000D01*
X44670000Y-113480000D02*
X44820000Y-113630000D01*
X159260000Y-155529000D02*
X159260000Y-155289000D01*
X83250000Y-32930000D02*
X83250000Y-28250000D01*
X159990000Y-156659000D02*
X159990000Y-173295600D01*
X83280000Y-74210000D02*
X83280000Y-75920000D01*
X84050000Y-154090000D02*
X84280000Y-154320000D01*
X35160000Y-151442411D02*
X35115478Y-151397889D01*
X150000200Y-140039800D02*
X149549199Y-140490801D01*
X83250000Y-46295000D02*
X83250000Y-34580000D01*
X83250000Y-28250000D02*
X83150000Y-28150000D01*
X83280000Y-85830000D02*
X83290000Y-85840000D01*
X25100000Y-93340000D02*
X25100000Y-98420000D01*
X70816600Y-151349200D02*
X70820000Y-151352600D01*
X94510000Y-173133200D02*
X94550000Y-173173200D01*
X23400000Y-80110000D02*
X25100000Y-81810000D01*
X105797800Y-175534800D02*
X107048800Y-174283800D01*
X159180000Y-155209000D02*
X159180000Y-152150000D01*
X83280000Y-68000000D02*
X83280000Y-59000000D01*
D56*
%TO.N,A2*%
X80979400Y-116459400D02*
X80067600Y-116459400D01*
X64990000Y-106665000D02*
X67520000Y-109195000D01*
X77350000Y-113741800D02*
X77350000Y-111870000D01*
X64619000Y-78684430D02*
X64818000Y-78883430D01*
X80067600Y-116459400D02*
X77350000Y-113741800D01*
X64818000Y-101980100D02*
X64990000Y-102152100D01*
X64818000Y-78883430D02*
X64818000Y-101980100D01*
X81966000Y-117446000D02*
X80979400Y-116459400D01*
X81966000Y-152964000D02*
X81966000Y-117446000D01*
X77350000Y-111870000D02*
X76180000Y-110700000D01*
X64990000Y-102152100D02*
X64990000Y-106665000D01*
X124280000Y-115354600D02*
X124200000Y-115434600D01*
X76180000Y-110700000D02*
X76180000Y-109240000D01*
X124280000Y-87740000D02*
X124280000Y-115354600D01*
X81170000Y-153760000D02*
X81966000Y-152964000D01*
X64619000Y-78160000D02*
X64619000Y-78684430D01*
%TO.N,~{INT}*%
X57990000Y-126950000D02*
X57990000Y-124970000D01*
X58750000Y-70537000D02*
X59150000Y-70137000D01*
X58750000Y-124210000D02*
X58750000Y-70537000D01*
X57990000Y-124970000D02*
X58750000Y-124210000D01*
%TO.N,A13*%
X90100000Y-161320000D02*
X89630000Y-161790000D01*
X54151591Y-75088076D02*
X54151591Y-92083409D01*
X90100000Y-95990000D02*
X89280000Y-95170000D01*
X90100000Y-153740000D02*
X90100000Y-95990000D01*
X53367039Y-74303524D02*
X54151591Y-75088076D01*
X90100000Y-153740000D02*
X90100000Y-161320000D01*
X54151591Y-92083409D02*
X52280000Y-93955000D01*
D57*
%TO.N,Net-(Q1-B)*%
X74195000Y-42187200D02*
X75543800Y-43536000D01*
X75543800Y-43536000D02*
X75543800Y-46901200D01*
D56*
%TO.N,A15*%
X89630000Y-176450000D02*
X89630000Y-164390000D01*
X56278521Y-119812479D02*
X56278521Y-109481479D01*
X57000000Y-99600000D02*
X57170000Y-99430000D01*
X54953591Y-74085152D02*
X54953591Y-96361409D01*
X89289265Y-176969000D02*
X89289265Y-176790735D01*
X55051000Y-121040000D02*
X56278521Y-119812479D01*
X57000000Y-108760000D02*
X57000000Y-99600000D01*
X56278521Y-109481479D02*
X57000000Y-108760000D01*
X55051000Y-133169000D02*
X55051000Y-121040000D01*
X54810000Y-73941561D02*
X54953591Y-74085152D01*
X54953591Y-96361409D02*
X52280000Y-99035000D01*
X54280000Y-164350000D02*
X54280000Y-133940000D01*
X54280000Y-133940000D02*
X55051000Y-133169000D01*
X89289265Y-176790735D02*
X89630000Y-176450000D01*
X54280000Y-164350000D02*
X54280000Y-176621600D01*
X54280000Y-176621600D02*
X54210000Y-176691600D01*
%TO.N,A1*%
X81368600Y-149771400D02*
X81368600Y-120300400D01*
X76160000Y-113170000D02*
X76160000Y-111760000D01*
X71021000Y-108234000D02*
X67520000Y-111735000D01*
X127709000Y-87740000D02*
X129080000Y-89111000D01*
X71150000Y-80196000D02*
X71021000Y-80325000D01*
X77290000Y-116221800D02*
X77290000Y-114300000D01*
X81160000Y-149980000D02*
X81368600Y-149771400D01*
X129080000Y-89111000D02*
X129080000Y-119253400D01*
X71021000Y-80325000D02*
X71021000Y-108234000D01*
X81368600Y-120300400D02*
X80067600Y-118999400D01*
X77290000Y-114300000D02*
X76160000Y-113170000D01*
X80067600Y-118999400D02*
X77290000Y-116221800D01*
%TO.N,D2*%
X106690000Y-126794000D02*
X104248400Y-129235600D01*
X63680000Y-162280000D02*
X63190000Y-161790000D01*
X42303600Y-149880000D02*
X42303600Y-134786100D01*
X122650000Y-71552000D02*
X122650000Y-81698000D01*
X44104600Y-151681000D02*
X42303600Y-149880000D01*
X63680000Y-165756200D02*
X63680000Y-162280000D01*
X106690000Y-81747000D02*
X106690000Y-126794000D01*
X42303600Y-134786100D02*
X43362000Y-133727700D01*
X54210000Y-130110000D02*
X53630000Y-130690000D01*
X52280000Y-116815000D02*
X50049000Y-114584000D01*
X54210000Y-118280000D02*
X54210000Y-130110000D01*
X121690000Y-70592000D02*
X122650000Y-71552000D01*
X50049000Y-81019000D02*
X49750000Y-80720000D01*
X54200000Y-118270000D02*
X54210000Y-118280000D01*
X50049000Y-114584000D02*
X50049000Y-81019000D01*
X43362000Y-133727700D02*
X43362000Y-132120000D01*
X65767400Y-167843600D02*
X63680000Y-165756200D01*
X49750000Y-80720000D02*
X49610298Y-80720000D01*
X54280000Y-116860000D02*
X54200000Y-116940000D01*
X54200000Y-116940000D02*
X54200000Y-118270000D01*
X42602600Y-160350600D02*
X44104600Y-158848600D01*
X44104600Y-158848600D02*
X44104600Y-151681000D01*
%TO.N,A8*%
X66400000Y-92690000D02*
X66400000Y-88417950D01*
X66483975Y-88333975D02*
X66503975Y-88333975D01*
X67309000Y-76289911D02*
X67309000Y-87528950D01*
X66400000Y-88417950D02*
X66483975Y-88333975D01*
X67520000Y-93810000D02*
X66400000Y-92690000D01*
X66920000Y-75900911D02*
X67309000Y-76289911D01*
X72300000Y-107270000D02*
X72300000Y-94620000D01*
X67309000Y-87528950D02*
X66503975Y-88333975D01*
X67520000Y-93955000D02*
X67520000Y-93810000D01*
%TO.N,A12*%
X76810000Y-95800000D02*
X77840000Y-96830000D01*
X102940000Y-176010000D02*
X102512400Y-176437600D01*
X80067600Y-101157600D02*
X80067600Y-101219400D01*
X52734812Y-75498121D02*
X53750591Y-76513900D01*
X98250000Y-175330000D02*
X98250000Y-154457050D01*
X76960000Y-80597000D02*
X76810000Y-80747000D01*
X52734812Y-74707000D02*
X52734812Y-75498121D01*
X99357600Y-176437600D02*
X98250000Y-175330000D01*
X53750591Y-89944409D02*
X52280000Y-91415000D01*
X77840000Y-98930000D02*
X80067600Y-101157600D01*
X98250000Y-154457050D02*
X98541000Y-154166050D01*
X98541000Y-154166050D02*
X98541000Y-100289400D01*
X77840000Y-96830000D02*
X77840000Y-98930000D01*
X98541000Y-100289400D02*
X98450000Y-100198400D01*
X102512400Y-176437600D02*
X99357600Y-176437600D01*
X76810000Y-80747000D02*
X76810000Y-95800000D01*
X53750591Y-76513900D02*
X53750591Y-89944409D01*
%TO.N,~{RESET}*%
X27090000Y-91541000D02*
X26770000Y-91221000D01*
X39670000Y-116880000D02*
X37769000Y-114979000D01*
X37769000Y-114979000D02*
X37769000Y-93739000D01*
X26770000Y-78820000D02*
X28010000Y-77580000D01*
X65767400Y-148342600D02*
X65767400Y-152603600D01*
X152770000Y-156802200D02*
X152770000Y-153620000D01*
X65900000Y-126055000D02*
X67520000Y-124435000D01*
D57*
X154210200Y-164546600D02*
X154210200Y-158242400D01*
D56*
X88360000Y-90730000D02*
X86450000Y-92640000D01*
D57*
X157664600Y-168001000D02*
X154210200Y-164546600D01*
D56*
X66180000Y-123095000D02*
X67520000Y-124435000D01*
X66180000Y-118460000D02*
X66180000Y-123095000D01*
X26770000Y-91221000D02*
X26770000Y-78820000D01*
X88360000Y-70557000D02*
X88360000Y-90730000D01*
X65900000Y-148210000D02*
X65767400Y-148342600D01*
X37769000Y-93739000D02*
X37620000Y-93590000D01*
X65900000Y-148210000D02*
X65900000Y-126055000D01*
X154210200Y-158242400D02*
X152770000Y-156802200D01*
%TO.N,A5*%
X76129583Y-101787401D02*
X76129583Y-103289583D01*
X78560000Y-121790000D02*
X75564000Y-118794000D01*
X69821000Y-78376865D02*
X69821000Y-99274000D01*
X69696596Y-78252461D02*
X69821000Y-78376865D01*
X75564000Y-102352984D02*
X76129583Y-101787401D01*
X77379100Y-104539100D02*
X77379100Y-106150900D01*
X77379100Y-106150900D02*
X80067600Y-108839400D01*
X75564000Y-118794000D02*
X75564000Y-102352984D01*
X78560000Y-149980000D02*
X78560000Y-121790000D01*
X69821000Y-99274000D02*
X67520000Y-101575000D01*
X76129583Y-103289583D02*
X77379100Y-104539100D01*
%TO.N,/~{SEL_RAM2}*%
X146470000Y-146160000D02*
X146470000Y-172680000D01*
X146470000Y-172680000D02*
X145090000Y-174060000D01*
%TO.N,Net-(J3-Pin_2)*%
X76813800Y-46901200D02*
X76813800Y-42266000D01*
X76813800Y-42266000D02*
X74195000Y-39647200D01*
%TO.N,D3*%
X119120000Y-81297000D02*
X119120000Y-74442950D01*
X111040000Y-123327200D02*
X119488400Y-131775600D01*
X40980000Y-133350000D02*
X40980000Y-107700000D01*
X110647819Y-81346000D02*
X110886000Y-81346000D01*
X52280000Y-106655000D02*
X50450000Y-104825000D01*
X110886000Y-81346000D02*
X111040000Y-81500000D01*
X63080000Y-167696200D02*
X65767400Y-170383600D01*
X62900000Y-164400000D02*
X63080000Y-164580000D01*
X63080000Y-164580000D02*
X63080000Y-167696200D01*
X50450000Y-80369000D02*
X50400000Y-80319000D01*
X119150000Y-74412950D02*
X119150000Y-70592000D01*
X40980000Y-107700000D02*
X40960000Y-107680000D01*
X44505600Y-160987600D02*
X44505600Y-141065543D01*
X42853600Y-139413543D02*
X42853600Y-135018759D01*
X50450000Y-104825000D02*
X50450000Y-80369000D01*
X42602600Y-162890600D02*
X44505600Y-160987600D01*
X44505600Y-141065543D02*
X42853600Y-139413543D01*
X119120000Y-74442950D02*
X119150000Y-74412950D01*
X111040000Y-81500000D02*
X111040000Y-123327200D01*
X39670000Y-134660000D02*
X40980000Y-133350000D01*
%TO.N,D7*%
X70728000Y-173738000D02*
X70728000Y-160343000D01*
X56569000Y-99181057D02*
X56569000Y-99678943D01*
X46109600Y-144178750D02*
X49594000Y-140694350D01*
X70728000Y-160343000D02*
X73387400Y-157683600D01*
X49594000Y-140694350D02*
X49594000Y-131392000D01*
X112299968Y-79464781D02*
X112299968Y-79322630D01*
X57440000Y-71987963D02*
X57440000Y-89674900D01*
X114257600Y-121615600D02*
X112812000Y-120170000D01*
X42602600Y-173050600D02*
X46130000Y-169523200D01*
X48792000Y-123462000D02*
X47290000Y-121960000D01*
X103910000Y-79394000D02*
X103910000Y-70592000D01*
X56569000Y-99678943D02*
X56599000Y-99708943D01*
X56599000Y-99708943D02*
X56599000Y-108351000D01*
X46130000Y-158970000D02*
X46109600Y-158949600D01*
X57370000Y-98829000D02*
X56921057Y-98829000D01*
X112921348Y-80086161D02*
X112299968Y-79464781D01*
X119488400Y-121615600D02*
X114257600Y-121615600D01*
X56921057Y-98829000D02*
X56569000Y-99181057D01*
X112812000Y-120170000D02*
X112921348Y-120060652D01*
X70930000Y-173940000D02*
X70728000Y-173738000D01*
X57440000Y-89674900D02*
X57370000Y-89744900D01*
X57370000Y-89744900D02*
X57370000Y-98829000D01*
X49594000Y-131392000D02*
X48792000Y-130590000D01*
X54920000Y-119130000D02*
X54810000Y-119240000D01*
X46130000Y-169523200D02*
X46130000Y-158970000D01*
X54920000Y-110030000D02*
X54920000Y-119130000D01*
X46109600Y-158949600D02*
X46109600Y-144178750D01*
X56599000Y-108351000D02*
X54920000Y-110030000D01*
X112921348Y-120060652D02*
X112921348Y-80086161D01*
X48792000Y-130590000D02*
X48792000Y-123462000D01*
%TO.N,D6*%
X106450000Y-79795000D02*
X106450000Y-70592000D01*
X56198000Y-101331200D02*
X56121000Y-101408200D01*
X112046064Y-79964334D02*
X112411000Y-80329270D01*
X48391000Y-125601000D02*
X47290000Y-124500000D01*
X112411000Y-120760000D02*
X115806600Y-124155600D01*
X45708600Y-167404600D02*
X45708600Y-144012650D01*
X71510000Y-170530000D02*
X71129000Y-170149000D01*
X56121000Y-107894000D02*
X52280000Y-111735000D01*
X57039000Y-89508800D02*
X56969000Y-89578800D01*
X115806600Y-124155600D02*
X119488400Y-124155600D01*
X45708600Y-144012650D02*
X49193000Y-140528250D01*
X48391000Y-130951000D02*
X48391000Y-125601000D01*
X56969000Y-98213957D02*
X56168000Y-99014957D01*
X53610000Y-125170000D02*
X53610000Y-113065000D01*
X57039000Y-72802436D02*
X57039000Y-89508800D01*
X56969000Y-89578800D02*
X56969000Y-98213957D01*
X56824527Y-72587963D02*
X57039000Y-72802436D01*
X56198000Y-99875043D02*
X56198000Y-101331200D01*
X56168000Y-99845043D02*
X56198000Y-99875043D01*
X112020289Y-79964334D02*
X112046064Y-79964334D01*
X49193000Y-131753000D02*
X48391000Y-130951000D01*
X56121000Y-101408200D02*
X56121000Y-107894000D01*
X42602600Y-170510600D02*
X45708600Y-167404600D01*
X71129000Y-170149000D02*
X71129000Y-162482000D01*
X49193000Y-140528250D02*
X49193000Y-131753000D01*
X53610000Y-113065000D02*
X52280000Y-111735000D01*
X56168000Y-99014957D02*
X56168000Y-99845043D01*
X112411000Y-80329270D02*
X112411000Y-120760000D01*
X71129000Y-162482000D02*
X73387400Y-160223600D01*
D57*
%TO.N,+5V*%
X37703400Y-157213400D02*
X37660000Y-157170000D01*
X165750000Y-156890000D02*
X165284600Y-157355400D01*
X36452400Y-161635400D02*
X36452400Y-166753400D01*
X100006600Y-154033400D02*
X100410000Y-153630000D01*
D56*
X47190000Y-103405000D02*
X46089000Y-102304000D01*
D57*
X18780000Y-67430000D02*
X20290000Y-68940000D01*
X141710000Y-154818000D02*
X141670000Y-154778000D01*
X45630000Y-30780000D02*
X42300000Y-30780000D01*
X113860000Y-156940000D02*
X113417800Y-157382200D01*
X47320000Y-113630000D02*
X47320000Y-116850000D01*
X95307600Y-98679400D02*
X95307600Y-101219400D01*
X52970000Y-30300000D02*
X46110000Y-30300000D01*
X154305000Y-142085000D02*
X153180000Y-140960000D01*
X37600000Y-150591600D02*
X37600000Y-148795000D01*
X50222600Y-152730600D02*
X50222600Y-149577400D01*
X86780000Y-152200000D02*
X86780000Y-154320000D01*
X164033600Y-166712000D02*
X164033600Y-171830000D01*
X73355000Y-126400000D02*
X73355000Y-123195000D01*
X54280000Y-31610000D02*
X52970000Y-30300000D01*
X113570000Y-154889000D02*
X113460000Y-154779000D01*
X165284600Y-165461000D02*
X164033600Y-166712000D01*
X151670200Y-158242400D02*
X151670200Y-162814400D01*
X99890000Y-109590000D02*
X99890000Y-94580000D01*
X141160000Y-98837200D02*
X141256200Y-98933400D01*
X55581000Y-65554000D02*
X55581000Y-32521000D01*
X151670200Y-158242400D02*
X151670200Y-154787800D01*
D56*
X46089000Y-94346000D02*
X47190000Y-93245000D01*
D57*
X142837400Y-169005600D02*
X142837400Y-161347600D01*
X55581000Y-32521000D02*
X54860000Y-31800000D01*
X20290000Y-68940000D02*
X20290000Y-74210000D01*
X73629999Y-122920001D02*
X73370000Y-123180000D01*
X165284600Y-160381000D02*
X165284600Y-165461000D01*
D56*
X102330000Y-155189000D02*
X102131000Y-154990000D01*
D57*
X165284600Y-173081000D02*
X165284600Y-175621000D01*
X95307600Y-101219400D02*
X95307600Y-103759400D01*
X56928200Y-155143600D02*
X56928200Y-150624400D01*
X69800000Y-29720000D02*
X69730000Y-29650000D01*
X151670200Y-162814400D02*
X151822600Y-162966800D01*
X113417800Y-157382200D02*
X113417800Y-160294800D01*
X73629999Y-88219999D02*
X73629999Y-122920001D01*
X126990000Y-154878000D02*
X126890000Y-154778000D01*
X144765000Y-142095000D02*
X142500000Y-139830000D01*
X126890000Y-137870000D02*
X125950000Y-136930000D01*
X100006600Y-157556600D02*
X100006600Y-154033400D01*
X56928200Y-150624400D02*
X56950000Y-150602600D01*
X47200000Y-89860000D02*
X47170000Y-89890000D01*
X144765000Y-147170000D02*
X144765000Y-142095000D01*
X126854400Y-157341800D02*
X126854400Y-160223600D01*
X119460000Y-101267200D02*
X119488400Y-101295600D01*
X73355000Y-132735000D02*
X73350000Y-132740000D01*
D56*
X141320000Y-95570000D02*
X141160000Y-95730000D01*
D57*
X60190000Y-114290000D02*
X60190000Y-82330000D01*
X113570000Y-156960000D02*
X113570000Y-154889000D01*
X113417800Y-165374800D02*
X113417800Y-160294800D01*
X73387400Y-152603600D02*
X73387400Y-149470800D01*
X154305000Y-147960000D02*
X155850000Y-149505000D01*
X46110000Y-30300000D02*
X45630000Y-30780000D01*
D56*
X99900000Y-109580000D02*
X99890000Y-109590000D01*
D57*
X37660000Y-157170000D02*
X37660000Y-150651600D01*
X64300000Y-30330000D02*
X64300000Y-34060000D01*
X53285000Y-67850000D02*
X55581000Y-65554000D01*
X37660000Y-150651600D02*
X37600000Y-150591600D01*
X165284600Y-157355400D02*
X165284600Y-160381000D01*
X37703400Y-160384400D02*
X37703400Y-157213400D01*
X72830000Y-87420000D02*
X73629999Y-88219999D01*
X20290000Y-74210000D02*
X20290000Y-77580000D01*
X85820000Y-77300000D02*
X85820000Y-86590000D01*
X47170000Y-93225000D02*
X47190000Y-93245000D01*
X73387400Y-149470800D02*
X73316600Y-149400000D01*
X37703400Y-160384400D02*
X36452400Y-161635400D01*
X69800000Y-33970000D02*
X69800000Y-29720000D01*
D56*
X85820000Y-86590000D02*
X85830000Y-86600000D01*
X101100000Y-109580000D02*
X99900000Y-109580000D01*
D57*
X142837400Y-161347600D02*
X141586400Y-160096600D01*
X141586400Y-157233600D02*
X142040000Y-156780000D01*
X164033600Y-171830000D02*
X165284600Y-173081000D01*
X108900000Y-155020000D02*
X108870000Y-154990000D01*
X85820000Y-70557000D02*
X85820000Y-77300000D01*
X73355000Y-123195000D02*
X73370000Y-123180000D01*
X18780000Y-67430000D02*
X18780000Y-62350000D01*
X73355000Y-126400000D02*
X73355000Y-132735000D01*
X105797800Y-162834800D02*
X105797800Y-160294800D01*
X99940000Y-153710000D02*
X99890000Y-153660000D01*
X95600000Y-98387000D02*
X95307600Y-98679400D01*
D56*
X144470000Y-95570000D02*
X141320000Y-95570000D01*
D57*
X20260000Y-84854500D02*
X20290000Y-84824500D01*
X86798600Y-157658200D02*
X86798600Y-154861400D01*
X54860000Y-31800000D02*
X54280000Y-31800000D01*
X47200000Y-86600000D02*
X47200000Y-89860000D01*
X105797800Y-160294800D02*
X105797800Y-154997800D01*
D56*
X46089000Y-102304000D02*
X46089000Y-94346000D01*
D57*
X47320000Y-116850000D02*
X47290000Y-116880000D01*
X116480000Y-70462000D02*
X116610000Y-70592000D01*
X64300000Y-34060000D02*
X64330000Y-34090000D01*
X20290000Y-84824500D02*
X20290000Y-77580000D01*
X127300000Y-156896200D02*
X126854400Y-157341800D01*
X126990000Y-156940000D02*
X126990000Y-154878000D01*
X69730000Y-33900000D02*
X69800000Y-33970000D01*
X36452400Y-166753400D02*
X37703400Y-168004400D01*
X25260000Y-47820000D02*
X18780000Y-54300000D01*
X141586400Y-170256600D02*
X142837400Y-169005600D01*
X18780000Y-62350000D02*
X18780000Y-54300000D01*
X95600000Y-85840000D02*
X95600000Y-98387000D01*
X105797800Y-154997800D02*
X105790000Y-154990000D01*
X154305000Y-147960000D02*
X154305000Y-142085000D01*
X141586400Y-160096600D02*
X141586400Y-157233600D01*
X86345000Y-151765000D02*
X86780000Y-152200000D01*
X141586400Y-172796600D02*
X141586400Y-170256600D01*
X108900000Y-181860000D02*
X108900000Y-155020000D01*
D56*
X102330000Y-170260000D02*
X102330000Y-155189000D01*
D57*
X59520000Y-67850000D02*
X60190000Y-68520000D01*
X141710000Y-156810000D02*
X141710000Y-154818000D01*
X151670200Y-154787800D02*
X151680000Y-154778000D01*
X155850000Y-149505000D02*
X155850000Y-154778000D01*
X42300000Y-30780000D02*
X25260000Y-47820000D01*
X119460000Y-95560000D02*
X119460000Y-101267200D01*
X126890000Y-154778000D02*
X126890000Y-137870000D01*
X54280000Y-31800000D02*
X54280000Y-31610000D01*
X60190000Y-68520000D02*
X60190000Y-82330000D01*
X50222600Y-149577400D02*
X50300000Y-149500000D01*
X37600000Y-148795000D02*
X37625000Y-148770000D01*
X141160000Y-95730000D02*
X141160000Y-98837200D01*
X47170000Y-89890000D02*
X47170000Y-93225000D01*
X99890000Y-153660000D02*
X99890000Y-109590000D01*
X86798600Y-154861400D02*
X87240000Y-154420000D01*
D56*
%TO.N,A4*%
X65219000Y-77850999D02*
X65219000Y-101814000D01*
X76115000Y-104175000D02*
X76115000Y-105825000D01*
X65354101Y-77715898D02*
X65219000Y-77850999D01*
X65354101Y-77196629D02*
X65354101Y-77715898D01*
X84700000Y-150000000D02*
X84700000Y-110480400D01*
X84700000Y-110480400D02*
X84680000Y-110460400D01*
X77354100Y-107064100D02*
X77354100Y-108665900D01*
X65219000Y-101814000D02*
X67520000Y-104115000D01*
X77354100Y-108665900D02*
X80067600Y-111379400D01*
X76115000Y-105825000D02*
X77354100Y-107064100D01*
%TO.N,A0*%
X64560000Y-111315000D02*
X67520000Y-114275000D01*
X64560000Y-106802100D02*
X64560000Y-111315000D01*
X63950000Y-79335315D02*
X63950000Y-80281000D01*
X76220000Y-115880000D02*
X76220000Y-114330000D01*
X80067600Y-121539400D02*
X77300000Y-118771800D01*
X87300000Y-122670000D02*
X87260000Y-122630000D01*
X77300000Y-116960000D02*
X76220000Y-115880000D01*
X64589000Y-102318200D02*
X64589000Y-106773100D01*
X87300000Y-150000000D02*
X87300000Y-122670000D01*
X64589000Y-106773100D02*
X64560000Y-106802100D01*
X63888185Y-79273500D02*
X63950000Y-79335315D01*
X64417000Y-102146200D02*
X64589000Y-102318200D01*
X63950000Y-80281000D02*
X64417000Y-80748000D01*
X77300000Y-118771800D02*
X77300000Y-116960000D01*
X131138000Y-87750400D02*
X131138000Y-121705400D01*
X131138000Y-121705400D02*
X131050000Y-121793400D01*
X64417000Y-80748000D02*
X64417000Y-102146200D01*
%TO.N,A14*%
X54403591Y-74511500D02*
X54552591Y-74660500D01*
X107240000Y-97596000D02*
X107240000Y-130900000D01*
X54552591Y-94222409D02*
X52280000Y-96495000D01*
X54552591Y-74660500D02*
X54552591Y-94222409D01*
X103630000Y-134510000D02*
X103630000Y-165747000D01*
X103630000Y-165747000D02*
X105797800Y-167914800D01*
X107240000Y-130900000D02*
X103630000Y-134510000D01*
%TO.N,A9*%
X68309999Y-76324275D02*
X68309999Y-76324277D01*
X68160000Y-76474276D02*
X68160000Y-87957950D01*
X68621000Y-90314000D02*
X67520000Y-91415000D01*
X68621000Y-88418950D02*
X68621000Y-90314000D01*
X64010000Y-109870000D02*
X64010000Y-91873000D01*
X68160000Y-87957950D02*
X68621000Y-88418950D01*
X64010000Y-91873000D02*
X63867000Y-91730000D01*
X68309999Y-76324277D02*
X68160000Y-76474276D01*
%TO.N,D1*%
X105975200Y-124968800D02*
X105975200Y-82296034D01*
X125460000Y-81983093D02*
X125460000Y-71822000D01*
X42602600Y-157810600D02*
X43703600Y-156709600D01*
X42812000Y-123569000D02*
X42961000Y-123420000D01*
X43703600Y-156709600D02*
X43703600Y-151861000D01*
X49048000Y-84148000D02*
X49048000Y-84150861D01*
X41902600Y-134620000D02*
X42650000Y-133872600D01*
X48848000Y-81808000D02*
X48848000Y-83948000D01*
X42650000Y-133536043D02*
X42812000Y-133374043D01*
X41902600Y-150060000D02*
X41902600Y-134620000D01*
X43703600Y-151861000D02*
X41902600Y-150060000D01*
X48570000Y-81530000D02*
X48848000Y-81808000D01*
X49048000Y-84150861D02*
X49247000Y-84349861D01*
X48848000Y-83948000D02*
X49048000Y-84148000D01*
X125460000Y-71822000D02*
X124230000Y-70592000D01*
X42650000Y-133872600D02*
X42650000Y-133536043D01*
X49247000Y-116107000D02*
X50760000Y-117620000D01*
X104248400Y-126695600D02*
X105975200Y-124968800D01*
X50760000Y-122915000D02*
X52280000Y-124435000D01*
X125723941Y-82247034D02*
X125460000Y-81983093D01*
X50760000Y-117620000D02*
X50760000Y-122915000D01*
X42812000Y-133374043D02*
X42812000Y-123569000D01*
X49247000Y-84349861D02*
X49247000Y-116107000D01*
%TO.N,/~{SEL_RAM}*%
X133260000Y-118803400D02*
X133410000Y-118653400D01*
X132163156Y-170993356D02*
X132163156Y-145101000D01*
X133260000Y-138200000D02*
X133260000Y-118803400D01*
X133966400Y-172796600D02*
X131206600Y-172796600D01*
X131206600Y-172796600D02*
X131140000Y-172730000D01*
X132163156Y-145101000D02*
X133260000Y-144004156D01*
X133966400Y-172796600D02*
X132163156Y-170993356D01*
X133260000Y-144004156D02*
X133260000Y-138200000D01*
%TO.N,~{IORQ}*%
X30710000Y-139600000D02*
X30710000Y-72660000D01*
X77070000Y-163169600D02*
X77070000Y-136530000D01*
X79178600Y-165278200D02*
X77070000Y-163169600D01*
X77070000Y-136530000D02*
X77580000Y-136020000D01*
X30710000Y-72660000D02*
X28010000Y-69960000D01*
D57*
%TO.N,Net-(D1-A)*%
X150650000Y-187250000D02*
X150800000Y-187100000D01*
X150800000Y-166529400D02*
X151822600Y-165506800D01*
X157664600Y-162921000D02*
X157664600Y-160381000D01*
X150800000Y-173890000D02*
X150800000Y-166529400D01*
X150800000Y-187100000D02*
X150800000Y-173890000D01*
D56*
%TO.N,~{M1}*%
X71390000Y-79595000D02*
X71398943Y-79595000D01*
X71729000Y-85376050D02*
X71750000Y-85397050D01*
X76340000Y-121895000D02*
X76340000Y-121970000D01*
X71422000Y-84156950D02*
X71729000Y-84463950D01*
X71729000Y-84463950D02*
X71729000Y-85376050D01*
X71750000Y-86942950D02*
X71729000Y-86963950D01*
X71750000Y-121705000D02*
X71560000Y-121895000D01*
X76340000Y-121970000D02*
X76640000Y-122270000D01*
X77201000Y-164090000D02*
X77201000Y-168380600D01*
X71729000Y-86963950D02*
X71729000Y-87876050D01*
X70310000Y-57330000D02*
X71390000Y-58410000D01*
X71751000Y-79947057D02*
X71751000Y-80444943D01*
X71750000Y-87897050D02*
X71750000Y-121705000D01*
X71398943Y-79595000D02*
X71751000Y-79947057D01*
X76640000Y-163529000D02*
X77201000Y-164090000D01*
X71750000Y-85397050D02*
X71750000Y-86942950D01*
X71751000Y-80444943D02*
X71422000Y-80773943D01*
X76640000Y-122270000D02*
X76640000Y-163529000D01*
X71390000Y-58410000D02*
X71390000Y-79595000D01*
X77201000Y-168380600D02*
X79178600Y-170358200D01*
X71422000Y-80773943D02*
X71422000Y-84156950D01*
X71729000Y-87876050D02*
X71750000Y-87897050D01*
%TO.N,PX2*%
X58180000Y-193700000D02*
X63790000Y-193700000D01*
X33040000Y-191610000D02*
X35130000Y-193700000D01*
X69650000Y-187840000D02*
X63790000Y-193700000D01*
X58251000Y-193629000D02*
X58180000Y-193700000D01*
X69650000Y-187250000D02*
X69650000Y-187840000D01*
X35130000Y-193700000D02*
X58180000Y-193700000D01*
X58251000Y-164086400D02*
X58251000Y-193629000D01*
X56928200Y-162763600D02*
X58251000Y-164086400D01*
%TO.N,PX5*%
X49449000Y-177921250D02*
X49449000Y-189778000D01*
X49449000Y-189778000D02*
X49570000Y-189899000D01*
X51323600Y-171611600D02*
X51323600Y-176046650D01*
X50222600Y-170510600D02*
X51323600Y-171611600D01*
X51323600Y-176046650D02*
X49449000Y-177921250D01*
%TO.N,/~{ROM_BASIC}*%
X134580000Y-134840000D02*
X134430000Y-134690000D01*
X120720000Y-133930000D02*
X121120000Y-133930000D01*
X134580000Y-136950000D02*
X134580000Y-134840000D01*
X121120000Y-133930000D02*
X121190000Y-133860000D01*
X121190000Y-120777200D02*
X119488400Y-119075600D01*
X121190000Y-133860000D02*
X121190000Y-120777200D01*
%TO.N,PX6*%
X115090000Y-193051000D02*
X120450000Y-187691000D01*
X48390000Y-192519000D02*
X48470000Y-192599000D01*
X48402000Y-174871200D02*
X48402000Y-190388000D01*
X48390000Y-190400000D02*
X48390000Y-192519000D01*
X120450000Y-187691000D02*
X120450000Y-187250000D01*
X48402000Y-190388000D02*
X48390000Y-190400000D01*
X50222600Y-173050600D02*
X48402000Y-174871200D01*
%TO.N,CPM*%
X102270000Y-102188400D02*
X102298400Y-102188400D01*
X102731000Y-102621000D02*
X102731000Y-168606000D01*
X105797800Y-170454800D02*
X103824800Y-170454800D01*
X102298400Y-102188400D02*
X102731000Y-102621000D01*
X102731000Y-168606000D02*
X103630000Y-169505000D01*
X103824800Y-170454800D02*
X103630000Y-170260000D01*
X103630000Y-169505000D02*
X103630000Y-170260000D01*
%TO.N,Net-(U10-Pad8)*%
X111400000Y-177570000D02*
X111400000Y-175012600D01*
X111400000Y-175012600D02*
X113417800Y-172994800D01*
%TO.N,PX7*%
X48940000Y-176873200D02*
X48940000Y-190578000D01*
X50222600Y-175590600D02*
X48940000Y-176873200D01*
X48940000Y-190578000D02*
X48960000Y-190598000D01*
%TO.N,PX3*%
X47540000Y-168113200D02*
X50222600Y-165430600D01*
X47370000Y-188590000D02*
X47370000Y-189310000D01*
X47540000Y-188420000D02*
X47370000Y-188590000D01*
X47540000Y-188420000D02*
X47540000Y-168113200D01*
%TO.N,Net-(U93-Pad3)*%
X133966400Y-165176600D02*
X133966400Y-167716600D01*
D57*
%TO.N,Net-(U4-Pad3)*%
X158915600Y-171830000D02*
X158915600Y-166712000D01*
X158915600Y-166712000D02*
X157664600Y-165461000D01*
X157664600Y-173081000D02*
X158915600Y-171830000D01*
%TO.N,Net-(C13-Pad1)*%
X30083400Y-162924400D02*
X28832400Y-161673400D01*
X24351000Y-159249000D02*
X23100000Y-160500000D01*
X27088182Y-159249000D02*
X24351000Y-159249000D01*
X19650000Y-160410000D02*
X23010000Y-160410000D01*
X28832400Y-160993218D02*
X27088182Y-159249000D01*
X28832400Y-161673400D02*
X28832400Y-160993218D01*
X23010000Y-160410000D02*
X23100000Y-160500000D01*
%TO.N,Net-(R17-Pad1)*%
X30083400Y-168004400D02*
X26570000Y-164491000D01*
X19680000Y-170930000D02*
X23080000Y-170930000D01*
X30083400Y-170544400D02*
X28125600Y-170544400D01*
X28125600Y-170544400D02*
X25410000Y-173260000D01*
X26570000Y-164491000D02*
X26570000Y-163040000D01*
X23080000Y-170930000D02*
X25410000Y-173260000D01*
X30083400Y-170544400D02*
X30083400Y-168004400D01*
%TO.N,Net-(C13-Pad2)*%
X30083400Y-165464400D02*
X30083400Y-164784218D01*
X23100000Y-163000000D02*
X24070000Y-163000000D01*
X24070000Y-163000000D02*
X26570000Y-160500000D01*
X26570000Y-161270818D02*
X26570000Y-160500000D01*
X30083400Y-164784218D02*
X26570000Y-161270818D01*
%TO.N,Net-(C14-Pad1)*%
X19940000Y-168390000D02*
X19970000Y-168360000D01*
X19680000Y-168390000D02*
X19680000Y-162980000D01*
X30083400Y-160384400D02*
X30083400Y-157713400D01*
X19680000Y-168390000D02*
X19940000Y-168390000D01*
X30083400Y-157713400D02*
X29520000Y-157150000D01*
X19680000Y-162980000D02*
X19650000Y-162950000D01*
X19970000Y-168360000D02*
X25410000Y-168360000D01*
%TO.N,+3V3*%
X132448000Y-42872000D02*
X132700000Y-42620000D01*
X85820000Y-59000000D02*
X85820000Y-53945000D01*
X116610000Y-59035000D02*
X116610000Y-55262200D01*
X132448000Y-50345864D02*
X132448000Y-42872000D01*
X132700000Y-50597864D02*
X132448000Y-50345864D01*
X116610000Y-55262200D02*
X116590000Y-55242200D01*
X85820000Y-53945000D02*
X85790000Y-53915000D01*
X132700000Y-42620000D02*
X132700000Y-31200000D01*
X60190000Y-55220000D02*
X60190000Y-59470000D01*
X132700000Y-52700000D02*
X132700000Y-50597864D01*
D56*
%TO.N,Net-(LCD1-DB7)*%
X66420000Y-176650000D02*
X69126000Y-173944000D01*
X60200000Y-181500000D02*
X65050000Y-176650000D01*
X69126000Y-173944000D02*
X69126000Y-159405000D01*
X65050000Y-176650000D02*
X66420000Y-176650000D01*
X69126000Y-159405000D02*
X73387400Y-155143600D01*
%TO.N,~{FPGA_CS}*%
X78200000Y-70557000D02*
X78200000Y-95520000D01*
X82860000Y-170696138D02*
X82678069Y-170878069D01*
X78990000Y-96310000D02*
X80020200Y-96310000D01*
X80020200Y-96310000D02*
X82860000Y-99149800D01*
X78200000Y-95520000D02*
X78990000Y-96310000D01*
X82860000Y-99149800D02*
X82860000Y-170696138D01*
%TO.N,PA2*%
X36740000Y-126632900D02*
X36740000Y-117040000D01*
X37521000Y-128691000D02*
X37521000Y-127413900D01*
X37521000Y-127413900D02*
X36740000Y-126632900D01*
X36740000Y-117040000D02*
X35410000Y-115710000D01*
X37670000Y-128840000D02*
X37521000Y-128691000D01*
%TO.N,PA0*%
X34309000Y-106651000D02*
X35410000Y-105550000D01*
X33410000Y-122180000D02*
X34309000Y-121281000D01*
X33410000Y-123550000D02*
X33410000Y-122180000D01*
X34309000Y-121281000D02*
X34309000Y-106651000D01*
%TO.N,PX4*%
X50222600Y-167970600D02*
X48001000Y-170192200D01*
X93700000Y-188600000D02*
X95050000Y-187250000D01*
X88910000Y-193601000D02*
X93700000Y-188811000D01*
X47920000Y-188771000D02*
X47920000Y-193120000D01*
X48001000Y-170192200D02*
X48001000Y-188690000D01*
X48001000Y-188690000D02*
X47920000Y-188771000D01*
X93700000Y-188811000D02*
X93700000Y-188600000D01*
X47920000Y-193120000D02*
X47950000Y-193150000D01*
%TO.N,Net-(LCD1-DB4)*%
X67820000Y-178491000D02*
X73387400Y-172923600D01*
X67820000Y-181500000D02*
X67820000Y-178491000D01*
%TO.N,Net-(U15-QB)*%
X100230000Y-46295000D02*
X95894600Y-41959600D01*
X95894600Y-41959600D02*
X94113200Y-41959600D01*
X101030000Y-46295000D02*
X100230000Y-46295000D01*
%TO.N,Net-(U15-QD)*%
X91971000Y-46751050D02*
X91971000Y-45838950D01*
X88122050Y-41990000D02*
X84840000Y-41990000D01*
X91971000Y-45838950D02*
X88122050Y-41990000D01*
X95950000Y-46295000D02*
X94849000Y-47396000D01*
X92615950Y-47396000D02*
X91971000Y-46751050D01*
X94849000Y-47396000D02*
X92615950Y-47396000D01*
%TO.N,Net-(U15-QC)*%
X98490000Y-46295000D02*
X97389000Y-45194000D01*
X97389000Y-45194000D02*
X93639200Y-45194000D01*
X93639200Y-45194000D02*
X90404800Y-41959600D01*
%TO.N,Net-(U15-QA)*%
X98490000Y-53915000D02*
X102131000Y-50274000D01*
X98587160Y-41966000D02*
X97821600Y-41966000D01*
X102131000Y-45509840D02*
X98587160Y-41966000D01*
X102131000Y-50274000D02*
X102131000Y-45509840D01*
%TO.N,Net-(U16-QE)*%
X117385600Y-43880000D02*
X114575600Y-43880000D01*
X114575600Y-43880000D02*
X112655200Y-41959600D01*
X119876800Y-46371200D02*
X117385600Y-43880000D01*
%TO.N,Net-(U16-QD)*%
X118005200Y-41959600D02*
X116363600Y-41959600D01*
X122416800Y-46371200D02*
X118005200Y-41959600D01*
%TO.N,Net-(U16-QH)*%
X110706600Y-44821000D02*
X105516370Y-44821000D01*
X112256800Y-46371200D02*
X110706600Y-44821000D01*
X105516370Y-44821000D02*
X102661370Y-41966000D01*
X102661370Y-41966000D02*
X101530000Y-41966000D01*
%TO.N,Net-(U16-QB)*%
X127496800Y-46371200D02*
X127496800Y-45676000D01*
X127496800Y-45676000D02*
X123780400Y-41959600D01*
%TO.N,Net-(U16-QG)*%
X112850000Y-44420000D02*
X107692400Y-44420000D01*
X107692400Y-44420000D02*
X105238400Y-41966000D01*
X114796800Y-46371200D02*
X112850000Y-44424400D01*
X112850000Y-44424400D02*
X112850000Y-44420000D01*
%TO.N,Net-(U16-QF)*%
X113420000Y-43750000D02*
X110730800Y-43750000D01*
X114940200Y-45270200D02*
X113420000Y-43750000D01*
X117336800Y-46371200D02*
X116235800Y-45270200D01*
X116235800Y-45270200D02*
X114940200Y-45270200D01*
X110730800Y-43750000D02*
X108946800Y-41966000D01*
%TO.N,Net-(U16-QC)*%
X124956800Y-46371200D02*
X120545200Y-41959600D01*
X120545200Y-41959600D02*
X120072000Y-41959600D01*
%TO.N,Net-(U16-QA)*%
X128597800Y-50350200D02*
X124956800Y-53991200D01*
X127488800Y-41959600D02*
X128597800Y-43068600D01*
X128597800Y-43068600D02*
X128597800Y-50350200D01*
%TO.N,Net-(C21-Pad1)*%
X127539600Y-35546000D02*
X127539600Y-39368800D01*
X127539600Y-39368800D02*
X127488800Y-39419600D01*
%TO.N,Net-(R46-Pad2)*%
X123831200Y-35546000D02*
X123831200Y-39368800D01*
X123831200Y-39368800D02*
X123780400Y-39419600D01*
X127539600Y-33006000D02*
X126371200Y-33006000D01*
X126371200Y-33006000D02*
X123831200Y-35546000D01*
%TO.N,Net-(R47-Pad2)*%
X120122800Y-35546000D02*
X120122800Y-39368800D01*
X120122800Y-39368800D02*
X120072000Y-39419600D01*
X123831200Y-33006000D02*
X122662800Y-33006000D01*
X122662800Y-33006000D02*
X120122800Y-35546000D01*
%TO.N,Net-(R41-Pad2)*%
X118954400Y-33006000D02*
X116414400Y-35546000D01*
X116414400Y-39368800D02*
X116363600Y-39419600D01*
X116414400Y-35546000D02*
X116414400Y-39368800D01*
X120122800Y-33006000D02*
X118954400Y-33006000D01*
%TO.N,Net-(R23-Pad2)*%
X116414400Y-33006000D02*
X115246000Y-33006000D01*
X115246000Y-33006000D02*
X112706000Y-35546000D01*
X112706000Y-35546000D02*
X112706000Y-39368800D01*
X112706000Y-39368800D02*
X112655200Y-39419600D01*
%TO.N,Net-(R24-Pad2)*%
X111544000Y-33006000D02*
X108997600Y-35552400D01*
X112706000Y-33006000D02*
X111544000Y-33006000D01*
X108997600Y-35552400D02*
X108997600Y-39375200D01*
X108997600Y-39375200D02*
X108946800Y-39426000D01*
%TO.N,Net-(R25-Pad2)*%
X105289200Y-39375200D02*
X105238400Y-39426000D01*
X107829200Y-33012400D02*
X105289200Y-35552400D01*
X108997600Y-33012400D02*
X107829200Y-33012400D01*
X105289200Y-35552400D02*
X105289200Y-39375200D01*
%TO.N,Net-(R26-Pad2)*%
X101580800Y-35552400D02*
X101580800Y-39375200D01*
X105289200Y-33012400D02*
X104120800Y-33012400D01*
X101580800Y-39375200D02*
X101530000Y-39426000D01*
X104120800Y-33012400D02*
X101580800Y-35552400D01*
%TO.N,Net-(R27-Pad2)*%
X97872400Y-35552400D02*
X97872400Y-39375200D01*
X101580800Y-33012400D02*
X100412400Y-33012400D01*
X100412400Y-33012400D02*
X97872400Y-35552400D01*
X97872400Y-39375200D02*
X97821600Y-39426000D01*
%TO.N,Net-(R28-Pad2)*%
X94164000Y-35546000D02*
X94164000Y-35564000D01*
X96697600Y-33012400D02*
X94164000Y-35546000D01*
X94164000Y-35564000D02*
X94113200Y-35614800D01*
X97872400Y-33012400D02*
X96697600Y-33012400D01*
X94113200Y-35614800D02*
X94113200Y-39419600D01*
%TO.N,Net-(R29-Pad2)*%
X92995600Y-33006000D02*
X90455600Y-35546000D01*
X90455600Y-39368800D02*
X90404800Y-39419600D01*
X90455600Y-35546000D02*
X90455600Y-39368800D01*
X94164000Y-33006000D02*
X92995600Y-33006000D01*
%TO.N,Net-(R30-Pad2)*%
X87981600Y-35480000D02*
X90455600Y-33006000D01*
X84860000Y-35460000D02*
X84860000Y-39400000D01*
X85100000Y-35480000D02*
X87981600Y-35480000D01*
X84860000Y-39400000D02*
X84830000Y-39430000D01*
X84860000Y-35720000D02*
X85100000Y-35480000D01*
%TO.N,PA4*%
X37120000Y-127580000D02*
X37120000Y-133559000D01*
X35410000Y-125870000D02*
X37120000Y-127580000D01*
%TO.N,Net-(U15-RCLK)*%
X117090000Y-50390000D02*
X117090000Y-53744400D01*
X117090000Y-53744400D02*
X117336800Y-53991200D01*
X133315865Y-48035865D02*
X133315865Y-38454135D01*
X132999000Y-49905500D02*
X132999000Y-48352730D01*
X133400000Y-50306500D02*
X132999000Y-49905500D01*
X133315865Y-38454135D02*
X135450000Y-36320000D01*
X132999000Y-48352730D02*
X133315865Y-48035865D01*
%TO.N,Net-(U15-SRCLK)*%
X133760000Y-49410000D02*
X133760000Y-49000444D01*
X133760000Y-40550000D02*
X135450000Y-38860000D01*
X133760000Y-49000444D02*
X133567425Y-48807869D01*
X133567425Y-48807869D02*
X133567425Y-48351405D01*
X133567425Y-48351405D02*
X133760000Y-48158830D01*
X114796800Y-50006800D02*
X114570000Y-49780000D01*
X133550000Y-49620000D02*
X133760000Y-49410000D01*
X114796800Y-53991200D02*
X114796800Y-50006800D01*
X133760000Y-48158830D02*
X133760000Y-40550000D01*
%TO.N,Net-(U12-LV8)*%
X158310000Y-36320000D02*
X153507909Y-41122091D01*
X153507909Y-41122091D02*
X153507909Y-69832091D01*
X103910000Y-67620000D02*
X103910000Y-59035000D01*
X153507909Y-69832091D02*
X152690000Y-70650000D01*
%TO.N,Net-(U12-LV3)*%
X155929000Y-55240000D02*
X155929000Y-51401000D01*
X155929000Y-51401000D02*
X158310000Y-49020000D01*
%TO.N,Net-(U19-IOB29A)*%
X131250000Y-65789232D02*
X131250000Y-66069636D01*
X134930783Y-52846500D02*
X135969217Y-52846500D01*
X131179000Y-57750232D02*
X134196500Y-54732732D01*
X131179000Y-65718232D02*
X131179000Y-57750232D01*
X139600000Y-56477283D02*
X139600000Y-56580000D01*
X135969217Y-52846500D02*
X139600000Y-56477283D01*
X131179000Y-65718232D02*
X131250000Y-65789232D01*
X134196500Y-54732732D02*
X134196500Y-53580783D01*
X134196500Y-53580783D02*
X134930783Y-52846500D01*
%TO.N,Net-(U19-IOB13B)*%
X133390000Y-62860000D02*
X134180000Y-63650000D01*
X133060000Y-62860000D02*
X133390000Y-62860000D01*
X137863500Y-66730000D02*
X136680000Y-65546500D01*
X134930783Y-65546500D02*
X136680000Y-65546500D01*
X134180000Y-63650000D02*
X134180000Y-64795718D01*
X134180000Y-64795718D02*
X134930783Y-65546500D01*
X137870000Y-66730000D02*
X137863500Y-66730000D01*
%TO.N,Net-(U12-LV5)*%
X154828000Y-62431000D02*
X154977000Y-62580000D01*
X111595000Y-66765000D02*
X111530000Y-66700000D01*
X158310000Y-43940000D02*
X154828000Y-47422000D01*
X111530000Y-66700000D02*
X111530000Y-59035000D01*
X111595000Y-66791091D02*
X111595000Y-66765000D01*
X154828000Y-47422000D02*
X154828000Y-62431000D01*
%TO.N,Net-(U12-LV4)*%
X155379000Y-52920000D02*
X155379000Y-49411000D01*
X155379000Y-49411000D02*
X158310000Y-46480000D01*
%TO.N,Net-(U19-IOB23B)*%
X132720000Y-64700000D02*
X132148999Y-64128999D01*
X138580000Y-60537283D02*
X138687283Y-60537283D01*
X134930783Y-57926500D02*
X135969217Y-57926500D01*
X132148999Y-64128999D02*
X132148999Y-60708284D01*
X138687283Y-60537283D02*
X139830000Y-61680000D01*
X135969217Y-57926500D02*
X138580000Y-60537283D01*
X139830000Y-61680000D02*
X139920000Y-61680000D01*
X132148999Y-60708284D02*
X134930783Y-57926500D01*
%TO.N,Net-(U12-LV1)*%
X157030000Y-55380000D02*
X158310000Y-54100000D01*
X157030000Y-57820000D02*
X157030000Y-55380000D01*
%TO.N,Net-(U19-IOB11B)*%
X136490000Y-60466500D02*
X139930000Y-63906500D01*
X139930000Y-71370000D02*
X140240000Y-71680000D01*
X134223500Y-60466500D02*
X136490000Y-60466500D01*
X133590000Y-61100000D02*
X134223500Y-60466500D01*
X133200000Y-61100000D02*
X133590000Y-61100000D01*
X139930000Y-63906500D02*
X139930000Y-71370000D01*
%TO.N,Net-(U19-IOB33B)*%
X131730000Y-58587283D02*
X134930783Y-55386500D01*
X135969217Y-55386500D02*
X138620000Y-58037283D01*
X138620000Y-58040000D02*
X139790000Y-59210000D01*
X131730000Y-65490000D02*
X131730000Y-58587283D01*
X138620000Y-58037283D02*
X138620000Y-58040000D01*
X134930783Y-55386500D02*
X135969217Y-55386500D01*
%TO.N,Net-(U19-IOB23A)*%
X133778999Y-64798999D02*
X132760000Y-63780000D01*
X137452732Y-68086500D02*
X134963783Y-68086500D01*
X138830000Y-66709232D02*
X137452732Y-68086500D01*
X134963783Y-68086500D02*
X134143641Y-67266359D01*
X138830000Y-64900000D02*
X138830000Y-66709232D01*
X133778999Y-65155358D02*
X133778999Y-64798999D01*
X134143641Y-65520000D02*
X133778999Y-65155358D01*
X134143641Y-67266359D02*
X134143641Y-65520000D01*
%TO.N,Net-(U12-LV7)*%
X153999000Y-43171000D02*
X158310000Y-38860000D01*
X106450000Y-66402500D02*
X106450000Y-59035000D01*
X153999000Y-67291091D02*
X153999000Y-43171000D01*
X106460000Y-67140000D02*
X106460000Y-66412500D01*
X106460000Y-66412500D02*
X106450000Y-66402500D01*
X154057909Y-67350000D02*
X153999000Y-67291091D01*
%TO.N,Net-(U19-IOB8A)*%
X158310000Y-79490000D02*
X158310000Y-79500000D01*
X141950000Y-50300000D02*
X151589000Y-59939000D01*
X151589000Y-72769000D02*
X158310000Y-79490000D01*
X151589000Y-59939000D02*
X151589000Y-72769000D01*
%TO.N,Net-(U16-SER)*%
X134188261Y-42661739D02*
X135450000Y-41400000D01*
X122416800Y-53991200D02*
X122416800Y-49293200D01*
X134118425Y-48579637D02*
X134188261Y-48509801D01*
X134188261Y-48509801D02*
X134188261Y-42661739D01*
X122416800Y-49293200D02*
X122480000Y-49230000D01*
%TO.N,Net-(U19-IOB13A)*%
X133780000Y-62070000D02*
X133780000Y-62370000D01*
X133780000Y-62370000D02*
X134383500Y-62973500D01*
X139380000Y-64510000D02*
X139380000Y-69340000D01*
X139400000Y-64490000D02*
X139380000Y-64510000D01*
X137883500Y-62973500D02*
X139400000Y-64490000D01*
X134383500Y-62973500D02*
X137883500Y-62973500D01*
%TO.N,Net-(U12-LV2)*%
X155920000Y-60580000D02*
X155920000Y-60508000D01*
X155920000Y-60508000D02*
X156479000Y-59949000D01*
X156479000Y-53391000D02*
X158310000Y-51560000D01*
X156479000Y-59949000D02*
X156479000Y-53391000D01*
%TO.N,Net-(U12-LV6)*%
X154427000Y-45283000D02*
X154427000Y-65187000D01*
X108990000Y-66791091D02*
X108990000Y-59035000D01*
X158310000Y-41400000D02*
X154427000Y-45283000D01*
X154427000Y-65187000D02*
X154660000Y-65420000D01*
%TO.N,Net-(LCD1-RS)*%
X84700000Y-157050000D02*
X84540000Y-156890000D01*
X84700000Y-180600000D02*
X84700000Y-157050000D01*
X85600000Y-181500000D02*
X84700000Y-180600000D01*
%TO.N,Net-(LCD1-VO)*%
X88481000Y-181159000D02*
X88481000Y-150919000D01*
X88140000Y-181500000D02*
X88481000Y-181159000D01*
X88481000Y-150919000D02*
X89030000Y-150370000D01*
%TO.N,Net-(LCD1-E)*%
X76270000Y-164240000D02*
X76800000Y-164770000D01*
X76800000Y-177780000D02*
X80520000Y-181500000D01*
X76800000Y-164770000D02*
X76800000Y-177780000D01*
%TO.N,Net-(LCD1-DB5)*%
X65280000Y-180000000D02*
X70128000Y-175152000D01*
X70128000Y-175152000D02*
X70128000Y-165860000D01*
X65280000Y-181500000D02*
X65280000Y-180000000D01*
%TO.N,Net-(LCD1-DB6)*%
X70128000Y-163560000D02*
X69527000Y-164161000D01*
X69527000Y-164161000D02*
X69527000Y-174705380D01*
X69527000Y-174705380D02*
X62734920Y-181497460D01*
%TO.N,PA1*%
X37290000Y-126408330D02*
X37290000Y-112510000D01*
X37943787Y-127062117D02*
X37290000Y-126408330D01*
X37290000Y-112510000D02*
X35410000Y-110630000D01*
%TO.N,PA3*%
X34050000Y-122150000D02*
X35410000Y-120790000D01*
X34050000Y-129730000D02*
X34050000Y-122150000D01*
X37861000Y-130330000D02*
X37861000Y-135391000D01*
X39670000Y-137200000D02*
X37861000Y-135391000D01*
%TO.N,PA6*%
X45330000Y-129000000D02*
X47290000Y-127040000D01*
X45320000Y-129000000D02*
X45330000Y-129000000D01*
X35410000Y-136790000D02*
X35410000Y-136030000D01*
X33200000Y-139000000D02*
X35410000Y-136790000D01*
X45320000Y-135980000D02*
X45320000Y-129000000D01*
%TO.N,PA5*%
X35410000Y-130950000D02*
X34309000Y-132051000D01*
X34309000Y-136941000D02*
X33910000Y-137340000D01*
X34309000Y-132051000D02*
X34309000Y-136941000D01*
%TO.N,PB2*%
X60940000Y-88150000D02*
X61560000Y-88770000D01*
X64081000Y-119025943D02*
X64081000Y-163617200D01*
X61560000Y-116504943D02*
X64081000Y-119025943D01*
X64081000Y-163617200D02*
X65767400Y-165303600D01*
X61560000Y-88770000D02*
X61560000Y-116504943D01*
%TO.N,PB3*%
X60940000Y-168096200D02*
X60940000Y-91540000D01*
X65767400Y-172923600D02*
X60940000Y-168096200D01*
%TO.N,Net-(U19-IOT8A)*%
X136820000Y-80660000D02*
X136820000Y-85750000D01*
X136820000Y-85750000D02*
X135450000Y-87120000D01*
%TO.N,PX1*%
X56950000Y-187250000D02*
X55827200Y-186127200D01*
X55827200Y-186127200D02*
X55827200Y-161324600D01*
X55827200Y-161324600D02*
X56928200Y-160223600D01*
D57*
%TO.N,Net-(D2-A)*%
X151870000Y-148065000D02*
X151765000Y-147960000D01*
X151870000Y-152140000D02*
X151870000Y-148065000D01*
%TO.N,Net-(LCD1-A{slash}VEE)*%
X105069000Y-183151000D02*
X106360000Y-181860000D01*
X98300000Y-181500000D02*
X99951000Y-183151000D01*
X99951000Y-183151000D02*
X105069000Y-183151000D01*
D56*
%TO.N,~{INT2}*%
X81540000Y-89710000D02*
X81540000Y-74790000D01*
X43936100Y-60369000D02*
X22871000Y-60369000D01*
X23400000Y-64870000D02*
X22110000Y-63580000D01*
X141586400Y-165176600D02*
X141586400Y-162636600D01*
X22871000Y-60369000D02*
X22110000Y-61130000D01*
X81540000Y-74790000D02*
X81490000Y-74740000D01*
X50745000Y-67177900D02*
X43936100Y-60369000D01*
X22110000Y-61130000D02*
X22110000Y-63580000D01*
X50745000Y-67850000D02*
X50745000Y-67177900D01*
%TO.N,Net-(JP14-A)*%
X104800000Y-137130000D02*
X104210000Y-137720000D01*
X98905600Y-171205600D02*
X98905600Y-163737600D01*
X104800000Y-136930000D02*
X104800000Y-137130000D01*
X104210000Y-137720000D02*
X104210000Y-162520000D01*
X129840000Y-172710000D02*
X129810000Y-172680000D01*
X104210000Y-162520000D02*
X104300000Y-162610000D01*
X129840000Y-172730000D02*
X129840000Y-172710000D01*
X98905600Y-163737600D02*
X100006600Y-162636600D01*
X99200000Y-171500000D02*
X98905600Y-171205600D01*
%TO.N,A11*%
X102156000Y-103926000D02*
X101420000Y-103190000D01*
X101100000Y-112180000D02*
X101652000Y-112180000D01*
X101100000Y-150401000D02*
X101080000Y-150421000D01*
X51980527Y-75108000D02*
X51980527Y-75310936D01*
X92770000Y-150421000D02*
X92770000Y-151970000D01*
X92770000Y-151970000D02*
X92700000Y-152040000D01*
X101420000Y-103190000D02*
X101420000Y-89080000D01*
X52415000Y-88875000D02*
X52280000Y-88875000D01*
X51980527Y-75310936D02*
X53349591Y-76680000D01*
X92700000Y-152040000D02*
X92700000Y-153740000D01*
X101652000Y-112180000D02*
X102156000Y-111676000D01*
X144070000Y-112440000D02*
X143775600Y-112734400D01*
X101100000Y-112180000D02*
X101100000Y-150401000D01*
X53349591Y-76680000D02*
X53349591Y-87940409D01*
X143775600Y-112734400D02*
X139072700Y-112734400D01*
X53349591Y-87940409D02*
X52415000Y-88875000D01*
X102156000Y-111676000D02*
X102156000Y-103926000D01*
X139072700Y-112734400D02*
X138810700Y-112472400D01*
%TO.N,PX0*%
X34210000Y-191867760D02*
X34210000Y-191152240D01*
X34210000Y-191152240D02*
X33516760Y-190459000D01*
X50750000Y-187250000D02*
X51830000Y-186170000D01*
X38201000Y-193299000D02*
X35641240Y-193299000D01*
X51830000Y-159418000D02*
X50222600Y-157810600D01*
X44250000Y-187250000D02*
X38201000Y-193299000D01*
X35641240Y-193299000D02*
X34210000Y-191867760D01*
X33516760Y-190459000D02*
X31651000Y-190459000D01*
X31651000Y-190459000D02*
X30500000Y-191610000D01*
X51830000Y-186170000D02*
X51830000Y-159418000D01*
%TO.N,Net-(JP20-C)*%
X141749600Y-111140000D02*
X144070000Y-111140000D01*
X141256200Y-111633400D02*
X141749600Y-111140000D01*
%TO.N,Net-(JP3-C)*%
X123410000Y-136930000D02*
X123389000Y-136951000D01*
X123389000Y-158999000D02*
X123490000Y-159100000D01*
X123389000Y-136951000D02*
X123389000Y-158999000D01*
%TO.N,~{RFSH}*%
X21460000Y-144440000D02*
X21460000Y-143870057D01*
X21581000Y-143749057D02*
X21581000Y-128680943D01*
X68625157Y-120460157D02*
X68625157Y-141540000D01*
X21261000Y-77133957D02*
X21261000Y-72089000D01*
X21261000Y-72089000D02*
X23400000Y-69950000D01*
X21581000Y-128680943D02*
X21261000Y-128360943D01*
X21460000Y-143870057D02*
X21581000Y-143749057D01*
X21261000Y-126140000D02*
X21261000Y-78026043D01*
X21261000Y-128360943D02*
X21261000Y-126140000D01*
X21292000Y-77164957D02*
X21261000Y-77133957D01*
X67520000Y-119355000D02*
X68625157Y-120460157D01*
X21261000Y-78026043D02*
X21292000Y-77995043D01*
X21292000Y-77995043D02*
X21292000Y-77164957D01*
%TO.N,~{BUSRQ}*%
X22184000Y-124967000D02*
X22184000Y-76246000D01*
X22571000Y-127911000D02*
X22180000Y-127520000D01*
X22150000Y-144030000D02*
X22571000Y-143609000D01*
X22180000Y-127520000D02*
X22180000Y-124971000D01*
X22184000Y-76246000D02*
X23400000Y-75030000D01*
X69100000Y-128115000D02*
X70815000Y-126400000D01*
X22571000Y-143609000D02*
X22571000Y-127911000D01*
X69397559Y-141186468D02*
X69100000Y-140888909D01*
X22180000Y-124971000D02*
X22184000Y-124967000D01*
X69100000Y-140888909D02*
X69100000Y-128115000D01*
%TO.N,~{NMI}*%
X47970000Y-81890000D02*
X47970000Y-64970000D01*
X48846000Y-116273100D02*
X48846000Y-99076000D01*
X24960000Y-60770000D02*
X23400000Y-62330000D01*
X52280000Y-129515000D02*
X50340000Y-127575000D01*
X48846000Y-99076000D02*
X48447000Y-98677000D01*
X50340000Y-117767100D02*
X48846000Y-116273100D01*
X47970000Y-64970000D02*
X43770000Y-60770000D01*
X48447000Y-98677000D02*
X48447000Y-82367000D01*
X43770000Y-60770000D02*
X24960000Y-60770000D01*
X48447000Y-82367000D02*
X47970000Y-81890000D01*
X50340000Y-127575000D02*
X50340000Y-117767100D01*
%TO.N,~{BUSAK}*%
X21970000Y-128220000D02*
X21710000Y-127960000D01*
X21710000Y-74180000D02*
X23400000Y-72490000D01*
X21710000Y-127960000D02*
X21710000Y-74180000D01*
%TO.N,~{WAIT}*%
X20860000Y-77859943D02*
X20891000Y-77828943D01*
X69710000Y-140450000D02*
X69710000Y-138670000D01*
X20860000Y-77300057D02*
X20860000Y-69950000D01*
X69710000Y-138670000D02*
X69700000Y-138660000D01*
X20860000Y-143310000D02*
X20860000Y-77859943D01*
X69700000Y-138660000D02*
X69700000Y-130705000D01*
X20980000Y-143430000D02*
X20860000Y-143310000D01*
X69700000Y-130705000D02*
X70825000Y-129580000D01*
X20860000Y-69950000D02*
X23400000Y-67410000D01*
X20891000Y-77331057D02*
X20860000Y-77300057D01*
X20891000Y-77828943D02*
X20891000Y-77331057D01*
%TO.N,~{HALT}*%
X49940000Y-129715000D02*
X49940000Y-120512950D01*
X45221000Y-108161057D02*
X45221000Y-90896050D01*
X45771000Y-90346050D02*
X45771000Y-65500000D01*
X49940000Y-120512950D02*
X47746050Y-118319000D01*
X47746050Y-118319000D02*
X46833950Y-118319000D01*
X45221000Y-90896050D02*
X45771000Y-90346050D01*
X46189000Y-109129057D02*
X45221000Y-108161057D01*
X44000000Y-63729000D02*
X45771000Y-65500000D01*
X52280000Y-132055000D02*
X49940000Y-129715000D01*
X46189000Y-117674050D02*
X46189000Y-109129057D01*
X28010000Y-62340000D02*
X29399000Y-63729000D01*
X29399000Y-63729000D02*
X44000000Y-63729000D01*
X46833950Y-118319000D02*
X46189000Y-117674050D01*
%TO.N,Net-(JP19-C)*%
X145770000Y-96520000D02*
X141917600Y-100372400D01*
X140800150Y-100372400D02*
X140155200Y-101017350D01*
X141917600Y-100372400D02*
X140800150Y-100372400D01*
X140155200Y-101017350D02*
X140155200Y-102912400D01*
X140155200Y-102912400D02*
X141256200Y-104013400D01*
X145770000Y-95570000D02*
X145770000Y-96520000D01*
%TO.N,/kraft80V2-ios/CKFF*%
X121035400Y-155793657D02*
X121035400Y-165250000D01*
X57771000Y-89911000D02*
X57771000Y-100109000D01*
X57771000Y-100109000D02*
X57550000Y-100330000D01*
X58060000Y-89520000D02*
X58060000Y-89622000D01*
X122041000Y-135885250D02*
X122041000Y-154788057D01*
X58060000Y-89622000D02*
X57771000Y-89911000D01*
X122521000Y-135405250D02*
X122041000Y-135885250D01*
X122041000Y-154788057D02*
X121035400Y-155793657D01*
X122500000Y-99520000D02*
X122521000Y-99541000D01*
X122580000Y-92890000D02*
X122500000Y-92970000D01*
X122500000Y-92970000D02*
X122500000Y-99520000D01*
X122521000Y-99541000D02*
X122521000Y-135405250D01*
%TO.N,/kraft80V2-ios/CKLED*%
X114589000Y-174238943D02*
X114941057Y-174591000D01*
X114941057Y-174591000D02*
X117567000Y-174591000D01*
X114589000Y-157498050D02*
X114589000Y-174238943D01*
X114671000Y-157416050D02*
X114589000Y-157498050D01*
X114671000Y-140100000D02*
X114671000Y-157416050D01*
X117567000Y-174591000D02*
X119234400Y-172923600D01*
%TO.N,/kraft80V2-ios/CKPSHB*%
X125620000Y-153490000D02*
X125620000Y-166609200D01*
X125620000Y-166609200D02*
X126854400Y-167843600D01*
%TO.N,/kraft80V2-ios/~{CS1}*%
X130390000Y-163960000D02*
X130330000Y-163960000D01*
X116480000Y-164000000D02*
X116480000Y-162180000D01*
X130330000Y-163960000D02*
X130290000Y-164000000D01*
X116480000Y-162180000D02*
X116410000Y-162110000D01*
%TO.N,Net-(JP11-C)*%
X86000000Y-150432752D02*
X87899600Y-152332352D01*
X87899600Y-152332352D02*
X87899600Y-158600400D01*
X87899600Y-158600400D02*
X87520000Y-158980000D01*
X86000000Y-150000000D02*
X86000000Y-150432752D01*
%TO.N,/kraft80V2-ios/~{CS0}*%
X118133400Y-159438440D02*
X118133400Y-161008760D01*
X118150000Y-165776250D02*
X118150000Y-166560000D01*
X118150000Y-161025360D02*
X118150000Y-162290950D01*
X118133400Y-161008760D02*
X118150000Y-161025360D01*
X118133400Y-163219650D02*
X118150000Y-163236250D01*
X118133400Y-162307550D02*
X118133400Y-163219650D01*
X118150000Y-159421840D02*
X118133400Y-159438440D01*
X118150000Y-163236250D02*
X118150000Y-164830950D01*
X87899600Y-161299200D02*
X86798600Y-160198200D01*
X130390000Y-166560000D02*
X130390000Y-166470000D01*
X118133400Y-164847550D02*
X118133400Y-165759650D01*
X130390000Y-166470000D02*
X130420000Y-166440000D01*
X118150000Y-162290950D02*
X118133400Y-162307550D01*
X118150000Y-152860000D02*
X118150000Y-159421840D01*
X87880000Y-166360000D02*
X87899600Y-166340400D01*
X118150000Y-164830950D02*
X118133400Y-164847550D01*
X87899600Y-166340400D02*
X87899600Y-161299200D01*
X118150000Y-166560000D02*
X118120000Y-166590000D01*
X118133400Y-165759650D02*
X118150000Y-165776250D01*
X118220000Y-152790000D02*
X118150000Y-152860000D01*
%TO.N,/kraft80V2-fpga/~{DISK_CS}*%
X140786091Y-31193909D02*
X141341000Y-31748818D01*
X140786091Y-26393909D02*
X140786091Y-31193909D01*
X141341000Y-31748818D02*
X141341000Y-64180000D01*
%TO.N,/kraft80V2-fpga/DAT_KBD*%
X71791000Y-69228000D02*
X71791000Y-39831000D01*
X71791000Y-39831000D02*
X71470000Y-39510000D01*
X60689000Y-31401000D02*
X61760000Y-30330000D01*
X61480000Y-38940000D02*
X60689000Y-38149000D01*
X73120000Y-70557000D02*
X71791000Y-69228000D01*
X60689000Y-38149000D02*
X60689000Y-31401000D01*
%TO.N,/kraft80V2-fpga/CK_KBD*%
X94693500Y-69270500D02*
X94693500Y-58435700D01*
X59639000Y-35332000D02*
X59720000Y-35251000D01*
X59639000Y-55731000D02*
X59639000Y-35332000D01*
X95980000Y-70557000D02*
X94693500Y-69270500D01*
X94693500Y-58435700D02*
X92200000Y-55942200D01*
X59490000Y-55880000D02*
X59639000Y-55731000D01*
%TO.N,/kraft80V2-ios/~{CS4}*%
X97650000Y-171220000D02*
X97650000Y-159190000D01*
X116410000Y-159510000D02*
X116370000Y-159510000D01*
%TO.N,/kraft80V2-ios/~{DISP_CS}*%
X115977248Y-160810000D02*
X115190000Y-161597248D01*
X115190000Y-161597248D02*
X115190000Y-173990000D01*
X116410000Y-160810000D02*
X115977248Y-160810000D01*
%TO.N,Net-(JP13-C)*%
X79178600Y-162738200D02*
X80359000Y-161557800D01*
X80359000Y-161557800D02*
X80359000Y-154841000D01*
X79870000Y-154352000D02*
X79870000Y-153760000D01*
X80359000Y-154841000D02*
X79870000Y-154352000D01*
%TO.N,/kraft80V2-ios/~{CS2}*%
X85381000Y-152768000D02*
X85381000Y-163860600D01*
X85530000Y-152619000D02*
X85381000Y-152768000D01*
X85381000Y-163860600D02*
X86798600Y-165278200D01*
%TO.N,Net-(U17-TXD)*%
X51250000Y-66190000D02*
X53370000Y-66190000D01*
X40500000Y-55440000D02*
X51250000Y-66190000D01*
%TO.N,Net-(U17-~{CTS})*%
X139800000Y-49210000D02*
X140791000Y-50201000D01*
X140791000Y-84319000D02*
X135450000Y-89660000D01*
X140791000Y-50201000D02*
X140791000Y-84319000D01*
%TO.N,Net-(U17-RXD)*%
X157960000Y-76960000D02*
X158310000Y-76960000D01*
X152139000Y-55474500D02*
X152139000Y-71139000D01*
X152139000Y-71139000D02*
X157960000Y-76960000D01*
X141891000Y-45226500D02*
X152139000Y-55474500D01*
%TO.N,Net-(U19-IOT11A)*%
X131138000Y-85210400D02*
X131138000Y-76787200D01*
X131138000Y-76787200D02*
X131136200Y-76785400D01*
%TO.N,Net-(U19-IOT11B)*%
X127709000Y-85200000D02*
X127709000Y-76809000D01*
X127709000Y-76809000D02*
X127732600Y-76785400D01*
%TO.N,Net-(U19-IOT12B)*%
X138021000Y-85219000D02*
X138021000Y-70731000D01*
X120876400Y-85174600D02*
X120876400Y-76783600D01*
X137910000Y-85330000D02*
X138021000Y-85219000D01*
X136630000Y-69340000D02*
X135450000Y-69340000D01*
X138021000Y-70731000D02*
X136630000Y-69340000D01*
X120876400Y-76783600D02*
X120900000Y-76760000D01*
%TO.N,Net-(U19-IOT12A)*%
X137420000Y-83170000D02*
X137420000Y-73850000D01*
X124280000Y-76809000D02*
X124303600Y-76785400D01*
X137420000Y-73850000D02*
X135450000Y-71880000D01*
X124280000Y-85200000D02*
X124280000Y-76809000D01*
%TO.N,Net-(R42-Pad1)*%
X135969000Y-162099200D02*
X135969000Y-101419000D01*
X135969000Y-101419000D02*
X132239000Y-97689000D01*
X132210000Y-78990000D02*
X132239000Y-79019000D01*
X141586400Y-167716600D02*
X135969000Y-162099200D01*
X132239000Y-97689000D02*
X132239000Y-79019000D01*
%TO.N,Net-(JP12-C)*%
X77764000Y-153026000D02*
X77764000Y-158783600D01*
X79860000Y-149980000D02*
X79860000Y-150930000D01*
X79860000Y-150930000D02*
X77764000Y-153026000D01*
X77764000Y-158783600D02*
X79178600Y-160198200D01*
%TO.N,/kraft80V2-ios/~{LEDS_CS}*%
X119520000Y-151840000D02*
X119520000Y-152790000D01*
X117414000Y-152206144D02*
X117886144Y-151734000D01*
X117466000Y-166785943D02*
X117466000Y-153446000D01*
X119234400Y-167843600D02*
X118523657Y-167843600D01*
X117886144Y-151734000D02*
X119414000Y-151734000D01*
X117466000Y-153446000D02*
X117414000Y-153394000D01*
X119414000Y-151734000D02*
X119520000Y-151840000D01*
X117414000Y-153394000D02*
X117414000Y-152206144D01*
X118523657Y-167843600D02*
X117466000Y-166785943D01*
%TO.N,/kraft80V2-ios/~{PSHB_CS}*%
X126854400Y-165303600D02*
X130346400Y-165303600D01*
X130346400Y-165303600D02*
X130390000Y-165260000D01*
%TO.N,Net-(JP18-C)*%
X101100000Y-110880000D02*
X101100000Y-110907600D01*
X101100000Y-110907600D02*
X100990000Y-111017600D01*
%TO.N,Net-(U3-O2)*%
X101570000Y-158395600D02*
X101570000Y-163613200D01*
X101570000Y-163613200D02*
X100006600Y-165176600D01*
%TO.N,Net-(JP15-C)*%
X91400000Y-156570000D02*
X91400000Y-153740000D01*
X92386600Y-157556600D02*
X91400000Y-156570000D01*
%TO.N,/~{SEL_ROM}*%
X100006600Y-160096600D02*
X100969000Y-159134200D01*
X101530000Y-154741057D02*
X101700000Y-154571057D01*
X101700000Y-154571057D02*
X101700000Y-119914600D01*
X101530000Y-157585657D02*
X101530000Y-154741057D01*
X100969000Y-159134200D02*
X100969000Y-158146657D01*
X100969000Y-158146657D02*
X101530000Y-157585657D01*
%TO.N,Net-(JP17-C)*%
X89630000Y-163090000D02*
X89630000Y-163080000D01*
X89630000Y-163080000D02*
X89788881Y-162921119D01*
%TO.N,Net-(JP16-C)*%
X91285600Y-161197600D02*
X92386600Y-160096600D01*
X102940000Y-174710000D02*
X102920000Y-174710000D01*
X91370000Y-173880000D02*
X91285600Y-173795600D01*
X91285600Y-173795600D02*
X91285600Y-161197600D01*
X102920000Y-174710000D02*
X102900000Y-174690000D01*
%TO.N,Net-(JP16-A)*%
X103355200Y-172994800D02*
X102940000Y-173410000D01*
X105797800Y-172994800D02*
X103355200Y-172994800D01*
D57*
%TO.N,Net-(D3-K)*%
X25250000Y-141110000D02*
X25250000Y-141390000D01*
X25250000Y-141390000D02*
X26650000Y-142790000D01*
X25250000Y-141110000D02*
X25250000Y-125870000D01*
X26650000Y-142790000D02*
X26650000Y-146800000D01*
%TO.N,Net-(D10-K)*%
X23899000Y-122141000D02*
X23899000Y-148019000D01*
X25250000Y-120790000D02*
X23899000Y-122141000D01*
X25250000Y-120790000D02*
X25250000Y-105550000D01*
X23899000Y-148019000D02*
X26610000Y-150730000D01*
%TD*%
M02*
