%TF.GenerationSoftware,KiCad,Pcbnew,9.0.4-9.0.4-0~ubuntu24.04.1*%
%TF.CreationDate,2025-09-23T22:40:02-03:00*%
%TF.ProjectId,Kraft80V2,4b726166-7438-4305-9632-2e6b69636164,rev?*%
%TF.SameCoordinates,Original*%
%TF.FileFunction,Copper,L1,Top*%
%TF.FilePolarity,Positive*%
%FSLAX46Y46*%
G04 Gerber Fmt 4.6, Leading zero omitted, Abs format (unit mm)*
G04 Created by KiCad (PCBNEW 9.0.4-9.0.4-0~ubuntu24.04.1) date 2025-09-23 22:40:02*
%MOMM*%
%LPD*%
G01*
G04 APERTURE LIST*
G04 Aperture macros list*
%AMRoundRect*
0 Rectangle with rounded corners*
0 $1 Rounding radius*
0 $2 $3 $4 $5 $6 $7 $8 $9 X,Y pos of 4 corners*
0 Add a 4 corners polygon primitive as box body*
4,1,4,$2,$3,$4,$5,$6,$7,$8,$9,$2,$3,0*
0 Add four circle primitives for the rounded corners*
1,1,$1+$1,$2,$3*
1,1,$1+$1,$4,$5*
1,1,$1+$1,$6,$7*
1,1,$1+$1,$8,$9*
0 Add four rect primitives between the rounded corners*
20,1,$1+$1,$2,$3,$4,$5,0*
20,1,$1+$1,$4,$5,$6,$7,0*
20,1,$1+$1,$6,$7,$8,$9,0*
20,1,$1+$1,$8,$9,$2,$3,0*%
G04 Aperture macros list end*
%TA.AperFunction,ComponentPad*%
%ADD10C,1.600000*%
%TD*%
%TA.AperFunction,ComponentPad*%
%ADD11C,2.000000*%
%TD*%
%TA.AperFunction,ComponentPad*%
%ADD12RoundRect,0.250000X-0.550000X-0.550000X0.550000X-0.550000X0.550000X0.550000X-0.550000X0.550000X0*%
%TD*%
%TA.AperFunction,ComponentPad*%
%ADD13R,1.800000X1.800000*%
%TD*%
%TA.AperFunction,ComponentPad*%
%ADD14C,1.800000*%
%TD*%
%TA.AperFunction,ComponentPad*%
%ADD15C,1.200000*%
%TD*%
%TA.AperFunction,ComponentPad*%
%ADD16RoundRect,0.250000X-0.845000X0.620000X-0.845000X-0.620000X0.845000X-0.620000X0.845000X0.620000X0*%
%TD*%
%TA.AperFunction,ComponentPad*%
%ADD17O,2.190000X1.740000*%
%TD*%
%TA.AperFunction,ComponentPad*%
%ADD18R,3.000000X3.000000*%
%TD*%
%TA.AperFunction,ComponentPad*%
%ADD19C,3.000000*%
%TD*%
%TA.AperFunction,WasherPad*%
%ADD20C,5.600000*%
%TD*%
%TA.AperFunction,ComponentPad*%
%ADD21R,1.600000X1.600000*%
%TD*%
%TA.AperFunction,ComponentPad*%
%ADD22C,1.440000*%
%TD*%
%TA.AperFunction,ComponentPad*%
%ADD23C,1.500000*%
%TD*%
%TA.AperFunction,ComponentPad*%
%ADD24RoundRect,0.285750X-0.666750X-0.666750X0.666750X-0.666750X0.666750X0.666750X-0.666750X0.666750X0*%
%TD*%
%TA.AperFunction,ComponentPad*%
%ADD25C,1.905000*%
%TD*%
%TA.AperFunction,ComponentPad*%
%ADD26RoundRect,0.250000X0.550000X-0.550000X0.550000X0.550000X-0.550000X0.550000X-0.550000X-0.550000X0*%
%TD*%
%TA.AperFunction,ComponentPad*%
%ADD27R,1.700000X1.700000*%
%TD*%
%TA.AperFunction,ComponentPad*%
%ADD28C,1.700000*%
%TD*%
%TA.AperFunction,ComponentPad*%
%ADD29RoundRect,0.250000X-0.550000X0.550000X-0.550000X-0.550000X0.550000X-0.550000X0.550000X0.550000X0*%
%TD*%
%TA.AperFunction,ComponentPad*%
%ADD30RoundRect,0.250000X-0.702500X0.702500X-0.702500X-0.702500X0.702500X-0.702500X0.702500X0.702500X0*%
%TD*%
%TA.AperFunction,ComponentPad*%
%ADD31O,3.600000X1.800000*%
%TD*%
%TA.AperFunction,ComponentPad*%
%ADD32O,1.800000X3.600000*%
%TD*%
%TA.AperFunction,ComponentPad*%
%ADD33RoundRect,0.375000X0.577500X0.577500X-0.577500X0.577500X-0.577500X-0.577500X0.577500X-0.577500X0*%
%TD*%
%TA.AperFunction,ComponentPad*%
%ADD34R,1.050000X1.500000*%
%TD*%
%TA.AperFunction,ComponentPad*%
%ADD35O,1.050000X1.500000*%
%TD*%
%TA.AperFunction,ComponentPad*%
%ADD36R,2.000000X1.440000*%
%TD*%
%TA.AperFunction,ComponentPad*%
%ADD37O,2.000000X1.440000*%
%TD*%
%TA.AperFunction,ComponentPad*%
%ADD38R,1.800000X2.600000*%
%TD*%
%TA.AperFunction,ComponentPad*%
%ADD39O,1.800000X2.600000*%
%TD*%
%TA.AperFunction,ComponentPad*%
%ADD40RoundRect,0.285750X0.666750X0.666750X-0.666750X0.666750X-0.666750X-0.666750X0.666750X-0.666750X0*%
%TD*%
%TA.AperFunction,ViaPad*%
%ADD41C,0.600000*%
%TD*%
%TA.AperFunction,Conductor*%
%ADD42C,0.200000*%
%TD*%
%TA.AperFunction,Conductor*%
%ADD43C,0.500000*%
%TD*%
G04 APERTURE END LIST*
D10*
%TO.P,R6,1*%
%TO.N,+5V*%
X46755000Y-129200000D03*
%TO.P,R6,2*%
%TO.N,Net-(U1-~{NMI})*%
X49295000Y-129200000D03*
%TD*%
%TO.P,R5,1*%
%TO.N,+5V*%
X46755000Y-125700000D03*
%TO.P,R5,2*%
%TO.N,~{INT}*%
X49295000Y-125700000D03*
%TD*%
%TO.P,R4,1*%
%TO.N,+5V*%
X73345000Y-129200000D03*
%TO.P,R4,2*%
%TO.N,Net-(U1-~{WAIT})*%
X70805000Y-129200000D03*
%TD*%
%TO.P,R3,1*%
%TO.N,+5V*%
X73340000Y-125000000D03*
%TO.P,R3,2*%
%TO.N,Net-(U1-~{BUSREQ})*%
X70800000Y-125000000D03*
%TD*%
D11*
%TO.P,SW5,1,1*%
%TO.N,GNDREF*%
X101550000Y-191750000D03*
X95050000Y-191750000D03*
%TO.P,SW5,2,2*%
%TO.N,/kraft80V2-ios/PX4*%
X101550000Y-187250000D03*
X95050000Y-187250000D03*
%TD*%
D12*
%TO.P,U9,1,A14*%
%TO.N,A14*%
X126016200Y-98933400D03*
D10*
%TO.P,U9,2,A12*%
%TO.N,A12*%
X126016200Y-101473400D03*
%TO.P,U9,3,A7*%
%TO.N,A7*%
X126016200Y-104013400D03*
%TO.P,U9,4,A6*%
%TO.N,A6*%
X126016200Y-106553400D03*
%TO.P,U9,5,A5*%
%TO.N,A5*%
X126016200Y-109093400D03*
%TO.P,U9,6,A4*%
%TO.N,A4*%
X126016200Y-111633400D03*
%TO.P,U9,7,A3*%
%TO.N,A3*%
X126016200Y-114173400D03*
%TO.P,U9,8,A2*%
%TO.N,A2*%
X126016200Y-116713400D03*
%TO.P,U9,9,A1*%
%TO.N,A1*%
X126016200Y-119253400D03*
%TO.P,U9,10,A0*%
%TO.N,A0*%
X126016200Y-121793400D03*
%TO.P,U9,11,Q0*%
%TO.N,D0*%
X126016200Y-124333400D03*
%TO.P,U9,12,Q1*%
%TO.N,D1*%
X126016200Y-126873400D03*
%TO.P,U9,13,Q2*%
%TO.N,D2*%
X126016200Y-129413400D03*
%TO.P,U9,14,GND*%
%TO.N,GNDREF*%
X126016200Y-131953400D03*
%TO.P,U9,15,Q3*%
%TO.N,D3*%
X141256200Y-131953400D03*
%TO.P,U9,16,Q4*%
%TO.N,D4*%
X141256200Y-129413400D03*
%TO.P,U9,17,Q5*%
%TO.N,D5*%
X141256200Y-126873400D03*
%TO.P,U9,18,Q6*%
%TO.N,D6*%
X141256200Y-124333400D03*
%TO.P,U9,19,Q7*%
%TO.N,D7*%
X141256200Y-121793400D03*
%TO.P,U9,20,~{CS}*%
%TO.N,/~{SEL_RAM}*%
X141256200Y-119253400D03*
%TO.P,U9,21,A10*%
%TO.N,A10*%
X141256200Y-116713400D03*
%TO.P,U9,22,~{OE}*%
%TO.N,~{READ}*%
X141256200Y-114173400D03*
%TO.P,U9,23,A11*%
%TO.N,A11*%
X141256200Y-111633400D03*
%TO.P,U9,24,A9*%
%TO.N,A9*%
X141256200Y-109093400D03*
%TO.P,U9,25,A8*%
%TO.N,A8*%
X141256200Y-106553400D03*
%TO.P,U9,26,A13*%
%TO.N,A13*%
X141256200Y-104013400D03*
%TO.P,U9,27,~{WE}*%
%TO.N,~{WRITE}*%
X141256200Y-101473400D03*
%TO.P,U9,28,VCC*%
%TO.N,+5V*%
X141256200Y-98933400D03*
%TD*%
%TO.P,R37,1*%
%TO.N,Net-(R25-Pad2)*%
X108997600Y-33012400D03*
%TO.P,R37,2*%
%TO.N,Net-(R24-Pad2)*%
X108997600Y-35552400D03*
%TD*%
%TO.P,R20,1*%
%TO.N,+5V*%
X74195000Y-39647200D03*
%TO.P,R20,2*%
%TO.N,Net-(Q1-B)*%
X74195000Y-42187200D03*
%TD*%
D13*
%TO.P,D2,1,K*%
%TO.N,GNDREF*%
X155302400Y-148133200D03*
D14*
%TO.P,D2,2,A*%
%TO.N,Net-(D2-A)*%
X157842400Y-148133200D03*
%TD*%
D10*
%TO.P,C12,1*%
%TO.N,+5V*%
X141134600Y-94412200D03*
%TO.P,C12,2*%
%TO.N,GNDREF*%
X138634600Y-94412200D03*
%TD*%
D12*
%TO.P,U5,1,~{Mr}*%
%TO.N,~{RESET}*%
X36074800Y-110211000D03*
D10*
%TO.P,U5,2,Q0*%
%TO.N,Net-(U5-Q0)*%
X36074800Y-112751000D03*
%TO.P,U5,3,D0*%
%TO.N,D0*%
X36074800Y-115291000D03*
%TO.P,U5,4,D1*%
%TO.N,D1*%
X36074800Y-117831000D03*
%TO.P,U5,5,Q1*%
%TO.N,Net-(U5-Q1)*%
X36074800Y-120371000D03*
%TO.P,U5,6,Q2*%
%TO.N,Net-(U5-Q2)*%
X36074800Y-122911000D03*
%TO.P,U5,7,D2*%
%TO.N,D2*%
X36074800Y-125451000D03*
%TO.P,U5,8,D3*%
%TO.N,D3*%
X36074800Y-127991000D03*
%TO.P,U5,9,Q3*%
%TO.N,Net-(U5-Q3)*%
X36074800Y-130531000D03*
%TO.P,U5,10,GND*%
%TO.N,GNDREF*%
X36074800Y-133071000D03*
%TO.P,U5,11,Cp*%
%TO.N,CKLED*%
X43694800Y-133071000D03*
%TO.P,U5,12,Q4*%
%TO.N,Net-(U5-Q4)*%
X43694800Y-130531000D03*
%TO.P,U5,13,D4*%
%TO.N,D4*%
X43694800Y-127991000D03*
%TO.P,U5,14,D5*%
%TO.N,D5*%
X43694800Y-125451000D03*
%TO.P,U5,15,Q5*%
%TO.N,Net-(U5-Q5)*%
X43694800Y-122911000D03*
%TO.P,U5,16,Q6*%
%TO.N,Net-(U5-Q6)*%
X43694800Y-120371000D03*
%TO.P,U5,17,D6*%
%TO.N,D6*%
X43694800Y-117831000D03*
%TO.P,U5,18,D7*%
%TO.N,D7*%
X43694800Y-115291000D03*
%TO.P,U5,19,Q7*%
%TO.N,Net-(U5-Q7)*%
X43694800Y-112751000D03*
%TO.P,U5,20,VCC*%
%TO.N,+5V*%
X43694800Y-110211000D03*
%TD*%
D11*
%TO.P,SW7,1,1*%
%TO.N,GNDREF*%
X126950000Y-191750000D03*
X120450000Y-191750000D03*
%TO.P,SW7,2,2*%
%TO.N,/kraft80V2-ios/PX6*%
X126950000Y-187250000D03*
X120450000Y-187250000D03*
%TD*%
D10*
%TO.P,R21,1*%
%TO.N,CPM*%
X29804600Y-80366000D03*
%TO.P,R21,2*%
%TO.N,Net-(D11-A)*%
X27264600Y-80366000D03*
%TD*%
D13*
%TO.P,D10,1,K*%
%TO.N,GNDREF*%
X19644600Y-109017200D03*
D14*
%TO.P,D10,2,A*%
%TO.N,Net-(D10-A)*%
X22184600Y-109017200D03*
%TD*%
D11*
%TO.P,SW2,1,1*%
%TO.N,GNDREF*%
X63450000Y-191750000D03*
X56950000Y-191750000D03*
%TO.P,SW2,2,2*%
%TO.N,/kraft80V2-ios/PX1*%
X63450000Y-187250000D03*
X56950000Y-187250000D03*
%TD*%
D10*
%TO.P,R10,1*%
%TO.N,Net-(U5-Q6)*%
X29804600Y-124257200D03*
%TO.P,R10,2*%
%TO.N,Net-(D5-A)*%
X27264600Y-124257200D03*
%TD*%
D15*
%TO.P,C6,1*%
%TO.N,+5V*%
X152602400Y-141433200D03*
%TO.P,C6,2*%
%TO.N,GNDREF*%
X152602400Y-143433200D03*
%TD*%
D10*
%TO.P,C13,1*%
%TO.N,Net-(C13-Pad1)*%
X23100000Y-160500000D03*
%TO.P,C13,2*%
%TO.N,Net-(C13-Pad2)*%
X23100000Y-163000000D03*
%TD*%
%TO.P,R15,1*%
%TO.N,Net-(U5-Q3)*%
X29804600Y-109017200D03*
%TO.P,R15,2*%
%TO.N,Net-(D10-A)*%
X27264600Y-109017200D03*
%TD*%
%TO.P,R17,1*%
%TO.N,Net-(R17-Pad1)*%
X26600000Y-165550000D03*
%TO.P,R17,2*%
%TO.N,Net-(C13-Pad2)*%
X26600000Y-163010000D03*
%TD*%
%TO.P,C11,1*%
%TO.N,+3V3*%
X105195600Y-53635600D03*
%TO.P,C11,2*%
%TO.N,GNDREF*%
X105195600Y-51135600D03*
%TD*%
%TO.P,R44,1*%
%TO.N,+5V*%
X103240000Y-181600000D03*
%TO.P,R44,2*%
%TO.N,Net-(LCD1-A{slash}VEE)*%
X100700000Y-181600000D03*
%TD*%
D13*
%TO.P,D12,1,K*%
%TO.N,GNDREF*%
X19644600Y-85446000D03*
D14*
%TO.P,D12,2,A*%
%TO.N,Net-(D12-A)*%
X22184600Y-85446000D03*
%TD*%
D12*
%TO.P,U18,1,NC*%
%TO.N,unconnected-(U18-NC-Pad1)*%
X104248400Y-98755600D03*
D10*
%TO.P,U18,2,A12*%
%TO.N,A12*%
X104248400Y-101295600D03*
%TO.P,U18,3,A7*%
%TO.N,A7*%
X104248400Y-103835600D03*
%TO.P,U18,4,A6*%
%TO.N,A6*%
X104248400Y-106375600D03*
%TO.P,U18,5,A5*%
%TO.N,A5*%
X104248400Y-108915600D03*
%TO.P,U18,6,A4*%
%TO.N,A4*%
X104248400Y-111455600D03*
%TO.P,U18,7,A3*%
%TO.N,A3*%
X104248400Y-113995600D03*
%TO.P,U18,8,A2*%
%TO.N,A2*%
X104248400Y-116535600D03*
%TO.P,U18,9,A1*%
%TO.N,A1*%
X104248400Y-119075600D03*
%TO.P,U18,10,A0*%
%TO.N,A0*%
X104248400Y-121615600D03*
%TO.P,U18,11,I/O0*%
%TO.N,D0*%
X104248400Y-124155600D03*
%TO.P,U18,12,I/O1*%
%TO.N,D1*%
X104248400Y-126695600D03*
%TO.P,U18,13,I/O2*%
%TO.N,D2*%
X104248400Y-129235600D03*
%TO.P,U18,14,GND*%
%TO.N,GNDREF*%
X104248400Y-131775600D03*
%TO.P,U18,15,I/O3*%
%TO.N,D3*%
X119488400Y-131775600D03*
%TO.P,U18,16,I/O4*%
%TO.N,D4*%
X119488400Y-129235600D03*
%TO.P,U18,17,I/O5*%
%TO.N,D5*%
X119488400Y-126695600D03*
%TO.P,U18,18,I/O6*%
%TO.N,D6*%
X119488400Y-124155600D03*
%TO.P,U18,19,I/O7*%
%TO.N,D7*%
X119488400Y-121615600D03*
%TO.P,U18,20,~{CE}*%
%TO.N,/~{ROM_BASIC}*%
X119488400Y-119075600D03*
%TO.P,U18,21,A10*%
%TO.N,A10*%
X119488400Y-116535600D03*
%TO.P,U18,22,~{OE}*%
%TO.N,~{READ}*%
X119488400Y-113995600D03*
%TO.P,U18,23,A11*%
%TO.N,A11*%
X119488400Y-111455600D03*
%TO.P,U18,24,A9*%
%TO.N,A9*%
X119488400Y-108915600D03*
%TO.P,U18,25,A8*%
%TO.N,A8*%
X119488400Y-106375600D03*
%TO.P,U18,26,NC*%
%TO.N,unconnected-(U18-NC-Pad26)*%
X119488400Y-103835600D03*
%TO.P,U18,27,~{WE}*%
%TO.N,+5V*%
X119488400Y-101295600D03*
%TO.P,U18,28,VCC*%
X119488400Y-98755600D03*
%TD*%
D16*
%TO.P,CN1,1,Pin_1*%
%TO.N,+5V*%
X162902400Y-141493200D03*
D17*
%TO.P,CN1,2,Pin_2*%
%TO.N,GNDREF*%
X162902400Y-144033200D03*
%TD*%
D10*
%TO.P,C1,1*%
%TO.N,+5V*%
X48444600Y-114224200D03*
%TO.P,C1,2*%
%TO.N,GNDREF*%
X48444600Y-116724200D03*
%TD*%
D12*
%TO.P,U93,1*%
%TO.N,Net-(JP1-C)*%
X133966400Y-160096600D03*
D10*
%TO.P,U93,2*%
%TO.N,Net-(U91-O2)*%
X133966400Y-162636600D03*
%TO.P,U93,3*%
%TO.N,Net-(U93-Pad3)*%
X133966400Y-165176600D03*
%TO.P,U93,4*%
X133966400Y-167716600D03*
%TO.P,U93,5*%
%TO.N,Net-(U91-O3)*%
X133966400Y-170256600D03*
%TO.P,U93,6*%
%TO.N,/~{SEL_RAM}*%
X133966400Y-172796600D03*
%TO.P,U93,7,GND*%
%TO.N,GNDREF*%
X133966400Y-175336600D03*
%TO.P,U93,8*%
%TO.N,unconnected-(U93-Pad8)*%
X141586400Y-175336600D03*
%TO.P,U93,9*%
%TO.N,+5V*%
X141586400Y-172796600D03*
%TO.P,U93,10*%
X141586400Y-170256600D03*
%TO.P,U93,11*%
%TO.N,unconnected-(U93-Pad11)*%
X141586400Y-167716600D03*
%TO.P,U93,12*%
%TO.N,+5V*%
X141586400Y-165176600D03*
%TO.P,U93,13*%
X141586400Y-162636600D03*
%TO.P,U93,14,VCC*%
X141586400Y-160096600D03*
%TD*%
%TO.P,R11,1*%
%TO.N,Net-(U5-Q7)*%
X29804600Y-129337200D03*
%TO.P,R11,2*%
%TO.N,Net-(D6-A)*%
X27264600Y-129337200D03*
%TD*%
D18*
%TO.P,RV1,1,1*%
%TO.N,GNDREF*%
X67500000Y-48600000D03*
D19*
%TO.P,RV1,2,2*%
%TO.N,Net-(Q1-B)*%
X62500000Y-48600000D03*
%TO.P,RV1,3,3*%
%TO.N,Net-(C21-Pad2)*%
X57500000Y-48600000D03*
%TD*%
D10*
%TO.P,C2,1*%
%TO.N,+5V*%
X101733800Y-91130200D03*
%TO.P,C2,2*%
%TO.N,GNDREF*%
X101733800Y-93630200D03*
%TD*%
%TO.P,R56,1*%
%TO.N,Net-(R41-Pad2)*%
X120122800Y-33006000D03*
%TO.P,R56,2*%
%TO.N,Net-(R47-Pad2)*%
X120122800Y-35546000D03*
%TD*%
D13*
%TO.P,D6,1,K*%
%TO.N,GNDREF*%
X19644600Y-129337200D03*
D14*
%TO.P,D6,2,A*%
%TO.N,Net-(D6-A)*%
X22184600Y-129337200D03*
%TD*%
D10*
%TO.P,R47,1*%
%TO.N,Net-(U16-QC)*%
X120072000Y-41959600D03*
%TO.P,R47,2*%
%TO.N,Net-(R47-Pad2)*%
X120072000Y-39419600D03*
%TD*%
D12*
%TO.P,U4,1*%
%TO.N,Net-(D1-A)*%
X157664600Y-160381000D03*
D10*
%TO.P,U4,2*%
X157664600Y-162921000D03*
%TO.P,U4,3*%
%TO.N,Net-(U4-Pad3)*%
X157664600Y-165461000D03*
%TO.P,U4,4*%
%TO.N,~{RESET}*%
X157664600Y-168001000D03*
%TO.P,U4,5*%
%TO.N,+5V*%
X157664600Y-170541000D03*
%TO.P,U4,6*%
%TO.N,Net-(U4-Pad3)*%
X157664600Y-173081000D03*
%TO.P,U4,7,GND*%
%TO.N,GNDREF*%
X157664600Y-175621000D03*
%TO.P,U4,8*%
%TO.N,+5V*%
X165284600Y-175621000D03*
%TO.P,U4,9*%
X165284600Y-173081000D03*
%TO.P,U4,10*%
%TO.N,unconnected-(U4-Pad10)*%
X165284600Y-170541000D03*
%TO.P,U4,11*%
%TO.N,unconnected-(U4-Pad11)*%
X165284600Y-168001000D03*
%TO.P,U4,12*%
%TO.N,+5V*%
X165284600Y-165461000D03*
%TO.P,U4,13*%
X165284600Y-162921000D03*
%TO.P,U4,14,VCC*%
X165284600Y-160381000D03*
%TD*%
%TO.P,R18,1*%
%TO.N,Net-(C14-Pad1)*%
X19700000Y-168750000D03*
%TO.P,R18,2*%
%TO.N,Net-(R17-Pad1)*%
X19700000Y-171290000D03*
%TD*%
D12*
%TO.P,U11,1,~{Mr}*%
%TO.N,~{RESET}*%
X65767400Y-152603600D03*
D10*
%TO.P,U11,2,Q0*%
%TO.N,Net-(LCD1-RS)*%
X65767400Y-155143600D03*
%TO.P,U11,3,D0*%
%TO.N,D0*%
X65767400Y-157683600D03*
%TO.P,U11,4,D1*%
%TO.N,D1*%
X65767400Y-160223600D03*
%TO.P,U11,5,Q1*%
%TO.N,Net-(LCD1-E)*%
X65767400Y-162763600D03*
%TO.P,U11,6,Q2*%
%TO.N,unconnected-(U11-Q2-Pad6)*%
X65767400Y-165303600D03*
%TO.P,U11,7,D2*%
%TO.N,D2*%
X65767400Y-167843600D03*
%TO.P,U11,8,D3*%
%TO.N,D3*%
X65767400Y-170383600D03*
%TO.P,U11,9,Q3*%
%TO.N,unconnected-(U11-Q3-Pad9)*%
X65767400Y-172923600D03*
%TO.P,U11,10,GND*%
%TO.N,GNDREF*%
X65767400Y-175463600D03*
%TO.P,U11,11,Cp*%
%TO.N,CKDIS*%
X73387400Y-175463600D03*
%TO.P,U11,12,Q4*%
%TO.N,Net-(LCD1-DB4)*%
X73387400Y-172923600D03*
%TO.P,U11,13,D4*%
%TO.N,D4*%
X73387400Y-170383600D03*
%TO.P,U11,14,D5*%
%TO.N,D5*%
X73387400Y-167843600D03*
%TO.P,U11,15,Q5*%
%TO.N,Net-(LCD1-DB5)*%
X73387400Y-165303600D03*
%TO.P,U11,16,Q6*%
%TO.N,Net-(LCD1-DB6)*%
X73387400Y-162763600D03*
%TO.P,U11,17,D6*%
%TO.N,D6*%
X73387400Y-160223600D03*
%TO.P,U11,18,D7*%
%TO.N,D7*%
X73387400Y-157683600D03*
%TO.P,U11,19,Q7*%
%TO.N,Net-(LCD1-DB7)*%
X73387400Y-155143600D03*
%TO.P,U11,20,VCC*%
%TO.N,+5V*%
X73387400Y-152603600D03*
%TD*%
D11*
%TO.P,SW1,1,1*%
%TO.N,GNDREF*%
X50750000Y-191750000D03*
X44250000Y-191750000D03*
%TO.P,SW1,2,2*%
%TO.N,/kraft80V2-ios/PX0*%
X50750000Y-187250000D03*
X44250000Y-187250000D03*
%TD*%
D12*
%TO.P,U3,1,A0*%
%TO.N,A4*%
X79178600Y-157658200D03*
D10*
%TO.P,U3,2,A1*%
%TO.N,A5*%
X79178600Y-160198200D03*
%TO.P,U3,3,A2*%
%TO.N,A6*%
X79178600Y-162738200D03*
%TO.P,U3,4,E1*%
%TO.N,~{IORQ}*%
X79178600Y-165278200D03*
%TO.P,U3,5,E2*%
%TO.N,A7*%
X79178600Y-167818200D03*
%TO.P,U3,6,E3*%
%TO.N,~{M1}*%
X79178600Y-170358200D03*
%TO.P,U3,7,O7*%
%TO.N,unconnected-(U3-O7-Pad7)*%
X79178600Y-172898200D03*
%TO.P,U3,8,GND*%
%TO.N,GNDREF*%
X79178600Y-175438200D03*
%TO.P,U3,9,O6*%
%TO.N,unconnected-(U3-O6-Pad9)*%
X86798600Y-175438200D03*
%TO.P,U3,10,O5*%
%TO.N,~{FPGA_CS}*%
X86798600Y-172898200D03*
%TO.P,U3,11,O4*%
%TO.N,/kraft80V2-ios/~{FF_CS}*%
X86798600Y-170358200D03*
%TO.P,U3,12,O3*%
%TO.N,unconnected-(U3-O3-Pad12)*%
X86798600Y-167818200D03*
%TO.P,U3,13,O2*%
%TO.N,unconnected-(U3-O2-Pad13)*%
X86798600Y-165278200D03*
%TO.P,U3,14,O1*%
%TO.N,/kraft80V2-ios/~{DISP_CS}*%
X86798600Y-162738200D03*
%TO.P,U3,15,O0*%
%TO.N,/kraft80V2-ios/~{LEDKB_CS}*%
X86798600Y-160198200D03*
%TO.P,U3,16,VCC*%
%TO.N,+5V*%
X86798600Y-157658200D03*
%TD*%
%TO.P,C8,1*%
%TO.N,+5V*%
X43807200Y-106934400D03*
%TO.P,C8,2*%
%TO.N,GNDREF*%
X41307200Y-106934400D03*
%TD*%
%TO.P,R34,1*%
%TO.N,Net-(R28-Pad2)*%
X97872400Y-33012400D03*
%TO.P,R34,2*%
%TO.N,Net-(R27-Pad2)*%
X97872400Y-35552400D03*
%TD*%
%TO.P,R57,1*%
%TO.N,A1*%
X131282600Y-87595400D03*
%TO.P,R57,2*%
%TO.N,Net-(U19-IOT11B)*%
X131282600Y-85055400D03*
%TD*%
%TO.P,C17,1*%
%TO.N,+5V*%
X73316600Y-149400000D03*
%TO.P,C17,2*%
%TO.N,GNDREF*%
X70816600Y-149400000D03*
%TD*%
%TO.P,R45,1*%
%TO.N,Net-(U16-QA)*%
X127488800Y-41959600D03*
%TO.P,R45,2*%
%TO.N,Net-(C21-Pad1)*%
X127488800Y-39419600D03*
%TD*%
%TO.P,C99,1*%
%TO.N,+5V*%
X44055800Y-83363200D03*
%TO.P,C99,2*%
%TO.N,GNDREF*%
X41555800Y-83363200D03*
%TD*%
%TO.P,R52,1*%
%TO.N,Net-(U19-IOT12B)*%
X124450000Y-80570000D03*
%TO.P,R52,2*%
%TO.N,GNDREF*%
X124450000Y-78030000D03*
%TD*%
%TO.P,R7,1*%
%TO.N,+5V*%
X162842400Y-148033200D03*
%TO.P,R7,2*%
%TO.N,Net-(D2-A)*%
X160302400Y-148033200D03*
%TD*%
D20*
%TO.P,REF\u002A\u002A,*%
%TO.N,*%
X19743200Y-191410600D03*
%TD*%
D21*
%TO.P,RN1,1,common*%
%TO.N,+5V*%
X56928200Y-155143600D03*
D10*
%TO.P,RN1,2,R1*%
%TO.N,/kraft80V2-ios/PX0*%
X56928200Y-157683600D03*
%TO.P,RN1,3,R2*%
%TO.N,/kraft80V2-ios/PX1*%
X56928200Y-160223600D03*
%TO.P,RN1,4,R3*%
%TO.N,/kraft80V2-ios/PX2*%
X56928200Y-162763600D03*
%TO.P,RN1,5,R4*%
%TO.N,/kraft80V2-ios/PX3*%
X56928200Y-165303600D03*
%TO.P,RN1,6,R5*%
%TO.N,/kraft80V2-ios/PX4*%
X56928200Y-167843600D03*
%TO.P,RN1,7,R6*%
%TO.N,/kraft80V2-ios/PX5*%
X56928200Y-170383600D03*
%TO.P,RN1,8,R7*%
%TO.N,/kraft80V2-ios/PX6*%
X56928200Y-172923600D03*
%TO.P,RN1,9,R8*%
%TO.N,/kraft80V2-ios/PX7*%
X56928200Y-175463600D03*
%TD*%
D15*
%TO.P,C3,1*%
%TO.N,Net-(D1-A)*%
X151314600Y-173189600D03*
%TO.P,C3,2*%
%TO.N,GNDREF*%
X151314600Y-174689600D03*
%TD*%
D22*
%TO.P,P1,1,1*%
%TO.N,+5V*%
X144634400Y-142418200D03*
%TO.P,P1,2,2*%
%TO.N,Net-(LCD1-VO)*%
X139554400Y-144958200D03*
%TO.P,P1,3,3*%
%TO.N,GNDREF*%
X144634400Y-147498200D03*
%TD*%
D10*
%TO.P,R12,1*%
%TO.N,Net-(U5-Q0)*%
X29804600Y-93777200D03*
%TO.P,R12,2*%
%TO.N,Net-(D7-A)*%
X27264600Y-93777200D03*
%TD*%
%TO.P,R14,1*%
%TO.N,Net-(U5-Q2)*%
X29804600Y-103937200D03*
%TO.P,R14,2*%
%TO.N,Net-(D9-A)*%
X27264600Y-103937200D03*
%TD*%
D13*
%TO.P,D11,1,K*%
%TO.N,GNDREF*%
X19644600Y-80366000D03*
D14*
%TO.P,D11,2,A*%
%TO.N,Net-(D11-A)*%
X22184600Y-80366000D03*
%TD*%
D10*
%TO.P,R38,1*%
%TO.N,Net-(R24-Pad2)*%
X112706000Y-33006000D03*
%TO.P,R38,2*%
%TO.N,Net-(R23-Pad2)*%
X112706000Y-35546000D03*
%TD*%
D23*
%TO.P,X1,1,1*%
%TO.N,Net-(C14-Pad1)*%
X24600000Y-170650000D03*
%TO.P,X1,2,2*%
%TO.N,Net-(R17-Pad1)*%
X24600000Y-175550000D03*
%TD*%
D10*
%TO.P,R30,1*%
%TO.N,Net-(U15-QD)*%
X84891000Y-38091800D03*
%TO.P,R30,2*%
%TO.N,Net-(R30-Pad2)*%
X84891000Y-40631800D03*
%TD*%
D24*
%TO.P,U13,1,Vin*%
%TO.N,+5V*%
X42880000Y-65260000D03*
D25*
%TO.P,U13,2,GND*%
%TO.N,GNDREF*%
X42880000Y-67800000D03*
%TO.P,U13,3,GND*%
X65740000Y-67800000D03*
%TO.P,U13,4,Vout*%
%TO.N,+3V3*%
X65740000Y-65260000D03*
%TD*%
D10*
%TO.P,R51,1*%
%TO.N,Net-(U19-IOT12A)*%
X127853600Y-80595400D03*
%TO.P,R51,2*%
%TO.N,GNDREF*%
X127853600Y-78055400D03*
%TD*%
D20*
%TO.P,REF\u002A\u002A,*%
%TO.N,*%
X19750000Y-26000000D03*
%TD*%
D11*
%TO.P,SW6,1,1*%
%TO.N,GNDREF*%
X114250000Y-191750000D03*
X107750000Y-191750000D03*
%TO.P,SW6,2,2*%
%TO.N,/kraft80V2-ios/PX5*%
X114250000Y-187250000D03*
X107750000Y-187250000D03*
%TD*%
D26*
%TO.P,D1,1,K*%
%TO.N,+5V*%
X147403000Y-170282000D03*
D10*
%TO.P,D1,2,A*%
%TO.N,Net-(D1-A)*%
X147403000Y-162662000D03*
%TD*%
D20*
%TO.P,REF\u002A\u002A,*%
%TO.N,*%
X163750000Y-26250000D03*
%TD*%
D10*
%TO.P,R46,1*%
%TO.N,Net-(U16-QB)*%
X123780400Y-41959600D03*
%TO.P,R46,2*%
%TO.N,Net-(R46-Pad2)*%
X123780400Y-39419600D03*
%TD*%
%TO.P,R31,1*%
%TO.N,GNDREF*%
X84833800Y-34605000D03*
%TO.P,R31,2*%
%TO.N,Net-(R30-Pad2)*%
X84833800Y-32065000D03*
%TD*%
%TO.P,R13,1*%
%TO.N,Net-(U5-Q1)*%
X29804600Y-98857200D03*
%TO.P,R13,2*%
%TO.N,Net-(D8-A)*%
X27264600Y-98857200D03*
%TD*%
%TO.P,R25,1*%
%TO.N,Net-(U16-QG)*%
X105238400Y-41966000D03*
%TO.P,R25,2*%
%TO.N,Net-(R25-Pad2)*%
X105238400Y-39426000D03*
%TD*%
D27*
%TO.P,J9,1,Pin_1*%
%TO.N,/kraft80V2-fpga/~{DISK_CS}*%
X133160000Y-26800000D03*
D28*
%TO.P,J9,2,Pin_2*%
%TO.N,/kraft80V2-fpga/DISK_SCK*%
X130620000Y-26800000D03*
%TO.P,J9,3,Pin_3*%
%TO.N,/kraft80V2-fpga/DISK_MOSI*%
X128080000Y-26800000D03*
%TO.P,J9,4,Pin_4*%
%TO.N,/kraft80V2-fpga/DISK_MISO*%
X125540000Y-26800000D03*
%TO.P,J9,5,Pin_5*%
%TO.N,+3V3*%
X123000000Y-26800000D03*
%TO.P,J9,6,Pin_6*%
%TO.N,GNDREF*%
X120460000Y-26800000D03*
%TD*%
D11*
%TO.P,RST1,1,1*%
%TO.N,GNDREF*%
X157150000Y-191750000D03*
X150650000Y-191750000D03*
%TO.P,RST1,2,2*%
%TO.N,Net-(D1-A)*%
X157150000Y-187250000D03*
X150650000Y-187250000D03*
%TD*%
D10*
%TO.P,C97,1*%
%TO.N,+5V*%
X126910600Y-156896200D03*
%TO.P,C97,2*%
%TO.N,GNDREF*%
X124410600Y-156896200D03*
%TD*%
D27*
%TO.P,J3,1,Pin_1*%
%TO.N,Net-(J3-Pin_1)*%
X79450000Y-32150000D03*
D28*
%TO.P,J3,2,Pin_2*%
%TO.N,Net-(J3-Pin_2)*%
X79450000Y-34690000D03*
%TD*%
D10*
%TO.P,C9,1*%
%TO.N,+5V*%
X50300000Y-149500000D03*
%TO.P,C9,2*%
%TO.N,GNDREF*%
X47800000Y-149500000D03*
%TD*%
D29*
%TO.P,U15,1,QB*%
%TO.N,Net-(U15-QB)*%
X101030000Y-46295000D03*
D10*
%TO.P,U15,2,QC*%
%TO.N,Net-(U15-QC)*%
X98490000Y-46295000D03*
%TO.P,U15,3,QD*%
%TO.N,Net-(U15-QD)*%
X95950000Y-46295000D03*
%TO.P,U15,4,QE*%
%TO.N,unconnected-(U15-QE-Pad4)*%
X93410000Y-46295000D03*
%TO.P,U15,5,QF*%
%TO.N,unconnected-(U15-QF-Pad5)*%
X90870000Y-46295000D03*
%TO.P,U15,6,QG*%
%TO.N,unconnected-(U15-QG-Pad6)*%
X88330000Y-46295000D03*
%TO.P,U15,7,QH*%
%TO.N,unconnected-(U15-QH-Pad7)*%
X85790000Y-46295000D03*
%TO.P,U15,8,GND*%
%TO.N,GNDREF*%
X83250000Y-46295000D03*
%TO.P,U15,9,QH'*%
%TO.N,unconnected-(U15-QH'-Pad9)*%
X83250000Y-53915000D03*
%TO.P,U15,10,~{SRCLR}*%
%TO.N,+3V3*%
X85790000Y-53915000D03*
%TO.P,U15,11,SRCLK*%
%TO.N,Net-(U15-SRCLK)*%
X88330000Y-53915000D03*
%TO.P,U15,12,RCLK*%
%TO.N,Net-(U15-RCLK)*%
X90870000Y-53915000D03*
%TO.P,U15,13,~{OE}*%
%TO.N,GNDREF*%
X93410000Y-53915000D03*
%TO.P,U15,14,SER*%
%TO.N,Net-(U15-SER)*%
X95950000Y-53915000D03*
%TO.P,U15,15,QA*%
%TO.N,Net-(U15-QA)*%
X98490000Y-53915000D03*
%TO.P,U15,16,VCC*%
%TO.N,+3V3*%
X101030000Y-53915000D03*
%TD*%
%TO.P,R55,1*%
%TO.N,Net-(R47-Pad2)*%
X123831200Y-33006000D03*
%TO.P,R55,2*%
%TO.N,Net-(R46-Pad2)*%
X123831200Y-35546000D03*
%TD*%
%TO.P,R2,1*%
%TO.N,+5V*%
X151670200Y-158242400D03*
%TO.P,R2,2*%
%TO.N,~{RESET}*%
X154210200Y-158242400D03*
%TD*%
%TO.P,C90,1*%
%TO.N,+5V*%
X163994600Y-94412200D03*
%TO.P,C90,2*%
%TO.N,GNDREF*%
X161494600Y-94412200D03*
%TD*%
D12*
%TO.P,U97,1*%
%TO.N,~{WRITE}*%
X119234400Y-160223600D03*
D10*
%TO.P,U97,2*%
%TO.N,/kraft80V2-ios/~{FF_CS}*%
X119234400Y-162763600D03*
%TO.P,U97,3*%
%TO.N,CKFF*%
X119234400Y-165303600D03*
%TO.P,U97,4*%
%TO.N,/kraft80V2-ios/~{LEDKB_CS}*%
X119234400Y-167843600D03*
%TO.P,U97,5*%
%TO.N,~{WRITE}*%
X119234400Y-170383600D03*
%TO.P,U97,6*%
%TO.N,CKLED*%
X119234400Y-172923600D03*
%TO.P,U97,7,GND*%
%TO.N,GNDREF*%
X119234400Y-175463600D03*
%TO.P,U97,8*%
%TO.N,CKDIS*%
X126854400Y-175463600D03*
%TO.P,U97,9*%
%TO.N,/kraft80V2-ios/~{DISP_CS}*%
X126854400Y-172923600D03*
%TO.P,U97,10*%
%TO.N,~{WRITE}*%
X126854400Y-170383600D03*
%TO.P,U97,11*%
%TO.N,CKKBD*%
X126854400Y-167843600D03*
%TO.P,U97,12*%
%TO.N,/kraft80V2-ios/~{LEDKB_CS}*%
X126854400Y-165303600D03*
%TO.P,U97,13*%
%TO.N,~{READ}*%
X126854400Y-162763600D03*
%TO.P,U97,14,VCC*%
%TO.N,+5V*%
X126854400Y-160223600D03*
%TD*%
D30*
%TO.P,U12,1,LV1*%
%TO.N,Net-(U12-LV1)*%
X126770000Y-59035000D03*
D25*
%TO.P,U12,2,LV2*%
%TO.N,Net-(U12-LV2)*%
X124230000Y-59035000D03*
%TO.P,U12,3,LV3*%
%TO.N,Net-(U12-LV3)*%
X121690000Y-59035000D03*
%TO.P,U12,4,LV4*%
%TO.N,Net-(U12-LV4)*%
X119150000Y-59035000D03*
%TO.P,U12,5,LV*%
%TO.N,+3V3*%
X116610000Y-59035000D03*
%TO.P,U12,6,GND*%
%TO.N,GNDREF*%
X114070000Y-59035000D03*
%TO.P,U12,7,LV5*%
%TO.N,Net-(U12-LV5)*%
X111530000Y-59035000D03*
%TO.P,U12,8,LV6*%
%TO.N,Net-(U12-LV6)*%
X108990000Y-59035000D03*
%TO.P,U12,9,LV7*%
%TO.N,Net-(U12-LV7)*%
X106450000Y-59035000D03*
%TO.P,U12,10,LV8*%
%TO.N,Net-(U12-LV8)*%
X103910000Y-59035000D03*
%TO.P,U12,11,HV8*%
%TO.N,D7*%
X103910000Y-70592000D03*
%TO.P,U12,12,HV7*%
%TO.N,D6*%
X106450000Y-70592000D03*
%TO.P,U12,13,HV6*%
%TO.N,D5*%
X108990000Y-70592000D03*
%TO.P,U12,14,HV5*%
%TO.N,D4*%
X111530000Y-70592000D03*
%TO.P,U12,15,GND*%
%TO.N,GNDREF*%
X114070000Y-70592000D03*
%TO.P,U12,16,HV*%
%TO.N,+5V*%
X116610000Y-70592000D03*
%TO.P,U12,17,HV4*%
%TO.N,D3*%
X119150000Y-70592000D03*
%TO.P,U12,18,HV3*%
%TO.N,D2*%
X121690000Y-70592000D03*
%TO.P,U12,19,HV2*%
%TO.N,D1*%
X124230000Y-70592000D03*
%TO.P,U12,20,HV1*%
%TO.N,D0*%
X126770000Y-70592000D03*
%TD*%
D10*
%TO.P,C19,1*%
%TO.N,+5V*%
X141388600Y-156642200D03*
%TO.P,C19,2*%
%TO.N,GNDREF*%
X138888600Y-156642200D03*
%TD*%
%TO.P,R9,1*%
%TO.N,Net-(U5-Q5)*%
X29804600Y-119177200D03*
%TO.P,R9,2*%
%TO.N,Net-(D4-A)*%
X27264600Y-119177200D03*
%TD*%
D13*
%TO.P,D7,1,K*%
%TO.N,GNDREF*%
X19644600Y-93777200D03*
D14*
%TO.P,D7,2,A*%
%TO.N,Net-(D7-A)*%
X22184600Y-93777200D03*
%TD*%
D12*
%TO.P,U1,1,A_{11}*%
%TO.N,A11*%
X52280000Y-88875000D03*
D10*
%TO.P,U1,2,A_{12}*%
%TO.N,A12*%
X52280000Y-91415000D03*
%TO.P,U1,3,A_{13}*%
%TO.N,A13*%
X52280000Y-93955000D03*
%TO.P,U1,4,A_{14}*%
%TO.N,A14*%
X52280000Y-96495000D03*
%TO.P,U1,5,A_{15}*%
%TO.N,A15*%
X52280000Y-99035000D03*
%TO.P,U1,6,CLK*%
%TO.N,CLOCK*%
X52280000Y-101575000D03*
%TO.P,U1,7,D_{4}*%
%TO.N,D4*%
X52280000Y-104115000D03*
%TO.P,U1,8,D_{3}*%
%TO.N,D3*%
X52280000Y-106655000D03*
%TO.P,U1,9,D_{5}*%
%TO.N,D5*%
X52280000Y-109195000D03*
%TO.P,U1,10,D_{6}*%
%TO.N,D6*%
X52280000Y-111735000D03*
%TO.P,U1,11,V_{CC}*%
%TO.N,+5V*%
X52280000Y-114275000D03*
%TO.P,U1,12,D_{2}*%
%TO.N,D2*%
X52280000Y-116815000D03*
%TO.P,U1,13,D_{7}*%
%TO.N,D7*%
X52280000Y-119355000D03*
%TO.P,U1,14,D_{0}*%
%TO.N,D0*%
X52280000Y-121895000D03*
%TO.P,U1,15,D_{1}*%
%TO.N,D1*%
X52280000Y-124435000D03*
%TO.P,U1,16,~{INT}*%
%TO.N,~{INT}*%
X52280000Y-126975000D03*
%TO.P,U1,17,~{NMI}*%
%TO.N,Net-(U1-~{NMI})*%
X52280000Y-129515000D03*
%TO.P,U1,18,~{HALT}*%
%TO.N,unconnected-(U1-~{HALT}-Pad18)*%
X52280000Y-132055000D03*
%TO.P,U1,19,~{MREQ}*%
%TO.N,/~{MREQ}*%
X52280000Y-134595000D03*
%TO.P,U1,20,~{IORQ}*%
%TO.N,~{IORQ}*%
X52280000Y-137135000D03*
%TO.P,U1,21,~{RD}*%
%TO.N,~{READ}*%
X67520000Y-137135000D03*
%TO.P,U1,22,~{WR}*%
%TO.N,~{WRITE}*%
X67520000Y-134595000D03*
%TO.P,U1,23,~{BUSACK}*%
%TO.N,unconnected-(U1-~{BUSACK}-Pad23)*%
X67520000Y-132055000D03*
%TO.P,U1,24,~{WAIT}*%
%TO.N,Net-(U1-~{WAIT})*%
X67520000Y-129515000D03*
%TO.P,U1,25,~{BUSREQ}*%
%TO.N,Net-(U1-~{BUSREQ})*%
X67520000Y-126975000D03*
%TO.P,U1,26,~{RESET}*%
%TO.N,~{RESET}*%
X67520000Y-124435000D03*
%TO.P,U1,27,~{M1}*%
%TO.N,~{M1}*%
X67520000Y-121895000D03*
%TO.P,U1,28,~{RFSH}*%
%TO.N,unconnected-(U1-~{RFSH}-Pad28)*%
X67520000Y-119355000D03*
%TO.P,U1,29,GND*%
%TO.N,GNDREF*%
X67520000Y-116815000D03*
%TO.P,U1,30,A_{0}*%
%TO.N,A0*%
X67520000Y-114275000D03*
%TO.P,U1,31,A_{1}*%
%TO.N,A1*%
X67520000Y-111735000D03*
%TO.P,U1,32,A_{2}*%
%TO.N,A2*%
X67520000Y-109195000D03*
%TO.P,U1,33,A_{3}*%
%TO.N,A3*%
X67520000Y-106655000D03*
%TO.P,U1,34,A_{4}*%
%TO.N,A4*%
X67520000Y-104115000D03*
%TO.P,U1,35,A_{5}*%
%TO.N,A5*%
X67520000Y-101575000D03*
%TO.P,U1,36,A_{6}*%
%TO.N,A6*%
X67520000Y-99035000D03*
%TO.P,U1,37,A_{7}*%
%TO.N,A7*%
X67520000Y-96495000D03*
%TO.P,U1,38,A_{8}*%
%TO.N,A8*%
X67520000Y-93955000D03*
%TO.P,U1,39,A_{9}*%
%TO.N,A9*%
X67520000Y-91415000D03*
%TO.P,U1,40,A_{10}*%
%TO.N,A10*%
X67520000Y-88875000D03*
%TD*%
%TO.P,R50,1*%
%TO.N,Net-(U19-IOT11B)*%
X131282600Y-80595400D03*
%TO.P,R50,2*%
%TO.N,GNDREF*%
X131282600Y-78055400D03*
%TD*%
D15*
%TO.P,C21,1*%
%TO.N,Net-(C21-Pad1)*%
X79328400Y-40276200D03*
%TO.P,C21,2*%
%TO.N,Net-(C21-Pad2)*%
X79328400Y-42276200D03*
%TD*%
D10*
%TO.P,R43,1*%
%TO.N,+5V*%
X74273800Y-34561200D03*
%TO.P,R43,2*%
%TO.N,Net-(J3-Pin_1)*%
X74273800Y-32021200D03*
%TD*%
D30*
%TO.P,U8,1,LV1*%
%TO.N,Net-(U19-IOB8A)*%
X95980000Y-59000000D03*
D25*
%TO.P,U8,2,LV2*%
%TO.N,Net-(U19-IOB11B)*%
X93440000Y-59000000D03*
%TO.P,U8,3,LV3*%
%TO.N,Net-(U19-IOB13A)*%
X90900000Y-59000000D03*
%TO.P,U8,4,LV4*%
%TO.N,Net-(U19-IOB13B)*%
X88360000Y-59000000D03*
%TO.P,U8,5,LV*%
%TO.N,+3V3*%
X85820000Y-59000000D03*
%TO.P,U8,6,GND*%
%TO.N,GNDREF*%
X83280000Y-59000000D03*
%TO.P,U8,7,LV5*%
%TO.N,Net-(U19-IOB23A)*%
X80740000Y-59000000D03*
%TO.P,U8,8,LV6*%
%TO.N,Net-(U19-IOB23B)*%
X78200000Y-59000000D03*
%TO.P,U8,9,LV7*%
%TO.N,Net-(U19-IOB33B)*%
X75660000Y-59000000D03*
%TO.P,U8,10,LV8*%
%TO.N,Net-(U19-IOB29A)*%
X73120000Y-59000000D03*
%TO.P,U8,11,HV8*%
%TO.N,/kraft80V2-fpga/DAT_KBD*%
X73120000Y-70557000D03*
%TO.P,U8,12,HV7*%
%TO.N,~{INT}*%
X75660000Y-70557000D03*
%TO.P,U8,13,HV6*%
%TO.N,~{FPGA_CS}*%
X78200000Y-70557000D03*
%TO.P,U8,14,HV5*%
%TO.N,CLOCK*%
X80740000Y-70557000D03*
%TO.P,U8,15,GND*%
%TO.N,GNDREF*%
X83280000Y-70557000D03*
%TO.P,U8,16,HV*%
%TO.N,+5V*%
X85820000Y-70557000D03*
%TO.P,U8,17,HV4*%
%TO.N,~{RESET}*%
X88360000Y-70557000D03*
%TO.P,U8,18,HV3*%
%TO.N,~{READ}*%
X90900000Y-70557000D03*
%TO.P,U8,19,HV2*%
%TO.N,~{WRITE}*%
X93440000Y-70557000D03*
%TO.P,U8,20,HV1*%
%TO.N,/kraft80V2-fpga/CK_KBD*%
X95980000Y-70557000D03*
%TD*%
D27*
%TO.P,JP1,1,A*%
%TO.N,Net-(JP1-A)*%
X20279000Y-143971000D03*
D28*
%TO.P,JP1,2,C*%
%TO.N,Net-(JP1-C)*%
X20279000Y-146511000D03*
%TO.P,JP1,3,B*%
%TO.N,+5V*%
X20279000Y-149051000D03*
%TD*%
D10*
%TO.P,R39,1*%
%TO.N,+5V*%
X33868000Y-71784200D03*
%TO.P,R39,2*%
%TO.N,/kraft80V2-fpga/DAT_KBD*%
X33868000Y-69244200D03*
%TD*%
%TO.P,C18,1*%
%TO.N,+5V*%
X119595400Y-94412200D03*
%TO.P,C18,2*%
%TO.N,GNDREF*%
X117095400Y-94412200D03*
%TD*%
D12*
%TO.P,U6,1,A->B*%
%TO.N,GNDREF*%
X42602600Y-152730600D03*
D10*
%TO.P,U6,2,A0*%
%TO.N,D0*%
X42602600Y-155270600D03*
%TO.P,U6,3,A1*%
%TO.N,D1*%
X42602600Y-157810600D03*
%TO.P,U6,4,A2*%
%TO.N,D2*%
X42602600Y-160350600D03*
%TO.P,U6,5,A3*%
%TO.N,D3*%
X42602600Y-162890600D03*
%TO.P,U6,6,A4*%
%TO.N,D4*%
X42602600Y-165430600D03*
%TO.P,U6,7,A5*%
%TO.N,D5*%
X42602600Y-167970600D03*
%TO.P,U6,8,A6*%
%TO.N,D6*%
X42602600Y-170510600D03*
%TO.P,U6,9,A7*%
%TO.N,D7*%
X42602600Y-173050600D03*
%TO.P,U6,10,GND*%
%TO.N,GNDREF*%
X42602600Y-175590600D03*
%TO.P,U6,11,B7*%
%TO.N,/kraft80V2-ios/PX7*%
X50222600Y-175590600D03*
%TO.P,U6,12,B6*%
%TO.N,/kraft80V2-ios/PX6*%
X50222600Y-173050600D03*
%TO.P,U6,13,B5*%
%TO.N,/kraft80V2-ios/PX5*%
X50222600Y-170510600D03*
%TO.P,U6,14,B4*%
%TO.N,/kraft80V2-ios/PX4*%
X50222600Y-167970600D03*
%TO.P,U6,15,B3*%
%TO.N,/kraft80V2-ios/PX3*%
X50222600Y-165430600D03*
%TO.P,U6,16,B2*%
%TO.N,/kraft80V2-ios/PX2*%
X50222600Y-162890600D03*
%TO.P,U6,17,B1*%
%TO.N,/kraft80V2-ios/PX1*%
X50222600Y-160350600D03*
%TO.P,U6,18,B0*%
%TO.N,/kraft80V2-ios/PX0*%
X50222600Y-157810600D03*
%TO.P,U6,19,CE*%
%TO.N,CKKBD*%
X50222600Y-155270600D03*
%TO.P,U6,20,VCC*%
%TO.N,+5V*%
X50222600Y-152730600D03*
%TD*%
%TO.P,R23,1*%
%TO.N,Net-(U16-QE)*%
X112655200Y-41959600D03*
%TO.P,R23,2*%
%TO.N,Net-(R23-Pad2)*%
X112655200Y-39419600D03*
%TD*%
D11*
%TO.P,SW8,1,1*%
%TO.N,GNDREF*%
X139650000Y-191750000D03*
X133150000Y-191750000D03*
%TO.P,SW8,2,2*%
%TO.N,/kraft80V2-ios/PX7*%
X139650000Y-187250000D03*
X133150000Y-187250000D03*
%TD*%
D10*
%TO.P,C10,1*%
%TO.N,+5V*%
X113448600Y-156896200D03*
%TO.P,C10,2*%
%TO.N,GNDREF*%
X110948600Y-156896200D03*
%TD*%
%TO.P,R59,1*%
%TO.N,A3*%
X124450000Y-87570000D03*
%TO.P,R59,2*%
%TO.N,Net-(U19-IOT12B)*%
X124450000Y-85030000D03*
%TD*%
D12*
%TO.P,U7,1*%
%TO.N,+5V*%
X105797800Y-160294800D03*
D10*
%TO.P,U7,2*%
X105797800Y-162834800D03*
%TO.P,U7,3*%
%TO.N,unconnected-(U7-Pad3)*%
X105797800Y-165374800D03*
%TO.P,U7,4*%
%TO.N,A14*%
X105797800Y-167914800D03*
%TO.P,U7,5*%
%TO.N,CPM*%
X105797800Y-170454800D03*
%TO.P,U7,6*%
%TO.N,Net-(U91-A1)*%
X105797800Y-172994800D03*
%TO.P,U7,7,GND*%
%TO.N,GNDREF*%
X105797800Y-175534800D03*
%TO.P,U7,8*%
%TO.N,/~{SEL_RAM2}*%
X113417800Y-175534800D03*
%TO.P,U7,9*%
%TO.N,Net-(U10-Pad8)*%
X113417800Y-172994800D03*
%TO.P,U7,10*%
%TO.N,/~{MREQ}*%
X113417800Y-170454800D03*
%TO.P,U7,11*%
%TO.N,unconnected-(U7-Pad11)*%
X113417800Y-167914800D03*
%TO.P,U7,12*%
%TO.N,+5V*%
X113417800Y-165374800D03*
%TO.P,U7,13*%
X113417800Y-162834800D03*
%TO.P,U7,14,VCC*%
X113417800Y-160294800D03*
%TD*%
%TO.P,R16,1*%
%TO.N,Net-(C14-Pad1)*%
X19650000Y-162950000D03*
%TO.P,R16,2*%
%TO.N,Net-(C13-Pad1)*%
X19650000Y-160410000D03*
%TD*%
%TO.P,R58,1*%
%TO.N,A2*%
X127853600Y-87595400D03*
%TO.P,R58,2*%
%TO.N,Net-(U19-IOT12A)*%
X127853600Y-85055400D03*
%TD*%
%TO.P,R32,1*%
%TO.N,Net-(R30-Pad2)*%
X90455600Y-33006000D03*
%TO.P,R32,2*%
%TO.N,Net-(R29-Pad2)*%
X90455600Y-35546000D03*
%TD*%
D20*
%TO.P,REF\u002A\u002A,*%
%TO.N,*%
X164043200Y-191410600D03*
%TD*%
D31*
%TO.P,J4,*%
%TO.N,*%
X22311000Y-59991200D03*
X22261000Y-73831200D03*
D32*
X21041000Y-66831200D03*
D28*
%TO.P,J4,1*%
%TO.N,/kraft80V2-fpga/DAT_KBD*%
X25731000Y-68311200D03*
%TO.P,J4,2*%
%TO.N,unconnected-(J4-Pad2)*%
X25741000Y-65431200D03*
%TO.P,J4,3*%
%TO.N,GNDREF*%
X25741000Y-70311200D03*
%TO.P,J4,4*%
%TO.N,+5V*%
X25741000Y-63411200D03*
%TO.P,J4,5*%
%TO.N,/kraft80V2-fpga/CK_KBD*%
X28041000Y-70311200D03*
%TO.P,J4,6*%
%TO.N,unconnected-(J4-Pad6)*%
X28041000Y-63411200D03*
%TD*%
D10*
%TO.P,C7,1*%
%TO.N,+5V*%
X157202400Y-141433200D03*
%TO.P,C7,2*%
%TO.N,GNDREF*%
X157202400Y-143933200D03*
%TD*%
D12*
%TO.P,U10,1*%
%TO.N,Net-(C14-Pad1)*%
X30083400Y-160384400D03*
D10*
%TO.P,U10,2*%
%TO.N,Net-(C13-Pad1)*%
X30083400Y-162924400D03*
%TO.P,U10,3*%
%TO.N,Net-(C13-Pad2)*%
X30083400Y-165464400D03*
%TO.P,U10,4*%
%TO.N,Net-(R17-Pad1)*%
X30083400Y-168004400D03*
%TO.P,U10,5*%
X30083400Y-170544400D03*
%TO.P,U10,6*%
%TO.N,Net-(U10-Pad13)*%
X30083400Y-173084400D03*
%TO.P,U10,7,GND*%
%TO.N,GNDREF*%
X30083400Y-175624400D03*
%TO.P,U10,8*%
%TO.N,Net-(U10-Pad8)*%
X37703400Y-175624400D03*
%TO.P,U10,9*%
%TO.N,A15*%
X37703400Y-173084400D03*
%TO.P,U10,10*%
%TO.N,unconnected-(U10-Pad10)*%
X37703400Y-170544400D03*
%TO.P,U10,11*%
%TO.N,+5V*%
X37703400Y-168004400D03*
%TO.P,U10,12*%
%TO.N,CLOCK*%
X37703400Y-165464400D03*
%TO.P,U10,13*%
%TO.N,Net-(U10-Pad13)*%
X37703400Y-162924400D03*
%TO.P,U10,14,VCC*%
%TO.N,+5V*%
X37703400Y-160384400D03*
%TD*%
D13*
%TO.P,D3,1,K*%
%TO.N,GNDREF*%
X19644600Y-114097200D03*
D14*
%TO.P,D3,2,A*%
%TO.N,Net-(D3-A)*%
X22184600Y-114097200D03*
%TD*%
D10*
%TO.P,R41,1*%
%TO.N,Net-(R23-Pad2)*%
X116414400Y-33006000D03*
%TO.P,R41,2*%
%TO.N,Net-(R41-Pad2)*%
X116414400Y-35546000D03*
%TD*%
%TO.P,R36,1*%
%TO.N,Net-(R26-Pad2)*%
X105289200Y-33012400D03*
%TO.P,R36,2*%
%TO.N,Net-(R25-Pad2)*%
X105289200Y-35552400D03*
%TD*%
%TO.P,R49,1*%
%TO.N,Net-(U19-IOT11A)*%
X134686200Y-80595400D03*
%TO.P,R49,2*%
%TO.N,GNDREF*%
X134686200Y-78055400D03*
%TD*%
%TO.P,R28,1*%
%TO.N,Net-(U15-QB)*%
X94113200Y-41959600D03*
%TO.P,R28,2*%
%TO.N,Net-(R28-Pad2)*%
X94113200Y-39419600D03*
%TD*%
%TO.P,R22,1*%
%TO.N,Net-(U99B-Q)*%
X29804600Y-85446000D03*
%TO.P,R22,2*%
%TO.N,Net-(D12-A)*%
X27264600Y-85446000D03*
%TD*%
%TO.P,R53,1*%
%TO.N,A0*%
X134711600Y-87605800D03*
%TO.P,R53,2*%
%TO.N,Net-(U19-IOT11A)*%
X134711600Y-85065800D03*
%TD*%
D13*
%TO.P,D5,1,K*%
%TO.N,GNDREF*%
X19644600Y-124257200D03*
D14*
%TO.P,D5,2,A*%
%TO.N,Net-(D5-A)*%
X22184600Y-124257200D03*
%TD*%
D33*
%TO.P,U19,1,IOB31B*%
%TO.N,unconnected-(U19-IOB31B-Pad1)*%
X162880000Y-89490000D03*
D25*
%TO.P,U19,2,IOB31A*%
%TO.N,/kraft80V2-fpga/DISK_MOSI*%
X162880000Y-86950000D03*
%TO.P,U19,3,IOB29B*%
%TO.N,/kraft80V2-fpga/DISK_SCK*%
X162880000Y-84410000D03*
%TO.P,U19,4,IOB33A*%
%TO.N,/kraft80V2-fpga/DISK_MISO*%
X162880000Y-81870000D03*
%TO.P,U19,5,IOB8A*%
%TO.N,Net-(U19-IOB8A)*%
X162880000Y-79330000D03*
%TO.P,U19,6,IOB8B*%
%TO.N,Net-(U17-RXD)*%
X162880000Y-76790000D03*
%TO.P,U19,7,IOB11A*%
%TO.N,Net-(U17-TXD)*%
X162880000Y-74250000D03*
%TO.P,U19,8,IOB11B*%
%TO.N,Net-(U19-IOB11B)*%
X162880000Y-71710000D03*
%TO.P,U19,9,IOB13A*%
%TO.N,Net-(U19-IOB13A)*%
X162880000Y-69170000D03*
%TO.P,U19,10,IOB13B*%
%TO.N,Net-(U19-IOB13B)*%
X162880000Y-66630000D03*
%TO.P,U19,11,IOB23A*%
%TO.N,Net-(U19-IOB23A)*%
X162880000Y-64090000D03*
%TO.P,U19,12,IOB23B*%
%TO.N,Net-(U19-IOB23B)*%
X162880000Y-61550000D03*
%TO.P,U19,13,IOB33B*%
%TO.N,Net-(U19-IOB33B)*%
X162880000Y-59010000D03*
%TO.P,U19,14,IOB29A*%
%TO.N,Net-(U19-IOB29A)*%
X162880000Y-56470000D03*
%TO.P,U19,15,IOB41A*%
%TO.N,Net-(U12-LV1)*%
X162880000Y-53930000D03*
%TO.P,U19,16,IOB41B*%
%TO.N,Net-(U12-LV2)*%
X162880000Y-51390000D03*
%TO.P,U19,17,IOB17B*%
%TO.N,Net-(U12-LV3)*%
X162880000Y-48850000D03*
%TO.P,U19,18,IOR15B*%
%TO.N,Net-(U12-LV4)*%
X162880000Y-46310000D03*
%TO.P,U19,19,IOR15A*%
%TO.N,Net-(U12-LV5)*%
X162880000Y-43770000D03*
%TO.P,U19,20,IOR14B*%
%TO.N,Net-(U12-LV6)*%
X162880000Y-41230000D03*
%TO.P,U19,21,IOR14A*%
%TO.N,Net-(U12-LV7)*%
X162880000Y-38690000D03*
%TO.P,U19,22,IOR13A*%
%TO.N,Net-(U12-LV8)*%
X162880000Y-36150000D03*
%TO.P,U19,23,IOT42B*%
%TO.N,unconnected-(U19-IOT42B-Pad23)*%
X162880000Y-33610000D03*
%TO.P,U19,24,IOT42A*%
%TO.N,unconnected-(U19-IOT42A-Pad24)*%
X162880000Y-31070000D03*
%TO.P,U19,25,+3V3*%
%TO.N,+3V3*%
X140020000Y-31070000D03*
%TO.P,U19,26,GND*%
%TO.N,GNDREF*%
X140020000Y-33610000D03*
%TO.P,U19,27,IOR15B*%
%TO.N,Net-(U15-RCLK)*%
X140020000Y-36150000D03*
%TO.P,U19,28,IOR15A*%
%TO.N,Net-(U15-SRCLK)*%
X140020000Y-38690000D03*
%TO.P,U19,29,IOR24A*%
%TO.N,Net-(U16-SER)*%
X140020000Y-41230000D03*
%TO.P,U19,30,IOR24B*%
%TO.N,unconnected-(U19-IOR24B-Pad30)*%
X140020000Y-43770000D03*
%TO.P,U19,31,+5V*%
%TO.N,unconnected-(U19-+5V-Pad31)*%
X140020000Y-46310000D03*
%TO.P,U19,32,IOT41B*%
%TO.N,unconnected-(U19-IOT41B-Pad32)*%
X140020000Y-48850000D03*
%TO.P,U19,33,IOT41A*%
%TO.N,unconnected-(U19-IOT41A-Pad33)*%
X140020000Y-51390000D03*
%TO.P,U19,34,IOT39B*%
%TO.N,unconnected-(U19-IOT39B-Pad34)*%
X140020000Y-53930000D03*
%TO.P,U19,35,IOT39A*%
%TO.N,unconnected-(U19-IOT39A-Pad35)*%
X140020000Y-56470000D03*
%TO.P,U19,36,IOT38B*%
%TO.N,unconnected-(U19-IOT38B-Pad36)*%
X140020000Y-59010000D03*
%TO.P,U19,37,IOT38A*%
%TO.N,unconnected-(U19-IOT38A-Pad37)*%
X140020000Y-61550000D03*
%TO.P,U19,38,IOT37B*%
%TO.N,/kraft80V2-fpga/~{DISK_CS}*%
X140020000Y-64090000D03*
%TO.P,U19,39,IOT37A*%
%TO.N,unconnected-(U19-IOT37A-Pad39)*%
X140020000Y-66630000D03*
%TO.P,U19,40,IOT12B*%
%TO.N,Net-(U19-IOT12B)*%
X140020000Y-69170000D03*
%TO.P,U19,41,IOT12A*%
%TO.N,Net-(U19-IOT12A)*%
X140020000Y-71710000D03*
%TO.P,U19,42,IOT11B*%
%TO.N,Net-(U19-IOT11B)*%
X140020000Y-74250000D03*
%TO.P,U19,43,IOT11A*%
%TO.N,Net-(U19-IOT11A)*%
X140020000Y-76790000D03*
%TO.P,U19,44,IOT10B*%
%TO.N,unconnected-(U19-IOT10B-Pad44)*%
X140020000Y-79330000D03*
%TO.P,U19,45,IOT10A*%
%TO.N,unconnected-(U19-IOT10A-Pad45)*%
X140020000Y-81870000D03*
%TO.P,U19,46,IOT8B*%
%TO.N,unconnected-(U19-IOT8B-Pad46)*%
X140020000Y-84410000D03*
%TO.P,U19,47,IOT8A*%
%TO.N,unconnected-(U19-IOT8A-Pad47)*%
X140020000Y-86950000D03*
%TO.P,U19,48,IOR5A*%
%TO.N,Net-(U17-~{CTS})*%
X140020000Y-89490000D03*
%TD*%
D10*
%TO.P,R1,1*%
%TO.N,+5V*%
X151822600Y-162966800D03*
%TO.P,R1,2*%
%TO.N,Net-(D1-A)*%
X151822600Y-165506800D03*
%TD*%
%TO.P,R24,1*%
%TO.N,Net-(U16-QF)*%
X108946800Y-41966000D03*
%TO.P,R24,2*%
%TO.N,Net-(R24-Pad2)*%
X108946800Y-39426000D03*
%TD*%
%TO.P,C4,1*%
%TO.N,+3V3*%
X131390000Y-53950000D03*
%TO.P,C4,2*%
%TO.N,GNDREF*%
X131390000Y-51450000D03*
%TD*%
%TO.P,C20,1*%
%TO.N,+5V*%
X106250000Y-181600000D03*
%TO.P,C20,2*%
%TO.N,GNDREF*%
X108750000Y-181600000D03*
%TD*%
%TO.P,R40,1*%
%TO.N,+5V*%
X37551000Y-71758800D03*
%TO.P,R40,2*%
%TO.N,/kraft80V2-fpga/CK_KBD*%
X37551000Y-69218800D03*
%TD*%
%TO.P,R33,1*%
%TO.N,Net-(R29-Pad2)*%
X94164000Y-33006000D03*
%TO.P,R33,2*%
%TO.N,Net-(R28-Pad2)*%
X94164000Y-35546000D03*
%TD*%
D13*
%TO.P,D4,1,K*%
%TO.N,GNDREF*%
X19644600Y-119177200D03*
D14*
%TO.P,D4,2,A*%
%TO.N,Net-(D4-A)*%
X22184600Y-119177200D03*
%TD*%
D13*
%TO.P,D8,1,K*%
%TO.N,GNDREF*%
X19644600Y-98857200D03*
D14*
%TO.P,D8,2,A*%
%TO.N,Net-(D8-A)*%
X22184600Y-98857200D03*
%TD*%
D10*
%TO.P,R27,1*%
%TO.N,Net-(U15-QA)*%
X97821600Y-41966000D03*
%TO.P,R27,2*%
%TO.N,Net-(R27-Pad2)*%
X97821600Y-39426000D03*
%TD*%
D27*
%TO.P,JP2,1,A*%
%TO.N,+5V*%
X28788000Y-143971000D03*
D28*
%TO.P,JP2,2,C*%
%TO.N,/~{ROM_BASIC}*%
X28788000Y-146511000D03*
%TO.P,JP2,3,B*%
%TO.N,Net-(JP1-A)*%
X28788000Y-149051000D03*
%TD*%
D13*
%TO.P,D9,1,K*%
%TO.N,GNDREF*%
X19644600Y-103937200D03*
D14*
%TO.P,D9,2,A*%
%TO.N,Net-(D9-A)*%
X22184600Y-103937200D03*
%TD*%
D10*
%TO.P,C14,1*%
%TO.N,Net-(C14-Pad1)*%
X30027200Y-155375600D03*
%TO.P,C14,2*%
%TO.N,GNDREF*%
X32527200Y-155375600D03*
%TD*%
%TO.P,R26,1*%
%TO.N,Net-(U16-QH)*%
X101530000Y-41966000D03*
%TO.P,R26,2*%
%TO.N,Net-(R26-Pad2)*%
X101530000Y-39426000D03*
%TD*%
D34*
%TO.P,Q1,1,C*%
%TO.N,Net-(J3-Pin_2)*%
X76813800Y-46901200D03*
D35*
%TO.P,Q1,2,B*%
%TO.N,Net-(Q1-B)*%
X75543800Y-46901200D03*
%TO.P,Q1,3,E*%
%TO.N,GNDREF*%
X74273800Y-46901200D03*
%TD*%
D11*
%TO.P,SW3,1,1*%
%TO.N,GNDREF*%
X76150000Y-191750000D03*
X69650000Y-191750000D03*
%TO.P,SW3,2,2*%
%TO.N,/kraft80V2-ios/PX2*%
X76150000Y-187250000D03*
X69650000Y-187250000D03*
%TD*%
D29*
%TO.P,U16,1,QB*%
%TO.N,Net-(U16-QB)*%
X127496800Y-46371200D03*
D10*
%TO.P,U16,2,QC*%
%TO.N,Net-(U16-QC)*%
X124956800Y-46371200D03*
%TO.P,U16,3,QD*%
%TO.N,Net-(U16-QD)*%
X122416800Y-46371200D03*
%TO.P,U16,4,QE*%
%TO.N,Net-(U16-QE)*%
X119876800Y-46371200D03*
%TO.P,U16,5,QF*%
%TO.N,Net-(U16-QF)*%
X117336800Y-46371200D03*
%TO.P,U16,6,QG*%
%TO.N,Net-(U16-QG)*%
X114796800Y-46371200D03*
%TO.P,U16,7,QH*%
%TO.N,Net-(U16-QH)*%
X112256800Y-46371200D03*
%TO.P,U16,8,GND*%
%TO.N,GNDREF*%
X109716800Y-46371200D03*
%TO.P,U16,9,QH'*%
%TO.N,Net-(U15-SER)*%
X109716800Y-53991200D03*
%TO.P,U16,10,~{SRCLR}*%
%TO.N,+3V3*%
X112256800Y-53991200D03*
%TO.P,U16,11,SRCLK*%
%TO.N,Net-(U15-SRCLK)*%
X114796800Y-53991200D03*
%TO.P,U16,12,RCLK*%
%TO.N,Net-(U15-RCLK)*%
X117336800Y-53991200D03*
%TO.P,U16,13,~{OE}*%
%TO.N,GNDREF*%
X119876800Y-53991200D03*
%TO.P,U16,14,SER*%
%TO.N,Net-(U16-SER)*%
X122416800Y-53991200D03*
%TO.P,U16,15,QA*%
%TO.N,Net-(U16-QA)*%
X124956800Y-53991200D03*
%TO.P,U16,16,VCC*%
%TO.N,+3V3*%
X127496800Y-53991200D03*
%TD*%
%TO.P,R35,1*%
%TO.N,Net-(R27-Pad2)*%
X101580800Y-33012400D03*
%TO.P,R35,2*%
%TO.N,Net-(R26-Pad2)*%
X101580800Y-35552400D03*
%TD*%
D12*
%TO.P,U90,1,A14*%
%TO.N,A14*%
X148749200Y-99035000D03*
D10*
%TO.P,U90,2,A12*%
%TO.N,A12*%
X148749200Y-101575000D03*
%TO.P,U90,3,A7*%
%TO.N,A7*%
X148749200Y-104115000D03*
%TO.P,U90,4,A6*%
%TO.N,A6*%
X148749200Y-106655000D03*
%TO.P,U90,5,A5*%
%TO.N,A5*%
X148749200Y-109195000D03*
%TO.P,U90,6,A4*%
%TO.N,A4*%
X148749200Y-111735000D03*
%TO.P,U90,7,A3*%
%TO.N,A3*%
X148749200Y-114275000D03*
%TO.P,U90,8,A2*%
%TO.N,A2*%
X148749200Y-116815000D03*
%TO.P,U90,9,A1*%
%TO.N,A1*%
X148749200Y-119355000D03*
%TO.P,U90,10,A0*%
%TO.N,A0*%
X148749200Y-121895000D03*
%TO.P,U90,11,Q0*%
%TO.N,D0*%
X148749200Y-124435000D03*
%TO.P,U90,12,Q1*%
%TO.N,D1*%
X148749200Y-126975000D03*
%TO.P,U90,13,Q2*%
%TO.N,D2*%
X148749200Y-129515000D03*
%TO.P,U90,14,GND*%
%TO.N,GNDREF*%
X148749200Y-132055000D03*
%TO.P,U90,15,Q3*%
%TO.N,D3*%
X163989200Y-132055000D03*
%TO.P,U90,16,Q4*%
%TO.N,D4*%
X163989200Y-129515000D03*
%TO.P,U90,17,Q5*%
%TO.N,D5*%
X163989200Y-126975000D03*
%TO.P,U90,18,Q6*%
%TO.N,D6*%
X163989200Y-124435000D03*
%TO.P,U90,19,Q7*%
%TO.N,D7*%
X163989200Y-121895000D03*
%TO.P,U90,20,~{CS}*%
%TO.N,/~{SEL_RAM2}*%
X163989200Y-119355000D03*
%TO.P,U90,21,A10*%
%TO.N,A10*%
X163989200Y-116815000D03*
%TO.P,U90,22,~{OE}*%
%TO.N,~{READ}*%
X163989200Y-114275000D03*
%TO.P,U90,23,A11*%
%TO.N,A11*%
X163989200Y-111735000D03*
%TO.P,U90,24,A9*%
%TO.N,A9*%
X163989200Y-109195000D03*
%TO.P,U90,25,A8*%
%TO.N,A8*%
X163989200Y-106655000D03*
%TO.P,U90,26,A13*%
%TO.N,A13*%
X163989200Y-104115000D03*
%TO.P,U90,27,~{WE}*%
%TO.N,~{WRITE}*%
X163989200Y-101575000D03*
%TO.P,U90,28,VCC*%
%TO.N,+5V*%
X163989200Y-99035000D03*
%TD*%
%TO.P,C91,1*%
%TO.N,+5V*%
X100240600Y-153594200D03*
%TO.P,C91,2*%
%TO.N,GNDREF*%
X97740600Y-153594200D03*
%TD*%
D36*
%TO.P,U2,1,NC*%
%TO.N,unconnected-(U2-NC-Pad1)*%
X80067600Y-98679400D03*
D37*
%TO.P,U2,2,A12*%
%TO.N,A12*%
X80067600Y-101219400D03*
%TO.P,U2,3,A7*%
%TO.N,A7*%
X80067600Y-103759400D03*
%TO.P,U2,4,A6*%
%TO.N,A6*%
X80067600Y-106299400D03*
%TO.P,U2,5,A5*%
%TO.N,A5*%
X80067600Y-108839400D03*
%TO.P,U2,6,A4*%
%TO.N,A4*%
X80067600Y-111379400D03*
%TO.P,U2,7,A3*%
%TO.N,A3*%
X80067600Y-113919400D03*
%TO.P,U2,8,A2*%
%TO.N,A2*%
X80067600Y-116459400D03*
%TO.P,U2,9,A1*%
%TO.N,A1*%
X80067600Y-118999400D03*
%TO.P,U2,10,A0*%
%TO.N,A0*%
X80067600Y-121539400D03*
%TO.P,U2,11,I/O0*%
%TO.N,D0*%
X80067600Y-124079400D03*
%TO.P,U2,12,I/O1*%
%TO.N,D1*%
X80067600Y-126619400D03*
%TO.P,U2,13,I/O2*%
%TO.N,D2*%
X80067600Y-129159400D03*
%TO.P,U2,14,GND*%
%TO.N,GNDREF*%
X80067600Y-131699400D03*
%TO.P,U2,15,I/O3*%
%TO.N,D3*%
X95307600Y-131699400D03*
%TO.P,U2,16,I/O4*%
%TO.N,D4*%
X95307600Y-129159400D03*
%TO.P,U2,17,I/O5*%
%TO.N,D5*%
X95307600Y-126619400D03*
%TO.P,U2,18,I/O6*%
%TO.N,D6*%
X95307600Y-124079400D03*
%TO.P,U2,19,I/O7*%
%TO.N,D7*%
X95307600Y-121539400D03*
%TO.P,U2,20,~{CE}*%
%TO.N,/~{ROM_BIOS}*%
X95307600Y-118999400D03*
%TO.P,U2,21,A10*%
%TO.N,A10*%
X95307600Y-116459400D03*
%TO.P,U2,22,~{OE}*%
%TO.N,~{READ}*%
X95307600Y-113919400D03*
%TO.P,U2,23,A11*%
%TO.N,A11*%
X95307600Y-111379400D03*
%TO.P,U2,24,A9*%
%TO.N,A9*%
X95307600Y-108839400D03*
%TO.P,U2,25,A8*%
%TO.N,A8*%
X95307600Y-106299400D03*
%TO.P,U2,26,NC*%
%TO.N,unconnected-(U2-NC-Pad26)*%
X95307600Y-103759400D03*
%TO.P,U2,27,~{WE}*%
%TO.N,+5V*%
X95307600Y-101219400D03*
%TO.P,U2,28,VCC*%
X95307600Y-98679400D03*
%TD*%
D10*
%TO.P,R29,1*%
%TO.N,Net-(U15-QC)*%
X90404800Y-41959600D03*
%TO.P,R29,2*%
%TO.N,Net-(R29-Pad2)*%
X90404800Y-39419600D03*
%TD*%
%TO.P,R54,1*%
%TO.N,Net-(R46-Pad2)*%
X127539600Y-33006000D03*
%TO.P,R54,2*%
%TO.N,Net-(C21-Pad1)*%
X127539600Y-35546000D03*
%TD*%
%TO.P,R8,1*%
%TO.N,Net-(U5-Q4)*%
X29804600Y-114097200D03*
%TO.P,R8,2*%
%TO.N,Net-(D3-A)*%
X27264600Y-114097200D03*
%TD*%
D38*
%TO.P,LCD1,1,VSS*%
%TO.N,GNDREF*%
X93220000Y-181500000D03*
D39*
%TO.P,LCD1,2,VDD*%
%TO.N,+5V*%
X90680000Y-181500000D03*
%TO.P,LCD1,3,VO*%
%TO.N,Net-(LCD1-VO)*%
X88140000Y-181500000D03*
%TO.P,LCD1,4,RS*%
%TO.N,Net-(LCD1-RS)*%
X85600000Y-181500000D03*
%TO.P,LCD1,5,R/~{W}*%
%TO.N,GNDREF*%
X83060000Y-181500000D03*
%TO.P,LCD1,6,E*%
%TO.N,Net-(LCD1-E)*%
X80520000Y-181500000D03*
%TO.P,LCD1,7,DB0*%
%TO.N,GNDREF*%
X77980000Y-181500000D03*
%TO.P,LCD1,8,DB1*%
X75440000Y-181500000D03*
%TO.P,LCD1,9,DB2*%
X72900000Y-181500000D03*
%TO.P,LCD1,10,DB3*%
X70360000Y-181500000D03*
%TO.P,LCD1,11,DB4*%
%TO.N,Net-(LCD1-DB4)*%
X67820000Y-181500000D03*
%TO.P,LCD1,12,DB5*%
%TO.N,Net-(LCD1-DB5)*%
X65280000Y-181500000D03*
%TO.P,LCD1,13,DB6*%
%TO.N,Net-(LCD1-DB6)*%
X62734920Y-181497460D03*
%TO.P,LCD1,14,DB7*%
%TO.N,Net-(LCD1-DB7)*%
X60200000Y-181500000D03*
%TO.P,LCD1,15,A/VEE*%
%TO.N,Net-(LCD1-A{slash}VEE)*%
X98300000Y-181500000D03*
%TO.P,LCD1,16,K*%
%TO.N,GNDREF*%
X95754920Y-181497460D03*
%TD*%
D11*
%TO.P,SW4,1,1*%
%TO.N,GNDREF*%
X88850000Y-191750000D03*
X82350000Y-191750000D03*
%TO.P,SW4,2,2*%
%TO.N,/kraft80V2-ios/PX3*%
X88850000Y-187250000D03*
X82350000Y-187250000D03*
%TD*%
D12*
%TO.P,U91,1,A0*%
%TO.N,A13*%
X92386600Y-157556600D03*
D10*
%TO.P,U91,2,A1*%
%TO.N,Net-(U91-A1)*%
X92386600Y-160096600D03*
%TO.P,U91,3,A2*%
%TO.N,A15*%
X92386600Y-162636600D03*
%TO.P,U91,4,E1*%
%TO.N,/~{MREQ}*%
X92386600Y-165176600D03*
%TO.P,U91,5,E2*%
%TO.N,GNDREF*%
X92386600Y-167716600D03*
%TO.P,U91,6,E3*%
%TO.N,+5V*%
X92386600Y-170256600D03*
%TO.P,U91,7,O7*%
%TO.N,unconnected-(U91-O7-Pad7)*%
X92386600Y-172796600D03*
%TO.P,U91,8,GND*%
%TO.N,GNDREF*%
X92386600Y-175336600D03*
%TO.P,U91,9,O6*%
%TO.N,unconnected-(U91-O6-Pad9)*%
X100006600Y-175336600D03*
%TO.P,U91,10,O5*%
%TO.N,unconnected-(U91-O5-Pad10)*%
X100006600Y-172796600D03*
%TO.P,U91,11,O4*%
%TO.N,unconnected-(U91-O4-Pad11)*%
X100006600Y-170256600D03*
%TO.P,U91,12,O3*%
%TO.N,Net-(U91-O3)*%
X100006600Y-167716600D03*
%TO.P,U91,13,O2*%
%TO.N,Net-(U91-O2)*%
X100006600Y-165176600D03*
%TO.P,U91,14,O1*%
%TO.N,Net-(JP1-A)*%
X100006600Y-162636600D03*
%TO.P,U91,15,O0*%
%TO.N,/~{ROM_BIOS}*%
X100006600Y-160096600D03*
%TO.P,U91,16,VCC*%
%TO.N,+5V*%
X100006600Y-157556600D03*
%TD*%
%TO.P,C5,1*%
%TO.N,+5V*%
X86778600Y-153594200D03*
%TO.P,C5,2*%
%TO.N,GNDREF*%
X84278600Y-153594200D03*
%TD*%
%TO.P,C15,1*%
%TO.N,+5V*%
X37607200Y-155401000D03*
%TO.P,C15,2*%
%TO.N,GNDREF*%
X35107200Y-155401000D03*
%TD*%
%TO.P,C16,1*%
%TO.N,+5V*%
X165315400Y-155753200D03*
%TO.P,C16,2*%
%TO.N,GNDREF*%
X162815400Y-155753200D03*
%TD*%
D40*
%TO.P,U17,1,PWREN*%
%TO.N,unconnected-(U17-PWREN-Pad1)*%
X29470000Y-54825000D03*
D25*
%TO.P,U17,2,TEN*%
%TO.N,unconnected-(U17-TEN-Pad2)*%
X32010000Y-54825000D03*
%TO.P,U17,3,SLEEP*%
%TO.N,unconnected-(U17-SLEEP-Pad3)*%
X34550000Y-54825000D03*
%TO.P,U17,4,~{CTS}*%
%TO.N,Net-(U17-~{CTS})*%
X37090000Y-54825000D03*
%TO.P,U17,5,3V3*%
%TO.N,unconnected-(U17-3V3-Pad5)*%
X39630000Y-54825000D03*
%TO.P,U17,6,5V*%
%TO.N,+5V*%
X42170000Y-54825000D03*
%TO.P,U17,7,RXL*%
%TO.N,unconnected-(U17-RXL-Pad7)*%
X44710000Y-54825000D03*
%TO.P,U17,8,TXL*%
%TO.N,unconnected-(U17-TXL-Pad8)*%
X47250000Y-54825000D03*
%TO.P,U17,9,GND*%
%TO.N,GNDREF*%
X49790000Y-54825000D03*
%TO.P,U17,10,TXD*%
%TO.N,Net-(U17-TXD)*%
X49790000Y-39585000D03*
%TO.P,U17,11,~{DTR}*%
%TO.N,unconnected-(U17-~{DTR}-Pad11)*%
X47250000Y-39585000D03*
%TO.P,U17,12,~{RTS}*%
%TO.N,unconnected-(U17-~{RTS}-Pad12)*%
X44710000Y-39585000D03*
%TO.P,U17,13,VCC*%
%TO.N,unconnected-(U17-VCC-Pad13)*%
X42170000Y-39585000D03*
%TO.P,U17,14,RXD*%
%TO.N,Net-(U17-RXD)*%
X39630000Y-39585000D03*
%TO.P,U17,15,~{RI}*%
%TO.N,unconnected-(U17-~{RI}-Pad15)*%
X37090000Y-39585000D03*
%TO.P,U17,16,GND*%
%TO.N,GNDREF*%
X34550000Y-39585000D03*
%TO.P,U17,17,~{RSD}*%
%TO.N,unconnected-(U17-~{RSD}-Pad17)*%
X32010000Y-39585000D03*
%TO.P,U17,18,~{DCD}*%
%TO.N,unconnected-(U17-~{DCD}-Pad18)*%
X29470000Y-39585000D03*
%TD*%
D12*
%TO.P,U99,1,~{R}*%
%TO.N,~{RESET}*%
X35973200Y-87249400D03*
D10*
%TO.P,U99,2,D*%
%TO.N,D0*%
X35973200Y-89789400D03*
%TO.P,U99,3,C*%
%TO.N,CKFF*%
X35973200Y-92329400D03*
%TO.P,U99,4,~{S}*%
%TO.N,+5V*%
X35973200Y-94869400D03*
%TO.P,U99,5,Q*%
%TO.N,CPM*%
X35973200Y-97409400D03*
%TO.P,U99,6,~{Q}*%
%TO.N,unconnected-(U99A-~{Q}-Pad6)*%
X35973200Y-99949400D03*
%TO.P,U99,7,GND*%
%TO.N,GNDREF*%
X35973200Y-102489400D03*
%TO.P,U99,8,~{Q}*%
%TO.N,unconnected-(U99B-~{Q}-Pad8)*%
X43593200Y-102489400D03*
%TO.P,U99,9,Q*%
%TO.N,Net-(U99B-Q)*%
X43593200Y-99949400D03*
%TO.P,U99,10,~{S}*%
%TO.N,+5V*%
X43593200Y-97409400D03*
%TO.P,U99,11,C*%
%TO.N,CKFF*%
X43593200Y-94869400D03*
%TO.P,U99,12,D*%
%TO.N,D1*%
X43593200Y-92329400D03*
%TO.P,U99,13,~{R}*%
%TO.N,~{RESET}*%
X43593200Y-89789400D03*
%TO.P,U99,14,VCC*%
%TO.N,+5V*%
X43593200Y-87249400D03*
%TD*%
%TO.P,R48,1*%
%TO.N,Net-(U16-QD)*%
X116363600Y-41959600D03*
%TO.P,R48,2*%
%TO.N,Net-(R41-Pad2)*%
X116363600Y-39419600D03*
%TD*%
%TO.P,R19,1*%
%TO.N,+5V*%
X37855000Y-145400000D03*
%TO.P,R19,2*%
%TO.N,CLOCK*%
X40395000Y-145400000D03*
%TD*%
D41*
%TO.N,+5V*%
X73200000Y-121400000D03*
%TO.N,D5*%
X108500000Y-126695600D03*
X108388600Y-141402200D03*
X76892600Y-167310200D03*
X46158600Y-78110655D03*
X53016600Y-77902200D03*
X108990000Y-77610000D03*
X76984600Y-142729887D03*
X43260600Y-142200000D03*
%TO.N,D4*%
X52700000Y-79310655D03*
X77654600Y-169596200D03*
X40557200Y-127686200D03*
X109312600Y-129263925D03*
X45742600Y-145212200D03*
X109145547Y-141661112D03*
X110900000Y-79550000D03*
X77752325Y-143329887D03*
X39300600Y-79426200D03*
%TO.N,A10*%
X64360600Y-107728200D03*
%TO.N,/~{MREQ}*%
X90354600Y-134290200D03*
%TO.N,A11*%
X97466600Y-80300000D03*
X52254600Y-80026200D03*
%TO.N,CLOCK*%
X50222600Y-136576200D03*
X40700000Y-137084200D03*
X49300000Y-72060200D03*
%TO.N,~{READ}*%
X87650000Y-113300000D03*
X97720600Y-136068200D03*
X129470600Y-113271400D03*
%TO.N,~{WRITE}*%
X88630400Y-134750800D03*
X114549600Y-134036200D03*
X114550000Y-100850000D03*
%TO.N,D0*%
X57588600Y-75962200D03*
X67748600Y-139878200D03*
X112050000Y-125594600D03*
X112036600Y-139155616D03*
X57750600Y-121844200D03*
X112730000Y-75870200D03*
X39300600Y-76632200D03*
X45660600Y-139878200D03*
%TO.N,GNDREF*%
X119310600Y-177546400D03*
X93402600Y-94158200D03*
X105848600Y-177546400D03*
X119850000Y-50250000D03*
X124390600Y-177546400D03*
X35998600Y-106604200D03*
X97720600Y-177546400D03*
X92894600Y-139116200D03*
X70796600Y-177546400D03*
X69550000Y-68100000D03*
X93400000Y-72750000D03*
X110928600Y-177546400D03*
X93350000Y-50250000D03*
X67500000Y-45750000D03*
X131450000Y-32100000D03*
X19644600Y-71250000D03*
X65208600Y-139116200D03*
X92400000Y-177546400D03*
X109700000Y-50200000D03*
X79178600Y-177546400D03*
X84258600Y-177546400D03*
X47682600Y-177546400D03*
X113874265Y-77475735D03*
X117024600Y-134798200D03*
X138614600Y-134798200D03*
X104248400Y-134722000D03*
X69650000Y-72700000D03*
X79686600Y-139116200D03*
X36506600Y-139116200D03*
X125914600Y-134798200D03*
X48444600Y-139116200D03*
X47702600Y-152328200D03*
%TO.N,~{INT}*%
X56372400Y-74762200D03*
X56270800Y-126521200D03*
X75250000Y-74550000D03*
%TO.N,A13*%
X119237400Y-81647375D03*
X50476600Y-80188200D03*
X121596600Y-146228200D03*
X122104600Y-103556200D03*
X92386600Y-146482200D03*
%TO.N,A15*%
X59112600Y-174168200D03*
X59112600Y-99238200D03*
X94164600Y-172898200D03*
%TO.N,A1*%
X129524400Y-120066200D03*
%TO.N,D2*%
X54032600Y-76300200D03*
X106564144Y-140235972D03*
X68348600Y-140951887D03*
X46214555Y-140478200D03*
X37966980Y-79576350D03*
X121150000Y-76498099D03*
%TO.N,A12*%
X81300000Y-80627200D03*
X51238600Y-80442200D03*
%TO.N,~{RESET}*%
X153854600Y-151054200D03*
X85600000Y-85800000D03*
X62860600Y-85800000D03*
X64458600Y-123334000D03*
%TO.N,A5*%
X77460600Y-108839400D03*
%TO.N,/~{SEL_RAM2}*%
X150552600Y-120194000D03*
X150552600Y-133782200D03*
X115154600Y-135814200D03*
%TO.N,D3*%
X53628371Y-78710655D03*
X45234600Y-144594190D03*
X118600000Y-78710655D03*
X112450000Y-78710655D03*
X63684600Y-143942200D03*
X109912600Y-133020200D03*
X109853735Y-142033232D03*
X38585055Y-79068429D03*
%TO.N,D7*%
X56988600Y-77109655D03*
X107210587Y-140707263D03*
X75622600Y-141551887D03*
X103900000Y-77098099D03*
X44962707Y-77415475D03*
X56988600Y-119358385D03*
X46938383Y-140986200D03*
X106787600Y-120713600D03*
%TO.N,D6*%
X45358597Y-78110655D03*
X107748600Y-122860200D03*
X108130390Y-140635990D03*
X53761439Y-77500200D03*
X106450000Y-77362255D03*
X76384600Y-142164200D03*
X45904600Y-141656200D03*
%TO.N,+5V*%
X76384600Y-90856200D03*
X85950000Y-73584200D03*
X86798600Y-147752200D03*
X140900600Y-147752200D03*
X37703400Y-147755600D03*
X45000000Y-73584200D03*
X73336600Y-147752200D03*
X141154600Y-91110200D03*
X43000000Y-42600000D03*
X88504000Y-170358200D03*
X50222600Y-147752200D03*
X100260600Y-147752200D03*
X119564600Y-91110200D03*
X126930600Y-147752200D03*
X75622600Y-81712200D03*
X113468600Y-147752200D03*
X95434600Y-91110200D03*
%TO.N,A4*%
X77469600Y-111379400D03*
%TO.N,A0*%
X133690000Y-121793400D03*
%TO.N,A14*%
X111690600Y-83950800D03*
X49983600Y-83744200D03*
X111690600Y-97650000D03*
%TO.N,A9*%
X66260600Y-100428200D03*
%TO.N,D1*%
X40094690Y-75377200D03*
X109733948Y-143001548D03*
X44288600Y-146482200D03*
X58512600Y-124384200D03*
X40062600Y-117780200D03*
X63938600Y-144704200D03*
X110420600Y-128134600D03*
X58858600Y-75270200D03*
X39900600Y-92126200D03*
X112130000Y-75270200D03*
%TO.N,/~{SEL_RAM}*%
X135960600Y-119253400D03*
%TO.N,~{IORQ}*%
X78670600Y-135560200D03*
%TO.N,~{M1}*%
X82226600Y-123622200D03*
%TO.N,Net-(U91-O2)*%
X101784600Y-163246200D03*
%TO.N,Net-(U91-O3)*%
X101784600Y-173406200D03*
%TO.N,/~{ROM_BASIC}*%
X120960600Y-145228200D03*
%TO.N,Net-(U91-A1)*%
X94764600Y-165728200D03*
X103760600Y-166428200D03*
%TO.N,CPM*%
X62260600Y-99728200D03*
X62260600Y-93228200D03*
X96160600Y-168628200D03*
X89938600Y-93528200D03*
X33966600Y-80950200D03*
%TO.N,Net-(U10-Pad8)*%
X114738600Y-159436200D03*
X40683000Y-159728200D03*
%TO.N,/~{ROM_BIOS}*%
X98320600Y-118999400D03*
%TO.N,CKKBD*%
X128962600Y-150292200D03*
%TO.N,CKLED*%
X115754600Y-132004200D03*
%TO.N,+3V3*%
X85800000Y-65260000D03*
X115850000Y-65211000D03*
%TO.N,Net-(LCD1-DB7)*%
X59874600Y-155828200D03*
%TO.N,~{FPGA_CS}*%
X83335600Y-172450000D03*
%TO.N,Net-(JP1-A)*%
X98560600Y-178296400D03*
X52100000Y-153928200D03*
X51262345Y-178296400D03*
%TO.N,Net-(JP1-C)*%
X61200000Y-148550000D03*
X89254000Y-161900000D03*
X89607600Y-155728200D03*
X60950000Y-166600000D03*
%TO.N,CKFF*%
X121434600Y-164770200D03*
X62576600Y-146990200D03*
X121850600Y-146990200D03*
X60636600Y-98222200D03*
%TO.N,Net-(LCD1-DB4)*%
X68676400Y-172923600D03*
%TO.N,Net-(U99B-Q)*%
X40805800Y-99461200D03*
X40316600Y-86030200D03*
%TO.N,Net-(U15-RCLK)*%
X116900000Y-48900000D03*
X91150000Y-48985514D03*
%TO.N,Net-(U15-SRCLK)*%
X88450000Y-49500000D03*
X114800000Y-49500000D03*
%TO.N,Net-(U12-LV8)*%
X155200000Y-63550000D03*
%TO.N,Net-(U12-LV3)*%
X141950000Y-57100000D03*
X159900000Y-57084313D03*
%TO.N,Net-(U19-IOB29A)*%
X146000000Y-56450000D03*
X73200000Y-68400000D03*
X138754956Y-76076263D03*
%TO.N,Net-(U19-IOB13B)*%
X88360000Y-66350000D03*
X142350000Y-66650000D03*
X138239377Y-70010623D03*
%TO.N,Net-(U12-LV5)*%
X141800000Y-54616500D03*
X137958985Y-55208985D03*
X157950000Y-54200000D03*
%TO.N,Net-(U12-LV4)*%
X160025000Y-60175000D03*
%TO.N,Net-(U19-IOB23B)*%
X138400000Y-73000000D03*
X78650000Y-68300000D03*
X144250000Y-61550000D03*
%TO.N,Net-(U12-LV1)*%
X159300000Y-54600000D03*
X158650000Y-57756500D03*
%TO.N,Net-(U19-IOB11B)*%
X93950000Y-66010000D03*
X138059377Y-67290623D03*
X141600000Y-68550000D03*
%TO.N,Net-(U19-IOB33B)*%
X144850000Y-59500000D03*
X75725000Y-68075000D03*
X141526029Y-75451000D03*
%TO.N,Net-(U19-IOB23A)*%
X143150000Y-64450000D03*
X81000000Y-67850000D03*
X141699265Y-72950735D03*
%TO.N,Net-(U12-LV7)*%
X141950000Y-62203500D03*
X156749000Y-62203500D03*
X138250000Y-63500000D03*
%TO.N,Net-(U19-IOB8A)*%
X159450000Y-67916500D03*
X160100000Y-78700000D03*
%TO.N,Net-(U16-SER)*%
X122650000Y-48900000D03*
%TO.N,Net-(U19-IOB13A)*%
X91800000Y-66350000D03*
%TO.N,Net-(U12-LV2)*%
X158750000Y-51900000D03*
X158200000Y-55216500D03*
%TO.N,Net-(U12-LV6)*%
X157550000Y-62803500D03*
%TO.N,Net-(C21-Pad2)*%
X59950000Y-43700000D03*
%TO.N,Net-(LCD1-RS)*%
X82734600Y-156388200D03*
%TO.N,Net-(LCD1-VO)*%
X90008600Y-149530200D03*
%TO.N,Net-(LCD1-E)*%
X76384600Y-164008200D03*
%TO.N,Net-(LCD1-DB5)*%
X62576600Y-164800000D03*
%TO.N,Net-(LCD1-DB6)*%
X61975600Y-162350000D03*
%TO.N,Net-(U5-Q4)*%
X42094600Y-115240200D03*
%TO.N,/kraft80V2-ios/PX2*%
X54560600Y-162890600D03*
%TO.N,/kraft80V2-ios/PX5*%
X53392600Y-170510600D03*
%TO.N,/kraft80V2-ios/PX3*%
X54194600Y-165430600D03*
%TO.N,/kraft80V2-ios/PX4*%
X53793600Y-167970600D03*
%TO.N,/kraft80V2-fpga/DISK_SCK*%
X156348000Y-39500000D03*
X156800000Y-83700000D03*
%TO.N,/kraft80V2-fpga/DISK_MOSI*%
X154550000Y-29000000D03*
X156150000Y-86400000D03*
%TO.N,/kraft80V2-fpga/DISK_MISO*%
X153400000Y-26200000D03*
X154300000Y-81350000D03*
%TO.N,/kraft80V2-fpga/~{DISK_CS}*%
X144352000Y-27202000D03*
X142347972Y-63403500D03*
%TO.N,/kraft80V2-fpga/DAT_KBD*%
X72450000Y-63050000D03*
%TO.N,/kraft80V2-fpga/CK_KBD*%
X95500000Y-63650000D03*
%TO.N,/kraft80V2-ios/~{LEDKB_CS}*%
X95160600Y-155028200D03*
X122460600Y-154728200D03*
X95160600Y-159928200D03*
X122360600Y-165303600D03*
%TO.N,/kraft80V2-ios/~{FF_CS}*%
X102150600Y-161197600D03*
X116860600Y-158828200D03*
X102150600Y-158395600D03*
X117160600Y-162528200D03*
%TO.N,Net-(U17-TXD)*%
X49875600Y-82700000D03*
%TO.N,Net-(U17-~{CTS})*%
X36550000Y-84750000D03*
%TO.N,Net-(U17-RXD)*%
X161050000Y-87600000D03*
X48400000Y-83700000D03*
%TO.N,Net-(U19-IOT12B)*%
X146300000Y-82450000D03*
X146300000Y-69700000D03*
%TD*%
D42*
%TO.N,D5*%
X108348600Y-125900000D02*
X108348600Y-126055200D01*
X108348600Y-125900000D02*
X108348600Y-126544200D01*
X108348600Y-126544200D02*
X108500000Y-126695600D01*
X108531390Y-140187047D02*
X108896600Y-140552257D01*
X108500000Y-127061000D02*
X108531390Y-127092390D01*
X108500000Y-126695600D02*
X108500000Y-127061000D01*
X108896600Y-140894200D02*
X108388600Y-141402200D01*
X108531390Y-127092390D02*
X108531390Y-140187047D01*
X108896600Y-140552257D02*
X108896600Y-140894200D01*
X108500000Y-126695600D02*
X108448000Y-126643600D01*
D43*
%TO.N,+5V*%
X46755000Y-125700000D02*
X46755000Y-129200000D01*
X48444600Y-114224200D02*
X46755000Y-115913800D01*
X46755000Y-115913800D02*
X46755000Y-125700000D01*
D42*
%TO.N,D5*%
X46158600Y-78110655D02*
X47174600Y-79126655D01*
X47174600Y-79126655D02*
X47174600Y-108925400D01*
X47174600Y-108925400D02*
X46000000Y-110100000D01*
X46000000Y-110100000D02*
X46000000Y-123145800D01*
X46000000Y-123145800D02*
X43694800Y-125451000D01*
%TO.N,D6*%
X43694800Y-117831000D02*
X45543900Y-115981900D01*
X45358597Y-78160595D02*
X45358597Y-78110655D01*
X45543900Y-115981900D02*
X45543900Y-109129700D01*
X45543900Y-109129700D02*
X46773600Y-107900000D01*
X46773600Y-107900000D02*
X46773600Y-79575598D01*
X46773600Y-79575598D02*
X45358597Y-78160595D01*
%TO.N,D7*%
X45142900Y-113842900D02*
X45142900Y-108129700D01*
X45142900Y-108129700D02*
X46372600Y-106900000D01*
D43*
%TO.N,GNDREF*%
X48444600Y-139116200D02*
X48044000Y-138715600D01*
X48044000Y-138715600D02*
X48044000Y-117124800D01*
X48044000Y-117124800D02*
X48444600Y-116724200D01*
%TO.N,+5V*%
X73200000Y-121400000D02*
X73345000Y-121545000D01*
X73345000Y-121545000D02*
X73345000Y-129200000D01*
D42*
X73340000Y-125000000D02*
X73340000Y-129195000D01*
X73340000Y-129195000D02*
X73345000Y-129200000D01*
D43*
X37703400Y-147755600D02*
X37703400Y-145551600D01*
X37703400Y-145551600D02*
X37855000Y-145400000D01*
D42*
%TO.N,CLOCK*%
X40395000Y-145400000D02*
X40395000Y-137389200D01*
X40395000Y-137389200D02*
X40700000Y-137084200D01*
X37703400Y-165464400D02*
X38804400Y-164363400D01*
X38804400Y-164363400D02*
X38804400Y-146990600D01*
X38804400Y-146990600D02*
X40395000Y-145400000D01*
%TO.N,D5*%
X108990000Y-77610000D02*
X108990000Y-70592000D01*
X76984600Y-167218200D02*
X76892600Y-167310200D01*
X53224055Y-78109655D02*
X53016600Y-77902200D01*
X41332600Y-151428200D02*
X41332600Y-166700600D01*
X108990000Y-77710000D02*
X108348600Y-78351400D01*
X41360600Y-151428200D02*
X41332600Y-151428200D01*
X76984600Y-142729887D02*
X76984600Y-164008200D01*
X108990000Y-77610000D02*
X108990000Y-77710000D01*
X43260600Y-149528200D02*
X41360600Y-151428200D01*
X76984600Y-164008200D02*
X76984600Y-167218200D01*
X54286600Y-78664200D02*
X54286600Y-107188400D01*
X43260600Y-142200000D02*
X43260600Y-149528200D01*
X54286600Y-78518941D02*
X53877314Y-78109655D01*
X53877314Y-78109655D02*
X53224055Y-78109655D01*
X41332600Y-166700600D02*
X42602600Y-167970600D01*
X54286600Y-78664200D02*
X54286600Y-78518941D01*
X108348600Y-78351400D02*
X108348600Y-125900000D01*
X54286600Y-107188400D02*
X52280000Y-109195000D01*
%TO.N,D4*%
X111530000Y-78920000D02*
X111530000Y-70592000D01*
X109297600Y-141509059D02*
X109145547Y-141661112D01*
X39300600Y-126429600D02*
X40557200Y-127686200D01*
X77752325Y-165786200D02*
X77752325Y-169498475D01*
X109404600Y-129171925D02*
X109404600Y-81045400D01*
X109312600Y-129263925D02*
X108932390Y-129644135D01*
X110900000Y-79550000D02*
X110838002Y-79488002D01*
X53381000Y-103014000D02*
X52280000Y-104115000D01*
X53381000Y-80000000D02*
X53381000Y-103014000D01*
X108932390Y-129644135D02*
X108932390Y-139116200D01*
X45742600Y-145212200D02*
X45799600Y-145269200D01*
X45690600Y-162342600D02*
X42602600Y-165430600D01*
X109404600Y-81045400D02*
X110900000Y-79550000D01*
X45690600Y-150935450D02*
X45690600Y-162342600D01*
X108932390Y-139116200D02*
X109297600Y-139481410D01*
X39300600Y-79426200D02*
X39300600Y-126429600D01*
X109312600Y-129263925D02*
X109404600Y-129171925D01*
X52700000Y-79319000D02*
X53381000Y-80000000D01*
X45799600Y-150826450D02*
X45690600Y-150935450D01*
X52700000Y-79310655D02*
X52700000Y-79319000D01*
X45799600Y-145269200D02*
X45799600Y-150826450D01*
X77752325Y-169498475D02*
X77654600Y-169596200D01*
X77752325Y-143329887D02*
X77460600Y-143621612D01*
X109297600Y-139481410D02*
X109297600Y-141509059D01*
X77460600Y-143621612D02*
X77460600Y-165494475D01*
X77460600Y-165494475D02*
X77752325Y-165786200D01*
X110900000Y-79550000D02*
X111530000Y-78920000D01*
%TO.N,A10*%
X64360600Y-107728200D02*
X63760600Y-107128200D01*
X63760600Y-90228200D02*
X63760600Y-107128200D01*
X65113800Y-88875000D02*
X67520000Y-88875000D01*
X65113800Y-88875000D02*
X63760600Y-90228200D01*
%TO.N,/~{MREQ}*%
X92386600Y-165176600D02*
X90608600Y-163398600D01*
X90608600Y-163398600D02*
X90608600Y-134544200D01*
X90608600Y-134544200D02*
X90354600Y-134290200D01*
%TO.N,A11*%
X97466600Y-109220400D02*
X95307600Y-111379400D01*
X52280000Y-80051600D02*
X52254600Y-80026200D01*
X52280000Y-88875000D02*
X52280000Y-80051600D01*
X97466600Y-80300000D02*
X97466600Y-109220400D01*
%TO.N,A7*%
X81368600Y-105060400D02*
X80067600Y-103759400D01*
X79178600Y-167818200D02*
X81368600Y-165628200D01*
X81368600Y-165628200D02*
X81368600Y-105060400D01*
%TO.N,CLOCK*%
X50250000Y-99545000D02*
X52280000Y-101575000D01*
X50222600Y-103632400D02*
X50222600Y-103750000D01*
X49300000Y-72060200D02*
X49300000Y-72982800D01*
X49300000Y-72982800D02*
X49275600Y-73007200D01*
X49275600Y-94700000D02*
X50250000Y-95674400D01*
X50250000Y-95674400D02*
X50250000Y-99545000D01*
X49275600Y-73007200D02*
X49275600Y-94700000D01*
X37703400Y-165464400D02*
X37703400Y-165459400D01*
X52280000Y-101575000D02*
X50222600Y-103632400D01*
X50222600Y-136576200D02*
X50222600Y-103750000D01*
%TO.N,~{READ}*%
X127438600Y-142164200D02*
X127946600Y-141656200D01*
X97720600Y-136068200D02*
X97720600Y-116332400D01*
X128011600Y-161606400D02*
X128011600Y-145531200D01*
X127438600Y-144958200D02*
X127438600Y-142164200D01*
X87650000Y-82150000D02*
X87650000Y-113300000D01*
X127946600Y-141656200D02*
X128200600Y-141656200D01*
X128200600Y-114541400D02*
X129470600Y-113271400D01*
X90900000Y-78900000D02*
X87650000Y-82150000D01*
X90900000Y-70557000D02*
X90900000Y-78900000D01*
X128200600Y-141656200D02*
X128200600Y-114541400D01*
X128011600Y-145531200D02*
X127438600Y-144958200D01*
X126854400Y-162763600D02*
X128011600Y-161606400D01*
X97720600Y-116332400D02*
X95307600Y-113919400D01*
%TO.N,A3*%
X125071400Y-113228600D02*
X126016200Y-114173400D01*
X125071400Y-113228600D02*
X125071400Y-113221400D01*
X125071400Y-113221400D02*
X124450000Y-112600000D01*
X124450000Y-87570000D02*
X124450000Y-112600000D01*
%TO.N,A6*%
X78069600Y-138916243D02*
X78069600Y-108297400D01*
X79178600Y-162738200D02*
X80279600Y-161637200D01*
X80279600Y-161637200D02*
X80279600Y-141126243D01*
X78069600Y-108297400D02*
X80067600Y-106299400D01*
X80279600Y-141126243D02*
X78069600Y-138916243D01*
%TO.N,~{WRITE}*%
X114549600Y-155538800D02*
X114549600Y-134036200D01*
X119234400Y-170383600D02*
X117786600Y-168935800D01*
X92250000Y-71747000D02*
X92250000Y-79030400D01*
X114549600Y-101239200D02*
X114549600Y-134036200D01*
X117786600Y-161671400D02*
X119234400Y-160223600D01*
X93440000Y-70557000D02*
X92250000Y-71747000D01*
X114550000Y-101238800D02*
X114549600Y-101239200D01*
X114550000Y-100850000D02*
X114550000Y-101238800D01*
X119234400Y-160223600D02*
X114549600Y-155538800D01*
X92250000Y-79030400D02*
X88630400Y-82650000D01*
X88630400Y-82650000D02*
X88630400Y-134750800D01*
X117786600Y-168935800D02*
X117786600Y-161671400D01*
%TO.N,D0*%
X67748600Y-155702400D02*
X65767400Y-157683600D01*
X43860600Y-146060257D02*
X43860600Y-141628200D01*
X39300600Y-76632200D02*
X39300600Y-77394200D01*
X43687600Y-146233257D02*
X43860600Y-146060257D01*
X112291600Y-82750000D02*
X113700000Y-81341600D01*
X43703600Y-151629600D02*
X43686000Y-151629600D01*
X57588600Y-121682200D02*
X57750600Y-121844200D01*
X37268600Y-88494000D02*
X37268600Y-88200000D01*
X43703600Y-154169600D02*
X43703600Y-151629600D01*
X112291600Y-125353000D02*
X112291600Y-82750000D01*
X112750000Y-75890200D02*
X112730000Y-75870200D01*
X37175800Y-114190000D02*
X36074800Y-115291000D01*
X112036600Y-139155616D02*
X112036600Y-125608000D01*
X43860600Y-141628200D02*
X45610600Y-139878200D01*
X35973200Y-89789400D02*
X37175800Y-90992000D01*
X43703600Y-151612000D02*
X43703600Y-146747143D01*
X113700000Y-81341600D02*
X113700000Y-78150000D01*
X112036600Y-125608000D02*
X112050000Y-125594600D01*
X57588600Y-75962200D02*
X57588600Y-121682200D01*
X112750000Y-77200000D02*
X112750000Y-75890200D01*
X113700000Y-78150000D02*
X112750000Y-77200000D01*
X67748600Y-139878200D02*
X67748600Y-155702400D01*
X37175800Y-90992000D02*
X37175800Y-114190000D01*
X43686000Y-151629600D02*
X43703600Y-151612000D01*
X43703600Y-146747143D02*
X43687600Y-146731143D01*
X112050000Y-125594600D02*
X112291600Y-125353000D01*
X37268600Y-79426200D02*
X37268600Y-88200000D01*
X42602600Y-155270600D02*
X43703600Y-154169600D01*
X43687600Y-146731143D02*
X43687600Y-146233257D01*
X39300600Y-77394200D02*
X37268600Y-79426200D01*
X35973200Y-89789400D02*
X37268600Y-88494000D01*
X45610600Y-139878200D02*
X45660600Y-139878200D01*
D43*
%TO.N,GNDREF*%
X70816600Y-177526400D02*
X70796600Y-177546400D01*
X35107200Y-158164200D02*
X35107200Y-155401000D01*
X41307200Y-106629600D02*
X41555800Y-106381000D01*
X138634600Y-134778200D02*
X138614600Y-134798200D01*
X162815400Y-155753200D02*
X161591400Y-154529200D01*
X20550000Y-70311200D02*
X20550000Y-70344600D01*
X92400000Y-178400000D02*
X93220000Y-179220000D01*
X97740600Y-153594200D02*
X97740600Y-177526400D01*
X47702600Y-150038200D02*
X47702600Y-152328200D01*
X108410600Y-180064400D02*
X110928600Y-177546400D01*
X70796600Y-177546400D02*
X70796600Y-181063400D01*
X79178600Y-177546400D02*
X80246400Y-177546400D01*
X83060000Y-180360000D02*
X83060000Y-181500000D01*
X69450000Y-57050000D02*
X69450000Y-58100000D01*
D42*
X93410000Y-50310000D02*
X93350000Y-50250000D01*
D43*
X124410600Y-156896200D02*
X124410600Y-177526400D01*
X148749200Y-146964800D02*
X148774600Y-146990200D01*
X110948600Y-156896200D02*
X110948600Y-177526400D01*
X41555800Y-83363200D02*
X41555800Y-82951400D01*
X160458600Y-141589400D02*
X160458600Y-134798200D01*
X155302400Y-146558400D02*
X155302400Y-148133200D01*
X117095400Y-134727400D02*
X117024600Y-134798200D01*
X157664600Y-175621000D02*
X162236600Y-175621000D01*
X119876800Y-53991200D02*
X119876800Y-50276800D01*
X161494600Y-94412200D02*
X161494600Y-133762200D01*
X155378600Y-145757000D02*
X155378600Y-146482200D01*
X93400000Y-94155600D02*
X93400000Y-72750000D01*
X67500000Y-45750000D02*
X67500000Y-48600000D01*
X35163400Y-158499800D02*
X35163400Y-158220400D01*
X93410000Y-53915000D02*
X93410000Y-50310000D01*
X97740600Y-177526400D02*
X97720600Y-177546400D01*
D42*
X109700000Y-50200000D02*
X109716800Y-50183200D01*
D43*
X131390000Y-32160000D02*
X131450000Y-32100000D01*
X79178600Y-175438200D02*
X79178600Y-177546400D01*
D42*
X92386600Y-175336600D02*
X90862600Y-173812600D01*
D43*
X124410600Y-177526400D02*
X124390600Y-177546400D01*
X30126700Y-175581100D02*
X30083400Y-175624400D01*
X35163400Y-158220400D02*
X35107200Y-158164200D01*
X80067600Y-131699400D02*
X80067600Y-138735200D01*
X148774600Y-146990200D02*
X148266600Y-147498200D01*
X41307200Y-106934400D02*
X41307200Y-106629600D01*
X161591400Y-154529200D02*
X161591400Y-145344200D01*
D42*
X69450000Y-68000000D02*
X69550000Y-68100000D01*
D43*
X67500000Y-48600000D02*
X67500000Y-55000000D01*
D42*
X90862600Y-169240600D02*
X92386600Y-167716600D01*
D43*
X80246400Y-177546400D02*
X83060000Y-180360000D01*
X105797800Y-175534800D02*
X105797800Y-177495600D01*
X93402600Y-137592200D02*
X93402600Y-94158200D01*
X25741000Y-70311200D02*
X20550000Y-70311200D01*
X104324600Y-134798200D02*
X104248400Y-134722000D01*
X69450000Y-58100000D02*
X69450000Y-56950000D01*
X65208600Y-119126400D02*
X65208600Y-139116200D01*
X110948600Y-177526400D02*
X110928600Y-177546400D01*
X161494600Y-133762200D02*
X160458600Y-134798200D01*
X92386600Y-177292400D02*
X92386600Y-175336600D01*
X92400000Y-177546400D02*
X92400000Y-177305800D01*
X83280000Y-59000000D02*
X83280000Y-70557000D01*
X148749200Y-132055000D02*
X148749200Y-146964800D01*
X114070000Y-70592000D02*
X114070000Y-77280000D01*
X162815400Y-174676200D02*
X162815400Y-175042200D01*
X36074800Y-133071000D02*
X37979800Y-133071000D01*
X114070000Y-77280000D02*
X113874265Y-77475735D01*
X67520000Y-116815000D02*
X65208600Y-119126400D01*
X92400000Y-177305800D02*
X92386600Y-177292400D01*
D42*
X69500000Y-57000000D02*
X69450000Y-57050000D01*
D43*
X92894600Y-138100200D02*
X93402600Y-137592200D01*
X114070000Y-70592000D02*
X114214000Y-70736000D01*
X32795800Y-175581100D02*
X35163400Y-173213500D01*
X19644600Y-80366000D02*
X19644600Y-129337200D01*
X69650000Y-68200000D02*
X69550000Y-68100000D01*
X162815400Y-175042200D02*
X162236600Y-175621000D01*
X37979800Y-133071000D02*
X41307200Y-129743600D01*
X126016200Y-134696600D02*
X125914600Y-134798200D01*
X105797800Y-177495600D02*
X105848600Y-177546400D01*
X41555800Y-106381000D02*
X41555800Y-83363200D01*
X157202400Y-143933200D02*
X155378600Y-145757000D01*
X83250000Y-36188800D02*
X83250000Y-46295000D01*
X70796600Y-181063400D02*
X70360000Y-181500000D01*
X35998600Y-106604200D02*
X35998600Y-102514800D01*
X109716800Y-50183200D02*
X109716800Y-46371200D01*
X67500000Y-32000000D02*
X67500000Y-48600000D01*
X93220000Y-179220000D02*
X93220000Y-181500000D01*
X108410600Y-181728200D02*
X108410600Y-180064400D01*
X35163400Y-173213500D02*
X35163400Y-158499800D01*
X104248400Y-131775600D02*
X104248400Y-134722000D01*
X32795800Y-175581100D02*
X30126700Y-175581100D01*
X162815400Y-155753200D02*
X162815400Y-174676200D01*
X120460000Y-26800000D02*
X72700000Y-26800000D01*
X69450000Y-58100000D02*
X69450000Y-68000000D01*
X20550000Y-70344600D02*
X19644600Y-71250000D01*
X114070000Y-70592000D02*
X114070000Y-59035000D01*
X117095400Y-94412200D02*
X117095400Y-134727400D01*
X35998600Y-102514800D02*
X35973200Y-102489400D01*
X138634600Y-94412200D02*
X138634600Y-134778200D01*
X119234400Y-177470200D02*
X119310600Y-177546400D01*
X47702600Y-177526400D02*
X47682600Y-177546400D01*
X93402600Y-94158200D02*
X93400000Y-94155600D01*
X36506600Y-139116200D02*
X36074800Y-138684400D01*
X69450000Y-56950000D02*
X69025000Y-56525000D01*
X148266600Y-147498200D02*
X144634400Y-147498200D01*
X69650000Y-72700000D02*
X69650000Y-68200000D01*
X131390000Y-51450000D02*
X131390000Y-32160000D01*
X152331600Y-143433200D02*
X148774600Y-146990200D01*
X72700000Y-26800000D02*
X67500000Y-32000000D01*
X41307200Y-129743600D02*
X41307200Y-106934400D01*
X70816600Y-149530200D02*
X70816600Y-177526400D01*
X126016200Y-131953400D02*
X126016200Y-134696600D01*
X162902400Y-144033200D02*
X160458600Y-141589400D01*
X119234400Y-175463600D02*
X119234400Y-177470200D01*
X152602400Y-143433200D02*
X152331600Y-143433200D01*
X161591400Y-145344200D02*
X162902400Y-144033200D01*
X36074800Y-138684400D02*
X36074800Y-133071000D01*
D42*
X119876800Y-50276800D02*
X119850000Y-50250000D01*
D43*
X92400000Y-177546400D02*
X92400000Y-178400000D01*
X67500000Y-55000000D02*
X69025000Y-56525000D01*
X47702600Y-152328200D02*
X47702600Y-177526400D01*
D42*
X90862600Y-173812600D02*
X90862600Y-169240600D01*
D43*
X84278600Y-153594200D02*
X84278600Y-177526400D01*
X84278600Y-177526400D02*
X84258600Y-177546400D01*
X92894600Y-139116200D02*
X92894600Y-138100200D01*
X84833800Y-34605000D02*
X83250000Y-36188800D01*
X155378600Y-146482200D02*
X155302400Y-146558400D01*
X157302400Y-144033200D02*
X157202400Y-143933200D01*
X80067600Y-138735200D02*
X79686600Y-139116200D01*
D42*
%TO.N,A2*%
X127853600Y-87595400D02*
X127600600Y-87848400D01*
X127600600Y-115129000D02*
X127600600Y-115050000D01*
X127600600Y-87848400D02*
X127600600Y-115050000D01*
X126016200Y-116713400D02*
X127600600Y-115129000D01*
%TO.N,~{INT}*%
X56372400Y-74762200D02*
X56372400Y-126419600D01*
X75660000Y-70557000D02*
X75660000Y-74140000D01*
X75660000Y-74140000D02*
X75250000Y-74550000D01*
X56372400Y-126419600D02*
X56270800Y-126521200D01*
%TO.N,A13*%
X121596600Y-90602200D02*
X121596600Y-103048200D01*
X119237400Y-81647375D02*
X120326600Y-82736575D01*
X52280000Y-93955000D02*
X50583600Y-92258600D01*
X50583600Y-92258600D02*
X50583600Y-80295200D01*
X50583600Y-80295200D02*
X50476600Y-80188200D01*
X122104600Y-103556200D02*
X122104600Y-145720200D01*
X92386600Y-146482200D02*
X92386600Y-157556600D01*
X120326600Y-89332200D02*
X121596600Y-90602200D01*
X122104600Y-145720200D02*
X121596600Y-146228200D01*
X121596600Y-103048200D02*
X122104600Y-103556200D01*
X120326600Y-82736575D02*
X120326600Y-89332200D01*
%TO.N,Net-(Q1-B)*%
X74195000Y-42187200D02*
X74195000Y-44595000D01*
X74195000Y-44595000D02*
X75543800Y-45943800D01*
X75543800Y-45943800D02*
X75543800Y-46901200D01*
%TO.N,A15*%
X94164600Y-172898200D02*
X94164600Y-164414600D01*
X94164600Y-164414600D02*
X92386600Y-162636600D01*
X59112600Y-174168200D02*
X59112600Y-99238200D01*
%TO.N,A1*%
X131282600Y-118308000D02*
X129524400Y-120066200D01*
X131282600Y-87595400D02*
X131282600Y-118308000D01*
%TO.N,D2*%
X121241901Y-76498099D02*
X121690000Y-76050000D01*
X55050000Y-119585000D02*
X55050000Y-135922050D01*
X37985055Y-123540745D02*
X36074800Y-125451000D01*
X55287600Y-77555200D02*
X54032600Y-76300200D01*
X52280000Y-116815000D02*
X55302600Y-113792400D01*
X52280000Y-116815000D02*
X55050000Y-119585000D01*
X121150000Y-76498099D02*
X121241901Y-76498099D01*
X106564144Y-140235972D02*
X106564144Y-131551344D01*
X55302600Y-95174200D02*
X55287600Y-95159200D01*
X68348600Y-165262400D02*
X68348600Y-140951887D01*
X51254850Y-139717200D02*
X46975555Y-139717200D01*
X44634600Y-145974200D02*
X44634600Y-142058155D01*
X121690000Y-76050000D02*
X121690000Y-70592000D01*
X55050000Y-135922050D02*
X51254850Y-139717200D01*
X37966980Y-79576350D02*
X37985055Y-79594425D01*
X44634600Y-142058155D02*
X46214555Y-140478200D01*
X55287600Y-95159200D02*
X55287600Y-77555200D01*
X106564144Y-131551344D02*
X104248400Y-129235600D01*
X42602600Y-160350600D02*
X44888600Y-158064600D01*
X44888600Y-146228200D02*
X44634600Y-145974200D01*
X65767400Y-167843600D02*
X68348600Y-165262400D01*
X44888600Y-158064600D02*
X44888600Y-146228200D01*
X37985055Y-79594425D02*
X37985055Y-123540745D01*
X55302600Y-113792400D02*
X55302600Y-95174200D01*
X46975555Y-139717200D02*
X46214555Y-140478200D01*
%TO.N,A12*%
X52280000Y-91415000D02*
X50984600Y-90119600D01*
X81300000Y-80627200D02*
X81972600Y-81299800D01*
X81972600Y-99314400D02*
X80067600Y-101219400D01*
X50984600Y-80696200D02*
X51238600Y-80442200D01*
X50984600Y-90119600D02*
X50984600Y-80696200D01*
X81972600Y-81299800D02*
X81972600Y-99314400D01*
%TO.N,~{RESET}*%
X64607600Y-123483000D02*
X64458600Y-123334000D01*
X64607600Y-151443800D02*
X64607600Y-148514200D01*
X65767400Y-152603600D02*
X64607600Y-151443800D01*
X154210200Y-151409800D02*
X153854600Y-151054200D01*
X86293600Y-81656400D02*
X88360000Y-79590000D01*
X85600000Y-85793600D02*
X86293600Y-85100000D01*
X154210200Y-158242400D02*
X154210200Y-151409800D01*
X86293600Y-85100000D02*
X86293600Y-81656400D01*
X64607600Y-148514200D02*
X64607600Y-123483000D01*
X85600000Y-85800000D02*
X85600000Y-85793600D01*
X62860600Y-121736000D02*
X64458600Y-123334000D01*
X88360000Y-79590000D02*
X88360000Y-70557000D01*
X62860600Y-85800000D02*
X62860600Y-121736000D01*
%TO.N,A5*%
X78660600Y-141277300D02*
X77260600Y-139877300D01*
X77260600Y-139877300D02*
X77260600Y-138928200D01*
X77260600Y-138928200D02*
X76868600Y-138536200D01*
X76868600Y-138536200D02*
X76868600Y-109431400D01*
X78060600Y-159080200D02*
X78060600Y-151428200D01*
X78060600Y-151428200D02*
X78660600Y-150828200D01*
X78660600Y-150828200D02*
X78660600Y-141277300D01*
X79178600Y-160198200D02*
X78060600Y-159080200D01*
X76868600Y-109431400D02*
X77460600Y-108839400D01*
%TO.N,/~{SEL_RAM2}*%
X117130000Y-171822600D02*
X120314943Y-171822600D01*
X150552600Y-133782200D02*
X150552600Y-120194000D01*
X120433600Y-171703943D02*
X120433600Y-154434357D01*
X115154600Y-149155357D02*
X115154600Y-135814200D01*
X120314943Y-171822600D02*
X120433600Y-171703943D01*
X113417800Y-175534800D02*
X117130000Y-171822600D01*
X120433600Y-154434357D02*
X115154600Y-149155357D01*
D43*
%TO.N,Net-(J3-Pin_2)*%
X81100000Y-42650000D02*
X76848800Y-46901200D01*
D42*
X76848800Y-46901200D02*
X76813800Y-46901200D01*
D43*
X79450000Y-34690000D02*
X81100000Y-36340000D01*
X81100000Y-36340000D02*
X81100000Y-42650000D01*
D42*
%TO.N,D3*%
X109912600Y-128956200D02*
X109912600Y-133020200D01*
X45141600Y-144687190D02*
X45141600Y-145914100D01*
X109819600Y-126763200D02*
X109819600Y-128863200D01*
X63176600Y-167792800D02*
X63176600Y-144450200D01*
X112450000Y-78710655D02*
X112450000Y-79960655D01*
X53871600Y-105063400D02*
X53871600Y-78953884D01*
X109912600Y-133020200D02*
X109912600Y-141974367D01*
X112450000Y-79960655D02*
X109912600Y-82498055D01*
X119150000Y-78250000D02*
X119150000Y-70592000D01*
X109819600Y-128863200D02*
X109912600Y-128956200D01*
X118600000Y-78710655D02*
X118689345Y-78710655D01*
X109912600Y-82498055D02*
X109912600Y-126670200D01*
X52280000Y-106655000D02*
X53871600Y-105063400D01*
X118689345Y-78710655D02*
X119150000Y-78250000D01*
X45289600Y-160203600D02*
X42602600Y-162890600D01*
X45234600Y-144594190D02*
X45141600Y-144687190D01*
X53871600Y-78953884D02*
X53628371Y-78710655D01*
X63176600Y-144450200D02*
X63684600Y-143942200D01*
X38585055Y-125480745D02*
X38585055Y-79068429D01*
X65767400Y-170383600D02*
X63176600Y-167792800D01*
X45289600Y-146062100D02*
X45289600Y-160203600D01*
X109912600Y-126670200D02*
X109819600Y-126763200D01*
X45141600Y-145914100D02*
X45289600Y-146062100D01*
X36074800Y-127991000D02*
X38585055Y-125480745D01*
X109912600Y-141974367D02*
X109853735Y-142033232D01*
%TO.N,D7*%
X46601600Y-148619000D02*
X46920600Y-148300000D01*
X46372600Y-106900000D02*
X46372600Y-89249568D01*
X103900000Y-77098099D02*
X103910000Y-77088099D01*
X46372600Y-89249568D02*
X45864600Y-88741568D01*
X106787600Y-120713600D02*
X106787600Y-81259200D01*
X46660600Y-150800000D02*
X46601600Y-150741000D01*
X46660600Y-168992600D02*
X42602600Y-173050600D01*
X107118600Y-129718200D02*
X107719600Y-130319200D01*
X43694800Y-115291000D02*
X45142900Y-113842900D01*
X46601600Y-150741000D02*
X46601600Y-148619000D01*
X57080600Y-77578200D02*
X56988600Y-77486200D01*
X56988600Y-77486200D02*
X56988600Y-77109655D01*
X106787600Y-81259200D02*
X103900000Y-78371600D01*
X103900000Y-78371600D02*
X103900000Y-77098099D01*
X46660600Y-150800000D02*
X46660600Y-168992600D01*
X56988600Y-118996570D02*
X57080600Y-118904570D01*
X106787600Y-122749272D02*
X107118600Y-123080272D01*
X44757597Y-82343197D02*
X44757597Y-77620585D01*
X107719600Y-140198250D02*
X107210587Y-140707263D01*
X75622600Y-141551887D02*
X75622600Y-155448400D01*
X46938383Y-141551887D02*
X46920600Y-141569670D01*
X46920600Y-141569670D02*
X46920600Y-148300000D01*
X103910000Y-77088099D02*
X103910000Y-70592000D01*
X56988600Y-119358385D02*
X56988600Y-118996570D01*
X46938383Y-140986200D02*
X46938383Y-141551887D01*
X107118600Y-123080272D02*
X107118600Y-129718200D01*
X45864600Y-88741568D02*
X45864600Y-83450200D01*
X75622600Y-155448400D02*
X73387400Y-157683600D01*
X57080600Y-118904570D02*
X57080600Y-77578200D01*
X107719600Y-130319200D02*
X107719600Y-140198250D01*
X45864600Y-83450200D02*
X44757597Y-82343197D01*
X44757597Y-77620585D02*
X44962707Y-77415475D01*
X106787600Y-120713600D02*
X106787600Y-122749272D01*
%TO.N,D6*%
X45904600Y-141656200D02*
X46100000Y-141851600D01*
X46100000Y-141851600D02*
X46100000Y-144719657D01*
X46343600Y-144963257D02*
X46343600Y-145461143D01*
X76384600Y-142164200D02*
X76384600Y-157226400D01*
X106450000Y-78850000D02*
X106450000Y-77362255D01*
X46200600Y-145604143D02*
X46200600Y-166912600D01*
X76384600Y-157226400D02*
X73387400Y-160223600D01*
X46100000Y-144719657D02*
X46343600Y-144963257D01*
X46343600Y-145461143D02*
X46200600Y-145604143D01*
X107387600Y-122499200D02*
X107387600Y-79787600D01*
X46200600Y-166912600D02*
X42602600Y-170510600D01*
X54225129Y-77500200D02*
X54886600Y-78161671D01*
X106450000Y-77362255D02*
X106450000Y-70592000D01*
X108130390Y-130162890D02*
X108130390Y-140635990D01*
X107387600Y-79787600D02*
X106450000Y-78850000D01*
X107533600Y-129566100D02*
X108130390Y-130162890D01*
X107748600Y-122860200D02*
X107533600Y-123075200D01*
X54886600Y-78161671D02*
X54886600Y-109128400D01*
X107533600Y-123075200D02*
X107533600Y-129566100D01*
X107748600Y-122860200D02*
X107387600Y-122499200D01*
X54886600Y-109128400D02*
X52280000Y-111735000D01*
X53761439Y-77500200D02*
X54225129Y-77500200D01*
D43*
%TO.N,+5V*%
X126910600Y-156896200D02*
X126910600Y-147772200D01*
X165284600Y-165461000D02*
X165467400Y-165461000D01*
D42*
X28788000Y-143971000D02*
X30032600Y-143971000D01*
D43*
X160693600Y-93161200D02*
X162743600Y-93161200D01*
X113448600Y-147772200D02*
X113468600Y-147752200D01*
X95307600Y-98679400D02*
X95307600Y-91237200D01*
X45345800Y-97409400D02*
X43593200Y-97409400D01*
X141586400Y-170256600D02*
X141586400Y-172796600D01*
X163760600Y-171557000D02*
X165284600Y-173081000D01*
X105910600Y-181728200D02*
X102900600Y-181728200D01*
X157202400Y-141433200D02*
X157202400Y-96652400D01*
X86798600Y-153614200D02*
X86778600Y-153594200D01*
X73387400Y-149601000D02*
X73316600Y-149530200D01*
X163760600Y-167167800D02*
X163760600Y-171557000D01*
X141586400Y-160096600D02*
X141586400Y-156840000D01*
X95307600Y-101219400D02*
X95307600Y-98679400D01*
X100006600Y-157556600D02*
X100006600Y-153828200D01*
X88504000Y-170358200D02*
X88504000Y-174604000D01*
X143085000Y-165176600D02*
X143186600Y-165278200D01*
D42*
X37652600Y-150397200D02*
X37703400Y-150448000D01*
D43*
X44055800Y-83363200D02*
X44055800Y-86786800D01*
X143186600Y-169850200D02*
X142780200Y-170256600D01*
X37703400Y-150448000D02*
X37703400Y-155883600D01*
X163994600Y-94412200D02*
X163994600Y-99029600D01*
X102900600Y-160198200D02*
X102900600Y-158012200D01*
X90680000Y-178150000D02*
X90680000Y-181500000D01*
X141134600Y-91130200D02*
X141154600Y-91110200D01*
X151670200Y-162814400D02*
X151822600Y-162966800D01*
X165284600Y-160381000D02*
X165284600Y-162921000D01*
X88504000Y-159363600D02*
X86798600Y-157658200D01*
X102900600Y-181728200D02*
X102900600Y-160198200D01*
X142780200Y-170256600D02*
X141586400Y-170256600D01*
X102445000Y-157556600D02*
X100006600Y-157556600D01*
X50222600Y-152730600D02*
X50222600Y-150058200D01*
X157262400Y-141493200D02*
X157202400Y-141433200D01*
D42*
X30794600Y-150341800D02*
X30850000Y-150397200D01*
D43*
X45396600Y-105345000D02*
X43807200Y-106934400D01*
X44055800Y-75037800D02*
X40776800Y-71758800D01*
X43694800Y-107046800D02*
X43807200Y-106934400D01*
X43000000Y-42600000D02*
X42970000Y-42600000D01*
X37703400Y-160384400D02*
X37703400Y-155883600D01*
X165284600Y-162921000D02*
X165284600Y-165461000D01*
X105797800Y-160294800D02*
X102997200Y-160294800D01*
X50202600Y-147772200D02*
X50222600Y-147752200D01*
X50202600Y-150038200D02*
X50202600Y-147772200D01*
X165284600Y-173081000D02*
X165284600Y-175621000D01*
X164359600Y-141493200D02*
X164776600Y-141910200D01*
D42*
X37703400Y-168004400D02*
X36387400Y-166688400D01*
D43*
X162902400Y-141493200D02*
X164359600Y-141493200D01*
D42*
X20279000Y-149051000D02*
X21625200Y-150397200D01*
D43*
X113417800Y-160294800D02*
X113417800Y-162834800D01*
X162842400Y-148033200D02*
X162842400Y-153280200D01*
X157202400Y-96652400D02*
X160693600Y-93161200D01*
X73316600Y-149530200D02*
X73316600Y-147772200D01*
X143186600Y-165278200D02*
X143186600Y-169850200D01*
X119595400Y-94412200D02*
X119595400Y-91141000D01*
X126910600Y-147772200D02*
X126930600Y-147752200D01*
X85820000Y-73454200D02*
X85950000Y-73584200D01*
X45396600Y-97460200D02*
X45345800Y-97409400D01*
X119595400Y-91141000D02*
X119564600Y-91110200D01*
X86778600Y-147772200D02*
X86798600Y-147752200D01*
X37703400Y-147755600D02*
X37703400Y-150448000D01*
X113417800Y-156927000D02*
X113448600Y-156896200D01*
X140900600Y-147733800D02*
X144634400Y-144000000D01*
X86778600Y-153594200D02*
X86778600Y-147772200D01*
X102900600Y-158012200D02*
X102445000Y-157556600D01*
X50222600Y-150058200D02*
X50202600Y-150038200D01*
X144634400Y-144000000D02*
X144634400Y-142418200D01*
D42*
X30794600Y-144733000D02*
X30794600Y-150341800D01*
D43*
X100240600Y-147772200D02*
X100260600Y-147752200D01*
X119488400Y-98755600D02*
X119488400Y-94519200D01*
X141256200Y-98933400D02*
X141256200Y-94533800D01*
X141586400Y-162636600D02*
X141586400Y-165176600D01*
X76384600Y-82474200D02*
X75622600Y-81712200D01*
X100240600Y-153594200D02*
X100240600Y-147772200D01*
X113417800Y-162834800D02*
X113417800Y-165374800D01*
X141586400Y-170256600D02*
X147377600Y-170256600D01*
X141388600Y-148240200D02*
X141388600Y-156642200D01*
X86798600Y-157658200D02*
X86798600Y-153614200D01*
X141586400Y-160096600D02*
X141586400Y-162636600D01*
D42*
X36387400Y-166688400D02*
X36387400Y-161700400D01*
D43*
X162743600Y-93161200D02*
X163994600Y-94412200D01*
X76384600Y-90856200D02*
X76384600Y-82474200D01*
X164776600Y-147244200D02*
X163760600Y-148260200D01*
D42*
X21625200Y-150397200D02*
X30850000Y-150397200D01*
D43*
X163994600Y-99029600D02*
X163989200Y-99035000D01*
X165315400Y-160350200D02*
X165284600Y-160381000D01*
X164776600Y-141910200D02*
X164776600Y-147244200D01*
X126854400Y-160223600D02*
X126854400Y-156952400D01*
X141586400Y-165176600D02*
X143085000Y-165176600D01*
X88504000Y-175974000D02*
X90680000Y-178150000D01*
X42170000Y-43400000D02*
X42170000Y-54825000D01*
X141134600Y-94412200D02*
X141134600Y-91130200D01*
X42170000Y-63550000D02*
X42880000Y-64260000D01*
X113448600Y-156896200D02*
X113448600Y-147772200D01*
X73316600Y-147772200D02*
X73336600Y-147752200D01*
X43593200Y-87249400D02*
X45396600Y-89052800D01*
X147377600Y-170256600D02*
X147403000Y-170282000D01*
X151670200Y-158242400D02*
X151670200Y-162814400D01*
X44055800Y-83363200D02*
X44055800Y-75037800D01*
X119488400Y-101295600D02*
X119488400Y-98755600D01*
D42*
X30850000Y-150397200D02*
X37652600Y-150397200D01*
D43*
X105797800Y-160294800D02*
X105797800Y-162834800D01*
X43694800Y-110211000D02*
X43694800Y-107046800D01*
X88504000Y-174604000D02*
X88504000Y-175974000D01*
X44055800Y-86786800D02*
X43593200Y-87249400D01*
X126854400Y-156952400D02*
X126910600Y-156896200D01*
X102997200Y-160294800D02*
X102900600Y-160198200D01*
X163069400Y-148260200D02*
X162842400Y-148033200D01*
X45000000Y-73584200D02*
X45000000Y-66450000D01*
X165467400Y-165461000D02*
X163760600Y-167167800D01*
X100006600Y-153828200D02*
X100240600Y-153594200D01*
X113417800Y-160294800D02*
X113417800Y-156927000D01*
X140900600Y-147752200D02*
X141388600Y-148240200D01*
X45000000Y-66450000D02*
X43810000Y-65260000D01*
X165315400Y-155753200D02*
X165315400Y-160350200D01*
X42170000Y-63550000D02*
X42170000Y-54825000D01*
X140900600Y-147752200D02*
X140900600Y-147733800D01*
X43810000Y-65260000D02*
X42880000Y-65260000D01*
X85820000Y-70557000D02*
X85820000Y-73454200D01*
X45396600Y-97460200D02*
X45396600Y-105345000D01*
X88504000Y-170358200D02*
X88504000Y-159363600D01*
X95307600Y-91237200D02*
X95434600Y-91110200D01*
X42880000Y-64260000D02*
X42880000Y-65260000D01*
X141586400Y-156840000D02*
X141388600Y-156642200D01*
X119488400Y-94519200D02*
X119595400Y-94412200D01*
X73387400Y-152603600D02*
X73387400Y-149601000D01*
D42*
X30032600Y-143971000D02*
X30794600Y-144733000D01*
D43*
X163760600Y-148260200D02*
X163069400Y-148260200D01*
X40776800Y-71758800D02*
X37551000Y-71758800D01*
X162842400Y-153280200D02*
X165315400Y-155753200D01*
X45396600Y-89052800D02*
X45396600Y-97460200D01*
D42*
X36387400Y-161700400D02*
X37703400Y-160384400D01*
D43*
X42970000Y-42600000D02*
X42170000Y-43400000D01*
X141256200Y-94533800D02*
X141134600Y-94412200D01*
D42*
%TO.N,A4*%
X79178600Y-155728200D02*
X79878600Y-155028200D01*
X79178600Y-157658200D02*
X79178600Y-155728200D01*
X79878600Y-155028200D02*
X79878600Y-141928200D01*
X79878600Y-141928200D02*
X77668600Y-139718200D01*
X77668600Y-139718200D02*
X77668600Y-111578400D01*
X77668600Y-111578400D02*
X77469600Y-111379400D01*
%TO.N,A0*%
X134711600Y-87605800D02*
X134711600Y-120771800D01*
X134711600Y-120771800D02*
X133690000Y-121793400D01*
%TO.N,A14*%
X105797800Y-167914800D02*
X109847600Y-163865000D01*
X50182600Y-94397600D02*
X52280000Y-96495000D01*
X111690600Y-83950800D02*
X111690600Y-97650000D01*
X111436600Y-142672200D02*
X111436600Y-97904000D01*
X109847600Y-144261200D02*
X111436600Y-142672200D01*
X109847600Y-163865000D02*
X109847600Y-144261200D01*
X50182600Y-83943200D02*
X50182600Y-94397600D01*
X49983600Y-83744200D02*
X50182600Y-83943200D01*
X111436600Y-97904000D02*
X111690600Y-97650000D01*
%TO.N,A9*%
X65773800Y-91415000D02*
X67520000Y-91415000D01*
X66260600Y-100428200D02*
X64660600Y-98828200D01*
X64660600Y-98828200D02*
X64660600Y-92528200D01*
X64660600Y-92528200D02*
X65773800Y-91415000D01*
%TO.N,D1*%
X58858600Y-75270200D02*
X58350600Y-75778200D01*
X58350600Y-75778200D02*
X58350600Y-124222200D01*
X110420600Y-128134600D02*
X110513600Y-128227600D01*
X40062600Y-79514143D02*
X39715600Y-79861143D01*
X39715600Y-117433200D02*
X40062600Y-117780200D01*
X63592600Y-158048800D02*
X65767400Y-160223600D01*
X63592600Y-145050200D02*
X63592600Y-158048800D01*
X113100000Y-80650000D02*
X110420600Y-83329400D01*
X40094690Y-75377200D02*
X40062600Y-75409290D01*
X39715600Y-79861143D02*
X39715600Y-117433200D01*
X112130000Y-77280000D02*
X113100000Y-78250000D01*
X110513600Y-128227600D02*
X110513600Y-142221896D01*
X112130000Y-75270200D02*
X112130000Y-77280000D01*
X63938600Y-144704200D02*
X63592600Y-145050200D01*
X113100000Y-78250000D02*
X113100000Y-80650000D01*
X44288600Y-146482200D02*
X44244600Y-146482200D01*
X44260600Y-146498200D02*
X44260600Y-156152600D01*
X44260600Y-156152600D02*
X42602600Y-157810600D01*
X58350600Y-124222200D02*
X58512600Y-124384200D01*
X40062600Y-75409290D02*
X40062600Y-79514143D01*
X110420600Y-83329400D02*
X110420600Y-128134600D01*
X44244600Y-146482200D02*
X44260600Y-146498200D01*
X110513600Y-142221896D02*
X109733948Y-143001548D01*
%TO.N,/~{SEL_RAM}*%
X135566600Y-119647400D02*
X135566600Y-171196400D01*
X135566600Y-171196400D02*
X133966400Y-172796600D01*
X135960600Y-119253400D02*
X135566600Y-119647400D01*
%TO.N,~{IORQ}*%
X78670600Y-138950143D02*
X78670600Y-135560200D01*
X80863600Y-141143143D02*
X78670600Y-138950143D01*
X79178600Y-165278200D02*
X80863600Y-163593200D01*
X80863600Y-163593200D02*
X80863600Y-141143143D01*
%TO.N,Net-(D1-A)*%
X151822600Y-165506800D02*
X150247800Y-165506800D01*
X150247800Y-165506800D02*
X147403000Y-162662000D01*
X151822600Y-165506800D02*
X153372000Y-165506800D01*
X151314600Y-173189600D02*
X151314600Y-166014800D01*
X157664600Y-162921000D02*
X157664600Y-160381000D01*
X150680800Y-187336000D02*
X149680800Y-186336000D01*
X153372000Y-165506800D02*
X155957800Y-162921000D01*
X151314600Y-166014800D02*
X151822600Y-165506800D01*
X149680800Y-174823400D02*
X151314600Y-173189600D01*
X149680800Y-186336000D02*
X149680800Y-174823400D01*
X155957800Y-162921000D02*
X157664600Y-162921000D01*
%TO.N,~{M1}*%
X81769600Y-167767200D02*
X81769600Y-124079200D01*
X79178600Y-170358200D02*
X81769600Y-167767200D01*
X81769600Y-124079200D02*
X82226600Y-123622200D01*
%TO.N,Net-(U91-O2)*%
X101784600Y-163246200D02*
X101784600Y-163398600D01*
X101784600Y-163398600D02*
X100006600Y-165176600D01*
%TO.N,Net-(U91-O3)*%
X101784600Y-173406200D02*
X101784600Y-169400000D01*
X100101200Y-167716600D02*
X101784600Y-169400000D01*
X100006600Y-167716600D02*
X100101200Y-167716600D01*
%TO.N,/~{ROM_BASIC}*%
X121360600Y-144828200D02*
X121360600Y-119810600D01*
X121360600Y-119810600D02*
X120625600Y-119075600D01*
X120960600Y-145228200D02*
X121360600Y-144828200D01*
X120625600Y-119075600D02*
X119488400Y-119075600D01*
%TO.N,Net-(U91-A1)*%
X104976500Y-172173500D02*
X105797800Y-172994800D01*
X103960600Y-171150000D02*
X103960600Y-166628200D01*
X94764600Y-165728200D02*
X94764600Y-162474600D01*
X103960600Y-166628200D02*
X103760600Y-166428200D01*
X94764600Y-162474600D02*
X92386600Y-160096600D01*
X104976500Y-172173500D02*
X104976500Y-172165900D01*
X104976500Y-172165900D02*
X103960600Y-171150000D01*
%TO.N,CPM*%
X89960600Y-128220257D02*
X91629657Y-129889314D01*
X89960600Y-93550200D02*
X89960600Y-128220257D01*
X62260600Y-93228200D02*
X62260600Y-99728200D01*
X33966600Y-95402800D02*
X35973200Y-97409400D01*
X96160600Y-149406257D02*
X96160600Y-168628200D01*
X89938600Y-93528200D02*
X89960600Y-93550200D01*
X91629657Y-144875314D02*
X96160600Y-149406257D01*
X91629657Y-129889314D02*
X91629657Y-144875314D01*
X33966600Y-80950200D02*
X33966600Y-95402800D01*
%TO.N,Net-(U10-Pad8)*%
X114992600Y-159690200D02*
X114738600Y-159436200D01*
X37703400Y-175624400D02*
X40683000Y-172644800D01*
X40683000Y-172644800D02*
X40683000Y-159728200D01*
X114992600Y-171420000D02*
X114992600Y-159690200D01*
X113417800Y-172994800D02*
X114992600Y-171420000D01*
%TO.N,/~{ROM_BIOS}*%
X98320600Y-118999400D02*
X98320600Y-119020300D01*
X98320600Y-119020300D02*
X98905600Y-119605300D01*
X98905600Y-158995600D02*
X100006600Y-160096600D01*
X98905600Y-119605300D02*
X98905600Y-158995600D01*
%TO.N,CKKBD*%
X128962600Y-150292200D02*
X128962600Y-165735400D01*
X128962600Y-165735400D02*
X126854400Y-167843600D01*
%TO.N,CKLED*%
X120834600Y-172390200D02*
X120834600Y-154268257D01*
X120301200Y-172923600D02*
X120834600Y-172390200D01*
X119234400Y-172923600D02*
X120301200Y-172923600D01*
X115754600Y-149188257D02*
X115754600Y-132004200D01*
X120834600Y-154268257D02*
X115754600Y-149188257D01*
%TO.N,Net-(U93-Pad3)*%
X133966400Y-167716600D02*
X133966400Y-165176600D01*
%TO.N,Net-(U4-Pad3)*%
X159442600Y-171303000D02*
X159442600Y-167239000D01*
X159442600Y-167239000D02*
X157664600Y-165461000D01*
X157664600Y-173081000D02*
X159442600Y-171303000D01*
%TO.N,Net-(C13-Pad1)*%
X19650000Y-160410000D02*
X23010000Y-160410000D01*
X23010000Y-160410000D02*
X23100000Y-160500000D01*
%TO.N,Net-(R17-Pad1)*%
X20390000Y-171290000D02*
X19700000Y-171290000D01*
X30083400Y-170544400D02*
X25077800Y-175550000D01*
X19700000Y-171290000D02*
X23960000Y-175550000D01*
X30083400Y-170915400D02*
X30083400Y-170544400D01*
X30083400Y-168004400D02*
X30083400Y-170544400D01*
%TO.N,Net-(C14-Pad1)*%
X19650000Y-168700000D02*
X19700000Y-168750000D01*
X28500000Y-162000000D02*
X28500000Y-166750000D01*
X21600000Y-170650000D02*
X24600000Y-170650000D01*
X28500000Y-166800000D02*
X28500000Y-166750000D01*
X30083400Y-160384400D02*
X30083400Y-160416600D01*
X19650000Y-162950000D02*
X19650000Y-168700000D01*
X19671000Y-162971000D02*
X19650000Y-162950000D01*
X28175000Y-167125000D02*
X28500000Y-166800000D01*
X30083400Y-155431800D02*
X30027200Y-155375600D01*
X30083400Y-160416600D02*
X28500000Y-162000000D01*
X30083400Y-160384400D02*
X30083400Y-155431800D01*
X28175000Y-167125000D02*
X24650000Y-170650000D01*
X21600000Y-170650000D02*
X19700000Y-168750000D01*
D43*
%TO.N,+3V3*%
X85820000Y-59000000D02*
X85820000Y-65240000D01*
X101030000Y-53915000D02*
X104916200Y-53915000D01*
X85820000Y-53945000D02*
X85790000Y-53915000D01*
D42*
X85820000Y-65240000D02*
X85800000Y-65260000D01*
D43*
X112256800Y-54681800D02*
X112256800Y-53991200D01*
X85820000Y-59000000D02*
X85820000Y-53945000D01*
X115850000Y-65200000D02*
X115850000Y-65211000D01*
X116610000Y-59035000D02*
X112256800Y-54681800D01*
X131390000Y-53950000D02*
X133150000Y-53950000D01*
X123000000Y-26800000D02*
X127270000Y-31070000D01*
D42*
X104916200Y-53915000D02*
X105195600Y-53635600D01*
D43*
X116610000Y-59035000D02*
X116610000Y-64440000D01*
X127270000Y-31070000D02*
X140020000Y-31070000D01*
X133150000Y-53950000D02*
X133400000Y-53700000D01*
X116610000Y-64440000D02*
X115850000Y-65200000D01*
X133400000Y-53700000D02*
X133400000Y-31050000D01*
D42*
%TO.N,Net-(LCD1-DB7)*%
X60200000Y-176700000D02*
X60200000Y-181500000D01*
X59874600Y-155828200D02*
X59874600Y-175100000D01*
X60200000Y-175425400D02*
X59874600Y-175100000D01*
X60200000Y-176700000D02*
X60200000Y-175425400D01*
%TO.N,~{FPGA_CS}*%
X83335600Y-154208250D02*
X83177600Y-154050250D01*
X83177600Y-154050250D02*
X83177600Y-78500000D01*
X83335600Y-172450000D02*
X83335600Y-154208250D01*
X83177600Y-78500000D02*
X78200000Y-73522400D01*
X78200000Y-73522400D02*
X78200000Y-70557000D01*
%TO.N,Net-(JP1-A)*%
X52791600Y-176765730D02*
X52791600Y-154497200D01*
X23708000Y-143971000D02*
X20279000Y-143971000D01*
X52791600Y-154497200D02*
X52222600Y-153928200D01*
X98560600Y-178296400D02*
X98560600Y-164082600D01*
X52222600Y-153928200D02*
X52100000Y-153928200D01*
X51262345Y-178294985D02*
X52791600Y-176765730D01*
X98560600Y-164082600D02*
X100006600Y-162636600D01*
X51262345Y-178296400D02*
X51262345Y-178294985D01*
X28788000Y-149051000D02*
X23708000Y-143971000D01*
%TO.N,Net-(JP1-C)*%
X89254000Y-156123200D02*
X89254000Y-161900000D01*
X89607600Y-155769600D02*
X89254000Y-156123200D01*
X61200000Y-148550000D02*
X61200000Y-166350000D01*
X61200000Y-166350000D02*
X60950000Y-166600000D01*
X89607600Y-155728200D02*
X89607600Y-155769600D01*
%TO.N,CKFF*%
X121850600Y-164354200D02*
X121434600Y-164770200D01*
X121850600Y-146990200D02*
X121850600Y-164354200D01*
X61522600Y-146990200D02*
X62668600Y-146990200D01*
X60636600Y-98222200D02*
X60636600Y-146104200D01*
X62668600Y-146990200D02*
X62576600Y-146990200D01*
X60636600Y-146104200D02*
X61522600Y-146990200D01*
%TO.N,Net-(LCD1-DB4)*%
X67820000Y-173780000D02*
X67820000Y-181500000D01*
X68676400Y-172923600D02*
X67820000Y-173780000D01*
%TO.N,Net-(U15-QB)*%
X95894600Y-41959600D02*
X94113200Y-41959600D01*
X100230000Y-46295000D02*
X95894600Y-41959600D01*
X101030000Y-46295000D02*
X100230000Y-46295000D01*
%TO.N,Net-(U15-QD)*%
X87229000Y-40429800D02*
X87229000Y-47179000D01*
X94849000Y-47396000D02*
X95950000Y-46295000D01*
X87446000Y-47396000D02*
X94849000Y-47396000D01*
X84891000Y-38091800D02*
X87229000Y-40429800D01*
X87229000Y-47179000D02*
X87446000Y-47396000D01*
%TO.N,Net-(U15-QC)*%
X98490000Y-46295000D02*
X97345000Y-45150000D01*
X97345000Y-45150000D02*
X93595200Y-45150000D01*
X93595200Y-45150000D02*
X90404800Y-41959600D01*
%TO.N,Net-(U15-QA)*%
X99216000Y-41966000D02*
X97821600Y-41966000D01*
X100650000Y-48550000D02*
X101900000Y-48550000D01*
X102350000Y-48100000D02*
X102350000Y-45100000D01*
X98490000Y-53915000D02*
X98490000Y-50710000D01*
X98490000Y-50710000D02*
X100650000Y-48550000D01*
X102350000Y-45100000D02*
X99216000Y-41966000D01*
X101900000Y-48550000D02*
X102350000Y-48100000D01*
%TO.N,Net-(U16-QE)*%
X114692600Y-43997000D02*
X117502600Y-43997000D01*
X117502600Y-43997000D02*
X119876800Y-46371200D01*
X112655200Y-41959600D02*
X114692600Y-43997000D01*
%TO.N,Net-(U16-QD)*%
X121245600Y-45200000D02*
X122416800Y-46371200D01*
X118050000Y-43646000D02*
X116363600Y-41959600D01*
X119600000Y-45200000D02*
X121245600Y-45200000D01*
X118050000Y-43650000D02*
X119600000Y-45200000D01*
X118050000Y-43650000D02*
X118050000Y-43646000D01*
%TO.N,Net-(U16-QH)*%
X111085600Y-45200000D02*
X106400000Y-45200000D01*
X112256800Y-46371200D02*
X111085600Y-45200000D01*
X103166000Y-41966000D02*
X101530000Y-41966000D01*
X106400000Y-45200000D02*
X103166000Y-41966000D01*
%TO.N,Net-(U16-QB)*%
X127496800Y-45676000D02*
X127496800Y-46371200D01*
X123780400Y-41959600D02*
X127496800Y-45676000D01*
%TO.N,Net-(U16-QG)*%
X105238400Y-41966000D02*
X108071400Y-44799000D01*
X108071400Y-44799000D02*
X113224600Y-44799000D01*
X113224600Y-44799000D02*
X114796800Y-46371200D01*
%TO.N,Net-(U16-QF)*%
X111378800Y-44398000D02*
X115363600Y-44398000D01*
X115363600Y-44398000D02*
X117336800Y-46371200D01*
X108946800Y-41966000D02*
X111378800Y-44398000D01*
%TO.N,Net-(U16-QC)*%
X120072000Y-41959600D02*
X124483600Y-46371200D01*
X124483600Y-46371200D02*
X124956800Y-46371200D01*
%TO.N,Net-(U16-QA)*%
X128597800Y-49852257D02*
X124956800Y-53493257D01*
X127488800Y-41959600D02*
X128597800Y-43068600D01*
X124956800Y-53493257D02*
X124956800Y-53991200D01*
X128597800Y-43068600D02*
X128597800Y-49852257D01*
%TO.N,Net-(C21-Pad1)*%
X127488800Y-35596800D02*
X127539600Y-35546000D01*
X127488800Y-39419600D02*
X127488800Y-35596800D01*
%TO.N,Net-(R46-Pad2)*%
X123780400Y-39419600D02*
X123780400Y-35596800D01*
X123780400Y-35596800D02*
X123831200Y-35546000D01*
%TO.N,Net-(R47-Pad2)*%
X120072000Y-39419600D02*
X120072000Y-35596800D01*
X120072000Y-35596800D02*
X120122800Y-35546000D01*
%TO.N,Net-(R41-Pad2)*%
X116363600Y-35596800D02*
X116414400Y-35546000D01*
X116363600Y-39419600D02*
X116363600Y-35596800D01*
%TO.N,Net-(R23-Pad2)*%
X112655200Y-35596800D02*
X112706000Y-35546000D01*
X112655200Y-39419600D02*
X112655200Y-35596800D01*
%TO.N,Net-(R24-Pad2)*%
X108946800Y-39426000D02*
X108946800Y-35603200D01*
X108946800Y-35603200D02*
X108997600Y-35552400D01*
%TO.N,Net-(R25-Pad2)*%
X105238400Y-39426000D02*
X105238400Y-35603200D01*
X105238400Y-35603200D02*
X105289200Y-35552400D01*
%TO.N,Net-(R26-Pad2)*%
X101530000Y-39426000D02*
X101530000Y-35603200D01*
X101530000Y-35603200D02*
X101580800Y-35552400D01*
%TO.N,Net-(R27-Pad2)*%
X97821600Y-39426000D02*
X97821600Y-35603200D01*
X97821600Y-35603200D02*
X97872400Y-35552400D01*
%TO.N,Net-(R28-Pad2)*%
X94113200Y-35596800D02*
X94164000Y-35546000D01*
X94113200Y-39419600D02*
X94113200Y-35596800D01*
%TO.N,Net-(R29-Pad2)*%
X90404800Y-39419600D02*
X90404800Y-35596800D01*
X90404800Y-35596800D02*
X90455600Y-35546000D01*
%TO.N,Net-(U99B-Q)*%
X40316600Y-86030200D02*
X40824600Y-86538200D01*
X40824600Y-86538200D02*
X40824600Y-99442400D01*
X40824600Y-99442400D02*
X40805800Y-99461200D01*
%TO.N,Net-(U15-RCLK)*%
X91150000Y-48985514D02*
X90870000Y-49265514D01*
X117336800Y-53991200D02*
X117336800Y-49336800D01*
X117336800Y-49336800D02*
X116900000Y-48900000D01*
X90870000Y-49265514D02*
X90870000Y-53915000D01*
%TO.N,Net-(U15-SRCLK)*%
X114796800Y-53991200D02*
X114800000Y-53988000D01*
X88450000Y-49500000D02*
X88330000Y-49620000D01*
X114800000Y-53988000D02*
X114800000Y-49500000D01*
X88330000Y-49620000D02*
X88330000Y-53915000D01*
%TO.N,Net-(U12-LV8)*%
X156100000Y-36150000D02*
X155150000Y-37100000D01*
X162880000Y-36150000D02*
X156100000Y-36150000D01*
X155150000Y-37100000D02*
X155150000Y-63500000D01*
X155150000Y-63500000D02*
X155200000Y-63550000D01*
%TO.N,Net-(U12-LV3)*%
X123001500Y-57723500D02*
X141326500Y-57723500D01*
X164350000Y-48050000D02*
X163550000Y-48850000D01*
X159900000Y-57084313D02*
X160100000Y-56884313D01*
X160100000Y-56884313D02*
X160100000Y-49250000D01*
X160100000Y-46900000D02*
X161943500Y-45056500D01*
X160100000Y-49250000D02*
X160100000Y-46900000D01*
X121690000Y-59035000D02*
X123001500Y-57723500D01*
X161943500Y-45056500D02*
X163606500Y-45056500D01*
X163606500Y-45056500D02*
X164350000Y-45800000D01*
X164350000Y-45800000D02*
X164350000Y-48050000D01*
X141326500Y-57723500D02*
X141950000Y-57100000D01*
X163550000Y-48850000D02*
X162880000Y-48850000D01*
%TO.N,Net-(U19-IOB29A)*%
X73200000Y-68400000D02*
X73120000Y-68320000D01*
X141251029Y-76051000D02*
X140703529Y-75503500D01*
X145500000Y-75450000D02*
X144899000Y-76051000D01*
X144899000Y-76051000D02*
X141251029Y-76051000D01*
X73120000Y-68320000D02*
X73120000Y-59000000D01*
X145500000Y-56950000D02*
X145500000Y-75450000D01*
X140703529Y-75503500D02*
X139327719Y-75503500D01*
X139327719Y-75503500D02*
X138754956Y-76076263D01*
X146000000Y-56450000D02*
X145500000Y-56950000D01*
%TO.N,Net-(U19-IOB13B)*%
X88360000Y-66350000D02*
X88360000Y-59000000D01*
X140700000Y-70423500D02*
X142201000Y-68922500D01*
X142350000Y-66902000D02*
X142350000Y-66650000D01*
X142201000Y-68922500D02*
X142201000Y-67051000D01*
X138239377Y-70010623D02*
X138652254Y-70423500D01*
X142201000Y-67051000D02*
X142350000Y-66902000D01*
X138652254Y-70423500D02*
X140700000Y-70423500D01*
%TO.N,Net-(U12-LV5)*%
X141200000Y-55216500D02*
X141800000Y-54616500D01*
X157950000Y-44650000D02*
X158830000Y-43770000D01*
X157950000Y-54200000D02*
X157950000Y-44650000D01*
X138866500Y-55216500D02*
X141200000Y-55216500D01*
X138858985Y-55208985D02*
X138866500Y-55216500D01*
X158830000Y-43770000D02*
X162880000Y-43770000D01*
X137958985Y-55208985D02*
X138858985Y-55208985D01*
%TO.N,Net-(U12-LV4)*%
X160800000Y-59400000D02*
X160800000Y-48390000D01*
X160025000Y-60175000D02*
X160800000Y-59400000D01*
X160800000Y-48390000D02*
X162880000Y-46310000D01*
%TO.N,Net-(U19-IOB23B)*%
X140896500Y-72996500D02*
X141500000Y-73600000D01*
X143850000Y-61950000D02*
X144250000Y-61550000D01*
X142300000Y-73600000D02*
X143850000Y-72050000D01*
X143850000Y-72050000D02*
X143850000Y-61950000D01*
X78200000Y-59000000D02*
X78200000Y-67850000D01*
X139497283Y-73000000D02*
X139500783Y-72996500D01*
X139500783Y-72996500D02*
X140896500Y-72996500D01*
X138400000Y-73000000D02*
X139497283Y-73000000D01*
X78200000Y-67850000D02*
X78650000Y-68300000D01*
X141500000Y-73600000D02*
X142300000Y-73600000D01*
%TO.N,Net-(U12-LV1)*%
X159300000Y-54600000D02*
X159300000Y-57106500D01*
X159300000Y-57106500D02*
X158650000Y-57756500D01*
%TO.N,Net-(U19-IOB11B)*%
X141600000Y-68550000D02*
X140966500Y-67916500D01*
X93440000Y-59000000D02*
X93440000Y-65500000D01*
X93440000Y-65500000D02*
X93950000Y-66010000D01*
X140966500Y-67916500D02*
X138685254Y-67916500D01*
X138685254Y-67916500D02*
X138059377Y-67290623D01*
%TO.N,Net-(U19-IOB33B)*%
X141526029Y-75451000D02*
X144249000Y-75451000D01*
X75660000Y-68010000D02*
X75660000Y-59000000D01*
X75725000Y-68075000D02*
X75660000Y-68010000D01*
X144850000Y-74850000D02*
X144850000Y-59500000D01*
X144249000Y-75451000D02*
X144850000Y-74850000D01*
%TO.N,Net-(U19-IOB23A)*%
X80740000Y-59000000D02*
X80740000Y-67590000D01*
X143150000Y-64450000D02*
X143150000Y-71800000D01*
X141999265Y-72950735D02*
X141699265Y-72950735D01*
X80740000Y-67590000D02*
X81000000Y-67850000D01*
X143150000Y-71800000D02*
X141999265Y-72950735D01*
%TO.N,Net-(U12-LV7)*%
X141317000Y-62836500D02*
X141950000Y-62203500D01*
X138913500Y-62836500D02*
X141317000Y-62836500D01*
X156749000Y-40250000D02*
X156749000Y-62203500D01*
X158309000Y-38690000D02*
X162880000Y-38690000D01*
X156749000Y-40250000D02*
X158309000Y-38690000D01*
X138250000Y-63500000D02*
X138913500Y-62836500D01*
%TO.N,Net-(U19-IOB8A)*%
X160100000Y-68566500D02*
X159450000Y-67916500D01*
X160100000Y-78700000D02*
X160100000Y-68566500D01*
%TO.N,Net-(U16-SER)*%
X122416800Y-53991200D02*
X122416800Y-49133200D01*
X122416800Y-49133200D02*
X122650000Y-48900000D01*
%TO.N,Net-(U19-IOB13A)*%
X90900000Y-65450000D02*
X91800000Y-66350000D01*
X90900000Y-59000000D02*
X90900000Y-65450000D01*
%TO.N,Net-(U12-LV2)*%
X158200000Y-55216500D02*
X158600000Y-54816500D01*
X158600000Y-52050000D02*
X158750000Y-51900000D01*
X158600000Y-54816500D02*
X158600000Y-52050000D01*
%TO.N,Net-(U12-LV6)*%
X158769000Y-41230000D02*
X162880000Y-41230000D01*
X157550000Y-62803500D02*
X157349000Y-62602500D01*
X157349000Y-62602500D02*
X157349000Y-42650000D01*
X157349000Y-42650000D02*
X158769000Y-41230000D01*
%TO.N,Net-(C21-Pad2)*%
X57500000Y-46150000D02*
X57500000Y-48600000D01*
X59950000Y-43700000D02*
X57500000Y-46150000D01*
%TO.N,Net-(LCD1-RS)*%
X82641600Y-156481200D02*
X82641600Y-178541600D01*
X82641600Y-178541600D02*
X85600000Y-181500000D01*
X85964000Y-182031600D02*
X85964000Y-181726200D01*
X82734600Y-156388200D02*
X82641600Y-156481200D01*
%TO.N,Net-(LCD1-VO)*%
X91430000Y-179300000D02*
X91881000Y-179751000D01*
X91881000Y-182769000D02*
X91250000Y-183400000D01*
X91250000Y-183400000D02*
X88500000Y-183400000D01*
X88500000Y-183400000D02*
X88140000Y-183040000D01*
X90207600Y-149729200D02*
X90207600Y-176177600D01*
X90207600Y-176177600D02*
X91430000Y-177400000D01*
X91881000Y-179751000D02*
X91881000Y-182769000D01*
X91430000Y-177400000D02*
X91430000Y-179300000D01*
X88140000Y-183040000D02*
X88140000Y-181500000D01*
X90008600Y-149530200D02*
X90207600Y-149729200D01*
%TO.N,Net-(LCD1-E)*%
X76291600Y-164101200D02*
X76384600Y-164008200D01*
X80520000Y-180228400D02*
X76291600Y-176000000D01*
X80520000Y-181500000D02*
X80520000Y-180228400D01*
X76291600Y-176000000D02*
X76291600Y-164101200D01*
%TO.N,Net-(LCD1-DB5)*%
X64000000Y-170900000D02*
X64000000Y-180220000D01*
X64000000Y-180220000D02*
X65280000Y-181500000D01*
X62576600Y-169476600D02*
X64000000Y-170900000D01*
X62576600Y-164800000D02*
X62576600Y-169476600D01*
%TO.N,Net-(LCD1-DB6)*%
X61975600Y-172775600D02*
X62734920Y-173534920D01*
X61975600Y-162350000D02*
X61975600Y-172775600D01*
X62734920Y-173534920D02*
X62734920Y-181497460D01*
%TO.N,Net-(U5-Q1)*%
X29804600Y-98857200D02*
X31553600Y-98857200D01*
X33057600Y-117353800D02*
X36074800Y-120371000D01*
X33057600Y-100361200D02*
X33057600Y-117353800D01*
X31553600Y-98857200D02*
X33057600Y-100361200D01*
%TO.N,Net-(U5-Q0)*%
X29804600Y-93777200D02*
X31553600Y-93777200D01*
X31553600Y-93777200D02*
X33458600Y-95682200D01*
X33458600Y-110134800D02*
X36074800Y-112751000D01*
X33458600Y-95682200D02*
X33458600Y-110134800D01*
%TO.N,Net-(U5-Q3)*%
X29804600Y-109017200D02*
X31807600Y-109017200D01*
X32255600Y-109465200D02*
X32255600Y-126711800D01*
X31807600Y-109017200D02*
X32255600Y-109465200D01*
X32255600Y-126711800D02*
X36074800Y-130531000D01*
%TO.N,Net-(U5-Q4)*%
X42094600Y-128930800D02*
X43694800Y-130531000D01*
X42094600Y-115240200D02*
X42094600Y-128930800D01*
%TO.N,Net-(U5-Q2)*%
X32656600Y-119492800D02*
X36074800Y-122911000D01*
X29804600Y-103937200D02*
X31553600Y-103937200D01*
X32656600Y-105040200D02*
X32656600Y-119492800D01*
X31553600Y-103937200D02*
X32656600Y-105040200D01*
D43*
%TO.N,Net-(D2-A)*%
X157942400Y-148033200D02*
X157842400Y-148133200D01*
X160302400Y-148033200D02*
X157942400Y-148033200D01*
D42*
%TO.N,/kraft80V2-ios/PX2*%
X55000000Y-163330000D02*
X55000000Y-177267100D01*
X56150000Y-178417100D02*
X56150000Y-181052000D01*
X54625000Y-182577000D02*
X54625000Y-187625000D01*
X54625000Y-187625000D02*
X55677200Y-188677200D01*
X55677200Y-188677200D02*
X68222800Y-188677200D01*
X54560600Y-162890600D02*
X55000000Y-163330000D01*
X55000000Y-177267100D02*
X56150000Y-178417100D01*
X68222800Y-188677200D02*
X69650000Y-187250000D01*
X56150000Y-181052000D02*
X54625000Y-182577000D01*
%TO.N,/kraft80V2-ios/PX5*%
X53392600Y-170510600D02*
X53392600Y-177014673D01*
X105043800Y-189956200D02*
X107750000Y-187250000D01*
X53392600Y-177014673D02*
X51550000Y-178857272D01*
X54156200Y-189956200D02*
X105043800Y-189956200D01*
X51550000Y-178857272D02*
X51550000Y-181250000D01*
X51550000Y-181250000D02*
X52850000Y-182550000D01*
X52850000Y-182550000D02*
X52850000Y-188650000D01*
X52850000Y-188650000D02*
X54156200Y-189956200D01*
%TO.N,/kraft80V2-ios/PX6*%
X50504400Y-178204400D02*
X51746600Y-176962200D01*
X51746600Y-174574600D02*
X50222600Y-173050600D01*
X52169000Y-182769000D02*
X50504400Y-181104400D01*
X51746600Y-176962200D02*
X51746600Y-174574600D01*
X120450000Y-187250000D02*
X117342800Y-190357200D01*
X52169000Y-188737900D02*
X52169000Y-182769000D01*
X53788300Y-190357200D02*
X52169000Y-188737900D01*
X50504400Y-181104400D02*
X50504400Y-178204400D01*
X117342800Y-190357200D02*
X53788300Y-190357200D01*
%TO.N,/kraft80V2-ios/PX7*%
X59250000Y-184550000D02*
X130450000Y-184550000D01*
X56928200Y-176728200D02*
X57300000Y-177100000D01*
X56928200Y-175463600D02*
X56928200Y-176728200D01*
X57300000Y-177100000D02*
X57300000Y-182600000D01*
X57300000Y-182600000D02*
X59250000Y-184550000D01*
X130450000Y-184550000D02*
X133150000Y-187250000D01*
%TO.N,/kraft80V2-ios/PX3*%
X54100000Y-188050000D02*
X55150000Y-189100000D01*
X54500000Y-177600000D02*
X55601000Y-178701000D01*
X80500000Y-189100000D02*
X82350000Y-187250000D01*
X54500000Y-165736000D02*
X54500000Y-177600000D01*
X54100500Y-182100500D02*
X54100500Y-188049500D01*
X55601000Y-178701000D02*
X55601000Y-180600000D01*
X54194600Y-165430600D02*
X54500000Y-165736000D01*
X54100500Y-188049500D02*
X54100000Y-188050000D01*
X55150000Y-189100000D02*
X80500000Y-189100000D01*
X55601000Y-180600000D02*
X54100500Y-182100500D01*
%TO.N,/kraft80V2-ios/PX4*%
X53993600Y-168170600D02*
X53993600Y-177242244D01*
X53993600Y-177242244D02*
X52200000Y-179035844D01*
X52200000Y-179035844D02*
X52200000Y-180800000D01*
X54655200Y-189555200D02*
X92744800Y-189555200D01*
X52200000Y-180800000D02*
X53500000Y-182100000D01*
X53500000Y-182100000D02*
X53500000Y-188400000D01*
X53500000Y-188400000D02*
X54655200Y-189555200D01*
X53793600Y-167970600D02*
X53993600Y-168170600D01*
X92744800Y-189555200D02*
X95050000Y-187250000D01*
%TO.N,/kraft80V2-ios/PX1*%
X55600000Y-177300000D02*
X56800000Y-178500000D01*
X56800000Y-187100000D02*
X56950000Y-187250000D01*
X56928200Y-160223600D02*
X55600000Y-161551800D01*
X56800000Y-178500000D02*
X56800000Y-187100000D01*
X55600000Y-161551800D02*
X55600000Y-177300000D01*
%TO.N,/kraft80V2-ios/PX0*%
X48874000Y-184000000D02*
X48874000Y-185374000D01*
X48874000Y-184000000D02*
X48874000Y-159159200D01*
X48874000Y-185374000D02*
X50750000Y-187250000D01*
X48874000Y-159159200D02*
X50222600Y-157810600D01*
%TO.N,/kraft80V2-fpga/DISK_SCK*%
X156147971Y-63398029D02*
X156700000Y-63950057D01*
X156700000Y-83600000D02*
X156800000Y-83700000D01*
X156700000Y-63950057D02*
X156700000Y-83600000D01*
X156348000Y-39500000D02*
X156348000Y-53500000D01*
X156348000Y-53500000D02*
X156147971Y-53700029D01*
X156147971Y-53700029D02*
X156147971Y-63398029D01*
%TO.N,/kraft80V2-fpga/DISK_MOSI*%
X154550000Y-64400000D02*
X156099000Y-65949000D01*
X154550000Y-29000000D02*
X154550000Y-64400000D01*
X156099000Y-86349000D02*
X156150000Y-86400000D01*
X156099000Y-65949000D02*
X156099000Y-86349000D01*
%TO.N,/kraft80V2-fpga/DISK_MISO*%
X154100000Y-30350000D02*
X154100000Y-81150000D01*
X153400000Y-26200000D02*
X153400000Y-29650000D01*
X154100000Y-81150000D02*
X154300000Y-81350000D01*
X153400000Y-29650000D02*
X154100000Y-30350000D01*
%TO.N,/kraft80V2-fpga/~{DISK_CS}*%
X144352000Y-27202000D02*
X144352000Y-48548000D01*
X142952000Y-62799472D02*
X142347972Y-63403500D01*
X144352000Y-48548000D02*
X143752000Y-49148000D01*
X143752000Y-57617817D02*
X142952000Y-58417817D01*
X143752000Y-49148000D02*
X143752000Y-57617817D01*
X142952000Y-58417817D02*
X142952000Y-62799472D01*
%TO.N,/kraft80V2-fpga/DAT_KBD*%
X73120000Y-70070000D02*
X73120000Y-70557000D01*
X72300000Y-63200000D02*
X72300000Y-69250000D01*
X72300000Y-69250000D02*
X73120000Y-70070000D01*
X72450000Y-63050000D02*
X72300000Y-63200000D01*
%TO.N,/kraft80V2-fpga/CK_KBD*%
X95500000Y-63650000D02*
X95980000Y-64130000D01*
X95980000Y-64130000D02*
X95980000Y-70557000D01*
%TO.N,/kraft80V2-ios/~{LEDKB_CS}*%
X122460600Y-154728200D02*
X122460600Y-165203600D01*
X95160600Y-159928200D02*
X95160600Y-155028200D01*
X95160600Y-154928200D02*
X95160600Y-155028200D01*
X122460600Y-165203600D02*
X122360600Y-165303600D01*
%TO.N,/kraft80V2-ios/~{FF_CS}*%
X117160600Y-159128200D02*
X117160600Y-162528200D01*
X117160600Y-162528200D02*
X117160600Y-162628200D01*
X116860600Y-158828200D02*
X117160600Y-159128200D01*
X102150600Y-161197600D02*
X102150600Y-158395600D01*
%TO.N,Net-(U17-TXD)*%
X51043500Y-40838500D02*
X49790000Y-39585000D01*
X49875600Y-82700000D02*
X49875600Y-73257143D01*
X49875600Y-73257143D02*
X51043500Y-72089243D01*
X51043500Y-72089243D02*
X51043500Y-40838500D01*
%TO.N,Net-(U17-~{CTS})*%
X35850000Y-56065000D02*
X37090000Y-54825000D01*
X35850000Y-84050000D02*
X35850000Y-56065000D01*
X36550000Y-84750000D02*
X35850000Y-84050000D01*
%TO.N,Net-(U17-RXD)*%
X161050000Y-87600000D02*
X161050000Y-87350000D01*
X161049000Y-87349000D02*
X161049000Y-78621000D01*
X48400000Y-83700000D02*
X48400000Y-78100000D01*
X161050000Y-87350000D02*
X161049000Y-87349000D01*
X40916500Y-40871500D02*
X39630000Y-39585000D01*
X161049000Y-78621000D02*
X162880000Y-76790000D01*
X40916500Y-70616500D02*
X40916500Y-40871500D01*
X48400000Y-78100000D02*
X40916500Y-70616500D01*
%TO.N,Net-(U19-IOT11A)*%
X134686200Y-85055400D02*
X134686200Y-80595400D01*
%TO.N,Net-(U19-IOT11B)*%
X131282600Y-85055400D02*
X131282600Y-80595400D01*
%TO.N,Net-(U19-IOT12B)*%
X124450000Y-85030000D02*
X124450000Y-80570000D01*
X146300000Y-69700000D02*
X146300000Y-82450000D01*
%TO.N,Net-(U19-IOT12A)*%
X127853600Y-85055400D02*
X127853600Y-80595400D01*
%TD*%
M02*
