%TF.GenerationSoftware,KiCad,Pcbnew,9.0.4-9.0.4-0~ubuntu24.04.1*%
%TF.CreationDate,2025-09-14T18:47:36-03:00*%
%TF.ProjectId,Kraft80V2,4b726166-7438-4305-9632-2e6b69636164,rev?*%
%TF.SameCoordinates,Original*%
%TF.FileFunction,Soldermask,Bot*%
%TF.FilePolarity,Negative*%
%FSLAX46Y46*%
G04 Gerber Fmt 4.6, Leading zero omitted, Abs format (unit mm)*
G04 Created by KiCad (PCBNEW 9.0.4-9.0.4-0~ubuntu24.04.1) date 2025-09-14 18:47:36*
%MOMM*%
%LPD*%
G01*
G04 APERTURE LIST*
G04 Aperture macros list*
%AMRoundRect*
0 Rectangle with rounded corners*
0 $1 Rounding radius*
0 $2 $3 $4 $5 $6 $7 $8 $9 X,Y pos of 4 corners*
0 Add a 4 corners polygon primitive as box body*
4,1,4,$2,$3,$4,$5,$6,$7,$8,$9,$2,$3,0*
0 Add four circle primitives for the rounded corners*
1,1,$1+$1,$2,$3*
1,1,$1+$1,$4,$5*
1,1,$1+$1,$6,$7*
1,1,$1+$1,$8,$9*
0 Add four rect primitives between the rounded corners*
20,1,$1+$1,$2,$3,$4,$5,0*
20,1,$1+$1,$4,$5,$6,$7,0*
20,1,$1+$1,$6,$7,$8,$9,0*
20,1,$1+$1,$8,$9,$2,$3,0*%
G04 Aperture macros list end*
%ADD10C,1.500000*%
%ADD11C,2.000000*%
%ADD12RoundRect,0.250000X-0.550000X-0.550000X0.550000X-0.550000X0.550000X0.550000X-0.550000X0.550000X0*%
%ADD13C,1.600000*%
%ADD14R,1.800000X1.800000*%
%ADD15C,1.800000*%
%ADD16C,1.200000*%
%ADD17RoundRect,0.250000X-0.845000X0.620000X-0.845000X-0.620000X0.845000X-0.620000X0.845000X0.620000X0*%
%ADD18O,2.190000X1.740000*%
%ADD19R,3.000000X3.000000*%
%ADD20C,3.000000*%
%ADD21C,5.600000*%
%ADD22R,1.600000X1.600000*%
%ADD23C,1.440000*%
%ADD24RoundRect,0.285750X-0.666750X-0.666750X0.666750X-0.666750X0.666750X0.666750X-0.666750X0.666750X0*%
%ADD25C,1.905000*%
%ADD26RoundRect,0.250000X0.550000X-0.550000X0.550000X0.550000X-0.550000X0.550000X-0.550000X-0.550000X0*%
%ADD27R,1.700000X1.700000*%
%ADD28C,1.700000*%
%ADD29RoundRect,0.250000X-0.550000X0.550000X-0.550000X-0.550000X0.550000X-0.550000X0.550000X0.550000X0*%
%ADD30RoundRect,0.250000X-0.702500X0.702500X-0.702500X-0.702500X0.702500X-0.702500X0.702500X0.702500X0*%
%ADD31O,3.600000X1.800000*%
%ADD32O,1.800000X3.600000*%
%ADD33RoundRect,0.375000X0.577500X0.577500X-0.577500X0.577500X-0.577500X-0.577500X0.577500X-0.577500X0*%
%ADD34R,1.050000X1.500000*%
%ADD35O,1.050000X1.500000*%
%ADD36R,2.000000X1.440000*%
%ADD37O,2.000000X1.440000*%
%ADD38C,2.500000*%
%ADD39R,1.800000X2.600000*%
%ADD40O,1.800000X2.600000*%
%ADD41RoundRect,0.285750X0.666750X0.666750X-0.666750X0.666750X-0.666750X-0.666750X0.666750X-0.666750X0*%
G04 APERTURE END LIST*
D10*
%TO.C,X1*%
X24600000Y-175550000D03*
X24600000Y-170650000D03*
%TD*%
D11*
%TO.C,SW5*%
X101550000Y-191750000D03*
X95050000Y-191750000D03*
X101550000Y-187250000D03*
X95050000Y-187250000D03*
%TD*%
D12*
%TO.C,U9*%
X126016200Y-98933400D03*
D13*
X126016200Y-101473400D03*
X126016200Y-104013400D03*
X126016200Y-106553400D03*
X126016200Y-109093400D03*
X126016200Y-111633400D03*
X126016200Y-114173400D03*
X126016200Y-116713400D03*
X126016200Y-119253400D03*
X126016200Y-121793400D03*
X126016200Y-124333400D03*
X126016200Y-126873400D03*
X126016200Y-129413400D03*
X126016200Y-131953400D03*
X141256200Y-131953400D03*
X141256200Y-129413400D03*
X141256200Y-126873400D03*
X141256200Y-124333400D03*
X141256200Y-121793400D03*
X141256200Y-119253400D03*
X141256200Y-116713400D03*
X141256200Y-114173400D03*
X141256200Y-111633400D03*
X141256200Y-109093400D03*
X141256200Y-106553400D03*
X141256200Y-104013400D03*
X141256200Y-101473400D03*
X141256200Y-98933400D03*
%TD*%
%TO.C,R37*%
X108997600Y-33012400D03*
X108997600Y-35552400D03*
%TD*%
%TO.C,R20*%
X74195000Y-39647200D03*
X74195000Y-42187200D03*
%TD*%
D14*
%TO.C,D2*%
X155302400Y-148133200D03*
D15*
X157842400Y-148133200D03*
%TD*%
D13*
%TO.C,C12*%
X141134600Y-94412200D03*
X138634600Y-94412200D03*
%TD*%
D12*
%TO.C,U5*%
X36074800Y-110211000D03*
D13*
X36074800Y-112751000D03*
X36074800Y-115291000D03*
X36074800Y-117831000D03*
X36074800Y-120371000D03*
X36074800Y-122911000D03*
X36074800Y-125451000D03*
X36074800Y-127991000D03*
X36074800Y-130531000D03*
X36074800Y-133071000D03*
X43694800Y-133071000D03*
X43694800Y-130531000D03*
X43694800Y-127991000D03*
X43694800Y-125451000D03*
X43694800Y-122911000D03*
X43694800Y-120371000D03*
X43694800Y-117831000D03*
X43694800Y-115291000D03*
X43694800Y-112751000D03*
X43694800Y-110211000D03*
%TD*%
D11*
%TO.C,SW7*%
X126950000Y-191750000D03*
X120450000Y-191750000D03*
X126950000Y-187250000D03*
X120450000Y-187250000D03*
%TD*%
D13*
%TO.C,R21*%
X29804600Y-80366000D03*
X27264600Y-80366000D03*
%TD*%
D14*
%TO.C,D10*%
X19644600Y-109017200D03*
D15*
X22184600Y-109017200D03*
%TD*%
D11*
%TO.C,SW2*%
X63450000Y-191750000D03*
X56950000Y-191750000D03*
X63450000Y-187250000D03*
X56950000Y-187250000D03*
%TD*%
D13*
%TO.C,R10*%
X29804600Y-124257200D03*
X27264600Y-124257200D03*
%TD*%
D16*
%TO.C,C6*%
X152602400Y-141433200D03*
X152602400Y-143433200D03*
%TD*%
D13*
%TO.C,C13*%
X23100000Y-160500000D03*
X23100000Y-163000000D03*
%TD*%
%TO.C,R15*%
X29804600Y-109017200D03*
X27264600Y-109017200D03*
%TD*%
%TO.C,R17*%
X26600000Y-165550000D03*
X26600000Y-163010000D03*
%TD*%
%TO.C,C11*%
X105195600Y-53635600D03*
X105195600Y-51135600D03*
%TD*%
%TO.C,R44*%
X103240000Y-181600000D03*
X100700000Y-181600000D03*
%TD*%
D14*
%TO.C,D12*%
X19644600Y-85446000D03*
D15*
X22184600Y-85446000D03*
%TD*%
D12*
%TO.C,U18*%
X104248400Y-98755600D03*
D13*
X104248400Y-101295600D03*
X104248400Y-103835600D03*
X104248400Y-106375600D03*
X104248400Y-108915600D03*
X104248400Y-111455600D03*
X104248400Y-113995600D03*
X104248400Y-116535600D03*
X104248400Y-119075600D03*
X104248400Y-121615600D03*
X104248400Y-124155600D03*
X104248400Y-126695600D03*
X104248400Y-129235600D03*
X104248400Y-131775600D03*
X119488400Y-131775600D03*
X119488400Y-129235600D03*
X119488400Y-126695600D03*
X119488400Y-124155600D03*
X119488400Y-121615600D03*
X119488400Y-119075600D03*
X119488400Y-116535600D03*
X119488400Y-113995600D03*
X119488400Y-111455600D03*
X119488400Y-108915600D03*
X119488400Y-106375600D03*
X119488400Y-103835600D03*
X119488400Y-101295600D03*
X119488400Y-98755600D03*
%TD*%
D17*
%TO.C,CN1*%
X162902400Y-141493200D03*
D18*
X162902400Y-144033200D03*
%TD*%
D13*
%TO.C,C1*%
X48444600Y-114224200D03*
X48444600Y-116724200D03*
%TD*%
D12*
%TO.C,U93*%
X133966400Y-160096600D03*
D13*
X133966400Y-162636600D03*
X133966400Y-165176600D03*
X133966400Y-167716600D03*
X133966400Y-170256600D03*
X133966400Y-172796600D03*
X133966400Y-175336600D03*
X141586400Y-175336600D03*
X141586400Y-172796600D03*
X141586400Y-170256600D03*
X141586400Y-167716600D03*
X141586400Y-165176600D03*
X141586400Y-162636600D03*
X141586400Y-160096600D03*
%TD*%
%TO.C,R11*%
X29804600Y-129337200D03*
X27264600Y-129337200D03*
%TD*%
D19*
%TO.C,RV1*%
X67500000Y-48600000D03*
D20*
X62500000Y-48600000D03*
X57500000Y-48600000D03*
%TD*%
D13*
%TO.C,C2*%
X101733800Y-91130200D03*
X101733800Y-93630200D03*
%TD*%
%TO.C,R56*%
X120122800Y-33006000D03*
X120122800Y-35546000D03*
%TD*%
D14*
%TO.C,D6*%
X19644600Y-129337200D03*
D15*
X22184600Y-129337200D03*
%TD*%
D13*
%TO.C,R47*%
X120072000Y-41959600D03*
X120072000Y-39419600D03*
%TD*%
D12*
%TO.C,U4*%
X157664600Y-160381000D03*
D13*
X157664600Y-162921000D03*
X157664600Y-165461000D03*
X157664600Y-168001000D03*
X157664600Y-170541000D03*
X157664600Y-173081000D03*
X157664600Y-175621000D03*
X165284600Y-175621000D03*
X165284600Y-173081000D03*
X165284600Y-170541000D03*
X165284600Y-168001000D03*
X165284600Y-165461000D03*
X165284600Y-162921000D03*
X165284600Y-160381000D03*
%TD*%
%TO.C,R18*%
X19700000Y-168750000D03*
X19700000Y-171290000D03*
%TD*%
D12*
%TO.C,U11*%
X65767400Y-152603600D03*
D13*
X65767400Y-155143600D03*
X65767400Y-157683600D03*
X65767400Y-160223600D03*
X65767400Y-162763600D03*
X65767400Y-165303600D03*
X65767400Y-167843600D03*
X65767400Y-170383600D03*
X65767400Y-172923600D03*
X65767400Y-175463600D03*
X73387400Y-175463600D03*
X73387400Y-172923600D03*
X73387400Y-170383600D03*
X73387400Y-167843600D03*
X73387400Y-165303600D03*
X73387400Y-162763600D03*
X73387400Y-160223600D03*
X73387400Y-157683600D03*
X73387400Y-155143600D03*
X73387400Y-152603600D03*
%TD*%
D11*
%TO.C,SW1*%
X50750000Y-191750000D03*
X44250000Y-191750000D03*
X50750000Y-187250000D03*
X44250000Y-187250000D03*
%TD*%
D12*
%TO.C,U3*%
X79178600Y-157658200D03*
D13*
X79178600Y-160198200D03*
X79178600Y-162738200D03*
X79178600Y-165278200D03*
X79178600Y-167818200D03*
X79178600Y-170358200D03*
X79178600Y-172898200D03*
X79178600Y-175438200D03*
X86798600Y-175438200D03*
X86798600Y-172898200D03*
X86798600Y-170358200D03*
X86798600Y-167818200D03*
X86798600Y-165278200D03*
X86798600Y-162738200D03*
X86798600Y-160198200D03*
X86798600Y-157658200D03*
%TD*%
%TO.C,C8*%
X43807200Y-106934400D03*
X41307200Y-106934400D03*
%TD*%
%TO.C,R34*%
X97872400Y-33012400D03*
X97872400Y-35552400D03*
%TD*%
%TO.C,R57*%
X131282600Y-87595400D03*
X131282600Y-85055400D03*
%TD*%
%TO.C,C17*%
X73316600Y-149400000D03*
X70816600Y-149400000D03*
%TD*%
%TO.C,R45*%
X127488800Y-41959600D03*
X127488800Y-39419600D03*
%TD*%
%TO.C,C99*%
X44055800Y-83363200D03*
X41555800Y-83363200D03*
%TD*%
%TO.C,R52*%
X124450000Y-80570000D03*
X124450000Y-78030000D03*
%TD*%
%TO.C,R7*%
X162842400Y-148033200D03*
X160302400Y-148033200D03*
%TD*%
D21*
%TO.C,REF\u002A\u002A*%
X19743200Y-191410600D03*
%TD*%
D22*
%TO.C,RN1*%
X56928200Y-155143600D03*
D13*
X56928200Y-157683600D03*
X56928200Y-160223600D03*
X56928200Y-162763600D03*
X56928200Y-165303600D03*
X56928200Y-167843600D03*
X56928200Y-170383600D03*
X56928200Y-172923600D03*
X56928200Y-175463600D03*
%TD*%
D16*
%TO.C,C3*%
X151314600Y-173189600D03*
X151314600Y-174689600D03*
%TD*%
D23*
%TO.C,P1*%
X144634400Y-142418200D03*
X139554400Y-144958200D03*
X144634400Y-147498200D03*
%TD*%
D13*
%TO.C,R12*%
X29804600Y-93777200D03*
X27264600Y-93777200D03*
%TD*%
%TO.C,R14*%
X29804600Y-103937200D03*
X27264600Y-103937200D03*
%TD*%
D14*
%TO.C,D11*%
X19644600Y-80366000D03*
D15*
X22184600Y-80366000D03*
%TD*%
D13*
%TO.C,R38*%
X112706000Y-33006000D03*
X112706000Y-35546000D03*
%TD*%
%TO.C,R30*%
X84891000Y-38091800D03*
X84891000Y-40631800D03*
%TD*%
D24*
%TO.C,U13*%
X42880000Y-65260000D03*
D25*
X42880000Y-67800000D03*
X65740000Y-67800000D03*
X65740000Y-65260000D03*
%TD*%
D13*
%TO.C,R51*%
X127853600Y-80595400D03*
X127853600Y-78055400D03*
%TD*%
D21*
%TO.C,REF\u002A\u002A*%
X19750000Y-26000000D03*
%TD*%
D11*
%TO.C,SW6*%
X114250000Y-191750000D03*
X107750000Y-191750000D03*
X114250000Y-187250000D03*
X107750000Y-187250000D03*
%TD*%
D26*
%TO.C,D1*%
X147403000Y-170282000D03*
D13*
X147403000Y-162662000D03*
%TD*%
D21*
%TO.C,REF\u002A\u002A*%
X163750000Y-26250000D03*
%TD*%
D13*
%TO.C,R46*%
X123780400Y-41959600D03*
X123780400Y-39419600D03*
%TD*%
%TO.C,R31*%
X84833800Y-34605000D03*
X84833800Y-32065000D03*
%TD*%
%TO.C,R13*%
X29804600Y-98857200D03*
X27264600Y-98857200D03*
%TD*%
%TO.C,R25*%
X105238400Y-41966000D03*
X105238400Y-39426000D03*
%TD*%
D27*
%TO.C,J9*%
X133160000Y-26800000D03*
D28*
X130620000Y-26800000D03*
X128080000Y-26800000D03*
X125540000Y-26800000D03*
X123000000Y-26800000D03*
X120460000Y-26800000D03*
%TD*%
D11*
%TO.C,RST1*%
X157150000Y-191750000D03*
X150650000Y-191750000D03*
X157150000Y-187250000D03*
X150650000Y-187250000D03*
%TD*%
D13*
%TO.C,C97*%
X126910600Y-156896200D03*
X124410600Y-156896200D03*
%TD*%
D27*
%TO.C,J3*%
X79450000Y-32150000D03*
D28*
X79450000Y-34690000D03*
%TD*%
D13*
%TO.C,C9*%
X50300000Y-149500000D03*
X47800000Y-149500000D03*
%TD*%
D29*
%TO.C,U15*%
X101030000Y-46295000D03*
D13*
X98490000Y-46295000D03*
X95950000Y-46295000D03*
X93410000Y-46295000D03*
X90870000Y-46295000D03*
X88330000Y-46295000D03*
X85790000Y-46295000D03*
X83250000Y-46295000D03*
X83250000Y-53915000D03*
X85790000Y-53915000D03*
X88330000Y-53915000D03*
X90870000Y-53915000D03*
X93410000Y-53915000D03*
X95950000Y-53915000D03*
X98490000Y-53915000D03*
X101030000Y-53915000D03*
%TD*%
%TO.C,R55*%
X123831200Y-33006000D03*
X123831200Y-35546000D03*
%TD*%
%TO.C,R2*%
X151670200Y-158242400D03*
X154210200Y-158242400D03*
%TD*%
%TO.C,C90*%
X163994600Y-94412200D03*
X161494600Y-94412200D03*
%TD*%
D12*
%TO.C,U97*%
X119234400Y-160223600D03*
D13*
X119234400Y-162763600D03*
X119234400Y-165303600D03*
X119234400Y-167843600D03*
X119234400Y-170383600D03*
X119234400Y-172923600D03*
X119234400Y-175463600D03*
X126854400Y-175463600D03*
X126854400Y-172923600D03*
X126854400Y-170383600D03*
X126854400Y-167843600D03*
X126854400Y-165303600D03*
X126854400Y-162763600D03*
X126854400Y-160223600D03*
%TD*%
D30*
%TO.C,U12*%
X126770000Y-59035000D03*
D25*
X124230000Y-59035000D03*
X121690000Y-59035000D03*
X119150000Y-59035000D03*
X116610000Y-59035000D03*
X114070000Y-59035000D03*
X111530000Y-59035000D03*
X108990000Y-59035000D03*
X106450000Y-59035000D03*
X103910000Y-59035000D03*
X103910000Y-70592000D03*
X106450000Y-70592000D03*
X108990000Y-70592000D03*
X111530000Y-70592000D03*
X114070000Y-70592000D03*
X116610000Y-70592000D03*
X119150000Y-70592000D03*
X121690000Y-70592000D03*
X124230000Y-70592000D03*
X126770000Y-70592000D03*
%TD*%
D13*
%TO.C,C19*%
X141388600Y-156642200D03*
X138888600Y-156642200D03*
%TD*%
%TO.C,R9*%
X29804600Y-119177200D03*
X27264600Y-119177200D03*
%TD*%
D14*
%TO.C,D7*%
X19644600Y-93777200D03*
D15*
X22184600Y-93777200D03*
%TD*%
D12*
%TO.C,U1*%
X52280000Y-88875000D03*
D13*
X52280000Y-91415000D03*
X52280000Y-93955000D03*
X52280000Y-96495000D03*
X52280000Y-99035000D03*
X52280000Y-101575000D03*
X52280000Y-104115000D03*
X52280000Y-106655000D03*
X52280000Y-109195000D03*
X52280000Y-111735000D03*
X52280000Y-114275000D03*
X52280000Y-116815000D03*
X52280000Y-119355000D03*
X52280000Y-121895000D03*
X52280000Y-124435000D03*
X52280000Y-126975000D03*
X52280000Y-129515000D03*
X52280000Y-132055000D03*
X52280000Y-134595000D03*
X52280000Y-137135000D03*
X67520000Y-137135000D03*
X67520000Y-134595000D03*
X67520000Y-132055000D03*
X67520000Y-129515000D03*
X67520000Y-126975000D03*
X67520000Y-124435000D03*
X67520000Y-121895000D03*
X67520000Y-119355000D03*
X67520000Y-116815000D03*
X67520000Y-114275000D03*
X67520000Y-111735000D03*
X67520000Y-109195000D03*
X67520000Y-106655000D03*
X67520000Y-104115000D03*
X67520000Y-101575000D03*
X67520000Y-99035000D03*
X67520000Y-96495000D03*
X67520000Y-93955000D03*
X67520000Y-91415000D03*
X67520000Y-88875000D03*
%TD*%
%TO.C,R50*%
X131282600Y-80595400D03*
X131282600Y-78055400D03*
%TD*%
D16*
%TO.C,C21*%
X79328400Y-40276200D03*
X79328400Y-42276200D03*
%TD*%
D13*
%TO.C,R43*%
X74273800Y-34561200D03*
X74273800Y-32021200D03*
%TD*%
D30*
%TO.C,U8*%
X95980000Y-59000000D03*
D25*
X93440000Y-59000000D03*
X90900000Y-59000000D03*
X88360000Y-59000000D03*
X85820000Y-59000000D03*
X83280000Y-59000000D03*
X80740000Y-59000000D03*
X78200000Y-59000000D03*
X75660000Y-59000000D03*
X73120000Y-59000000D03*
X73120000Y-70557000D03*
X75660000Y-70557000D03*
X78200000Y-70557000D03*
X80740000Y-70557000D03*
X83280000Y-70557000D03*
X85820000Y-70557000D03*
X88360000Y-70557000D03*
X90900000Y-70557000D03*
X93440000Y-70557000D03*
X95980000Y-70557000D03*
%TD*%
D27*
%TO.C,JP1*%
X20279000Y-143971000D03*
D28*
X20279000Y-146511000D03*
X20279000Y-149051000D03*
%TD*%
D13*
%TO.C,R39*%
X33868000Y-71784200D03*
X33868000Y-69244200D03*
%TD*%
%TO.C,C18*%
X119595400Y-94412200D03*
X117095400Y-94412200D03*
%TD*%
D12*
%TO.C,U6*%
X42602600Y-152730600D03*
D13*
X42602600Y-155270600D03*
X42602600Y-157810600D03*
X42602600Y-160350600D03*
X42602600Y-162890600D03*
X42602600Y-165430600D03*
X42602600Y-167970600D03*
X42602600Y-170510600D03*
X42602600Y-173050600D03*
X42602600Y-175590600D03*
X50222600Y-175590600D03*
X50222600Y-173050600D03*
X50222600Y-170510600D03*
X50222600Y-167970600D03*
X50222600Y-165430600D03*
X50222600Y-162890600D03*
X50222600Y-160350600D03*
X50222600Y-157810600D03*
X50222600Y-155270600D03*
X50222600Y-152730600D03*
%TD*%
%TO.C,R23*%
X112655200Y-41959600D03*
X112655200Y-39419600D03*
%TD*%
D11*
%TO.C,SW8*%
X139650000Y-191750000D03*
X133150000Y-191750000D03*
X139650000Y-187250000D03*
X133150000Y-187250000D03*
%TD*%
D13*
%TO.C,C10*%
X113448600Y-156896200D03*
X110948600Y-156896200D03*
%TD*%
%TO.C,R59*%
X124450000Y-87570000D03*
X124450000Y-85030000D03*
%TD*%
D12*
%TO.C,U7*%
X105797800Y-160294800D03*
D13*
X105797800Y-162834800D03*
X105797800Y-165374800D03*
X105797800Y-167914800D03*
X105797800Y-170454800D03*
X105797800Y-172994800D03*
X105797800Y-175534800D03*
X113417800Y-175534800D03*
X113417800Y-172994800D03*
X113417800Y-170454800D03*
X113417800Y-167914800D03*
X113417800Y-165374800D03*
X113417800Y-162834800D03*
X113417800Y-160294800D03*
%TD*%
%TO.C,R16*%
X19650000Y-162950000D03*
X19650000Y-160410000D03*
%TD*%
%TO.C,R58*%
X127853600Y-87595400D03*
X127853600Y-85055400D03*
%TD*%
%TO.C,R32*%
X90455600Y-33006000D03*
X90455600Y-35546000D03*
%TD*%
D21*
%TO.C,REF\u002A\u002A*%
X164043200Y-191410600D03*
%TD*%
D31*
%TO.C,J4*%
X22311000Y-59991200D03*
X22261000Y-73831200D03*
D32*
X21041000Y-66831200D03*
D28*
X25731000Y-68311200D03*
X25741000Y-65431200D03*
X25741000Y-70311200D03*
X25741000Y-63411200D03*
X28041000Y-70311200D03*
X28041000Y-63411200D03*
%TD*%
D13*
%TO.C,C7*%
X157202400Y-141433200D03*
X157202400Y-143933200D03*
%TD*%
D12*
%TO.C,U10*%
X30083400Y-160384400D03*
D13*
X30083400Y-162924400D03*
X30083400Y-165464400D03*
X30083400Y-168004400D03*
X30083400Y-170544400D03*
X30083400Y-173084400D03*
X30083400Y-175624400D03*
X37703400Y-175624400D03*
X37703400Y-173084400D03*
X37703400Y-170544400D03*
X37703400Y-168004400D03*
X37703400Y-165464400D03*
X37703400Y-162924400D03*
X37703400Y-160384400D03*
%TD*%
D14*
%TO.C,D3*%
X19644600Y-114097200D03*
D15*
X22184600Y-114097200D03*
%TD*%
D13*
%TO.C,R41*%
X116414400Y-33006000D03*
X116414400Y-35546000D03*
%TD*%
%TO.C,R36*%
X105289200Y-33012400D03*
X105289200Y-35552400D03*
%TD*%
%TO.C,R49*%
X134686200Y-80595400D03*
X134686200Y-78055400D03*
%TD*%
%TO.C,R28*%
X94113200Y-41959600D03*
X94113200Y-39419600D03*
%TD*%
%TO.C,R22*%
X29804600Y-85446000D03*
X27264600Y-85446000D03*
%TD*%
%TO.C,R53*%
X134711600Y-87605800D03*
X134711600Y-85065800D03*
%TD*%
D14*
%TO.C,D5*%
X19644600Y-124257200D03*
D15*
X22184600Y-124257200D03*
%TD*%
D33*
%TO.C,U19*%
X162880000Y-89490000D03*
D25*
X162880000Y-86950000D03*
X162880000Y-84410000D03*
X162880000Y-81870000D03*
X162880000Y-79330000D03*
X162880000Y-76790000D03*
X162880000Y-74250000D03*
X162880000Y-71710000D03*
X162880000Y-69170000D03*
X162880000Y-66630000D03*
X162880000Y-64090000D03*
X162880000Y-61550000D03*
X162880000Y-59010000D03*
X162880000Y-56470000D03*
X162880000Y-53930000D03*
X162880000Y-51390000D03*
X162880000Y-48850000D03*
X162880000Y-46310000D03*
X162880000Y-43770000D03*
X162880000Y-41230000D03*
X162880000Y-38690000D03*
X162880000Y-36150000D03*
X162880000Y-33610000D03*
X162880000Y-31070000D03*
X140020000Y-31070000D03*
X140020000Y-33610000D03*
X140020000Y-36150000D03*
X140020000Y-38690000D03*
X140020000Y-41230000D03*
X140020000Y-43770000D03*
X140020000Y-46310000D03*
X140020000Y-48850000D03*
X140020000Y-51390000D03*
X140020000Y-53930000D03*
X140020000Y-56470000D03*
X140020000Y-59010000D03*
X140020000Y-61550000D03*
X140020000Y-64090000D03*
X140020000Y-66630000D03*
X140020000Y-69170000D03*
X140020000Y-71710000D03*
X140020000Y-74250000D03*
X140020000Y-76790000D03*
X140020000Y-79330000D03*
X140020000Y-81870000D03*
X140020000Y-84410000D03*
X140020000Y-86950000D03*
X140020000Y-89490000D03*
%TD*%
D13*
%TO.C,R1*%
X151822600Y-162966800D03*
X151822600Y-165506800D03*
%TD*%
%TO.C,R24*%
X108946800Y-41966000D03*
X108946800Y-39426000D03*
%TD*%
%TO.C,C4*%
X131390000Y-53950000D03*
X131390000Y-51450000D03*
%TD*%
%TO.C,C20*%
X106250000Y-181600000D03*
X108750000Y-181600000D03*
%TD*%
%TO.C,R40*%
X37551000Y-71758800D03*
X37551000Y-69218800D03*
%TD*%
%TO.C,R33*%
X94164000Y-33006000D03*
X94164000Y-35546000D03*
%TD*%
D14*
%TO.C,D4*%
X19644600Y-119177200D03*
D15*
X22184600Y-119177200D03*
%TD*%
D14*
%TO.C,D8*%
X19644600Y-98857200D03*
D15*
X22184600Y-98857200D03*
%TD*%
D13*
%TO.C,R27*%
X97821600Y-41966000D03*
X97821600Y-39426000D03*
%TD*%
D27*
%TO.C,JP2*%
X28788000Y-143971000D03*
D28*
X28788000Y-146511000D03*
X28788000Y-149051000D03*
%TD*%
D14*
%TO.C,D9*%
X19644600Y-103937200D03*
D15*
X22184600Y-103937200D03*
%TD*%
D13*
%TO.C,C14*%
X30027200Y-155375600D03*
X32527200Y-155375600D03*
%TD*%
%TO.C,R26*%
X101530000Y-41966000D03*
X101530000Y-39426000D03*
%TD*%
D34*
%TO.C,Q1*%
X76813800Y-46901200D03*
D35*
X75543800Y-46901200D03*
X74273800Y-46901200D03*
%TD*%
D11*
%TO.C,SW3*%
X76150000Y-191750000D03*
X69650000Y-191750000D03*
X76150000Y-187250000D03*
X69650000Y-187250000D03*
%TD*%
D29*
%TO.C,U16*%
X127496800Y-46371200D03*
D13*
X124956800Y-46371200D03*
X122416800Y-46371200D03*
X119876800Y-46371200D03*
X117336800Y-46371200D03*
X114796800Y-46371200D03*
X112256800Y-46371200D03*
X109716800Y-46371200D03*
X109716800Y-53991200D03*
X112256800Y-53991200D03*
X114796800Y-53991200D03*
X117336800Y-53991200D03*
X119876800Y-53991200D03*
X122416800Y-53991200D03*
X124956800Y-53991200D03*
X127496800Y-53991200D03*
%TD*%
%TO.C,R35*%
X101580800Y-33012400D03*
X101580800Y-35552400D03*
%TD*%
D12*
%TO.C,U90*%
X148749200Y-99035000D03*
D13*
X148749200Y-101575000D03*
X148749200Y-104115000D03*
X148749200Y-106655000D03*
X148749200Y-109195000D03*
X148749200Y-111735000D03*
X148749200Y-114275000D03*
X148749200Y-116815000D03*
X148749200Y-119355000D03*
X148749200Y-121895000D03*
X148749200Y-124435000D03*
X148749200Y-126975000D03*
X148749200Y-129515000D03*
X148749200Y-132055000D03*
X163989200Y-132055000D03*
X163989200Y-129515000D03*
X163989200Y-126975000D03*
X163989200Y-124435000D03*
X163989200Y-121895000D03*
X163989200Y-119355000D03*
X163989200Y-116815000D03*
X163989200Y-114275000D03*
X163989200Y-111735000D03*
X163989200Y-109195000D03*
X163989200Y-106655000D03*
X163989200Y-104115000D03*
X163989200Y-101575000D03*
X163989200Y-99035000D03*
%TD*%
%TO.C,C91*%
X100240600Y-153594200D03*
X97740600Y-153594200D03*
%TD*%
D36*
%TO.C,U2*%
X80067600Y-98679400D03*
D37*
X80067600Y-101219400D03*
X80067600Y-103759400D03*
X80067600Y-106299400D03*
X80067600Y-108839400D03*
X80067600Y-111379400D03*
X80067600Y-113919400D03*
X80067600Y-116459400D03*
X80067600Y-118999400D03*
X80067600Y-121539400D03*
X80067600Y-124079400D03*
X80067600Y-126619400D03*
X80067600Y-129159400D03*
X80067600Y-131699400D03*
X95307600Y-131699400D03*
X95307600Y-129159400D03*
X95307600Y-126619400D03*
X95307600Y-124079400D03*
X95307600Y-121539400D03*
X95307600Y-118999400D03*
X95307600Y-116459400D03*
X95307600Y-113919400D03*
X95307600Y-111379400D03*
X95307600Y-108839400D03*
X95307600Y-106299400D03*
X95307600Y-103759400D03*
X95307600Y-101219400D03*
X95307600Y-98679400D03*
%TD*%
D13*
%TO.C,R29*%
X90404800Y-41959600D03*
X90404800Y-39419600D03*
%TD*%
%TO.C,R54*%
X127539600Y-33006000D03*
X127539600Y-35546000D03*
%TD*%
%TO.C,R8*%
X29804600Y-114097200D03*
X27264600Y-114097200D03*
%TD*%
D38*
%TO.C,LCD1*%
X131500000Y-143500000D03*
X130000000Y-179500000D03*
X54000000Y-179500000D03*
X52500000Y-143500000D03*
D39*
X93220000Y-181500000D03*
D40*
X90680000Y-181500000D03*
X88140000Y-181500000D03*
X85600000Y-181500000D03*
X83060000Y-181500000D03*
X80520000Y-181500000D03*
X77980000Y-181500000D03*
X75440000Y-181500000D03*
X72900000Y-181500000D03*
X70360000Y-181500000D03*
X67820000Y-181500000D03*
X65280000Y-181500000D03*
X62734920Y-181497460D03*
X60200000Y-181500000D03*
X98300000Y-181500000D03*
X95754920Y-181497460D03*
%TD*%
D11*
%TO.C,SW4*%
X88850000Y-191750000D03*
X82350000Y-191750000D03*
X88850000Y-187250000D03*
X82350000Y-187250000D03*
%TD*%
D12*
%TO.C,U91*%
X92386600Y-157556600D03*
D13*
X92386600Y-160096600D03*
X92386600Y-162636600D03*
X92386600Y-165176600D03*
X92386600Y-167716600D03*
X92386600Y-170256600D03*
X92386600Y-172796600D03*
X92386600Y-175336600D03*
X100006600Y-175336600D03*
X100006600Y-172796600D03*
X100006600Y-170256600D03*
X100006600Y-167716600D03*
X100006600Y-165176600D03*
X100006600Y-162636600D03*
X100006600Y-160096600D03*
X100006600Y-157556600D03*
%TD*%
%TO.C,C5*%
X86778600Y-153594200D03*
X84278600Y-153594200D03*
%TD*%
%TO.C,C15*%
X37607200Y-155401000D03*
X35107200Y-155401000D03*
%TD*%
%TO.C,C16*%
X165315400Y-155753200D03*
X162815400Y-155753200D03*
%TD*%
D41*
%TO.C,U17*%
X29470000Y-54825000D03*
D25*
X32010000Y-54825000D03*
X34550000Y-54825000D03*
X37090000Y-54825000D03*
X39630000Y-54825000D03*
X42170000Y-54825000D03*
X44710000Y-54825000D03*
X47250000Y-54825000D03*
X49790000Y-54825000D03*
X49790000Y-39585000D03*
X47250000Y-39585000D03*
X44710000Y-39585000D03*
X42170000Y-39585000D03*
X39630000Y-39585000D03*
X37090000Y-39585000D03*
X34550000Y-39585000D03*
X32010000Y-39585000D03*
X29470000Y-39585000D03*
%TD*%
D12*
%TO.C,U99*%
X35973200Y-87249400D03*
D13*
X35973200Y-89789400D03*
X35973200Y-92329400D03*
X35973200Y-94869400D03*
X35973200Y-97409400D03*
X35973200Y-99949400D03*
X35973200Y-102489400D03*
X43593200Y-102489400D03*
X43593200Y-99949400D03*
X43593200Y-97409400D03*
X43593200Y-94869400D03*
X43593200Y-92329400D03*
X43593200Y-89789400D03*
X43593200Y-87249400D03*
%TD*%
%TO.C,R48*%
X116363600Y-41959600D03*
X116363600Y-39419600D03*
%TD*%
M02*
