M48
; DRILL file {KiCad 9.0.5-9.0.5~ubuntu24.04.1} date 2025-10-10T17:05:19-0300
; FORMAT={-:-/ absolute / metric / decimal}
; #@! TF.CreationDate,2025-10-10T17:05:19-03:00
; #@! TF.GenerationSoftware,Kicad,Pcbnew,9.0.5-9.0.5~ubuntu24.04.1
; #@! TF.FileFunction,Plated,1,2,PTH
FMAT,2
METRIC
; #@! TA.AperFunction,Plated,PTH,ViaDrill
T1C0.300
; #@! TA.AperFunction,Plated,PTH,ComponentDrill
T2C0.600
; #@! TA.AperFunction,Plated,PTH,ComponentDrill
T3C0.750
; #@! TA.AperFunction,Plated,PTH,ComponentDrill
T4C0.800
; #@! TA.AperFunction,Plated,PTH,ComponentDrill
T5C0.900
; #@! TA.AperFunction,Plated,PTH,ComponentDrill
T6C1.000
; #@! TA.AperFunction,Plated,PTH,ComponentDrill
T7C1.100
; #@! TA.AperFunction,Plated,PTH,ComponentDrill
T8C1.200
%
G90
G05
T1
X20.26Y-84.855
X20.29Y-77.58
X20.98Y-143.43
X21.46Y-144.44
X21.97Y-128.22
X22.15Y-144.03
X25.1Y-85.881
X27.09Y-91.541
X30.71Y-139.6
X33.2Y-139.0
X33.41Y-123.55
X33.91Y-137.34
X34.05Y-129.73
X35.115Y-151.398
X37.12Y-133.559
X37.6Y-150.592
X37.62Y-93.59
X37.67Y-128.84
X37.861Y-130.33
X37.944Y-127.062
X38.2Y-82.79
X40.96Y-107.68
X41.81Y-132.959
X42.36Y-120.859
X42.854Y-135.019
X42.961Y-123.42
X43.362Y-132.12
X43.86Y-139.57
X44.67Y-108.46
X44.97Y-85.88
X45.32Y-135.98
X45.87Y-141.03
X46.94Y-175.43
X47.2Y-86.6
X47.37Y-189.31
X47.77Y-151.353
X47.95Y-193.15
X48.47Y-192.599
X48.57Y-81.53
X48.96Y-190.598
X49.048Y-98.21
X49.449Y-81.931
X49.57Y-189.899
X49.58Y-40.46
X49.58Y-60.97
X49.61Y-80.72
X50.4Y-80.319
X51.05Y-84.93
X51.981Y-75.108
X52.735Y-74.707
X53.367Y-74.304
X53.37Y-66.19
X53.61Y-125.17
X53.63Y-130.69
X54.14Y-133.156
X54.21Y-176.692
X54.28Y-116.86
X54.404Y-74.511
X54.81Y-73.942
X54.81Y-119.24
X54.88Y-135.98
X55.161Y-73.279
X55.678Y-110.121
X55.956Y-73.188
X56.31Y-147.74
X56.825Y-72.588
X56.95Y-150.603
X57.17Y-99.43
X57.44Y-71.988
X57.55Y-100.33
X57.6Y-101.575
X57.6Y-104.12
X57.99Y-126.95
X58.06Y-89.52
X59.15Y-70.137
X59.49Y-55.88
X59.51Y-134.95
X59.52Y-67.85
X59.53Y-159.95
X59.72Y-35.251
X60.1Y-86.6
X60.19Y-55.22
X60.19Y-114.29
X60.94Y-88.15
X60.94Y-91.54
X61.48Y-38.94
X62.71Y-85.84
X62.72Y-116.815
X62.9Y-164.4
X63.19Y-161.79
X63.867Y-91.73
X63.888Y-79.273
X64.01Y-109.87
X64.619Y-78.16
X65.354Y-77.197
X65.9Y-148.21
X66.18Y-118.46
X66.709Y-77.923
X66.92Y-75.901
X67.02Y-151.6
X68.157Y-75.323
X68.31Y-76.324
X68.625Y-141.54
X68.76Y-77.491
X68.92Y-42.29
X68.92Y-46.91
X68.92Y-60.28
X69.398Y-141.186
X69.697Y-78.252
X69.71Y-140.45
X70.128Y-163.56
X70.128Y-165.86
X70.31Y-57.33
X70.421Y-79.227
X70.82Y-151.353
X70.93Y-173.94
X71.15Y-80.196
X71.47Y-39.51
X71.51Y-170.53
X71.56Y-121.895
X71.73Y-166.55
X72.3Y-89.16
X72.3Y-94.62
X72.3Y-107.27
X72.46Y-117.33
X76.04Y-152.103
X76.115Y-104.175
X76.13Y-101.787
X76.16Y-111.76
X76.18Y-109.24
X76.21Y-106.7
X76.22Y-99.06
X76.22Y-114.33
X76.26Y-96.47
X76.27Y-164.24
X76.34Y-121.895
X76.96Y-80.597
X77.58Y-136.02
X78.55Y-153.443
X80.48Y-83.819
X81.49Y-74.74
X81.54Y-89.71
X82.678Y-170.878
X83.15Y-28.15
X83.28Y-68.0
X83.28Y-74.21
X83.29Y-85.84
X84.05Y-151.4
X84.54Y-156.89
X84.68Y-110.46
X85.53Y-152.619
X85.83Y-86.6
X86.345Y-151.765
X86.45Y-92.64
X87.26Y-122.63
X87.52Y-158.98
X87.88Y-166.36
X88.91Y-193.601
X89.03Y-150.37
X89.28Y-95.17
X89.289Y-176.969
X89.646Y-57.75
X89.789Y-162.921
X90.7Y-139.14
X90.99Y-113.96
X91.37Y-173.88
X92.2Y-55.942
X92.28Y-57.14
X92.77Y-150.421
X92.88Y-131.54
X93.08Y-94.26
X93.61Y-155.789
X93.76Y-161.396
X95.6Y-95.01
X97.42Y-155.789
X97.52Y-94.26
X97.65Y-159.19
X97.65Y-171.22
X98.45Y-100.198
X99.2Y-171.5
X99.89Y-94.58
X100.99Y-111.018
X101.08Y-150.421
X101.1Y-112.18
X101.42Y-89.08
X101.57Y-158.396
X101.7Y-119.915
X102.131Y-154.99
X102.27Y-102.188
X102.33Y-170.26
X102.9Y-174.69
X103.91Y-67.62
X103.91Y-79.394
X104.17Y-45.044
X104.3Y-162.61
X104.8Y-136.93
X105.36Y-82.63
X105.79Y-154.99
X105.975Y-82.296
X106.45Y-79.795
X106.46Y-67.14
X106.69Y-81.747
X106.98Y-155.789
X107.24Y-97.596
X108.87Y-154.99
X108.99Y-66.791
X109.072Y-80.008
X109.97Y-93.608
X109.97Y-95.55
X109.97Y-131.776
X110.648Y-81.346
X111.04Y-155.74
X111.08Y-80.767
X111.4Y-161.69
X111.4Y-177.57
X111.595Y-66.791
X111.804Y-80.707
X112.02Y-79.964
X112.3Y-79.323
X113.46Y-154.779
X114.06Y-74.22
X114.57Y-49.78
X114.671Y-140.1
X115.09Y-193.051
X115.19Y-173.99
X116.37Y-159.51
X116.48Y-164.0
X116.59Y-55.242
X116.96Y-93.559
X117.09Y-50.39
X118.12Y-166.59
X119.12Y-81.297
X119.41Y-135.61
X120.72Y-133.93
X120.818Y-152.4
X120.85Y-112.83
X121.035Y-165.25
X121.41Y-72.32
X121.85Y-28.93
X121.88Y-101.72
X122.15Y-155.529
X122.48Y-49.23
X122.58Y-92.89
X122.65Y-81.698
X123.49Y-159.1
X124.2Y-115.435
X124.46Y-155.529
X125.62Y-153.49
X125.724Y-82.247
X126.51Y-82.67
X126.89Y-154.778
X127.45Y-93.559
X128.47Y-114.173
X129.08Y-119.253
X129.81Y-172.68
X130.29Y-164.0
X130.42Y-166.44
X130.72Y-28.15
X130.73Y-33.79
X130.742Y-45.109
X131.05Y-121.793
X131.25Y-66.07
X131.73Y-65.49
X132.239Y-79.019
X132.7Y-31.2
X132.7Y-52.7
X132.72Y-64.7
X132.76Y-63.78
X133.06Y-62.86
X133.2Y-61.1
X133.4Y-50.306
X133.41Y-118.653
X133.55Y-49.62
X133.78Y-62.07
X134.118Y-48.58
X134.43Y-134.69
X135.19Y-155.529
X136.62Y-92.11
X136.82Y-80.66
X137.42Y-83.17
X137.87Y-66.73
X137.91Y-85.33
X138.62Y-93.559
X138.811Y-112.472
X138.83Y-64.9
X139.21Y-155.529
X139.38Y-69.34
X139.6Y-56.58
X139.79Y-59.21
X139.8Y-49.21
X139.92Y-61.68
X140.24Y-71.68
X140.786Y-26.394
X141.341Y-64.18
X141.67Y-154.778
X141.891Y-45.227
X141.95Y-50.3
X144.07Y-112.44
X144.77Y-155.529
X145.09Y-174.06
X146.47Y-146.16
X147.07Y-95.57
X148.08Y-94.358
X149.92Y-93.559
X151.68Y-154.778
X152.69Y-70.65
X152.77Y-153.62
X154.058Y-67.35
X154.29Y-155.529
X154.66Y-65.42
X154.977Y-62.58
X155.379Y-52.92
X155.85Y-154.778
X155.92Y-60.58
X155.929Y-55.24
X157.03Y-57.82
X159.26Y-155.529
X159.5Y-93.559
T2
X69.73Y-28.15
X69.73Y-29.65
X79.328Y-40.276
X79.328Y-42.276
X148.14Y-139.9
X148.14Y-141.9
X150.8Y-173.89
X152.3Y-173.89
T3
X74.274Y-46.901
X75.544Y-46.901
X76.814Y-46.901
T4
X19.65Y-160.41
X19.65Y-162.95
X19.68Y-168.39
X19.68Y-170.93
X23.1Y-160.5
X23.1Y-163.0
X25.41Y-168.36
X25.41Y-173.26
X26.57Y-160.5
X26.57Y-163.04
X29.52Y-157.15
X30.083Y-160.384
X30.083Y-162.924
X30.083Y-165.464
X30.083Y-168.004
X30.083Y-170.544
X30.083Y-173.084
X30.083Y-175.624
X32.02Y-157.15
X32.72Y-93.34
X32.72Y-98.42
X32.87Y-105.55
X32.87Y-110.63
X32.87Y-115.71
X32.87Y-120.79
X32.87Y-125.87
X32.87Y-130.95
X32.87Y-136.03
X32.87Y-141.11
X35.16Y-157.17
X35.26Y-93.34
X35.26Y-98.42
X35.41Y-105.55
X35.41Y-110.63
X35.41Y-115.71
X35.41Y-120.79
X35.41Y-125.87
X35.41Y-130.95
X35.41Y-136.03
X35.41Y-141.11
X37.625Y-148.77
X37.66Y-157.17
X37.703Y-160.384
X37.703Y-162.924
X37.703Y-165.464
X37.703Y-168.004
X37.703Y-170.544
X37.703Y-173.084
X37.703Y-175.624
X39.57Y-93.245
X39.57Y-95.785
X39.57Y-98.325
X39.57Y-100.865
X39.57Y-103.405
X39.57Y-105.945
X39.57Y-108.485
X39.67Y-116.88
X39.67Y-119.42
X39.67Y-121.96
X39.67Y-124.5
X39.67Y-127.04
X39.67Y-129.58
X39.67Y-132.12
X39.67Y-134.66
X39.67Y-137.2
X39.67Y-139.74
X40.165Y-148.77
X42.603Y-152.731
X42.603Y-155.271
X42.603Y-157.811
X42.603Y-160.351
X42.603Y-162.891
X42.603Y-165.431
X42.603Y-167.971
X42.603Y-170.511
X42.603Y-173.051
X42.603Y-175.591
X44.67Y-89.89
X44.82Y-113.63
X47.17Y-89.89
X47.19Y-93.245
X47.19Y-95.785
X47.19Y-98.325
X47.19Y-100.865
X47.19Y-103.405
X47.19Y-105.945
X47.19Y-108.485
X47.29Y-116.88
X47.29Y-119.42
X47.29Y-121.96
X47.29Y-124.5
X47.29Y-127.04
X47.29Y-129.58
X47.29Y-132.12
X47.29Y-134.66
X47.29Y-137.2
X47.29Y-139.74
X47.32Y-113.63
X47.77Y-149.33
X50.223Y-152.731
X50.223Y-155.271
X50.223Y-157.811
X50.223Y-160.351
X50.223Y-162.891
X50.223Y-165.431
X50.223Y-167.971
X50.223Y-170.511
X50.223Y-173.051
X50.223Y-175.591
X50.27Y-149.33
X50.745Y-67.85
X52.28Y-88.875
X52.28Y-91.415
X52.28Y-93.955
X52.28Y-96.495
X52.28Y-99.035
X52.28Y-101.575
X52.28Y-104.115
X52.28Y-106.655
X52.28Y-109.195
X52.28Y-111.735
X52.28Y-114.275
X52.28Y-116.815
X52.28Y-119.355
X52.28Y-121.895
X52.28Y-124.435
X52.28Y-126.975
X52.28Y-129.515
X52.28Y-132.055
X52.28Y-134.595
X52.28Y-137.135
X53.285Y-67.85
X56.928Y-155.144
X56.928Y-157.684
X56.928Y-160.224
X56.928Y-162.764
X56.928Y-165.304
X56.928Y-167.844
X56.928Y-170.384
X56.928Y-172.924
X56.928Y-175.464
X61.76Y-30.33
X61.79Y-34.09
X64.3Y-30.33
X64.33Y-34.09
X65.767Y-152.604
X65.767Y-155.144
X65.767Y-157.684
X65.767Y-160.224
X65.767Y-162.764
X65.767Y-165.304
X65.767Y-167.844
X65.767Y-170.384
X65.767Y-172.924
X65.767Y-175.464
X67.52Y-88.875
X67.52Y-91.415
X67.52Y-93.955
X67.52Y-96.495
X67.52Y-99.035
X67.52Y-101.575
X67.52Y-104.115
X67.52Y-106.655
X67.52Y-109.195
X67.52Y-111.735
X67.52Y-114.275
X67.52Y-116.815
X67.52Y-119.355
X67.52Y-121.895
X67.52Y-124.435
X67.52Y-126.975
X67.52Y-129.515
X67.52Y-132.055
X67.52Y-134.595
X67.52Y-137.135
X69.8Y-33.97
X69.8Y-36.47
X70.81Y-132.74
X70.815Y-126.4
X70.825Y-129.58
X70.83Y-123.18
X70.89Y-149.26
X72.83Y-84.92
X72.83Y-87.42
X73.35Y-132.74
X73.355Y-126.4
X73.365Y-129.58
X73.37Y-123.18
X73.387Y-152.604
X73.387Y-155.144
X73.387Y-157.684
X73.387Y-160.224
X73.387Y-162.764
X73.387Y-165.304
X73.387Y-167.844
X73.387Y-170.384
X73.387Y-172.924
X73.387Y-175.464
X73.39Y-149.26
X74.195Y-39.647
X74.195Y-42.187
X74.274Y-32.021
X74.274Y-34.561
X79.179Y-157.658
X79.179Y-160.198
X79.179Y-162.738
X79.179Y-165.278
X79.179Y-167.818
X79.179Y-170.358
X79.179Y-172.898
X79.179Y-175.438
X83.25Y-46.295
X83.25Y-53.915
X84.28Y-154.32
X84.83Y-39.43
X84.83Y-41.97
X84.86Y-32.92
X84.86Y-35.46
X85.79Y-46.295
X85.79Y-53.915
X86.78Y-154.32
X86.799Y-157.658
X86.799Y-160.198
X86.799Y-162.738
X86.799Y-165.278
X86.799Y-167.818
X86.799Y-170.358
X86.799Y-172.898
X86.799Y-175.438
X88.33Y-46.295
X88.33Y-53.915
X90.405Y-39.42
X90.405Y-41.96
X90.456Y-33.006
X90.456Y-35.546
X90.87Y-46.295
X90.87Y-53.915
X92.387Y-157.557
X92.387Y-160.097
X92.387Y-162.637
X92.387Y-165.177
X92.387Y-167.717
X92.387Y-170.257
X92.387Y-172.797
X92.387Y-175.337
X93.1Y-85.84
X93.41Y-46.295
X93.41Y-53.915
X94.113Y-39.42
X94.113Y-41.96
X94.164Y-33.006
X94.164Y-35.546
X95.6Y-85.84
X95.95Y-46.295
X95.95Y-53.915
X97.44Y-153.71
X97.822Y-39.426
X97.822Y-41.966
X97.872Y-33.012
X97.872Y-35.552
X98.49Y-46.295
X98.49Y-53.915
X99.94Y-153.71
X100.007Y-157.557
X100.007Y-160.097
X100.007Y-162.637
X100.007Y-165.177
X100.007Y-167.717
X100.007Y-170.257
X100.007Y-172.797
X100.007Y-175.337
X101.03Y-46.295
X101.03Y-53.915
X101.53Y-39.426
X101.53Y-41.966
X101.58Y-181.9
X101.581Y-33.012
X101.581Y-35.552
X104.08Y-181.9
X104.2Y-51.42
X104.2Y-53.92
X104.248Y-98.756
X104.248Y-101.296
X104.248Y-103.836
X104.248Y-106.376
X104.248Y-108.916
X104.248Y-111.456
X104.248Y-113.996
X104.248Y-116.536
X104.248Y-119.076
X104.248Y-121.616
X104.248Y-124.156
X104.248Y-126.696
X104.248Y-129.236
X104.248Y-131.776
X105.238Y-39.426
X105.238Y-41.966
X105.289Y-33.012
X105.289Y-35.552
X105.798Y-160.295
X105.798Y-162.835
X105.798Y-165.375
X105.798Y-167.915
X105.798Y-170.455
X105.798Y-172.995
X105.798Y-175.535
X106.36Y-181.86
X108.9Y-181.86
X108.947Y-39.426
X108.947Y-41.966
X108.998Y-33.012
X108.998Y-35.552
X109.717Y-46.371
X109.717Y-53.991
X111.07Y-156.96
X112.257Y-46.371
X112.257Y-53.991
X112.655Y-39.42
X112.655Y-41.96
X112.706Y-33.006
X112.706Y-35.546
X113.418Y-160.295
X113.418Y-162.835
X113.418Y-165.375
X113.418Y-167.915
X113.418Y-170.455
X113.418Y-172.995
X113.418Y-175.535
X113.57Y-156.96
X114.797Y-46.371
X114.797Y-53.991
X114.88Y-79.13
X114.89Y-75.91
X116.364Y-39.42
X116.364Y-41.96
X116.414Y-33.006
X116.414Y-35.546
X116.96Y-95.56
X117.337Y-46.371
X117.337Y-53.991
X117.42Y-79.13
X117.43Y-75.91
X119.234Y-160.224
X119.234Y-162.764
X119.234Y-165.304
X119.234Y-167.844
X119.234Y-170.384
X119.234Y-172.924
X119.234Y-175.464
X119.46Y-95.56
X119.488Y-98.756
X119.488Y-101.296
X119.488Y-103.836
X119.488Y-106.376
X119.488Y-108.916
X119.488Y-111.456
X119.488Y-113.996
X119.488Y-116.536
X119.488Y-119.076
X119.488Y-121.616
X119.488Y-124.156
X119.488Y-126.696
X119.488Y-129.236
X119.488Y-131.776
X119.877Y-46.371
X119.877Y-53.991
X120.072Y-39.42
X120.072Y-41.96
X120.123Y-33.006
X120.123Y-35.546
X120.876Y-85.175
X120.876Y-87.715
X120.9Y-74.22
X120.9Y-76.76
X122.417Y-46.371
X122.417Y-53.991
X123.78Y-39.42
X123.78Y-41.96
X123.831Y-33.006
X123.831Y-35.546
X124.28Y-85.2
X124.28Y-87.74
X124.304Y-74.245
X124.304Y-76.785
X124.49Y-156.94
X124.957Y-46.371
X124.957Y-53.991
X126.016Y-98.933
X126.016Y-101.473
X126.016Y-104.013
X126.016Y-106.553
X126.016Y-109.093
X126.016Y-111.633
X126.016Y-114.173
X126.016Y-116.713
X126.016Y-119.253
X126.016Y-121.793
X126.016Y-124.333
X126.016Y-126.873
X126.016Y-129.413
X126.016Y-131.953
X126.854Y-160.224
X126.854Y-162.764
X126.854Y-165.304
X126.854Y-167.844
X126.854Y-170.384
X126.854Y-172.924
X126.854Y-175.464
X126.99Y-156.94
X127.489Y-39.42
X127.489Y-41.96
X127.497Y-46.371
X127.497Y-53.991
X127.54Y-33.006
X127.54Y-35.546
X127.709Y-85.2
X127.709Y-87.74
X127.733Y-74.245
X127.733Y-76.785
X130.73Y-51.49
X130.73Y-53.99
X131.136Y-74.245
X131.136Y-76.785
X131.138Y-85.21
X131.138Y-87.75
X133.966Y-160.097
X133.966Y-162.637
X133.966Y-165.177
X133.966Y-167.717
X133.966Y-170.257
X133.966Y-172.797
X133.966Y-175.337
X138.66Y-95.73
X139.21Y-156.81
X139.685Y-149.71
X141.16Y-95.73
X141.256Y-98.933
X141.256Y-101.473
X141.256Y-104.013
X141.256Y-106.553
X141.256Y-109.093
X141.256Y-111.633
X141.256Y-114.173
X141.256Y-116.713
X141.256Y-119.253
X141.256Y-121.793
X141.256Y-124.333
X141.256Y-126.873
X141.256Y-129.413
X141.256Y-131.953
X141.586Y-160.097
X141.586Y-162.637
X141.586Y-165.177
X141.586Y-167.717
X141.586Y-170.257
X141.586Y-172.797
X141.586Y-175.337
X141.71Y-156.81
X142.5Y-139.83
X142.5Y-142.33
X144.765Y-147.17
X144.765Y-152.25
X147.37Y-98.87
X147.37Y-101.41
X147.37Y-103.95
X147.37Y-106.49
X147.37Y-109.03
X147.37Y-111.57
X147.37Y-114.11
X147.37Y-116.65
X147.37Y-119.19
X147.37Y-121.73
X147.37Y-124.27
X147.37Y-126.81
X147.37Y-129.35
X147.37Y-131.89
X147.84Y-157.91
X147.84Y-165.53
X151.67Y-158.242
X151.765Y-147.96
X151.823Y-162.967
X151.823Y-165.507
X154.21Y-158.242
X154.305Y-147.96
X157.665Y-160.381
X157.665Y-162.921
X157.665Y-165.461
X157.665Y-168.001
X157.665Y-170.541
X157.665Y-173.081
X157.665Y-175.621
X160.06Y-95.68
X162.56Y-95.68
X162.61Y-98.87
X162.61Y-101.41
X162.61Y-103.95
X162.61Y-106.49
X162.61Y-109.03
X162.61Y-111.57
X162.61Y-114.11
X162.61Y-116.65
X162.61Y-119.19
X162.61Y-121.73
X162.61Y-124.27
X162.61Y-126.81
X162.61Y-129.35
X162.61Y-131.89
X162.88Y-156.88
X165.285Y-160.381
X165.285Y-162.921
X165.285Y-165.461
X165.285Y-168.001
X165.285Y-170.541
X165.285Y-173.081
X165.285Y-175.621
X165.38Y-156.88
T5
X25.1Y-93.34
X25.1Y-98.42
X25.25Y-105.55
X25.25Y-110.63
X25.25Y-115.71
X25.25Y-120.79
X25.25Y-125.87
X25.25Y-130.95
X25.25Y-136.03
X25.25Y-141.11
X27.64Y-93.34
X27.64Y-98.42
X27.79Y-105.55
X27.79Y-110.63
X27.79Y-115.71
X27.79Y-120.79
X27.79Y-125.87
X27.79Y-130.95
X27.79Y-136.03
X27.79Y-141.11
X151.87Y-152.14
X154.41Y-152.14
T6
X18.78Y-62.35
X18.78Y-64.89
X18.78Y-67.43
X18.81Y-75.06
X18.81Y-77.6
X18.81Y-80.14
X18.89Y-86.66
X18.89Y-89.2
X18.89Y-91.74
X19.38Y-123.76
X19.38Y-126.3
X19.38Y-128.84
X19.38Y-131.38
X19.38Y-133.92
X19.38Y-136.46
X19.38Y-139.0
X19.38Y-141.54
X19.76Y-179.02
X19.76Y-181.56
X19.76Y-184.1
X23.4Y-62.33
X23.4Y-64.87
X23.4Y-67.41
X23.4Y-69.95
X23.4Y-72.49
X23.4Y-75.03
X23.4Y-77.57
X23.4Y-80.11
X25.26Y-35.12
X25.26Y-37.66
X25.26Y-40.2
X25.26Y-42.74
X25.26Y-45.28
X25.26Y-47.82
X25.26Y-50.36
X25.26Y-52.9
X25.26Y-55.44
X26.61Y-150.73
X26.65Y-146.8
X28.01Y-62.34
X28.01Y-64.88
X28.01Y-67.42
X28.01Y-69.96
X28.01Y-72.5
X28.01Y-75.04
X28.01Y-77.58
X28.01Y-80.12
X29.15Y-150.73
X29.19Y-146.8
X30.5Y-189.07
X30.5Y-191.61
X31.69Y-150.73
X31.73Y-146.8
X32.6Y-62.4
X32.6Y-64.94
X32.6Y-67.48
X32.6Y-70.02
X32.6Y-72.56
X32.6Y-75.1
X32.6Y-77.64
X32.6Y-80.18
X33.04Y-189.07
X33.04Y-191.61
X35.58Y-189.07
X35.58Y-191.61
X36.88Y-62.34
X36.88Y-64.88
X36.88Y-67.42
X36.88Y-69.96
X36.88Y-72.5
X36.88Y-75.04
X36.88Y-77.58
X36.88Y-80.12
X38.12Y-189.07
X38.12Y-191.61
X39.42Y-62.34
X39.42Y-64.88
X39.42Y-67.42
X39.42Y-69.96
X39.42Y-72.5
X39.42Y-75.04
X39.42Y-77.58
X39.42Y-80.12
X40.5Y-35.12
X40.5Y-37.66
X40.5Y-40.2
X40.5Y-42.74
X40.5Y-45.28
X40.5Y-47.82
X40.5Y-50.36
X40.5Y-52.9
X40.5Y-55.44
X47.38Y-31.8
X47.38Y-34.1
X49.38Y-31.79
X52.26Y-31.8
X54.28Y-31.8
X54.28Y-34.1
X60.19Y-59.47
X60.19Y-82.33
X62.73Y-59.47
X62.73Y-82.33
X73.1Y-58.973
X73.1Y-70.53
X75.64Y-58.973
X75.64Y-70.53
X78.18Y-58.973
X78.18Y-70.53
X79.45Y-32.15
X79.45Y-34.69
X80.068Y-98.679
X80.068Y-101.219
X80.068Y-103.759
X80.068Y-106.299
X80.068Y-108.839
X80.068Y-111.379
X80.068Y-113.919
X80.068Y-116.459
X80.068Y-118.999
X80.068Y-121.539
X80.068Y-124.079
X80.068Y-126.619
X80.068Y-129.159
X80.068Y-131.699
X80.72Y-58.973
X80.72Y-70.53
X83.26Y-58.973
X83.26Y-70.53
X85.8Y-58.973
X85.8Y-70.53
X88.34Y-58.973
X88.34Y-70.53
X90.88Y-58.973
X90.88Y-70.53
X93.42Y-58.973
X93.42Y-70.53
X95.308Y-98.679
X95.308Y-101.219
X95.308Y-103.759
X95.308Y-106.299
X95.308Y-108.839
X95.308Y-111.379
X95.308Y-113.919
X95.308Y-116.459
X95.308Y-118.999
X95.308Y-121.539
X95.308Y-124.079
X95.308Y-126.619
X95.308Y-129.159
X95.308Y-131.699
X95.96Y-58.973
X95.96Y-70.53
X103.91Y-58.993
X103.91Y-70.55
X106.45Y-58.993
X106.45Y-70.55
X108.99Y-58.993
X108.99Y-70.55
X111.53Y-58.993
X111.53Y-70.55
X114.07Y-58.993
X114.07Y-70.55
X116.61Y-58.993
X116.61Y-70.55
X116.77Y-26.39
X119.15Y-58.993
X119.15Y-70.55
X119.31Y-26.39
X120.87Y-136.93
X121.69Y-58.993
X121.69Y-70.55
X121.85Y-26.39
X123.41Y-136.93
X124.23Y-58.993
X124.23Y-70.55
X124.39Y-26.39
X125.95Y-136.93
X126.77Y-58.993
X126.77Y-70.55
X126.93Y-26.39
X129.47Y-26.39
X132.04Y-136.95
X134.58Y-136.95
X135.45Y-31.24
X135.45Y-33.78
X135.45Y-36.32
X135.45Y-38.86
X135.45Y-41.4
X135.45Y-43.94
X135.45Y-46.48
X135.45Y-49.02
X135.45Y-51.56
X135.45Y-54.1
X135.45Y-56.64
X135.45Y-59.18
X135.45Y-61.72
X135.45Y-64.26
X135.45Y-66.8
X135.45Y-69.34
X135.45Y-71.88
X135.45Y-74.42
X135.45Y-76.96
X135.45Y-79.5
X135.45Y-82.04
X135.45Y-84.58
X135.45Y-87.12
X135.45Y-89.66
X137.12Y-136.95
X158.31Y-31.24
X158.31Y-33.78
X158.31Y-36.32
X158.31Y-38.86
X158.31Y-41.4
X158.31Y-43.94
X158.31Y-46.48
X158.31Y-49.02
X158.31Y-51.56
X158.31Y-54.1
X158.31Y-56.64
X158.31Y-59.18
X158.31Y-61.72
X158.31Y-64.26
X158.31Y-66.8
X158.31Y-69.34
X158.31Y-71.88
X158.31Y-74.42
X158.31Y-76.96
X158.31Y-79.5
X158.31Y-82.04
X158.31Y-84.58
X158.31Y-87.12
X158.31Y-89.66
T7
X44.25Y-187.25
X44.25Y-191.75
X50.75Y-187.25
X50.75Y-191.75
X56.95Y-187.25
X56.95Y-191.75
X63.45Y-187.25
X63.45Y-191.75
X69.65Y-187.25
X69.65Y-191.75
X76.15Y-187.25
X76.15Y-191.75
X82.35Y-187.25
X82.35Y-191.75
X88.85Y-187.25
X88.85Y-191.75
X95.05Y-187.25
X95.05Y-191.75
X101.55Y-187.25
X101.55Y-191.75
X107.75Y-187.25
X107.75Y-191.75
X114.25Y-187.25
X114.25Y-191.75
X120.45Y-187.25
X120.45Y-191.75
X126.95Y-187.25
X126.95Y-191.75
X133.15Y-187.25
X133.15Y-191.75
X139.65Y-187.25
X139.65Y-191.75
X150.65Y-187.25
X150.65Y-191.75
X157.15Y-187.25
X157.15Y-191.75
T8
X60.2Y-181.5
X62.735Y-181.497
X64.21Y-42.27
X64.21Y-47.27
X64.21Y-52.27
X65.28Y-181.5
X67.82Y-181.5
X70.36Y-181.5
X72.9Y-181.5
X75.44Y-181.5
X77.98Y-181.5
X80.52Y-181.5
X83.06Y-181.5
X85.6Y-181.5
X88.14Y-181.5
X90.68Y-181.5
X93.22Y-181.5
X95.755Y-181.497
X98.3Y-181.5
T4
G00X43.86Y-29.17
M15
G01X43.86Y-27.47
M16
G05
G00X51.71Y-27.1
M15
G01X50.01Y-27.1
M16
G05
G00X57.7Y-29.22
M15
G01X57.7Y-27.52
M16
G05
T6
G00X153.18Y-141.96
M15
G01X153.18Y-139.96
M16
G05
G00X157.18Y-136.26
M15
G01X155.18Y-136.26
M16
G05
G00X159.18Y-141.96
M15
G01X159.18Y-139.96
M16
G05
M30
